<svg id="Layer_1" data-name="Layer 1" 
xmlns="http://www.w3.org/2000/svg" 
viewBox="0 0 335.03 321.1">
  <defs>
    <style>
      .piggy-1{fill:#fbd9e0;}.piggy-2{fill:#dec4cc;}.piggy-3{fill:#dea9bf;}.piggy-4{fill:#ebcbd7;}.piggy-5{fill:#284268;}</style></defs><title>my-piggy</title><path class="piggy-1" d="M302.6,120.4H45.4c-.8,1.3-1.6,2.7-2.4,4.1A104,104,0,0,0,66.3,252.7a63.38,63.38,0,0,1,21.6,48V308a14.19,14.19,0,0,0,14.2,14.2h26A14.25,14.25,0,0,0,142.3,308a14.19,14.19,0,0,1,14.2-14.2h25.2A14.19,14.19,0,0,1,195.9,308a14.25,14.25,0,0,0,14.2,14.2h26A14.25,14.25,0,0,0,250.3,308a63.09,63.09,0,0,1,25.4-50.6,104.18,104.18,0,0,0,26.9-137Z" transform="translate(-6.43 -6.9)"/>
<path class="piggy-2" d="M118,307.8v-7.3a63.38,63.38,0,0,0-21.6-48A104,104,0,0,1,63.8,147.9a101.69,101.69,0,0,1,9.3-23.6,33.76,33.76,0,0,1,2.4-4.1h-30c-.8,1.3-1.6,2.7-2.4,4.1A104,104,0,0,0,66.4,252.5a63.38,63.38,0,0,1,21.6,48v7.3A14.19,14.19,0,0,0,102.2,322h26a13.55,13.55,0,0,0,2-.2A14,14,0,0,1,118,307.8Z" transform="translate(-6.43 -6.9)"/>
<path class="piggy-1" d="M310.6,80.5l-.8.8c-6.3,7.5-11.5,22.4-11.5,22.4a110.9,110.9,0,0,1,4.1,52.7c-8.6,53-55.3,91.5-109,91.5h-39c-53.7,0-100.4-38.5-109-91.5a110.9,110.9,0,0,1,4.1-52.7S44.4,88.8,38.1,81.3l-.8-.8A54.69,54.69,0,0,0,46,68.4L75.6,13.1l.3.2c7.4,11,15.4,32.6,15.4,32.6a138.47,138.47,0,0,1,164.6-.6s8.6-21.1,16.1-32l.3-.2,29.5,55.3A58.57,58.57,0,0,0,310.6,80.5Z" transform="translate(-6.43 -6.9)"/>
<path class="piggy-3" d="M221.8,156.7a67.54,67.54,0,0,0-95.4,0,13.33,13.33,0,0,0-2.6,15.4,12.72,12.72,0,0,0,4.4,4.8l13.6,8.8a59.53,59.53,0,0,0,64.6,0L220,177a12,12,0,0,0,4.4-4.8,13.45,13.45,0,0,0-2.6-15.5Z" transform="translate(-6.43 -6.9)"/>
<path class="piggy-3" d="M335.4,84.1c-1.2-12.2-2.9-28.9-3.8-38.7a9.3,9.3,0,0,0-9.1-8.4h-.3a56.23,56.23,0,0,1-33.3-12L272.2,12v.1l29.5,55.3a58.13,58.13,0,0,0,8.7,12.1,52.13,52.13,0,0,0,8.7,7.5l5.2,3.6a7,7,0,0,0,9.7-1.7,6.63,6.63,0,0,0,1.4-4.8Z" transform="translate(-6.43 -6.9)"/>
<path class="piggy-3" d="M75.7,12.1,46.1,67.4A56.47,56.47,0,0,1,28.7,87l-5.2,3.6a7,7,0,0,1-9.7-1.7,6.57,6.57,0,0,1-1.2-4.7c1.2-12.2,2.9-28.9,3.8-38.7a9.2,9.2,0,0,1,9-8.4h.3A56.23,56.23,0,0,0,59,25.1Z" transform="translate(-6.43 -6.9)"/>
<path class="piggy-4" d="M75.5,156.3a114.4,114.4,0,0,1,0-36v-.2A62,62,0,0,1,86.6,93.8l28.2-39.1a64.17,64.17,0,0,1,18.5-17.1,136,136,0,0,1,55.6-18.4c-5-.5-10-.8-15-.8A136.26,136.26,0,0,0,91.2,45.8S83.3,24.2,75.8,13.2l-.3-.2L45.9,68.3a58.13,58.13,0,0,1-8.7,12.1l.8.8c6.3,7.5,11.4,22.4,11.4,22.4a116.33,116.33,0,0,0-4.1,16.7,108.75,108.75,0,0,0,0,36c8.6,53,55.3,91.5,109,91.5h30c-53.5.1-100.2-38.4-108.8-91.5Z" transform="translate(-6.43 -6.9)"/>
<path class="piggy-5" d="M341.4,84.5c-1-9.8-2.8-28-3.8-38.7A15.25,15.25,0,0,0,322.7,32h-.4a50.12,50.12,0,0,1-29.7-10.7l-16.7-13a6.16,6.16,0,0,0-7.6.1,9.27,9.27,0,0,0-1.4,1.4c-5,7.4-10.4,18.9-13.7,26.2A144.76,144.76,0,0,0,94,36.3c-3.1-7.5-8.3-19.1-13.3-26.5a4.71,4.71,0,0,0-1.3-1.5,6,6,0,0,0-7.6-.1l-16.6,13A50.12,50.12,0,0,1,25.5,31.9h-.4A15.31,15.31,0,0,0,10.3,45.7L6.5,84.4a12.9,12.9,0,0,0,6.3,12.5,13,13,0,0,0,14-.5L32,92.8c1.5-1.1,3-2.2,4.4-3.4a109,109,0,0,1,6.7,14.3,131.67,131.67,0,0,0-3.4,14.1c-.8,1.3-1.5,2.5-2.1,3.7a108.39,108.39,0,0,0-9.8,24.9,110.88,110.88,0,0,0-3.5,27.5,109.68,109.68,0,0,0,38,83.1,57.44,57.44,0,0,1,19.5,43.5v7.3A20.27,20.27,0,0,0,102,328h26a20.14,20.14,0,0,0,20.2-20.2,8.24,8.24,0,0,1,8.2-8.2h25.2a8.43,8.43,0,0,1,5.8,2.4,8,8,0,0,1,2.4,5.8A20.27,20.27,0,0,0,210,328h26a20.14,20.14,0,0,0,20.2-20.2,57.55,57.55,0,0,1,23-45.8,105.88,105.88,0,0,0,11.9-10.3,109.86,109.86,0,0,0,16.8-133.8,111.4,111.4,0,0,0-3.4-14.1,109,109,0,0,1,6.7-14.3c1.4,1.2,2.9,2.3,4.4,3.4l5.2,3.6a12.46,12.46,0,0,0,7.4,2.3,13.11,13.11,0,0,0,6.6-1.8,12.63,12.63,0,0,0,6.6-12.5ZM76,25.3a198,198,0,0,1,8,18.2,9.84,9.84,0,0,0,14.8,4.4,131.65,131.65,0,0,1,75.3-23.4c26.9,0,53.3,8.1,74.7,23a9.59,9.59,0,0,0,8.2,1.4h.1a9.79,9.79,0,0,0,6.4-5.5c1.9-4.4,5.2-11.6,8.6-18.2l24.6,46a73.73,73.73,0,0,0,6.2,9.5c-5.7,8.5-9.9,20.4-10.1,21a6.17,6.17,0,0,0,0,3.8,107.21,107.21,0,0,1,3.9,15.8,104.52,104.52,0,0,1,0,34.1,102,102,0,0,1-35.5,62,105.55,105.55,0,0,1-67.6,24.5h-39A105.55,105.55,0,0,1,87,217.4a102.26,102.26,0,0,1-35.5-62,107.32,107.32,0,0,1-1.4-17,108.57,108.57,0,0,1,1.4-17.1,110.41,110.41,0,0,1,3.9-15.8,6.17,6.17,0,0,0,0-3.8c-.2-.6-4.4-12.5-10.1-21a53.45,53.45,0,0,0,6.2-9.5ZM40.8,65.6A48.7,48.7,0,0,1,33,76.4a55.19,55.19,0,0,1-7.8,6.7l-4.4,3.1a1.62,1.62,0,0,1-1.5.1,1.51,1.51,0,0,1-.7-1.4l3.7-37.8a3.42,3.42,0,0,1,3.2-3h.4a62.46,62.46,0,0,0,31.5-9.5Zm267.6,91.7c.3-1.6.5-3.2.7-4.8a97.72,97.72,0,0,1-26.3,90.7,93.23,93.23,0,0,1-10.6,9.2,69.62,69.62,0,0,0-27.8,55.4,8.25,8.25,0,0,1-2.4,5.8,8,8,0,0,1-5.8,2.4h-26a8.24,8.24,0,0,1-8.2-8.2,20.14,20.14,0,0,0-20.2-20.2H156.6a20.27,20.27,0,0,0-20.2,20.2,8.25,8.25,0,0,1-2.4,5.8,8,8,0,0,1-5.8,2.4h-26a8.24,8.24,0,0,1-8.2-8.2v-7.3A69,69,0,0,0,70.3,248a98,98,0,0,1-31.4-95.6c.2,1.7.4,3.3.7,5a114.34,114.34,0,0,0,39.7,69.3A117.7,117.7,0,0,0,154.6,254h39a117.7,117.7,0,0,0,75.3-27.3,114.58,114.58,0,0,0,39.5-69.4Zm20.3-71.1a1.2,1.2,0,0,1-1.5-.1L322.8,83a48.76,48.76,0,0,1-7.7-6.6,51.13,51.13,0,0,1-7.8-10.8L290.7,34.5A62.16,62.16,0,0,0,322.2,44h.4a3.34,3.34,0,0,1,3.2,3c1,10.4,2.7,27.8,3.7,37.8a2.19,2.19,0,0,1-.8,1.4Z" transform="translate(-6.43 -6.9)"/>
<path class="piggy-5" d="M159.1,177.1a6,6,0,0,0,6-6v-7.2a6,6,0,0,0-12,0v7.2A6,6,0,0,0,159.1,177.1Z" transform="translate(-6.43 -6.9)"/>
<path class="piggy-5" d="M188.9,177.1a6,6,0,0,0,6-6v-7.2a6,6,0,0,0-12,0v7.2A6,6,0,0,0,188.9,177.1Z" transform="translate(-6.43 -6.9)"/>
<path class="piggy-5" d="M116.3,167.3a19,19,0,0,0,3.6,11.3,15.61,15.61,0,0,0,4,3.7l14.5,9.6a67.11,67.11,0,0,0,17,7.8,65.54,65.54,0,0,0,54.2-7.8l14.5-9.6a15.61,15.61,0,0,0,4-3.7,19.72,19.72,0,0,0,3.6-11.3,19.36,19.36,0,0,0-5.7-13.8,73.63,73.63,0,0,0-104,0A19.79,19.79,0,0,0,116.3,167.3Zm14.2-5.3a61.56,61.56,0,0,1,87,0,7.49,7.49,0,0,1,2.2,5.3v.1a6.8,6.8,0,0,1-3.3,5.8l-13.3,8.6a53.54,53.54,0,0,1-29.1,8.6,52.74,52.74,0,0,1-15.2-2.2,51.55,51.55,0,0,1-13.9-6.4l-13.3-8.6a7.07,7.07,0,0,1-3.3-5.8v-.1a7.49,7.49,0,0,1,2.2-5.3Z" transform="translate(-6.43 -6.9)"/>
<path class="piggy-5" d="M108.3,121a21.47,21.47,0,0,0,21.5-21.5,6,6,0,0,0-12,0,9.5,9.5,0,0,1-19,0,6,6,0,0,0-12,0A21.6,21.6,0,0,0,108.3,121Z" transform="translate(-6.43 -6.9)"/>
<path class="piggy-5" d="M239.7,121a21.47,21.47,0,0,0,21.5-21.5,6,6,0,0,0-12,0,9.5,9.5,0,0,1-19,0,6,6,0,0,0-12,0A21.53,21.53,0,0,0,239.7,121Z" transform="translate(-6.43 -6.9)"/>
</svg>