<svg xmlns="http://www.w3.org/2000/svg" viewBox="0 0 102.05 99.78"><defs><style>.cls-1{fill:#aa541a;}.cls-2{fill:#ce5b0d;}.cls-3{fill:#ffe2a9;}.cls-4{fill:#7f3c0e;}.cls-5{fill:#bf3600;}.cls-6{fill:#7f0808;}.cls-7{fill:#ea6400;}.cls-8{fill:#ddd4b1;}.cls-9{fill:#ce4217;}.cls-10{fill:#ad2d00;}.cls-11{fill:#aa862d;}.cls-12{fill:#f29b00;}.cls-13{fill:#e54d0a;}.cls-14{fill:#c4160e;}.cls-15{fill:#ff7300;}.cls-16{fill:#ffb448;}.cls-17{fill:#af500e;}.cls-18{fill:#8c3d07;}.cls-19{fill:#c9843a;}.cls-20{fill:#f2b58c;}.cls-21{fill:#e55c2c;}.cls-22{fill:#e29a60;}.cls-23{fill:#f2c7aa;}.cls-24{fill:#992c2c;}.cls-25{fill:#722;}.cls-26{fill:#ed7c58;}.cls-27{fill:#896316;}.cls-28{fill:#bc9939;}.cls-29{fill:#ffa188;}.cls-30{fill:#724f16;}.cls-31{fill:#b72d08;}.cls-32{fill:#93210a;}.cls-33{fill:#6b1507;}</style></defs><title>Asset 2island</title><g id="Layer_2" data-name="Layer 2"><g id="Layer_4" data-name="Layer 4"><path class="cls-1" d="M25.84,47.47s-1,35.46,1.75,35.06,6.75-5.07,7-5.68,2.25-11.55,2-15.39,2-17.43,2-17.43S26.59,47.47,25.84,47.47Z"/><path class="cls-2" d="M13.59,43.63l12.25,3.84,1.75,35.06s-5.75-3-7.5-3.85-5-24.72-5.75-25.53S13.59,43.63,13.59,43.63Z"/><path class="cls-3" d="M20.92,77.68c-1.75-.81-5-24.72-5.75-25.53-.58-.63-.71-6-.74-8.37l-1-.32s0,8.71.75,9.52,4,24.72,5.75,25.53,7.5,3.85,7.5,3.85A78.18,78.18,0,0,0,20.92,77.68Z"/><path class="cls-1" d="M35.59,52.22s-1,35.46,1.75,35.06,6.75-5.07,7-5.68,2.25-11.55,2-15.39,2-17.43,2-17.43S36.34,52.22,35.59,52.22Z"/><path class="cls-2" d="M23.34,48.38l12.25,3.84,1.75,35.06s-5.75-3-7.5-3.85-5-24.72-5.75-25.53S23.34,48.38,23.34,48.38Z"/><path class="cls-3" d="M30.34,82.84c-1.75-.81-5-24.71-5.75-25.53s-.73-6.83-.75-8.86l-.5-.16s0,8.71.75,9.52,4,24.72,5.75,25.53,7.5,3.85,7.5,3.85S31.76,83.5,30.34,82.84Z"/><path class="cls-1" d="M72.59,47.22s-2.25,41.71.5,41.31,8-11.32,8.25-11.93,2.25-11.55,2-15.39,2-17.43,2-17.43S73.34,47.22,72.59,47.22Z"/><path class="cls-4" d="M85.34,43.91l-2.73.77c-.56,3.57-2,12.93-1.77,16,.25,3.84-1.06,14.41-1.13,15.07-.62,5.54-7,12.92-6.62,12.87,2.75-.4,8-11.31,8.25-11.92s2.25-11.55,2-15.4S85.34,43.91,85.34,43.91Z"/><path class="cls-2" d="M60.34,43.38l12.25,3.84.5,41.31s-15-5.69-16.75-6.5,5.5-28.32,4.75-29.13S60.34,43.38,60.34,43.38Z"/><path class="cls-3" d="M72.71,47.22,71.21,87s-10.59-4-15-5.78c0,.43.11.71.26.78,1.75.81,16.75,6.5,16.75,6.5Z"/><path class="cls-5" d="M83.34,47.53s-2.92,29.83-.17,29.33S91.59,66.78,91.84,66s4.5-2,4.25-6.75,5.76-21.05,5.76-21.05S84.09,47.53,83.34,47.53Z"/><path class="cls-6" d="M101.73,38.11,98.47,39.8c-1.7,4.88-4.94,14.71-4.76,18.23.25,4.75-4.14,6-4.25,6.75-.87,6.5-6.86,12-6.42,12,2.75-.5,8.42-10.08,8.67-10.83s4.5-2,4.25-6.75S101.73,38.11,101.73,38.11Z"/><path class="cls-7" d="M71.09,42.78l12.25,4.75-.17,29.33a37.81,37.81,0,0,0-5.08-4.33c-1.75-1-5.5-17-6.25-18S71.09,42.78,71.09,42.78Z"/><polygon class="cls-3" points="82.09 47.04 83.17 76.86 83.34 47.53 82.09 47.04"/><path class="cls-4" d="M75.46,53.4c.24-1,1.65-14.36,1.63-17.12L71,42.78s0,10.75.75,11.75,4.5,17,6.25,18A37.81,37.81,0,0,1,83,76.86S72.21,66.65,75.46,53.4Z"/><path class="cls-5" d="M12.35,39.28s-2.51,32,.24,31.5,10.5-6.25,10.75-7,0-2.5-.25-7.25,2-21.5,2-21.5S13.1,39.28,12.35,39.28Z"/><path class="cls-6" d="M25.1,34.91s-3.38-.62-5.14,0c3.13,6.5-2.06,17.35-1.75,21,1,11.88-6.06,14.83-5.62,14.75,2.75-.5,10.5-6.25,10.75-7s0-2.49-.25-7.24S25.1,34.91,25.1,34.91Z"/><path class="cls-7" d="M.1,34.52l12.25,4.76.24,31.5S6.84,67,5.09,66,5.59,49.53.84,46.27C-.19,45.56.1,34.52.1,34.52Z"/><polygon class="cls-3" points="12.35 39.15 11.35 38.76 12.59 70.65 12.35 39.15"/><path class="cls-3" d="M5.9,65.58c-1.75-1,.5-16.49-4.24-19.75-.88-.6-.81-8.59-.76-11L0,34.46s-.29,11,.74,11.75C5.52,49.46,3.28,65,5,66s7.49,4.75,7.49,4.75S7.23,66.34,5.9,65.58Z"/><path class="cls-5" d="M28.2,48.35s-.56,26,1,25.68S33,70.32,33.1,69.87a81.47,81.47,0,0,0,1.12-11.28c-.14-2.82,1.12-12.77,1.12-12.77S28.62,48.35,28.2,48.35Z"/><path class="cls-6" d="M35.71,46l-2.3.85c-.35,2.88-.79,9.15-.94,11.29-1,14.19-3.16,16.11-2.92,16.06,1.54-.29,3.78-3.71,3.92-4.15a81.64,81.64,0,0,0,1.12-11.28C34.45,55.89,35.71,46,35.71,46Z"/><path class="cls-7" d="M21.34,45.53l6.86,2.82,1,25.68s-5.86-4.41-6.84-5,.25-11-2.75-14.25C19.09,54.24,21.34,45.53,21.34,45.53Z"/><polygon class="cls-8" points="27.57 48.47 29.3 74.03 28.32 48.35 27.57 48.47"/><path class="cls-3" d="M23,68.46c-1-.59.25-11-2.75-14.25-.4-.44,1-6.39,1.56-8.5l-.43-.18s-2.25,8.71-1.75,9.25c3,3.25,1.77,13.65,2.75,14.25s6.84,5,6.84,5S23.74,68.93,23,68.46Z"/><path class="cls-1" d="M47.09,55.72s.25,44.46,3,44.06,16.5-8.5,18.5-11.75c.34-.56,2.25-17.15,2-21S59.84,52.28,59.84,52.28,47.84,55.72,47.09,55.72Z"/><path class="cls-4" d="M70.59,67c-.09-1.4-1.54-3.73-3.34-6.12a3.2,3.2,0,0,1,.09.49c.25,3.85-1.89,20.35-2,21C64,90.15,49.43,99.87,50.09,99.78c2.75-.41,16.5-8.5,18.5-11.75C68.93,87.47,70.84,70.88,70.59,67Z"/><path class="cls-2" d="M34.84,51.88l12.25,3.84,3,44.06s-7.48-6.34-9.25-7.1c-5-2.15.75-8.65-5.25-31.28C35.3,60.33,34.84,51.88,34.84,51.88Z"/><path class="cls-3" d="M45,55.47l4.88,44.31-3-44.06L34.59,51.88s0,.12,0,.34Z"/><path class="cls-3" d="M39.71,89.28c-2.75-6.88-3-34.47-3.18-36.87l-1.69-.53s.46,8.45.75,9.52c6,22.63.25,29.13,5.25,31.28,1.77.76,9.25,7.1,9.25,7.1S47,96.15,46.46,95.65C45.6,94.79,40.14,90.35,39.71,89.28Z"/><path class="cls-5" d="M40.15,39.65s-2.5,44.5.25,44,9-7,9.25-7.75-1.25-12.25-.75-21c.27-4.75,2.5-18.75,2.5-18.75S40.9,39.65,40.15,39.65Z"/><path class="cls-6" d="M49.15,54.82c.27-4.75,2.5-18.75,2.5-18.75L50,36.63c-.55,3.51-3.87,14.48-6,20.06-3.06,8.21,2.34,17.67,2.09,18.42s-5.7,8.51-5.44,8.46c2.75-.5,9-7,9.25-7.75S48.65,63.57,49.15,54.82Z"/><path class="cls-7" d="M33.09,39.78l4.06-.38L40,61.28l.44,22.37S33.64,80,32.9,78.9s-.31-13.94.62-18.62C33.77,59.05,33.09,39.78,33.09,39.78Z"/><polygon class="cls-3" points="38.46 61.03 40.27 83.4 39.84 61.03 37.02 39.15 35.66 39.28 38.46 61.03"/><path class="cls-3" d="M33.73,78.82c-.69-1-.31-13.94.63-18.63.24-1.22-.44-20.5-.44-20.5l3.15-.29h0L33,39.78s.69,19.27.44,20.5C32.5,65,32.13,77.9,32.82,78.9s7.5,4.75,7.5,4.75S34.31,79.65,33.73,78.82Z"/><path class="cls-5" d="M59.09,51.88s-1,35.45,1.75,35.05,7.08-5,7-5.68c-1-8,5.25-12.62,5-16.47s1.87-19,1.87-19S59.84,51.88,59.09,51.88Z"/><path class="cls-6" d="M74.71,45.68l-2.21.9c-.53,4-1.86,14.31-1.66,17.4.25,3.85-5.64,8.47-5,16.48.16,2.11-5.3,6.39-5,6.34,2.75-.4,7.08-5,7-5.67-1-8,5.25-12.63,5-16.48S74.71,45.68,74.71,45.68Z"/><path class="cls-7" d="M46.84,48l15,2.25,3.5,15.5a73.15,73.15,0,0,0-4.5,21.15c-.05,1-11.19-6.75-11.5-8.65-2-12.06-4.75-12.75-1.75-20.73C48,56.52,46.84,48,46.84,48Z"/><path class="cls-3" d="M61.84,50.28,46.84,48s0,.2.06.52l13.19,2L63.59,66s-2.76,21.14-2.75,20.9a73.15,73.15,0,0,1,4.5-21.15Z"/><path class="cls-3" d="M50.09,76.4c-2-12.05-4.75-12.75-1.75-20.73.26-.7-.19-4.91-.5-7.49l-1-.15s1.13,8.49.75,9.52c-3,8-.25,8.67,1.75,20.73.31,1.9,11.45,9.63,11.5,8.65C60.86,86.28,50.36,78,50.09,76.4Z"/><path class="cls-7" d="M32.58,44.72s.54,19.45-1,19.23-3.88-2.76-3.83-3.12c.54-4.37-2.88-6.92-2.75-9s-1-10.41-1-10.41S32.16,44.72,32.58,44.72Z"/><path class="cls-3" d="M24,41.32l1.22.5a86.74,86.74,0,0,1,.91,9.54c-.14,2.11,3.09,4.64,2.74,9-.09,1.15,2.91,3.5,2.74,3.48-1.5-.23-3.88-2.76-3.83-3.11.54-4.38-2.88-6.93-2.75-9S24,41.32,24,41.32Z"/><path class="cls-5" d="M39.29,42.61l-8.22,1.23-1.92,8.51A40.06,40.06,0,0,1,31.61,64c0,.53,6.14-3.71,6.31-4.75,1.1-6.61,2.61-7,1-11.37C38.67,47.27,39.29,42.61,39.29,42.61Z"/><path class="cls-3" d="M31.07,43.84l8.22-1.23,0,.29L32,44l-1.92,8.5s1.51,11.6,1.5,11.47a40.06,40.06,0,0,0-2.46-11.6Z"/><path class="cls-6" d="M37.51,58.17c1.1-6.61,2.61-7,1-11.37a21.73,21.73,0,0,1,.27-4.11l.55-.08s-.62,4.66-.41,5.22c1.65,4.38.14,4.76-1,11.37-.17,1-6.28,5.28-6.31,4.75C31.6,63.59,37.36,59.07,37.51,58.17Z"/><path class="cls-5" d="M73.86,42.51s-.56,26,1,25.69,3.78-3.72,3.92-4.16a81.64,81.64,0,0,0,1.12-11.28C79.74,49.94,81,40,81,40S74.28,42.51,73.86,42.51Z"/><path class="cls-6" d="M81.38,40.12,79.07,41c-.34,2.88-.79,9.14-.94,11.29-1,14.18-3.16,16.11-2.91,16.06,1.54-.3,3.78-3.71,3.92-4.16a81.47,81.47,0,0,0,1.12-11.28C80.12,50.06,81.38,40.12,81.38,40.12Z"/><path class="cls-7" d="M67,39.69l6.86,2.82,1,25.69S69,63.79,68,63.19s.25-11-2.75-14.25C64.76,48.41,67,39.69,67,39.69Z"/><polygon class="cls-3" points="73.24 42.64 74.97 68.2 73.99 42.51 73.24 42.64"/><path class="cls-3" d="M68.63,62.63c-1-.59.25-11-2.75-14.25-.41-.44,1-6.4,1.56-8.51L67,39.69s-2.24,8.72-1.75,9.25C68.25,52.19,67,62.6,68,63.19s6.84,5,6.84,5S69.4,63.1,68.63,62.63Z"/><path class="cls-9" d="M21.51,45.26l0,0,.05,0,0,0,0,0,0,0,0,.06,0,0a.14.14,0,0,0,0,.06v0s0,0,0,.07v0a.31.31,0,0,1,0,.1V44a.06.06,0,0,0,0,0,.13.13,0,0,0,0-.06s0,0,0,0a.14.14,0,0,0,0-.06l0,0,0,0,0,0,0,0,0,0s0,0-.05,0l0,0-.06,0,0,0,0,0-.09,0h0a.05.05,0,0,0,0,0l0,0,0,0h0l0,0H21s0,0,0,0h-8.2l-.57,0h0l-.26,0h0c-.18,0-.34,0-.49-.06h0l-.22,0h0a2.88,2.88,0,0,1-.71-.2l-.61-.29-.09,0-.51-.24h0l-.08,0-.43-.19-.15-.08-.37-.16-.47-.21-.14-.07-.33-.15-.17-.08-.57-.25-.13-.07-.52-.24,0,0-.63-.3-.1,0-.47-.24-.1,0-.33-.17-.12-.07-.34-.19-.06,0-.43-.26-.37-.24h0l-.36-.25-.1-.08-.22-.17L2.1,38l-.19-.16a1.14,1.14,0,0,0-.11-.11l-.16-.16-.11-.12-.15-.16-.1-.12L1.16,37a.64.64,0,0,1-.1-.13A1.63,1.63,0,0,0,1,36.74L.87,36.6l-.09-.17L.7,36.28c0-.06,0-.12-.08-.19l-.06-.15c0-.06,0-.13-.07-.2a.88.88,0,0,0,0-.15c0-.07,0-.14,0-.22s0-.1,0-.16,0-.15,0-.23a1,1,0,0,1,0-.16l0-.28a.61.61,0,0,1,0-.14c0-.14,0-.28,0-.43v1.79c0,.15,0,.29,0,.44s0,.09,0,.14l0,.27,0,.16a1.57,1.57,0,0,0,0,.23l0,.16.06.22a1.42,1.42,0,0,0,0,.16,1.46,1.46,0,0,0,.07.19.94.94,0,0,0,.06.15,1.08,1.08,0,0,0,.08.19l.07.15.09.17.09.14a1.63,1.63,0,0,0,.11.17l.09.13.13.17.1.12.14.16.11.12.16.15.12.12.18.15.12.11.22.17.11.08.35.25,0,0a3.28,3.28,0,0,0,.31.2h0c.13.09.28.17.43.26h0l.36.2,0,0,.08,0,.31.16.08,0,0,0,.47.24,0,0,0,0,.64.31h0l.05,0,.5.23.15.07.55.25h0l.24.11.22.1.28.13.33.15.36.16.24.11.28.13.26.12.35.16.22.1.59.27h8l.63,0h0l.29,0h0l.29,0h0l.28,0,.21,0h0l.19,0h0l.17.05h0l.16,0h0l.14,0h0l.13,0h0l.12,0h0l.11.06.1.07.05,0Z"/><path class="cls-10" d="M102.05,34.14v.46c0,.11,0,.22,0,.33v0c0,.12,0,.23,0,.34v0c0,.11,0,.22,0,.34v0c0,.12,0,.23,0,.34h0c0,.12,0,.23,0,.34v0c0,.11,0,.22-.07.33h0l-.09.32v0a4.57,4.57,0,0,1-.22.62h0a4.6,4.6,0,0,1-.29.59h0a2.61,2.61,0,0,1-.17.28h0a2.75,2.75,0,0,1-.19.28h0a2.47,2.47,0,0,1-.21.27h0l-.22.27h0c-.07.09-.16.17-.24.26h0l-.27.27h0l-.29.26h0l-.29.25,0,0a3.55,3.55,0,0,1-.31.23.08.08,0,0,1,0,0l-.32.23-.07,0-.32.22,0,0-.38.24-.45.26,0,0,0,0-.39.22-.16.08-.34.18-.12.07-.47.24-.06,0-.46.22-.14.07-.53.25,0,0-.52.23-.16.08-.59.26-.82.35,0,0-.75.28-.14,0q-.34.14-.69.24l-.13.05L90,45l-.08,0c-.24.08-.48.14-.72.21h0c-.49.12-1,.23-1.42.32h0l-.68.12h0l-.66.09h0l-.63.07h0l-.62,0h0L84,46h-.57l-.55,0h0l-.53,0h0l-.5,0h0l-.48,0h0l-.46,0h0l-.54-.07-.51-.06-.36,0h-.06l-.27,0h-.2l-.2,0H75.43l-.17,0-.19.05h0l-.23.07-.09,0-.06,0-.08,0-.22.07h0l0,0-.22.08h0l-.38.15h0l-.35.15,0,0-.08,0-.26.12-.12.06-.29.15,0,0h0L72,47l0,0-.06,0-.21.12-.07.05h0l0,0-.22.14-.07,0h0l-.18.12-.08.06h0l-.19.13-.08.06h0a2.48,2.48,0,0,0-.26.19h0l-.25.2h0l-.06.05-.19.14s0,0,0,0h0l-.06,0-.22.18-.05,0h0l-.35.3,0,0s0,0,0,0l-.6.52h0l0,0-.31.28-.55.47a.1.1,0,0,1,0,0l-.47.41,0,0-.33.27-.09.07-.17.14-.08.07-.19.14-.08.06-.11.09-.13.09-.08.06-.15.11-.08,0-.15.11a.41.41,0,0,0-.11.07l-.13.09-.14.08-.12.07-.15.1-.1.06-.36.19-.07,0-.63.3h0l-.54.22h0l-.34.12-.27.08h0l-.3.08h0l-.3.07h0l-.32.07h0l-.34.05h0l-.34,0h0q-.34,0-.72.06H58.9l-.84-.07h0l-.43-.05h0l-.45-.06h0l-.47-.08H56.6l-.11,0-.11,0-.11,0h-.11l-.1,0h-.22l-.11,0h-.22l-.11,0H50.63l-.22,0H50l-.27,0h-.11l-.19,0-.3,0h-.32l-.47.05H48.2l-.36,0h-.09l-.85.09h0l-.28,0-.58.07-.71.08-.2,0H45l-.47,0h-.06l-.54,0h-.06l-.56,0h0l-.57,0h0l-.56,0H41l-.52,0h0L40,54h0L39.49,54h0l-.48-.1h0l-.46-.13h0a4,4,0,0,1-.45-.15h0a3.79,3.79,0,0,1-.42-.18h0a3.17,3.17,0,0,1-.41-.21L37,53l-.14-.09-.19-.15-.13-.09-.2-.18-.11-.1-.29-.29L35.78,52l-.06-.05-.11-.09-.06-.05-.11-.08-.08,0,0,0-.11-.07h0l-.08-.05-.09,0-.08,0-.08,0-.07,0-.07,0,0,0h0l-.07,0-.07,0-.06,0h0l-.07,0-.07,0-.07,0-.07,0-.07,0H34L34,51h0l-.07,0-.07,0-.08,0-.08,0-.08,0-.09,0-.08,0h0l-.09,0-.09,0-.1,0H33l-.1,0-.12,0-.11,0-.13,0-.13,0-.11,0h0l-.15,0-.17,0H31.9l-.12,0-.22,0h-.08l-.17,0-.13,0-.11,0H31l-.16,0-.23,0h-.13l-1-.16L29,50.06l-.17,0-.66-.11h-.07l-.38-.07h0l-.82-.16h0l-.39-.09h0l-.38-.09h0l-.37-.1h0l-.38-.1h0l-.74-.24h0l-.35-.13h0l-.33-.14h0l-.32-.15h0l-.31-.17L23,48.29l-.13-.08-.15-.1L22.58,48l-.14-.12-.11-.09-.13-.12a.47.47,0,0,1-.1-.1L22,47.46l-.09-.1-.11-.15-.08-.1a1.74,1.74,0,0,1-.11-.18l-.06-.09a2.44,2.44,0,0,1-.14-.28,1.22,1.22,0,0,1-.11-.52v1.79a1.2,1.2,0,0,0,.1.52l.15.28s0,.06,0,.09l.12.18a.61.61,0,0,0,.07.1l.11.15.09.1a1.59,1.59,0,0,0,.13.13l.09.1.13.12a.52.52,0,0,1,.11.1l.14.11.12.09.15.1.12.08.06,0,.18.11h0l.14.08.13.07,0,0h0l.07,0h0l.12.06.1,0h0l.07,0,.1,0,.1,0,.05,0h.05l.1,0,.1,0,.09,0h0l.06,0,.1,0,.1,0,.1,0h0l.1,0,.1,0a.38.38,0,0,1,.1,0l.08,0h0l.1,0,.11,0,.11,0h.05l.07,0,.11,0,.12,0,.08,0h.05l.13,0,.13,0,.09,0h.05l.14,0,.15,0h.11l.05,0,.17,0,.17,0h0l.19,0,.21,0h0l.23,0,.13,0h.15l.26.05.52.08h0l.39.06,1,.16.13,0,.24,0,.22,0,.09,0,.31.05h.06l.37.06h0l.37.07h0l.36.08h0l.36.08h0l.68.18h0l.32.1h0l.31.11h0l.29.12h0l.27.12h0l.25.14.16.1.08,0,.11.08.07.05.11.09s0,0,.05.05l.14.15.3.3.1.09.21.18.12.09.2.15.14.09.11.08.15.09h0l.08,0,.09.05.09,0,.08,0,.06,0h0l.09,0,.09,0,.08,0,.05,0,.06,0h.05l.06,0,.05,0,.06,0,0,0,.06,0h.06l.05,0h.06l.06,0h.1l0,0h.15l.05,0h4.44l.17,0h.33l.15,0,.29,0h.3l.27,0,.22,0h.13l.76-.08h.09l.57-.06.22,0,.83-.09,1.19-.12H49l.61-.06h0l.65-.05h0l.67,0h0l.68,0h0l.69,0h.72l.69,0h0l.7,0h0l.71.07h0q.36,0,.72.09h0l.72.11.09,0h.1l.09,0,.1,0h.1l.1,0h.18l.1,0h4l.07,0h.25l.12,0,.12,0h0l.08,0,.12,0,.1,0h0l.11,0,.12,0h0l.34-.12h0l.55-.22h0c.22-.09.43-.19.64-.3h0l0,0,.37-.2h0l.07,0,.18-.11h0l.08,0,.16-.1h0L65.3,54l.14-.09h0l.09-.07.13-.09h0l.1-.07.12-.09h0l.08-.06.15-.11h0l.06,0,.19-.15,0,0,.06,0,.17-.14,0,0,0,0,.33-.28,0,0,0,0,.46-.39,0,0,0,0,.52-.46.35-.3,0,0,.59-.52.06,0,.35-.3.06,0,.24-.19.08-.06.18-.14.1-.08.23-.17,0,0,.25-.18.11-.07.16-.12.11-.07.16-.11.09-.05.21-.14.11-.06.21-.13.1-.06.41-.22.07,0,.29-.15.11-.06.27-.12.11,0,.35-.15h0l.39-.15.24-.08.07,0,.3-.1.08,0L75,47.5h0a3.37,3.37,0,0,1,.34-.09l.36-.08h0l.36,0h0l.37,0h.39c.25,0,.51,0,.78,0h0l.4,0h0l.41,0h0l.41,0h0l.38,0,.39,0,.31,0,.26,0,.44,0h0l.18,0,.23,0h.23l.17,0h.31l.15,0h4.14l.13,0h.13l.12,0h.13l.13,0,.13,0,.13,0,.16,0h0l.16,0,.16,0,.17,0h0l.12,0,.17,0,.18,0,.23-.06.24,0,.24-.06.24-.06h0l.28-.08.4-.11h.05l.07,0,.28-.08.36-.11.13-.05h0l.64-.23.13-.05.15,0,.17-.06.41-.17h.06l.37-.15.42-.18,0,0,.6-.27.14-.06.55-.25h0l.55-.26.12-.06.47-.23,0,0a5.39,5.39,0,0,0,.48-.25l.12,0,.14-.08.2-.11.15-.08.4-.23,0,0h0l0,0,.43-.26,0,0,.34-.21h0l.29-.19.07-.05.06,0,.09-.06.21-.15,0,0,0,0,.12-.09.14-.12,0,0,0,0,.07-.06.14-.11.09-.08h0l.1-.09.1-.09.07-.07h0a.76.76,0,0,1,.09-.09l.09-.09.07-.08.08-.07.07-.08.07-.08,0,0h0l0,0,.06-.08.06-.07,0-.07,0,0h0l0,0a.18.18,0,0,0,0-.07l.06-.07,0-.07v0h0l0,0,.05-.06,0-.07,0-.07,0,0h0v0l0-.07,0-.07,0-.07,0,0h0v0a.16.16,0,0,0,0-.07.43.43,0,0,0,0-.07l0-.07a.16.16,0,0,0,0-.07h0l0-.07a.3.3,0,0,0,0-.08l0-.07,0-.08a.3.3,0,0,1,0-.08l0-.07,0-.08,0-.09s0-.06,0-.08h0l0-.09,0-.09s0,0,0,0h0v0a.29.29,0,0,1,0-.09l0-.1a.36.36,0,0,0,0-.1h0a.36.36,0,0,1,0-.1s0-.06,0-.1a.43.43,0,0,0,0-.11v0h0s0-.06,0-.09a.69.69,0,0,1,0-.13s0-.08,0-.12,0-.09,0-.13a.59.59,0,0,1,0-.14v-.08a0,0,0,0,0,0,0v0a1,1,0,0,0,0-.17s0-.08,0-.13h0v0c0-.06,0-.13,0-.2a.71.71,0,0,1,0-.14v-.07c0-.07,0-.14,0-.21V34.14Z"/><path class="cls-7" d="M88.94,22.74c1.72,1,3.29,2,4.83,3.07,3.88,2.62,8.26,5,8.28,8.16,0,4.57-1.37,6.6-8.84,9.88-9.2,4-14,.81-17.78,1.76-8.15,2-8.59,9.82-18.74,8-7.71-1.37-15.13,2-19.44-.45a5.59,5.59,0,0,1-1.33-1.07,3,3,0,0,0-.72-.57c-1.31-.75-3.49-1.05-5.75-1.4a19.06,19.06,0,0,1-6.24-1.69,4.23,4.23,0,0,1-1.82-1.88c-.55-1.19,1.19-2.5-.09-3.24a3.75,3.75,0,0,0-1.25-.39c-3.06-.52-8.07.13-9.56-.56C7.64,41,5.37,40.1,3.7,39.14,1.41,37.82.24,36.45.23,34,.2,29.7,3.47,23.84,16.31,23.1c6.25-.36,8.68-5.92,16.77-7.17,6.1-.94,13.69-3,20.74-3C62.57,13,68,16.24,75.2,17.65A43.11,43.11,0,0,1,88.94,22.74Z"/><path class="cls-11" d="M41.05.43s0,1.26.06,2,.35.82.37.74.33-2.38.33-2.38Z"/><path class="cls-12" d="M41.2.51A5,5,0,0,0,41,1.69a9.44,9.44,0,0,1-.28,3.18c0,.23-.28,1.5-.29,1.82a6.82,6.82,0,0,1-.36,2.48c-.2.62-.77,2.8-.77,2.8a3.62,3.62,0,0,0,.77,1.58c.09.09.74.16.94-.21.49-.94-.3,0,.54.81a20.59,20.59,0,0,0,1.62-2.46,15.25,15.25,0,0,0-.39-2.31c0-.31,0-2.45,0-2.84s0-3.12,0-3.3l.12-1Z"/><path class="cls-13" d="M41.38,2.1a9.29,9.29,0,0,0,0,1.45,9.11,9.11,0,0,1,.25,1.64c0,.15-.13,1.86-.21,2.12a17.23,17.23,0,0,0-.38,2c0,.22,0,1.6-.07,1.75s-.63,2-.63,2-.07.43-.07.54a6.47,6.47,0,0,0,1.3.53L43,13.92,43.34,6l-.05-4.89Z"/><path class="cls-14" d="M46.39.5s.19.72.33,1-.06.3.42.11A8.92,8.92,0,0,1,47,3s.09,1.13.06,1.59A4.41,4.41,0,0,0,47.22,6c.11.44.34,1.81.48,2.7.13.74.69,2.8.5,3.25a4.37,4.37,0,0,1-1.3,1.81l-1-1.55S45,4.4,45,4.22,45.17,1,45.22,1,46.39.5,46.39.5Z"/><path class="cls-13" d="M44.74,14.72a4.45,4.45,0,0,1,.91-.17s.63-.45.8-.42.49-.42.52-.53a21,21,0,0,0-.12-2.87c-.13-.6-.85-3.12-.9-3.51A28.27,28.27,0,0,1,45.59,4c0-.67,0-1.49,0-1.49l-1.75-.11Z"/><path class="cls-15" d="M42.63,3.1c0,.11-.05,2.77-.07,2.91s.16,1.24.16,1.6-.09,2.09-.09,2.09-.16,3.27-.22,3.52-.88.93-.88.93a3.75,3.75,0,0,1,.67.4,13.66,13.66,0,0,0,1.5.38c.15.07.9,0,1-.21a45.6,45.6,0,0,0-.29-5.65c-.11-.54-.18-3.91-.18-4.41S44.36,3,44.36,3l-1.6-1.14Z"/><path class="cls-16" d="M46.56.62l.16.13a1.12,1.12,0,0,1,.44,1.18c-.15.45-.71.51-1.4.71-.33.09-.63.43-1,.45A6.13,6.13,0,0,1,43.47,3a6.68,6.68,0,0,1-1-.46,5,5,0,0,1-1.12-.39l-.1-.08c-.39-.36-.3-.56-.16-1s-.45-.85.56-1C42.18,0,42.82,0,43.43,0a7,7,0,0,1,1.33.17A4.46,4.46,0,0,1,46.56.62Z"/><path class="cls-17" d="M46.3.74l.14.1a.92.92,0,0,1,.39,1c-.14.38-.63.42-1.24.59-.28.07-.55.36-.89.37a6.08,6.08,0,0,1-1.12,0,6.76,6.76,0,0,1-.86-.38,4.69,4.69,0,0,1-1-.32L41.65,2c-.35-.3-.26-.46-.15-.8S41.11.45,42,.31c.45-.07,1-.06,1.55-.09a6.94,6.94,0,0,1,1.17.15A4,4,0,0,1,46.3.74Z"/><path class="cls-18" d="M46.44.84,46.3.74a.2.2,0,0,0-.08,0,.68.68,0,0,1,.06.57c-.13.38-.62.42-1.24.59-.28.07-.55.36-.89.38A6.2,6.2,0,0,1,43,2.18a6.05,6.05,0,0,1-.85-.38c-.3-.1-.56-.14-.78-.22a.59.59,0,0,0,.25.38l.09.07a4.69,4.69,0,0,0,1,.32,6.76,6.76,0,0,0,.86.38,6.08,6.08,0,0,0,1.12,0c.34,0,.61-.3.89-.37.61-.17,1.1-.21,1.24-.59A.92.92,0,0,0,46.44.84Z"/><path class="cls-6" d="M53.53,8.93c1.14.08.51,1,.51,1s1.11,1.44,1.07,2c0,.3,1,.6,1,.8.51,1.5,1.9,1.47,1.58,2.17A16.52,16.52,0,0,1,54.12,16c-.44-.06-2.57-1.26-3.25-1.5s-6.37-4.7-6.37-4.7,3.8-.85,5.07-1C50,8.75,53.53,8.93,53.53,8.93Z"/><path class="cls-10" d="M54.19,10.76s.48.53.36.68.31,1,.31,1,1.07.41,1.19.64.2.89.55,1.12l1.19.82s.08.86-.27,1a9.71,9.71,0,0,1-2.38.53c-.08-.08-2.1-2.23-2.33-2.41a21.34,21.34,0,0,1-1.75-2.26c0-.12-.08-1.53.28-1.65A15.16,15.16,0,0,1,54.19,10.76Z"/><path class="cls-19" d="M54.58,11.28c-.12.15.31,1,.31,1s1.07.41,1.19.65.2.88.55,1.11l1.11.77a.25.25,0,0,1,0,.14l-1.18-.82c-.36-.23-.44-.88-.56-1.12s-1.19-.64-1.19-.64-.43-.83-.31-1-.36-.68-.36-.68S54.69,11.13,54.58,11.28Z"/><path class="cls-5" d="M53.33,11.2c0,.17-.18.75,0,1.05a6.32,6.32,0,0,0,1.63,1.15c.19,0,.55.73.87,1.11a11.44,11.44,0,0,0,1.11,1.24c.11.06.79.23-.24.73A19.23,19.23,0,0,1,53,17.78a19.71,19.71,0,0,1-2.58-1.06,22,22,0,0,1-1.1-2.62c0-.12.08-1.91.08-2s-.08-1.41.15-1.56A28,28,0,0,1,53.33,11.2Z"/><path class="cls-20" d="M53.57,12.34a12.41,12.41,0,0,0,1.66,1c.2.05.55.73.87,1.11a12.62,12.62,0,0,0,1.11,1.24c.06,0,.27.1.31.23a.27.27,0,0,1-.12.09.38.38,0,0,1-.11.05c0-.15-.25-.22-.32-.25a13.94,13.94,0,0,1-1.11-1.24c-.32-.38-.67-1.06-.87-1.12a6.23,6.23,0,0,1-1.62-1.14c-.16-.3,0-.89,0-1.06C53.38,11.28,53.25,12.07,53.57,12.34Z"/><path class="cls-21" d="M50.12,12a8.72,8.72,0,0,1,.48,1.47,4.64,4.64,0,0,0,0,1.06s.59.88.71,1l1,1.32s1.07.71.75.89a2.77,2.77,0,0,1-1.94,1,60,60,0,0,1-6.49-.24,9.1,9.1,0,0,1-2.1-1.23l1.9-3.59A18.91,18.91,0,0,0,46,11.81C46,11.69,50.12,12,50.12,12Z"/><path class="cls-20" d="M50.83,13.34a4.65,4.65,0,0,0,0,1.06s.6.88.72,1,1,1.33,1,1.33,1.06.7.75.88a16.77,16.77,0,0,0,3.07-1A18.09,18.09,0,0,1,53,17.75c.32-.18-.75-.89-.75-.89l-1-1.32c-.12-.14-.71-1-.71-1a4.64,4.64,0,0,1,0-1.06A8.72,8.72,0,0,0,50.08,12S50.91,13.19,50.83,13.34Z"/><path class="cls-20" d="M44.52,9.79a8.69,8.69,0,0,0-1.37,1.08,4.69,4.69,0,0,0,0,.76,10.63,10.63,0,0,1-.95,1.21,13.5,13.5,0,0,1-2.61,1.61,3.85,3.85,0,0,0-.87.36s-.36.91-.2,1.11.36.42.36.42h3.48l2.77-4.24.4-1.85Z"/><path class="cls-22" d="M47.31,12.28s-.08,1-.4,1.29A9,9,0,0,0,46,15.45s-.63,1.3-1,1.36a10.23,10.23,0,0,0-1.82.94s-1.1-.12-2.37-.36-2.54-1.17-1.9-1.29A20.58,20.58,0,0,0,43,13a11.12,11.12,0,0,0,1.13-2.2l3.3,1Z"/><path class="cls-23" d="M38.6,15.94s.06-.09.16-.1a21.11,21.11,0,0,0,4.16-3,11.32,11.32,0,0,0,1.14-2.18l1.1.33.16-.73h.21l-.21,1-1.23-.38A11.12,11.12,0,0,1,43,13a20.58,20.58,0,0,1-4,3.06c-.1,0-.14.06-.16.11s-.16-.18-.24-.29a.12.12,0,0,1,0-.07A.63.63,0,0,0,38.6,15.94Z"/><path class="cls-20" d="M40.54,17.13c1.27.23,2.38.35,2.38.35a10.55,10.55,0,0,1,1.82-.94c.39-.06,1-1.35,1-1.35a8.34,8.34,0,0,1,.87-1.88A2.83,2.83,0,0,0,47,12l.06-.28.34.11-.08.41s-.08,1-.4,1.29a9,9,0,0,0-.87,1.88s-.63,1.3-1,1.36a11,11,0,0,0-1.82.94s-1.11-.12-2.37-.36A4.29,4.29,0,0,1,39,16.52,4.77,4.77,0,0,0,40.54,17.13Z"/><path class="cls-12" d="M44.52,9.79l-.27.19c-.68.51-1,1.11-.75,1.69s1.21.73,2.41,1c.55.13,1.08.63,1.74.66a12.51,12.51,0,0,0,2.18-.1,11.39,11.39,0,0,0,1.67-.66A9.41,9.41,0,0,0,53.42,12l.17-.11c.69-.53.52-.81.29-1.39s.77-1.23-1-1.48c-.87-.12-2-.1-3-.14a13.24,13.24,0,0,0-2.28.25A8.83,8.83,0,0,0,44.52,9.79Z"/><path class="cls-24" d="M45,10l-.24.15c-.59.43-.85.94-.65,1.43s1.06.61,2.09.85c.48.11.94.52,1.51.55a12.51,12.51,0,0,0,1.91-.09A11.06,11.06,0,0,0,51,12.31a8.52,8.52,0,0,0,1.68-.47.67.67,0,0,0,.14-.09c.6-.44.45-.68.25-1.17s.67-1-.83-1.23c-.75-.1-1.71-.09-2.62-.12a12.66,12.66,0,0,0-2,.2A8.12,8.12,0,0,0,45,10Z"/><path class="cls-25" d="M44.78,10.16l.06,0a.8.8,0,0,0,0,.55c.23.55,1.06.62,2.09.85.49.11.94.53,1.52.56a12.44,12.44,0,0,0,1.9-.09,11.06,11.06,0,0,0,1.44-.55c.59-.16,1.08-.22,1.48-.38,0,.24,0,.44-.41.73l-.15.09a8.2,8.2,0,0,1-1.67.47,11.06,11.06,0,0,1-1.44.55,12.51,12.51,0,0,1-1.91.09c-.57,0-1-.45-1.51-.55-1-.24-1.87-.31-2.1-.86S44.19,10.59,44.78,10.16Z"/><path class="cls-20" d="M33.64,9.08c-1.44.15-.65,1.74-.65,1.74s-1.39,2.43-1.34,3.38c0,.49-1.21,1-1.29,1.34-.65,2.53-2.39,2.49-2,3.68a17.7,17.7,0,0,0,4.52,1.84c.55-.1,3.23-2.14,4.08-2.54s8-7.95,8-7.95S40.2,9.13,38.61,8.88C38,8.79,33.64,9.08,33.64,9.08Z"/><path class="cls-26" d="M32.89,12.06s-.6.89-.45,1.14-.39,1.64-.39,1.64-1.35.7-1.49,1.1-.25,1.49-.7,1.89-1.49,1.39-1.49,1.39-.1,1.44.35,1.74a9.6,9.6,0,0,0,3,.89c.1-.15,2.63-3.78,2.93-4.07A38.74,38.74,0,0,0,36.82,14c0-.2.1-2.59-.35-2.78S32.89,12.06,32.89,12.06Z"/><path class="cls-23" d="M32.32,13.05c.15.25-.4,1.64-.4,1.64s-1.34.7-1.49,1.1-.25,1.49-.69,1.89-1.14,1.05-1.4,1.3a1.29,1.29,0,0,0,.05.24s1.05-1,1.49-1.39.55-1.49.7-1.89,1.49-1.1,1.49-1.1.55-1.39.4-1.64.45-1.14.45-1.14S32.17,12.81,32.32,13.05Z"/><path class="cls-21" d="M33.77,12.92a4.7,4.7,0,0,1,0,1.77,8.17,8.17,0,0,1-2,1.94c-.25.1-.7,1.25-1.09,1.89a20.78,20.78,0,0,1-1.4,2.09c-.15.1-1,.4.3,1.24A20,20,0,0,0,34.23,24a21.93,21.93,0,0,0,3.24-1.79c.14-.15,1.39-4.22,1.39-4.42s-.1-3.23-.1-3.38.1-2.39-.2-2.64S33.77,12.92,33.77,12.92Z"/><path class="cls-20" d="M33.59,14.84a15.33,15.33,0,0,1-2.09,1.74c-.25.1-.69,1.25-1.09,1.89A20.78,20.78,0,0,1,29,20.56c-.07.05-.34.17-.39.38a.5.5,0,0,0,.15.17l.13.07c0-.24.33-.36.41-.42a19.45,19.45,0,0,0,1.39-2.09c.4-.64.85-1.79,1.1-1.89a8.17,8.17,0,0,0,2-1.94,4.76,4.76,0,0,0,0-1.78S34,14.4,33.59,14.84Z"/><path class="cls-5" d="M37.91,14.3a18,18,0,0,0-.59,2.48,10.58,10.58,0,0,1,0,1.79s-.75,1.49-.9,1.74-1.24,2.24-1.24,2.24-1.34,1.19-1,1.49.8,1.54,2.44,1.64a56.86,56.86,0,0,0,8.15-.4,11.08,11.08,0,0,0,2.64-2.09l-2.39-6.06A31.71,31.71,0,0,1,43,14,44.8,44.8,0,0,0,37.91,14.3Z"/><path class="cls-20" d="M37,16.53a10.58,10.58,0,0,1,0,1.79s-.75,1.49-.9,1.74-1.24,2.24-1.24,2.24-1.34,1.19-.94,1.49a17.67,17.67,0,0,1-3.87-1.7A19,19,0,0,0,34.28,24c-.39-.3.95-1.49.95-1.49s1.09-2,1.24-2.24.9-1.74.9-1.74a10.58,10.58,0,0,0,0-1.79A18,18,0,0,1,38,14.25,10.8,10.8,0,0,0,37,16.53Z"/><path class="cls-6" d="M46.19,11.48a3.67,3.67,0,0,1,.54.95,10.77,10.77,0,0,1,0,1.29,19.65,19.65,0,0,0,1.19,2,17,17,0,0,0,3.29,2.73,4.33,4.33,0,0,1,1.09.6s.45,1.54.25,1.89-.45.69-.45.69H47.73l-3.48-7.15-.5-3.14Z"/><path class="cls-10" d="M41.44,14.74a5.87,5.87,0,0,0,.5,2.19A17.14,17.14,0,0,1,43,20.11s.8,2.19,1.3,2.29A12.83,12.83,0,0,1,46.61,24s1.39-.2,3-.6,3.19-2,2.39-2.18S47.51,16.93,46.91,16a21.26,21.26,0,0,1-1.42-3.73l-4.15,1.74Z"/><path class="cls-19" d="M52.41,21.06a.25.25,0,0,0-.2-.18c-.79-.2-4.62-4.22-5.22-5.12a22.25,22.25,0,0,1-1.44-3.67l-1.38.55L44,11.4h-.26L44,13l1.55-.64a21.78,21.78,0,0,0,1.42,3.72c.6.9,4.28,5,5.07,5.17a.25.25,0,0,1,.2.18c.09-.13.2-.3.3-.48a.35.35,0,0,0,0-.12Z"/><path class="cls-20" d="M49.94,23c-1.59.39-3,.59-3,.59A12.6,12.6,0,0,0,44.67,22c-.49-.1-1.29-2.28-1.29-2.28a17.2,17.2,0,0,0-1.09-3.19,5.79,5.79,0,0,1-.5-2.18l-.07-.48-.43.18.1.69a5.87,5.87,0,0,0,.5,2.19A17.14,17.14,0,0,1,43,20.06s.8,2.19,1.3,2.29a12.83,12.83,0,0,1,2.28,1.59s1.39-.2,3-.6a4.84,4.84,0,0,0,2.32-1.42A5,5,0,0,1,49.94,23Z"/><path class="cls-12" d="M44.94,10.11a2.54,2.54,0,0,1,.34.23c.86.65,1.24,1.4.95,2.13s-1.53.92-3,1.27c-.69.16-1.35.79-2.18.83a17.32,17.32,0,0,1-2.75-.13,13.87,13.87,0,0,1-2.08-.83,12.21,12.21,0,0,1-2.42-.69l-.21-.14c-.86-.66-.65-1-.36-1.75s-1-1.54,1.2-1.85C35.49,9,36.87,9.05,38.19,9a17.11,17.11,0,0,1,2.86.31C42.87,9.55,44,9.57,44.94,10.11Z"/><path class="cls-24" d="M44.37,10.33a2.9,2.9,0,0,1,.29.19c.75.54,1.08,1.18.83,1.79s-1.33.77-2.63,1.07c-.61.14-1.18.66-1.9.69A14,14,0,0,1,38.57,14a11.72,11.72,0,0,1-1.81-.69,10.16,10.16,0,0,1-2.11-.59l-.18-.11c-.75-.55-.56-.85-.31-1.47s-.84-1.29,1.05-1.55c.94-.13,2.14-.11,3.29-.15A15.85,15.85,0,0,1,41,9.66,10,10,0,0,1,44.37,10.33Z"/><path class="cls-25" d="M44.61,10.57l-.07-.05a1.12,1.12,0,0,1,0,.7c-.29.68-1.33.77-2.64,1.06-.6.14-1.18.67-1.89.7a15,15,0,0,1-2.39-.11,14.36,14.36,0,0,1-1.82-.69c-.74-.21-1.35-.28-1.85-.48-.07.3,0,.56.51.92a1.18,1.18,0,0,0,.19.11,10,10,0,0,0,2.1.59,11.72,11.72,0,0,0,1.81.69,14,14,0,0,0,2.39.11c.72,0,1.29-.55,1.9-.69,1.3-.3,2.34-.38,2.63-1.07S45.36,11.11,44.61,10.57Z"/><path class="cls-11" d="M18.32,2.17s.11,2.85.21,4.52.58,1.85.62,1.66.37-5.41.37-5.41Z"/><path class="cls-12" d="M18.55,2.34a11,11,0,0,0-.28,2.18A21.22,21.22,0,0,1,18,10.39c0,.43-.37,2.79-.37,3.38a14.84,14.84,0,0,1-.45,4.59c-.27,1.15-1.11,7.12-1.11,7.12.18,1.14,1,.63,1.32,1A1.1,1.1,0,0,0,18.83,26c.71-1.75-.47-.06.88,1.47a40.82,40.82,0,0,0,2.4-4.6c.12-.72-.67-3.65-.71-4.24s-.16-4.52-.21-5.24S21,7.64,21,7.32s.14-1.84.14-1.84Z"/><path class="cls-13" d="M18.91,5.25a20.15,20.15,0,0,0,0,2.69,21,21,0,0,1,.46,3c0,.27-.12,3.44-.23,3.91s-.5,3.32-.49,3.72,0,3,0,3.23-.9,3.73-.9,3.73-.08.81-.08,1a9.46,9.46,0,0,0,2.05.92L22,27l.13-14.62-.3-9Z"/><path class="cls-14" d="M26.61,2.1c.07-.07.34,1.32.57,1.84s-.08.56.65.19a18.91,18.91,0,0,1-.09,2.47s.2,2.08.17,2.93a9.92,9.92,0,0,0,.25,2.69,43.42,43.42,0,0,0,.88,5c.78,2.29,1.69,6.16,1.53,6.37a11.14,11.14,0,0,1-2.43,2.7l-1.72-2.53S24.58,9.36,24.57,9s.18-6,.25-6S26.61,2.1,26.61,2.1Z"/><path class="cls-13" d="M24.74,27.88a5.7,5.7,0,0,0,1.37-.41s.86-.68,1.13-.63.86-.39.9-.59A45.27,45.27,0,0,0,27.81,21c-.22-1.11-1.46-5.73-1.55-6.45s-.77-4.63-.73-5.88,0-2.75,0-2.75l-2.73-.13Z"/><path class="cls-15" d="M20.89,7.06c0,.2.06,5.1,0,5.37s.3,2.28.31,2.94,0,3.86,0,3.86-.09,6-.17,6.5a7.4,7.4,0,0,1-1.32,1.75,6.13,6.13,0,0,1,1.4.61,5.8,5.8,0,0,0,1.92.25c.71,0,1.59-.19,1.79-.58S24.2,19,24,18s-.47-7.2-.5-8.12.07-3,.07-3l-2.53-2Z"/><path class="cls-16" d="M26.89,2.27c.08.09.17.18.25.28a3.27,3.27,0,0,1,.75,2.67c-.21,1-1.07,1.18-2.14,1.65-.5.22-.95,1-1.54,1.08a6.77,6.77,0,0,1-2-.11c-.53-.12-1.07-.78-1.53-1A6,6,0,0,1,18.93,6l-.16-.17c-.64-.81-.5-1.27-.31-2.2.15-.74-.75-1.91.81-2.34A18,18,0,0,1,22,1a7.82,7.82,0,0,1,2.07.33C25.37,1.61,26.19,1.61,26.89,2.27Z"/><path class="cls-17" d="M26.49,2.65a1.61,1.61,0,0,1,.22.23,2.52,2.52,0,0,1,.66,2.2c-.18.86-.94,1-1.89,1.38-.43.18-.83.85-1.36.89a6.06,6.06,0,0,1-1.74-.08c-.47-.1-.95-.65-1.35-.83a5.34,5.34,0,0,1-1.55-.69.93.93,0,0,1-.14-.14c-.56-.67-.44-1-.28-1.81s-.65-1.59.72-1.95a18.27,18.27,0,0,1,2.4-.25A7.07,7.07,0,0,1,24,1.88C25.16,2.1,25.89,2.1,26.49,2.65Z"/><path class="cls-18" d="M26.71,2.88a1.61,1.61,0,0,0-.22-.23.83.83,0,0,0-.12-.08,2.23,2.23,0,0,1,.12,1.3c-.19.85-.94,1-1.89,1.37-.43.18-.83.84-1.36.89a6.15,6.15,0,0,1-1.75-.08c-.46-.1-.94-.65-1.34-.83s-.88-.28-1.22-.46a1.44,1.44,0,0,0,.41.85.93.93,0,0,0,.14.14A5.34,5.34,0,0,0,21,6.44c.4.18.88.73,1.35.83a6.06,6.06,0,0,0,1.74.08c.53,0,.93-.71,1.36-.89.95-.39,1.71-.52,1.89-1.38A2.52,2.52,0,0,0,26.71,2.88Z"/><path class="cls-20" d="M26.38,22.25c-1.13.08-.51,1-.51,1s-1.09,1.43-1.05,2c0,.29-.95.58-1,.78-.51,1.49-1.88,1.46-1.56,2.15a16.32,16.32,0,0,0,3.56,1.08c.43-.06,2.54-1.25,3.2-1.48s6.3-4.65,6.3-4.65-3.75-.84-5-1C29.83,22.08,26.38,22.25,26.38,22.25Z"/><path class="cls-26" d="M25.8,24s-.47.52-.36.67-.31,1-.31,1-1.06.4-1.17.64-.2.87-.55,1.1-1.17.81-1.17.81-.08.85.27,1a9.82,9.82,0,0,0,2.35.52c.08-.08,2.07-2.2,2.3-2.38a20.89,20.89,0,0,0,1.73-2.24c0-.11.07-1.51-.28-1.62A14.91,14.91,0,0,0,25.8,24Z"/><path class="cls-23" d="M25.35,24.57c.11.15-.32,1-.32,1s-1.05.41-1.17.64-.2.87-.55,1.1-.89.62-1.09.76a.25.25,0,0,0,0,.14s.82-.58,1.17-.81.43-.87.55-1.1,1.17-.64,1.17-.64.43-.82.31-1,.36-.67.36-.67S25.23,24.43,25.35,24.57Z"/><path class="cls-21" d="M26.49,24.49c0,.17.17.75,0,1a6.26,6.26,0,0,1-1.6,1.13c-.2.06-.55.73-.86,1.11A14.82,14.82,0,0,1,22.94,29c-.12.05-.78.23.24.72A18.23,18.23,0,0,0,26.85,31a21.4,21.4,0,0,0,2.55-1,23.31,23.31,0,0,0,1.09-2.59c0-.12-.08-1.89-.08-2s.08-1.39-.15-1.54A27.28,27.28,0,0,0,26.49,24.49Z"/><path class="cls-20" d="M26.34,25.62a11.43,11.43,0,0,1-1.64,1c-.19.06-.55.73-.86,1.11A13.18,13.18,0,0,1,22.74,29c-.06,0-.27.1-.3.22a.35.35,0,0,0,.11.1l.11,0c0-.14.25-.21.32-.25a11.09,11.09,0,0,0,1.09-1.22c.32-.37.67-1,.87-1.1a6.26,6.26,0,0,0,1.6-1.13c.16-.29,0-.87,0-1C26.53,24.58,26.66,25.36,26.34,25.62Z"/><path class="cls-5" d="M29.75,25.3a7.94,7.94,0,0,0-.47,1.45,4.56,4.56,0,0,1,0,1.05s-.59.87-.71,1l-1,1.31s-1.06.7-.75.87a2.7,2.7,0,0,0,1.92,1,61.36,61.36,0,0,0,6.41-.23,8.91,8.91,0,0,0,2.08-1.22L35.38,27a18.49,18.49,0,0,1-1.6-1.86C33.82,25,29.75,25.3,29.75,25.3Z"/><path class="cls-20" d="M29,26.6a4.56,4.56,0,0,1,0,1s-.58.87-.7,1-1,1.3-1,1.3-1.05.7-.74.88a17,17,0,0,1-3-1A17.26,17.26,0,0,0,26.89,31c-.31-.17.75-.87.75-.87s.85-1.16,1-1.31.71-1,.71-1a4.56,4.56,0,0,0,0-1.05,8.2,8.2,0,0,1,.47-1.45S29,26.46,29,26.6Z"/><path class="cls-6" d="M35.35,23.18a8.88,8.88,0,0,1,1.35,1.05,4.67,4.67,0,0,1,0,.76,10.75,10.75,0,0,0,.94,1.19,13.49,13.49,0,0,0,2.58,1.6,3.38,3.38,0,0,1,.86.35s.35.9.2,1.1-.35.41-.35.41H37.48l-2.73-4.19-.39-1.83Z"/><path class="cls-10" d="M32.52,25.56s.08,1,.39,1.28a8.27,8.27,0,0,1,.87,1.86s.62,1.27,1,1.33a10.7,10.7,0,0,1,1.8.93s1.1-.11,2.35-.35,2.5-1.16,1.88-1.27a19.84,19.84,0,0,1-4-3,10.65,10.65,0,0,1-1.12-2.17l-3.27,1Z"/><path class="cls-19" d="M41.13,29.18c0-.05-.06-.09-.16-.11a20.53,20.53,0,0,1-4.1-3,11,11,0,0,1-1.14-2.15l-1.08.33-.16-.73h-.21l.21,1,1.22-.38a10.65,10.65,0,0,0,1.12,2.17,19.84,19.84,0,0,0,4,3c.09,0,.14.05.15.1l.24-.28a.12.12,0,0,0,0-.07Z"/><path class="cls-20" d="M39.21,30.35c-1.25.23-2.34.35-2.34.35a10.7,10.7,0,0,0-1.8-.93c-.39-.06-1-1.34-1-1.34a8.84,8.84,0,0,0-.86-1.86c-.31-.29-.39-1.27-.39-1.27L32.74,25l-.33.1.07.41s.08,1,.4,1.28a8.62,8.62,0,0,1,.86,1.86s.62,1.28,1,1.33a10.7,10.7,0,0,1,1.8.93s1.1-.11,2.35-.35a4.16,4.16,0,0,0,1.83-.83A4.36,4.36,0,0,1,39.21,30.35Z"/><path class="cls-12" d="M35.28,23.11l.26.17c.68.51,1,1.11.75,1.68s-1.2.72-2.38,1c-.55.13-1.07.62-1.72.65a12.32,12.32,0,0,1-2.16-.1,11,11,0,0,1-1.64-.65,9.18,9.18,0,0,1-1.9-.55l-.17-.11c-.68-.52-.51-.79-.28-1.37s-.76-1.21.94-1.46c.86-.12,1.95-.1,3-.14a13.9,13.9,0,0,1,2.26.24A8.82,8.82,0,0,1,35.28,23.11Z"/><path class="cls-24" d="M34.83,23.28a1.5,1.5,0,0,1,.23.15c.59.42.85.92.65,1.4s-1.05.61-2.07.85c-.48.1-.93.52-1.5.54a10.89,10.89,0,0,1-1.87-.09,9.64,9.64,0,0,1-1.43-.54,8.54,8.54,0,0,1-1.66-.46L27,25c-.59-.44-.44-.67-.25-1.16s-.66-1,.83-1.22c.74-.1,1.69-.08,2.59-.12a12.59,12.59,0,0,1,2,.21A7.71,7.71,0,0,1,34.83,23.28Z"/><path class="cls-25" d="M35,23.47l-.06,0a.84.84,0,0,1,0,.54c-.23.54-1,.61-2.07.84-.48.11-.93.53-1.5.55a11,11,0,0,1-1.88-.09,9.11,9.11,0,0,1-1.42-.54,14.93,14.93,0,0,1-1.46-.38c-.05.24,0,.44.4.73l.15.09a8.22,8.22,0,0,0,1.65.46,9.64,9.64,0,0,0,1.43.54,11,11,0,0,0,1.88.09c.56,0,1-.44,1.49-.55,1-.23,1.84-.3,2.07-.84S35.61,23.89,35,23.47Z"/><path class="cls-14" d="M81,21.54s.15.09.26.13-.29.09.08.06a1.3,1.3,0,0,1,.27.1s.15.07.12.13-.18.2-.07.27.15.23.26.34.83.34.67.4a10.8,10.8,0,0,1-1.32.31L80.64,23s-.76-1-.76-1a2,2,0,0,1,.21-.41Z"/><path class="cls-13" d="M79.75,23.46l.49-.05s.51-.05.64-.05a1.82,1.82,0,0,0,.41-.08s.17-.39.07-.46-.67-.4-.71-.45-.33-.31-.29-.4a.5.5,0,0,0,0-.19H79Z"/><path class="cls-12" d="M76.79,21.49s-.32.36-.27.4-.06.14-.12.17-.16.18-.21.22-.33.22-.34.23-.23.17-.25.19a.91.91,0,0,0,.26.26c.06,0,.6.21.64.24s.7.19.7.19,1.15-.4,1.22-.45-.29-.25-.3-.29,0-.31,0-.36a3,3,0,0,1,0-.42l.1-.12Z"/><path class="cls-15" d="M78,21.86s0,.34-.05.36.12.16.12.2a2,2,0,0,1-.07.27,2.07,2.07,0,0,1-.17.44l-.64.26s.91,0,1,.06.53.08.66.08a7,7,0,0,0,.92-.07c.11,0-.21-.79-.29-.85a1.34,1.34,0,0,1-.15-.56.67.67,0,0,1,.08-.2l-1.27-.15Z"/><path class="cls-16" d="M81.13,21.57l.13,0c.32.1.45.22.35.33a2.59,2.59,0,0,1-1.12.2,7.44,7.44,0,0,1-.8.13c-.32,0-.66,0-1,0s-.54-.1-.77-.13A7.41,7.41,0,0,1,77,22l-.08,0c-.31-.1-.23-.16-.13-.27s-.35-.24.45-.29c.4,0,.91,0,1.39,0,.32,0,.71,0,1,.05A8.39,8.39,0,0,1,81.13,21.57Z"/><path class="cls-17" d="M80.93,21.62l.11,0c.28.08.4.18.31.27a2.55,2.55,0,0,1-1,.17c-.22,0-.44.1-.71.11s-.58,0-.89,0a6.25,6.25,0,0,1-.67-.11A6.46,6.46,0,0,1,77.3,22l-.06,0c-.28-.08-.21-.13-.12-.22s-.31-.2.39-.24c.35,0,.8,0,1.23,0s.62,0,.93,0A8.49,8.49,0,0,1,80.93,21.62Z"/><path class="cls-18" d="M81,21.65l-.11,0h-.07c.08.05.1.11,0,.16a2.48,2.48,0,0,1-1,.17,6.75,6.75,0,0,1-.71.1c-.28,0-.58,0-.89,0s-.47-.09-.68-.11L77,21.86s.06.06.2.1l.06,0a6.46,6.46,0,0,0,.79.09,6.25,6.25,0,0,0,.67.11c.31,0,.61,0,.89,0s.49-.09.71-.11a2.55,2.55,0,0,0,1-.17C81.44,21.83,81.32,21.73,81,21.65Z"/><path class="cls-27" d="M57.35,24.59s.16.09.27.13-.3.09.08.06a1.42,1.42,0,0,1,.26.1s.15.07.13.13-.19.2-.08.27.15.23.27.34.82.34.67.4a10.81,10.81,0,0,1-1.33.31L57,26.06s-.76-1-.76-1a1.44,1.44,0,0,1,.21-.41Z"/><path class="cls-5" d="M56.09,26.51l.48-.05s.52-.05.65-.05a1.71,1.71,0,0,0,.4-.08s.17-.39.07-.46-.67-.4-.7-.45-.33-.31-.3-.4a.5.5,0,0,0,0-.19H55.34Z"/><path class="cls-12" d="M53.12,24.54s-.31.36-.26.4-.06.14-.12.16-.16.19-.21.23l-.35.23s-.23.17-.24.19a.86.86,0,0,0,.25.26,6.65,6.65,0,0,1,.64.24s.71.19.71.19S54.69,26,54.76,26s-.29-.25-.31-.29,0-.31,0-.36a2,2,0,0,1,0-.42l.1-.12Z"/><path class="cls-15" d="M54.34,24.91s0,.34,0,.36.12.16.12.2a1.83,1.83,0,0,1-.08.27,2.07,2.07,0,0,1-.17.44l-.63.26,1,0a5.28,5.28,0,0,0,.66.09,7.14,7.14,0,0,0,.93-.07c.11,0-.21-.79-.3-.85a1.49,1.49,0,0,1-.14-.56.73.73,0,0,1,.07-.2l-1.27-.15Z"/><path class="cls-16" d="M57.47,24.61l.12,0c.32.1.46.22.35.33s-.56.14-1.11.2c-.26,0-.5.12-.8.13s-.67,0-1,0-.54-.1-.77-.13a7.15,7.15,0,0,1-.89-.11l-.08,0c-.32-.1-.24-.16-.13-.27s-.36-.24.44-.29c.4,0,.91,0,1.39,0s.71,0,1.06,0A10,10,0,0,1,57.47,24.61Z"/><path class="cls-24" d="M57.26,24.67l.11,0c.28.08.4.18.31.27a2.53,2.53,0,0,1-1,.17,6.75,6.75,0,0,1-.71.1c-.28,0-.58,0-.89,0a6.45,6.45,0,0,1-.68-.11,6,6,0,0,1-.78-.09l-.07,0c-.28-.08-.21-.13-.12-.22s-.31-.2.39-.24c.36,0,.81,0,1.23,0s.62,0,.93,0A8.25,8.25,0,0,1,57.26,24.67Z"/><path class="cls-18" d="M57.37,24.7l-.11,0H57.2c.08.05.1.11,0,.16a2.42,2.42,0,0,1-1,.16,4.67,4.67,0,0,1-.7.11,8.88,8.88,0,0,1-.89,0c-.24,0-.48-.08-.68-.1l-.62-.06s.06.06.2.1l.07,0a6,6,0,0,0,.78.09,6.45,6.45,0,0,0,.68.11c.31,0,.61,0,.89,0a6.75,6.75,0,0,0,.71-.1,2.53,2.53,0,0,0,1-.17C57.77,24.88,57.65,24.78,57.37,24.7Z"/><path class="cls-14" d="M84.17,29c.1,0,.41.37.7.51s-.78.36.21.27c.15,0,.69.38.69.38s.39.3.33.53-.49.81-.2,1.08.4.9.7,1.35,2.16,1.36,1.76,1.59A18.73,18.73,0,0,1,84.88,36l-1.7-1.06s-2-3.93-2-4a8.8,8.8,0,0,1,.54-1.62C81.84,29.26,84.17,29,84.17,29Z"/><path class="cls-13" d="M80.85,36.7c.15,0,1.27-.22,1.27-.22a16.23,16.23,0,0,1,1.7-.19A2.69,2.69,0,0,0,84.88,36c.06-.05.44-1.55.19-1.85s-1.76-1.57-1.86-1.76-.86-1.27-.77-1.61a3.11,3.11,0,0,0,.1-.75l-3.65,0Z"/><path class="cls-28" d="M73.06,28.82s-.82,1.45-.69,1.61-.17.56-.33.64-.41.76-.54.9-.88.88-.91.93-.61.68-.64.75a3.18,3.18,0,0,0,.67,1c.16.08,1.59.86,1.68,1s1.86.77,1.86.77,3-1.62,3.2-1.82-.77-1-.8-1.16-.07-1.23-.1-1.42a15.81,15.81,0,0,1,0-1.66c0-.09.25-.5.25-.5Z"/><path class="cls-15" d="M76.27,30.28s-.1,1.39-.13,1.46.32.62.32.8-.19,1.05-.19,1.05a11.8,11.8,0,0,1-.45,1.77c-.13.12-1.66,1-1.66,1s2.36.16,2.52.21a17.32,17.32,0,0,0,1.73.36,14.14,14.14,0,0,0,2.44-.28c.28-.11-.55-3.16-.77-3.43a7.51,7.51,0,0,1-.39-2.21,4,4,0,0,1,.19-.82l-3.32-.57Z"/><path class="cls-16" d="M84.48,29.12a1.83,1.83,0,0,1,.32.14c.84.4,1.2.87.93,1.32s-1.49.57-2.93.8a15.17,15.17,0,0,1-2.11.51c-.85,0-1.74,0-2.66-.08a19.56,19.56,0,0,1-2-.52,16.34,16.34,0,0,1-2.34-.43,1.21,1.21,0,0,1-.2-.09c-.84-.4-.63-.62-.36-1.08s-.93-1,1.17-1.15c1-.1,2.39-.08,3.66-.12a27.15,27.15,0,0,1,2.77.2A15.69,15.69,0,0,1,84.48,29.12Z"/><path class="cls-17" d="M83.93,29.34a1.48,1.48,0,0,1,.29.12c.73.33,1.06.72.81,1.09s-1.3.48-2.58.66a12.79,12.79,0,0,1-1.86.42,23.36,23.36,0,0,1-2.34-.06c-.62-.06-1.24-.33-1.77-.43a13.82,13.82,0,0,1-2.06-.36l-.18-.07c-.74-.34-.55-.52-.31-.9s-.82-.79,1-.95c.92-.08,2.1-.07,3.22-.1.74,0,1.64.1,2.44.17A14.51,14.51,0,0,1,83.93,29.34Z"/><path class="cls-18" d="M84.22,29.46a1.48,1.48,0,0,0-.29-.12l-.16-.05a.5.5,0,0,1,.12.65c-.28.42-1.3.47-2.58.65a12.75,12.75,0,0,1-1.86.43A20.8,20.8,0,0,1,77.11,31c-.62-.05-1.24-.33-1.77-.42s-1.17-.15-1.62-.24c0,.13.16.26.52.42l.18.07a13.82,13.82,0,0,0,2.06.36c.53.1,1.15.37,1.77.43a23.36,23.36,0,0,0,2.34.06,12.79,12.79,0,0,0,1.86-.42c1.28-.18,2.3-.24,2.58-.66S85,29.79,84.22,29.46Z"/><path class="cls-29" d="M8.12,20.76c-1.53.15-.68,1.84-.68,1.84S6,25.18,6,26.18c0,.53-1.27,1.06-1.36,1.42C4,30.29,2.12,30.24,2.54,31.5a18.64,18.64,0,0,0,4.79,2c.58-.11,3.42-2.27,4.32-2.69s8.48-8.42,8.48-8.42-5.06-1.53-6.74-1.79C12.76,20.45,8.12,20.76,8.12,20.76Z"/><path class="cls-26" d="M7.33,23.92s-.63.94-.47,1.21-.42,1.73-.42,1.73S5,27.6,4.86,28s-.27,1.58-.74,2S2.54,31.5,2.54,31.5s-.11,1.53.37,1.84a10.14,10.14,0,0,0,3.16.95c.1-.16,2.79-4,3.1-4.32a39.33,39.33,0,0,0,2.32-4c0-.21.11-2.74-.37-3S7.33,23.92,7.33,23.92Z"/><path class="cls-23" d="M6.73,25c.15.26-.43,1.74-.43,1.74s-1.42.73-1.58,1.16-.26,1.58-.73,2S2.79,31,2.51,31.24a.88.88,0,0,0,.06.26S3.67,30.45,4.15,30s.57-1.57.73-2,1.58-1.16,1.58-1.16.58-1.47.42-1.73.48-1.21.48-1.21S6.57,24.71,6.73,25Z"/><path class="cls-21" d="M8.26,24.82a5.13,5.13,0,0,1,0,1.89,8.75,8.75,0,0,1-2.16,2.05c-.26.11-.74,1.32-1.16,2A20.63,20.63,0,0,1,3.49,33c-.16.11-1.06.43.31,1.32a21.23,21.23,0,0,0,5,2.32,24,24,0,0,0,3.43-1.9c.15-.16,1.47-4.47,1.47-4.69s-.1-3.42-.1-3.58.1-2.52-.22-2.79S8.26,24.82,8.26,24.82Z"/><path class="cls-20" d="M8.07,26.86a16.38,16.38,0,0,1-2.21,1.85c-.27.1-.74,1.31-1.16,2a21.43,21.43,0,0,1-1.48,2.21c-.08.06-.36.18-.41.41A.5.5,0,0,0,3,33.5l.15.08c0-.26.34-.39.43-.45A21.74,21.74,0,0,0,5,30.92c.43-.68.9-1.9,1.16-2a8.63,8.63,0,0,0,2.16-2.06,5.08,5.08,0,0,0,0-1.88S8.49,26.39,8.07,26.86Z"/><path class="cls-5" d="M12.65,26.29A18.4,18.4,0,0,0,12,28.92a11.8,11.8,0,0,1,0,1.89s-.79,1.58-.95,1.85S9.75,35,9.75,35s-1.42,1.26-1,1.58.85,1.63,2.58,1.74A60.42,60.42,0,0,0,20,37.92a11.57,11.57,0,0,0,2.79-2.21l-2.53-6.42a34.37,34.37,0,0,1-2.16-3.37C18.13,25.71,12.65,26.29,12.65,26.29Z"/><path class="cls-20" d="M11.7,28.66a10.73,10.73,0,0,1,0,1.89s-.79,1.58-.95,1.84L9.44,34.76S8,36,8.44,36.34a18.26,18.26,0,0,1-4.1-1.8,19.65,19.65,0,0,0,4.47,2c-.43-.31,1-1.58,1-1.58s1.15-2.1,1.31-2.36,1-1.85,1-1.85a10.73,10.73,0,0,0,0-1.89,20,20,0,0,1,.63-2.64A11.78,11.78,0,0,0,11.7,28.66Z"/><path class="cls-6" d="M21.41,23.3a3.85,3.85,0,0,1,.58,1,12.14,12.14,0,0,1,0,1.37,18.8,18.8,0,0,0,1.26,2.16,18.39,18.39,0,0,0,3.48,2.9,4.54,4.54,0,0,1,1.16.63s.47,1.63.26,2-.47.74-.47.74H23l-3.68-7.59-.53-3.31Z"/><path class="cls-10" d="M16.39,26.76a6.1,6.1,0,0,0,.53,2.32,18.13,18.13,0,0,1,1.15,3.37s.85,2.31,1.37,2.42a13.11,13.11,0,0,1,2.43,1.68s1.47-.21,3.16-.63,3.37-2.1,2.52-2.31-4.74-4.53-5.37-5.48a22.77,22.77,0,0,1-1.5-3.95L16.28,26Z"/><path class="cls-19" d="M28,33.32a.26.26,0,0,0-.22-.19c-.84-.21-4.89-4.47-5.53-5.42a23.22,23.22,0,0,1-1.52-3.9l-1.46.59L19,23.08h-.28L19,24.82l1.64-.69a22.77,22.77,0,0,0,1.5,3.95c.63.94,4.53,5.26,5.37,5.47a.27.27,0,0,1,.22.19c.09-.13.21-.32.31-.5a.42.42,0,0,0,0-.13A1.93,1.93,0,0,1,28,33.32Z"/><path class="cls-20" d="M25.39,35.45c-1.68.42-3.16.63-3.16.63a13,13,0,0,0-2.42-1.68c-.52-.11-1.37-2.43-1.37-2.43a17.8,17.8,0,0,0-1.16-3.37,6.15,6.15,0,0,1-.52-2.31l-.07-.51-.46.19.11.74A6.15,6.15,0,0,0,16.86,29,18.55,18.55,0,0,1,18,32.39s.84,2.32,1.37,2.43a13,13,0,0,1,2.42,1.68s1.48-.21,3.16-.63a5.16,5.16,0,0,0,2.47-1.51A5.38,5.38,0,0,1,25.39,35.45Z"/><path class="cls-12" d="M20.1,21.85l.36.24c.91.69,1.31,1.49,1,2.26s-1.62,1-3.21,1.35c-.73.17-1.43.83-2.31.87A16.15,16.15,0,0,1,13,26.43a14.52,14.52,0,0,1-2.21-.87,12.69,12.69,0,0,1-2.56-.74A1.07,1.07,0,0,1,8,24.67c-.92-.69-.69-1.07-.39-1.85.26-.62-1-1.62,1.28-1.95,1.15-.16,2.62-.14,4-.2A20.74,20.74,0,0,1,16,21C17.9,21.26,19.1,21.28,20.1,21.85Z"/><path class="cls-24" d="M19.49,22.08a2.11,2.11,0,0,1,.31.21c.79.57,1.14,1.24.88,1.89s-1.41.82-2.79,1.13c-.64.15-1.25.7-2,.74a15.63,15.63,0,0,1-2.53-.12,13.94,13.94,0,0,1-1.92-.73,11,11,0,0,1-2.23-.62L9,24.45c-.79-.58-.59-.9-.33-1.55s-.89-1.37,1.11-1.64c1-.14,2.28-.12,3.49-.17a17.83,17.83,0,0,1,2.64.28A10.59,10.59,0,0,1,19.49,22.08Z"/><path class="cls-25" d="M19.75,22.34l-.08-.05a1.08,1.08,0,0,1,0,.73c-.31.73-1.41.82-2.79,1.13-.65.15-1.26.71-2,.74a15.73,15.73,0,0,1-2.53-.12A13.19,13.19,0,0,1,10.37,24a18.69,18.69,0,0,1-2-.51c-.07.33,0,.59.54,1l.2.12a11.06,11.06,0,0,0,2.22.62A12.89,12.89,0,0,0,13.3,26a15.63,15.63,0,0,0,2.53.12c.75,0,1.37-.59,2-.73,1.38-.32,2.48-.41,2.79-1.14S20.54,22.91,19.75,22.34Z"/><path class="cls-20" d="M56.76,22.87c-2,.21-.91,2.45-.91,2.45s-2,3.42-1.89,4.75c0,.7-1.69,1.41-1.81,1.89-.91,3.56-3.36,3.49-2.8,5.17.09.27,5.59,2.72,6.36,2.58s4.54-3,5.73-3.56S72.69,25,72.69,25s-6.71-2-8.94-2.38C62.91,22.46,56.76,22.87,56.76,22.87Z"/><path class="cls-26" d="M55.71,27.07s-.84,1.25-.63,1.6S54.52,31,54.52,31s-1.88,1-2.09,1.54-.35,2.09-1,2.65-2.1,2-2.1,2-.14,2,.49,2.44,4,1.47,4.19,1.26,3.71-5.31,4.13-5.73a54.49,54.49,0,0,0,3.07-5.38c.07-.28.14-3.63-.49-3.91S55.71,27.07,55.71,27.07Z"/><path class="cls-23" d="M54.91,28.46c.21.35-.56,2.31-.56,2.31s-1.89,1-2.1,1.54-.35,2.09-1,2.65-1.59,1.48-2,1.83a1.19,1.19,0,0,0,.08.34s1.46-1.4,2.09-2,.77-2.09,1-2.65S54.56,31,54.56,31s.77-2,.56-2.31.62-1.6.62-1.6S54.7,28.11,54.91,28.46Z"/><path class="cls-21" d="M56.94,28.27a6.65,6.65,0,0,1,0,2.5,11.32,11.32,0,0,1-2.87,2.72c-.35.14-1,1.75-1.53,2.66a29.69,29.69,0,0,1-2,2.94c-.21.13-1.4.55.42,1.74S57,44,57.6,43.91a30.77,30.77,0,0,0,4.54-2.52,64.09,64.09,0,0,0,2-6.22c0-.28-.14-4.54-.14-4.75s.14-3.35-.28-3.7S56.94,28.27,56.94,28.27Z"/><path class="cls-20" d="M56.69,31a22.22,22.22,0,0,1-2.94,2.45c-.35.14-1,1.74-1.53,2.65a28.11,28.11,0,0,1-2,2.93c-.11.08-.49.24-.55.54a.57.57,0,0,0,.2.23,1.2,1.2,0,0,0,.2.11c0-.35.45-.52.57-.59a29.69,29.69,0,0,0,2-2.94c.55-.91,1.18-2.52,1.53-2.66A11.32,11.32,0,0,0,57,31a6.65,6.65,0,0,0,0-2.5S57.25,30.35,56.69,31Z"/><path class="cls-5" d="M62.77,30.21a25.81,25.81,0,0,0-.84,3.49,15,15,0,0,1,0,2.52s-1,2.1-1.26,2.45-1.75,3.14-1.75,3.14S57,43.49,57.6,43.91s1.11,2.16,3.42,2.3a80.34,80.34,0,0,0,11.46-.56c1.19-.35,3.7-2.93,3.7-2.93l-3.35-8.53A44.73,44.73,0,0,1,70,29.72C70,29.44,62.77,30.21,62.77,30.21Z"/><path class="cls-20" d="M61.51,33.36a14.87,14.87,0,0,1,0,2.51s-1,2.1-1.26,2.45-1.74,3.14-1.74,3.14-1.89,1.68-1.33,2.1c-.46.06-3.4-1.27-5.43-2.4,2,1.18,5.42,2.74,5.92,2.68-.56-.42,1.32-2.1,1.32-2.1S60.53,39,60.74,38.6,62,36.15,62,36.15a15,15,0,0,0,0-2.52,25.45,25.45,0,0,1,.84-3.49S61.37,33,61.51,33.36Z"/><path class="cls-6" d="M74.3,26.16a5.09,5.09,0,0,1,.77,1.33,15.16,15.16,0,0,1,0,1.81,25.23,25.23,0,0,0,1.67,2.87A24.4,24.4,0,0,0,81.36,36a6.06,6.06,0,0,1,1.53.84s.63,2.16.35,2.65-.63,1-.63,1H76.46L71.57,30.42l-.7-4.4Z"/><path class="cls-10" d="M67.73,30.84s.14,2.38.7,3.07A24.38,24.38,0,0,1,70,38.39s1.11,3.07,1.81,3.21A17.78,17.78,0,0,1,75,43.84s2-.28,4.19-.84,4.47-2.8,3.35-3.08-6.29-6-7.12-7.26a30.11,30.11,0,0,1-2-5.24l-5.83,2.44Z"/><path class="cls-19" d="M83.1,39.55a.32.32,0,0,0-.28-.25c-1.12-.29-6.5-5.94-7.33-7.2a30.79,30.79,0,0,1-2-5.17l-1.94.77L71.24,26h-.37l.37,2.31,2.18-.91a30.11,30.11,0,0,0,2,5.24c.83,1.25,6,7,7.12,7.26.17,0,.26.14.28.26.13-.19.28-.43.42-.68a.6.6,0,0,0,.05-.16Z"/><path class="cls-20" d="M79.68,42.37c-2.24.56-4.19.84-4.19.84A17.78,17.78,0,0,0,72.27,41c-.7-.14-1.82-3.21-1.82-3.21s-1-3.78-1.53-4.48-.7-3.07-.7-3.07l-.1-.67-.6.25.14,1s.14,2.38.7,3.07a24.38,24.38,0,0,1,1.54,4.48s1.11,3.07,1.81,3.21a17.78,17.78,0,0,1,3.22,2.24s1.95-.28,4.19-.84a6.8,6.8,0,0,0,3.27-2A6.87,6.87,0,0,1,79.68,42.37Z"/><path class="cls-12" d="M72.65,24.33a3.55,3.55,0,0,1,.47.32c1.21.91,1.74,2,1.34,3s-2.15,1.29-4.26,1.79c-1,.23-1.9,1.11-3.06,1.16a23.34,23.34,0,0,1-3.87-.18,20.32,20.32,0,0,1-2.93-1.16,17.25,17.25,0,0,1-3.4-1l-.29-.2c-1.21-.92-.92-1.42-.51-2.45.34-.84-1.36-2.16,1.69-2.6,1.53-.21,3.48-.18,5.32-.26a25.06,25.06,0,0,1,4,.44C69.73,23.54,71.33,23.57,72.65,24.33Z"/><path class="cls-24" d="M71.85,24.64c.13.08.27.16.41.26,1,.77,1.51,1.66,1.16,2.52s-1.87,1.08-3.7,1.5c-.85.19-1.66.93-2.67,1a20.32,20.32,0,0,1-3.36-.15,18.24,18.24,0,0,1-2.55-1,14.25,14.25,0,0,1-3-.83,2.26,2.26,0,0,1-.26-.16c-1-.77-.79-1.19-.44-2.06.29-.7-1.18-1.82,1.47-2.18,1.33-.18,3-.16,4.63-.22a23,23,0,0,1,3.5.37C69.31,24,70.7,24,71.85,24.64Z"/><path class="cls-25" d="M72.19,25l-.1-.06a1.54,1.54,0,0,1-.06,1c-.41,1-1.88,1.08-3.71,1.5-.85.19-1.66.93-2.67,1a20.24,20.24,0,0,1-3.35-.16,17.78,17.78,0,0,1-2.55-1c-1-.28-1.9-.39-2.61-.67-.09.43,0,.78.72,1.29a2.26,2.26,0,0,0,.26.16,14.25,14.25,0,0,0,3,.83,18.24,18.24,0,0,0,2.55,1A20.37,20.37,0,0,0,67,30c1,0,1.82-.78,2.67-1,1.83-.42,3.3-.54,3.7-1.5S73.24,25.74,72.19,25Z"/><path class="cls-6" d="M64.18,40.94c1.26.1.57,1.13.57,1.13s1.22,1.59,1.17,2.2c0,.33,1.06.66,1.13.88.57,1.65,2.09,1.61,1.75,2.39a18.88,18.88,0,0,1-4,1.2c-.48-.07-2.83-1.39-3.57-1.65s-7-5.18-7-5.18,4.18-.94,5.57-1.1C60.34,40.75,64.18,40.94,64.18,40.94Z"/><path class="cls-10" d="M64.83,42.88s.53.59.39.75.35,1.06.35,1.06,1.18.46,1.31.72.22,1,.61,1.22,1.31.91,1.31.91.08.94-.31,1.13a10.94,10.94,0,0,1-2.61.59c-.09-.1-2.31-2.46-2.57-2.66a23.93,23.93,0,0,1-1.92-2.49c0-.13-.09-1.68.3-1.81A16.86,16.86,0,0,1,64.83,42.88Z"/><path class="cls-19" d="M65.33,43.53c-.13.16.35,1.07.35,1.07s1.18.45,1.31.71.22,1,.61,1.23,1,.68,1.22.84a.33.33,0,0,1,0,.16s-.91-.65-1.3-.91-.48-1-.61-1.22-1.31-.72-1.31-.72-.48-.9-.35-1.06-.39-.75-.39-.75S65.46,43.37,65.33,43.53Z"/><path class="cls-5" d="M64.06,43.44c0,.19-.19.83,0,1.16a6.77,6.77,0,0,0,1.78,1.26c.22.06.61.81,1,1.23A15.48,15.48,0,0,0,68,48.45c.13.06.87.26-.26.81a21.12,21.12,0,0,1-4.09,1.42,23.23,23.23,0,0,1-2.84-1.16,25,25,0,0,1-1.22-2.89c0-.12.09-2.1.09-2.19s-.09-1.56.18-1.72A29.86,29.86,0,0,1,64.06,43.44Z"/><path class="cls-20" d="M64.22,44.69a12.66,12.66,0,0,0,1.83,1.14c.22.06.61.8,1,1.23a13.73,13.73,0,0,0,1.22,1.35c.07,0,.3.11.34.25a.25.25,0,0,1-.12.11l-.12,0c0-.16-.29-.24-.36-.27a15.48,15.48,0,0,1-1.22-1.36c-.35-.43-.74-1.17-1-1.23A6.86,6.86,0,0,1,64,44.69a2.31,2.31,0,0,1,0-1.15S63.87,44.4,64.22,44.69Z"/><path class="cls-21" d="M60.43,44.34A10.24,10.24,0,0,1,61,46a5,5,0,0,0,0,1.16s.65,1,.78,1.13,1.09,1.46,1.09,1.46,1.17.78.83,1a3.07,3.07,0,0,1-2.14,1.07,69,69,0,0,1-7.14-.26,9.72,9.72,0,0,1-2.31-1.36l2.09-4A21.67,21.67,0,0,0,56,44.11C55.9,44,60.43,44.34,60.43,44.34Z"/><path class="cls-20" d="M61.22,45.8a5,5,0,0,0,0,1.16s.65,1,.78,1.13,1.09,1.46,1.09,1.46,1.18.77.83,1a18.46,18.46,0,0,0,3.38-1.11,19.36,19.36,0,0,1-3.69,1.24c.35-.2-.83-1-.83-1s-1-1.3-1.09-1.46-.78-1.13-.78-1.13a5,5,0,0,1,0-1.17,8.92,8.92,0,0,0-.52-1.61S61.3,45.63,61.22,45.8Z"/><path class="cls-20" d="M54.27,41.9a9.16,9.16,0,0,0-1.5,1.18,4.58,4.58,0,0,0,0,.84,10.59,10.59,0,0,1-1.05,1.32A15.07,15.07,0,0,1,48.84,47a4.07,4.07,0,0,0-1,.39s-.4,1-.22,1.23a4.65,4.65,0,0,0,.39.45h3.83l3-4.65.44-2Z"/><path class="cls-21" d="M57.34,44.63s-.09,1.1-.44,1.42A9.91,9.91,0,0,0,56,48.12s-.7,1.43-1.14,1.49a12.22,12.22,0,0,0-2,1s-1.22-.13-2.61-.39S47.41,49,48.1,48.84s3.93-2.79,4.45-3.37a11.93,11.93,0,0,0,1.24-2.42l3.64,1.13Z"/><path class="cls-23" d="M47.76,48.66s.06-.1.17-.11a22.83,22.83,0,0,0,4.57-3.34,12,12,0,0,0,1.27-2.39l1.21.36.17-.81h.23l-.23,1.08L53.79,43a11.94,11.94,0,0,1-1.24,2.43C52,46,48.8,48.67,48.1,48.8a.21.21,0,0,0-.17.12c-.08-.08-.17-.2-.26-.31s0,0,0-.08Z"/><path class="cls-20" d="M49.89,50c1.39.26,2.61.39,2.61.39a12,12,0,0,1,2-1c.43-.06,1.13-1.49,1.13-1.49a9.54,9.54,0,0,1,1-2.07c.35-.32.43-1.42.43-1.42l.06-.31.38.11-.09.46S57.3,45.7,57,46a9.33,9.33,0,0,0-1,2.07s-.7,1.43-1.13,1.49a11.27,11.27,0,0,0-2,1s-1.22-.13-2.61-.39a4.73,4.73,0,0,1-2-.93A5.07,5.07,0,0,0,49.89,50Z"/><path class="cls-12" d="M54.27,41.9a1.87,1.87,0,0,0-.29.2c-.76.56-1.09,1.23-.84,1.86s1.34.81,2.66,1.12c.61.14,1.19.69,1.91.72a14.21,14.21,0,0,0,2.41-.11A11.91,11.91,0,0,0,61.94,45a9.42,9.42,0,0,0,2.12-.61.76.76,0,0,0,.19-.12c.75-.57.57-.88.32-1.53s.84-1.35-1.06-1.62c-.95-.13-2.17-.11-3.32-.16a16.14,16.14,0,0,0-2.51.27A9.68,9.68,0,0,0,54.27,41.9Z"/><path class="cls-24" d="M54.77,42.09a1.84,1.84,0,0,0-.25.17c-.66.47-1,1-.73,1.56s1.17.68,2.31.94c.53.12,1,.58,1.66.61a13.78,13.78,0,0,0,2.1-.1,10.17,10.17,0,0,0,1.58-.61,8.59,8.59,0,0,0,1.85-.51l.16-.1c.65-.48.49-.75.27-1.29s.74-1.13-.92-1.36c-.82-.11-1.88-.09-2.88-.13a12.93,12.93,0,0,0-2.18.23A8.74,8.74,0,0,0,54.77,42.09Z"/><path class="cls-25" d="M54.56,42.3l.06,0a1,1,0,0,0,0,.6c.25.61,1.17.68,2.31.94.53.12,1,.58,1.66.61a13.72,13.72,0,0,0,2.1-.1,11.92,11.92,0,0,0,1.59-.6c.64-.18,1.18-.24,1.62-.42.06.26,0,.49-.45.8l-.16.11a9.59,9.59,0,0,1-1.84.51,10.69,10.69,0,0,1-1.59.6,11.58,11.58,0,0,1-2.1.1c-.62,0-1.13-.49-1.66-.61-1.14-.26-2-.33-2.31-.93S53.9,42.77,54.56,42.3Z"/><path class="cls-14" d="M46.32,28.2c-.63-.06.34.32.59.44s-.66.31.19.23c.12,0,.59.33.59.33s.33.25.28.45-.42.69-.17.92.34.78.6,1.17,1.86,1.17,1.51,1.36a16.72,16.72,0,0,1-3,1.07l-1.46-.92s-1.7-3.36-1.7-3.44a7.09,7.09,0,0,1,.47-1.39Z"/><path class="cls-13" d="M43.46,34.8c.14,0,1.1-.19,1.1-.19s1.15-.18,1.45-.17a2.29,2.29,0,0,0,.91-.27c0-.05.38-1.33.17-1.59s-1.52-1.35-1.6-1.52-.74-1.08-.66-1.37a2.52,2.52,0,0,0,.09-.64L41.79,29Z"/><path class="cls-12" d="M36.82,28.17s-.74,1.11-.63,1.25-.14.48-.28.55-.35.65-.46.77-.76.75-.78.8-.53.58-.55.64a2.78,2.78,0,0,0,.57.89,16.42,16.42,0,0,1,1.44.82c.08.09,1.59.66,1.59.66S40.3,33.16,40.47,33s-.66-.86-.69-1-.05-1.06-.08-1.23a13.91,13.91,0,0,1,0-1.42c0-.08.22-.43.22-.43Z"/><path class="cls-15" d="M39.54,29.29c0,.05-.09,1.19-.11,1.25s.27.54.27.69-.16.9-.16.9a10.34,10.34,0,0,1-.39,1.52c-.11.11-1.43.9-1.43.9s2,.14,2.17.18,1.21.28,1.48.31a12.05,12.05,0,0,0,2.09-.24c.25-.1-.47-2.71-.66-2.94a6.72,6.72,0,0,1-.33-1.9,3.34,3.34,0,0,1,.17-.7l-2.86-.49Z"/><path class="cls-16" d="M46.58,28.38a1.69,1.69,0,0,1,.28.12c.71.34,1,.75.79,1.13s-1.27.49-2.51.68a11.42,11.42,0,0,1-1.81.44,22.12,22.12,0,0,1-2.28-.06c-.6-.06-1.21-.35-1.73-.45a14.25,14.25,0,0,1-2-.37.75.75,0,0,1-.18-.07c-.71-.35-.54-.54-.3-.93s-.8-.83,1-1c.9-.08,2-.07,3.14-.1a22,22,0,0,1,2.37.17A13.57,13.57,0,0,1,46.58,28.38Z"/><path class="cls-17" d="M46.11,28.48l.25.1c.63.29.9.62.7,1s-1.12.4-2.22.56a11.14,11.14,0,0,1-1.6.36,19.49,19.49,0,0,1-2-.05c-.53,0-1.07-.29-1.53-.37A12.22,12.22,0,0,1,38,29.72l-.16-.06c-.63-.29-.47-.45-.26-.77s-.71-.68.88-.82c.79-.06,1.8-.05,2.77-.08.63,0,1.4.08,2.09.14A12.86,12.86,0,0,1,46.11,28.48Z"/><path class="cls-18" d="M46.36,28.58l-.25-.1-.14,0a.42.42,0,0,1,.11.55c-.25.36-1.12.4-2.22.56a12.85,12.85,0,0,1-1.59.37c-.64,0-1.32,0-2-.06a14.11,14.11,0,0,1-1.52-.37c-.54-.09-1-.13-1.39-.2,0,.11.13.22.44.36l.16.06a12.22,12.22,0,0,0,1.76.31c.46.08,1,.32,1.53.37a19.49,19.49,0,0,0,2,.05,11.14,11.14,0,0,0,1.6-.36c1.1-.16,2-.2,2.22-.56S47,28.87,46.36,28.58Z"/><path class="cls-14" d="M37,32.05a6,6,0,0,1,1.28.52c.37.18-1,.47.28.34a3.13,3.13,0,0,1,.57.07s.82.81.74,1.11-.63,1-.26,1.38.51,1.16.91,1.74,2.77,1.75,2.26,2a25.33,25.33,0,0,1-4.48,1.6l-2.18-1.38s-2.55-5-2.55-5.15a10.81,10.81,0,0,1,.7-2.08Z"/><path class="cls-13" d="M33.12,41.79c.2,0,1.64-.28,1.64-.28s1.73-.27,2.18-.25a3.48,3.48,0,0,0,1.36-.41c.08-.07.57-2,.24-2.38s-2.26-2-2.38-2.27-1.11-1.62-1-2.06a3.9,3.9,0,0,0,.13-1l-4.69-.07Z"/><path class="cls-12" d="M23.12,31.67s-1.05,1.86-.89,2.07-.21.71-.41.83-.54,1-.7,1.15S20,36.84,20,36.91s-.78.87-.82,1A4.14,4.14,0,0,0,20,39.2a24.87,24.87,0,0,1,2.16,1.24c.12.13,2.38,1,2.38,1s3.86-2.08,4.11-2.33-1-1.29-1-1.49-.08-1.58-.12-1.83a17.32,17.32,0,0,1,0-2.13c0-.12.33-.64.33-.64Z"/><path class="cls-15" d="M27.24,33.55c0,.06-.12,1.78-.16,1.87s.41.8.41,1-.25,1.35-.25,1.35a15.67,15.67,0,0,1-.57,2.27c-.17.16-2.14,1.35-2.14,1.35s3,.21,3.25.27,1.8.42,2.21.46a18,18,0,0,0,3.13-.36c.37-.14-.7-4.06-1-4.4a10.21,10.21,0,0,1-.49-2.84,5,5,0,0,1,.25-1l-4.28-.73Z"/><path class="cls-16" d="M37.78,32.14a2.65,2.65,0,0,1,.42.18c1.07.51,1.54,1.12,1.19,1.7s-1.91.73-3.76,1a18.25,18.25,0,0,1-2.71.65,30.48,30.48,0,0,1-3.41-.1,23.82,23.82,0,0,1-2.59-.66,21.33,21.33,0,0,1-3-.55c-.09,0-.18-.07-.27-.12-1.06-.52-.8-.8-.45-1.39S22,31.64,24.7,31.39c1.35-.12,3.07-.1,4.7-.14a34.33,34.33,0,0,1,3.56.24A20.1,20.1,0,0,1,37.78,32.14Z"/><path class="cls-17" d="M37.08,32.34a2.39,2.39,0,0,1,.37.15c.95.43,1.36.93,1,1.41s-1.68.6-3.32.84a16.56,16.56,0,0,1-2.39.54,27.92,27.92,0,0,1-3-.08c-.8-.07-1.6-.42-2.28-.54a19.76,19.76,0,0,1-2.65-.47,2.18,2.18,0,0,1-.23-.09c-.94-.43-.71-.67-.39-1.15s-1.06-1,1.32-1.23c1.18-.1,2.7-.08,4.14-.12.95,0,2.1.12,3.13.21A18.83,18.83,0,0,1,37.08,32.34Z"/><path class="cls-18" d="M37.45,32.49a2.39,2.39,0,0,0-.37-.15,1.29,1.29,0,0,0-.21-.06.63.63,0,0,1,.16.83c-.36.54-1.67.61-3.31.84a18.33,18.33,0,0,1-2.39.55c-.95,0-2,0-3-.09-.8-.07-1.6-.42-2.29-.54s-1.49-.2-2.07-.32c0,.17.2.34.66.55a2.18,2.18,0,0,0,.23.09,19.76,19.76,0,0,0,2.65.47c.68.12,1.48.47,2.28.54a27.92,27.92,0,0,0,3,.08,16.56,16.56,0,0,0,2.39-.54c1.64-.24,3-.3,3.32-.84S38.4,32.92,37.45,32.49Z"/><path class="cls-14" d="M97.77,32.18c.08,0,.33.19.57.26s-.63.2.17.15a2.33,2.33,0,0,1,.56.2s.32.16.27.28-.4.44-.17.58.33.48.57.72,1.76.73,1.43.85a21.36,21.36,0,0,1-2.82.66L97,35.31s-1.61-2.09-1.61-2.14a3.67,3.67,0,0,1,.44-.86Z"/><path class="cls-13" d="M95.08,36.27l1-.11s1.09-.12,1.38-.11a3,3,0,0,0,.86-.17c.05,0,.36-.83.15-1S97.07,34.06,97,34s-.7-.67-.63-.85a1.14,1.14,0,0,0,.08-.4l-3,0Z"/><path class="cls-28" d="M88.77,32.07s-.67.78-.57.86-.13.3-.26.34-.33.41-.44.48-.71.47-.73.5-.5.36-.52.4a1.74,1.74,0,0,0,.54.55c.13,0,1.28.45,1.36.51s1.51.41,1.51.41,2.43-.87,2.59-1-.62-.53-.65-.62,0-.65-.08-.76a5.31,5.31,0,0,1,0-.88,2.71,2.71,0,0,1,.2-.27Z"/><path class="cls-11" d="M91.37,32.85s-.08.74-.1.78.25.33.25.43a4.75,4.75,0,0,1-.15.56,4.93,4.93,0,0,1-.36.94c-.11.06-1.35.56-1.35.56s1.92.08,2,.11,1.15.17,1.41.19a16.17,16.17,0,0,0,2-.15c.23-.06-.44-1.68-.63-1.82a3,3,0,0,1-.31-1.18,1.47,1.47,0,0,1,.16-.44l-2.7-.3Z"/><path class="cls-16" d="M98,32.23l.27.07c.67.22,1,.47.74.71a5.73,5.73,0,0,1-2.37.42,15.27,15.27,0,0,1-1.71.28c-.68,0-1.41,0-2.15-.05-.57,0-1.15-.21-1.64-.27a18.79,18.79,0,0,1-1.89-.23l-.17,0c-.67-.21-.5-.33-.28-.58s-.75-.51,1-.61c.85-.05,1.93,0,3-.06.68,0,1.51.06,2.24.1A18.85,18.85,0,0,1,98,32.23Z"/><path class="cls-17" d="M97.58,32.35l.23.06c.6.18.86.39.66.59a5.59,5.59,0,0,1-2.09.35c-.48,0-.94.21-1.51.22s-1.24,0-1.89,0-1-.18-1.45-.23c-.68-.08-1.23-.09-1.66-.19l-.15,0c-.59-.18-.45-.28-.25-.48s-.66-.42.83-.51c.75,0,1.71,0,2.62-.05.6,0,1.32.05,2,.09A16.92,16.92,0,0,1,97.58,32.35Z"/><path class="cls-18" d="M97.81,32.41l-.23-.06-.14,0c.17.12.22.23.11.35a5.59,5.59,0,0,1-2.09.35c-.48,0-.94.21-1.51.22s-1.24,0-1.9,0c-.5,0-1-.18-1.44-.23s-.94-.08-1.31-.13c0,.07.13.14.42.23l.15,0c.43.1,1,.11,1.66.19.44,0,.94.2,1.45.23s1.29,0,1.89,0,1-.18,1.51-.22A5.59,5.59,0,0,0,98.47,33C98.67,32.8,98.41,32.59,97.81,32.41Z"/><path class="cls-14" d="M50.61,48.38c.08,0,.33.2.56.27s-.63.2.17.15a2.33,2.33,0,0,1,.56.2s.32.16.27.28-.4.43-.16.58.32.48.57.72,1.75.72,1.42.84a20.34,20.34,0,0,1-2.82.67l-1.38-.57s-1.61-2.09-1.61-2.14a3.36,3.36,0,0,1,.45-.86Z"/><path class="cls-13" d="M47.91,52.48l1-.12s1.09-.11,1.37-.1a2.89,2.89,0,0,0,.86-.17s.36-.83.15-1-1.42-.84-1.5-.94-.7-.68-.62-.86a1.24,1.24,0,0,0,.07-.39l-3,0Z"/><path class="cls-12" d="M41.6,48.28s-.67.77-.56.86-.13.29-.26.34-.34.4-.44.48l-.74.5s-.49.36-.52.4a2,2,0,0,0,.55.55c.12,0,1.28.45,1.35.51s1.51.41,1.51.41,2.44-.87,2.59-1-.62-.54-.64-.62-.06-.66-.08-.76a4.46,4.46,0,0,1,0-.88c0-.05.21-.27.21-.27Z"/><path class="cls-15" d="M44.2,49.06s-.08.74-.1.78.26.33.26.42a4.06,4.06,0,0,1-.16.56,5,5,0,0,1-.36,1c-.11.06-1.35.56-1.35.56s1.92.08,2,.11,1.14.17,1.4.19a15.87,15.87,0,0,0,2-.15c.23-.06-.44-1.68-.62-1.83A2.88,2.88,0,0,1,47,49.48a1.53,1.53,0,0,1,.15-.44l-2.69-.31Z"/><path class="cls-16" d="M50.85,48.52l.27.07c.67.22,1,.47.75.71a5.75,5.75,0,0,1-2.38.42,14.9,14.9,0,0,1-1.71.28c-.68,0-1.41,0-2.15,0-.57,0-1.14-.22-1.63-.28a18.67,18.67,0,0,1-1.9-.23l-.16-.05c-.68-.21-.51-.33-.29-.57s-.75-.52,1-.62c.85-.05,1.93,0,3-.06.68,0,1.5.06,2.24.1A20.06,20.06,0,0,1,50.85,48.52Z"/><path class="cls-17" d="M50.41,48.56l.24.06c.59.18.85.38.66.58a5.21,5.21,0,0,1-2.1.35,14.42,14.42,0,0,1-1.5.23c-.61,0-1.25,0-1.9,0s-1-.17-1.44-.22c-.69-.08-1.24-.09-1.67-.19l-.15,0c-.59-.18-.44-.28-.24-.48s-.67-.43.83-.51c.75,0,1.7,0,2.61,0,.6,0,1.33,0,2,.09A16.81,16.81,0,0,1,50.41,48.56Z"/><path class="cls-18" d="M50.65,48.62l-.24-.06-.13,0c.16.12.21.23.1.35a5.59,5.59,0,0,1-2.09.35c-.48,0-.94.21-1.51.22s-1.24,0-1.89,0-1-.18-1.44-.23-1-.08-1.31-.13c0,.07.12.14.41.23l.15,0c.43.1,1,.11,1.67.19.43,0,.94.2,1.44.22s1.29,0,1.9,0a14.42,14.42,0,0,0,1.5-.23,5.21,5.21,0,0,0,2.1-.35C51.5,49,51.24,48.8,50.65,48.62Z"/><path class="cls-14" d="M14.9,39.21a7.14,7.14,0,0,1,.81.16c.14,0-.38.11.11.08a1.74,1.74,0,0,1,.34.13s.19.09.16.17-.24.26-.1.34.19.29.34.44,1.06.44.86.51a13.24,13.24,0,0,1-1.7.4l-.83-.34s-1-1.27-1-1.29a2.37,2.37,0,0,1,.26-.53Z"/><path class="cls-13" d="M13.74,41.68c.08,0,.63-.07.63-.07s.66-.07.83-.07a1.63,1.63,0,0,0,.52-.1s.22-.5.09-.6-.86-.5-.91-.56-.42-.41-.37-.52a.81.81,0,0,0,0-.24l-1.78,0Z"/><path class="cls-12" d="M9.94,39.14s-.4.47-.34.52-.08.18-.16.21-.2.24-.26.29l-.45.29s-.3.22-.31.25a1,1,0,0,0,.33.33c.07,0,.77.27.82.31s.9.24.9.24S12,41.06,12,41s-.38-.32-.39-.37,0-.4-.05-.46a3.32,3.32,0,0,1,0-.54l.12-.16Z"/><path class="cls-15" d="M11.51,39.61s0,.45-.06.47.15.2.15.26a2.65,2.65,0,0,1-.09.34,2.92,2.92,0,0,1-.22.56c-.06,0-.82.34-.82.34s1.16.05,1.24.07.69.11.85.12a11.28,11.28,0,0,0,1.18-.09c.15,0-.26-1-.37-1.11s-.19-.63-.19-.71a.87.87,0,0,1,.1-.26l-1.63-.18Z"/><path class="cls-16" d="M15.52,39.32l.16,0c.41.13.59.29.45.43s-.72.19-1.43.26c-.33,0-.64.15-1,.16s-.85,0-1.3,0-.69-.13-1-.17c-.47-.06-.85-.07-1.14-.14l-.1,0c-.41-.13-.3-.2-.17-.35s-.46-.3.57-.37c.51,0,1.17,0,1.79,0,.41,0,.91,0,1.35.06A11.51,11.51,0,0,1,15.52,39.32Z"/><path class="cls-17" d="M15.26,39.31l.14,0c.35.1.51.23.39.35a3.34,3.34,0,0,1-1.26.21c-.29,0-.56.13-.91.14s-.75,0-1.14,0-.61-.11-.87-.14c-.42,0-.75-.06-1-.12l-.09,0c-.35-.11-.27-.17-.15-.29s-.4-.25.51-.31c.45,0,1,0,1.57,0,.37,0,.8,0,1.2.06A10.91,10.91,0,0,1,15.26,39.31Z"/><path class="cls-18" d="M15.4,39.35l-.14,0-.09,0c.1.07.13.14.07.21a3.25,3.25,0,0,1-1.27.21c-.29,0-.56.13-.9.14s-.75,0-1.15,0-.61-.11-.87-.14l-.79-.08s.08.09.25.14l.09,0c.26.06.59.07,1,.12.26,0,.56.12.87.14s.78,0,1.14,0,.62-.11.91-.14a3.34,3.34,0,0,0,1.26-.21C15.91,39.58,15.75,39.45,15.4,39.35Z"/><path class="cls-14" d="M30,46a1.45,1.45,0,0,1,.45.06c.14,0-.38.11.11.08a1.83,1.83,0,0,1,.34.12s.19.1.16.17-.24.27-.1.35.19.29.34.44,1.06.44.86.51a13.24,13.24,0,0,1-1.7.4l-.83-.35s-1-1.26-1-1.28a2.37,2.37,0,0,1,.26-.53Z"/><path class="cls-13" d="M28.47,48.32l.62-.06s.66-.07.83-.07a1.63,1.63,0,0,0,.52-.1s.22-.5.09-.6-.86-.5-.91-.56-.42-.41-.37-.52a.81.81,0,0,0,0-.24l-1.78,0Z"/><path class="cls-12" d="M24.66,45.79s-.4.47-.34.52-.08.18-.16.21-.2.24-.26.28l-.45.3s-.3.22-.31.24.25.31.33.34a8.74,8.74,0,0,1,.82.31s.9.24.9.24,1.48-.52,1.57-.58-.38-.32-.39-.38,0-.39-.05-.45a3.32,3.32,0,0,1,0-.54,1.32,1.32,0,0,1,.12-.16Z"/><path class="cls-15" d="M26.23,46.26s-.05.45-.06.47.15.2.15.26a2.65,2.65,0,0,1-.09.34,2.92,2.92,0,0,1-.22.56c-.06,0-.82.34-.82.34s1.16.05,1.24.07l.85.12a9.39,9.39,0,0,0,1.19-.1c.14,0-.27-1-.38-1.1s-.19-.63-.19-.71a.87.87,0,0,1,.1-.26l-1.63-.19Z"/><path class="cls-16" d="M30.24,46l.16,0c.41.13.59.29.45.43a3.67,3.67,0,0,1-1.43.26c-.33,0-.64.15-1,.16s-.85,0-1.3,0-.69-.13-1-.17c-.47-.06-.85-.07-1.15-.14l-.1,0c-.41-.13-.3-.2-.17-.35s-.46-.31.57-.37c.52,0,1.17,0,1.79,0,.41,0,.91,0,1.35.06A11.51,11.51,0,0,1,30.24,46Z"/><path class="cls-17" d="M30,46l.14,0c.36.11.51.24.39.36a3.34,3.34,0,0,1-1.26.21c-.29,0-.56.13-.91.14s-.75,0-1.14,0-.61-.1-.87-.13-.75-.06-1-.12l-.09,0c-.35-.11-.27-.17-.15-.29s-.4-.26.51-.31c.45,0,1,0,1.57,0,.37,0,.8,0,1.2,0A10.63,10.63,0,0,1,30,46Z"/><path class="cls-18" d="M30.12,46,30,46l-.08,0c.09.07.13.14.06.21a3.25,3.25,0,0,1-1.27.21c-.29,0-.56.13-.9.14s-.75,0-1.15,0-.61-.11-.87-.14L25,46.26s.08.09.25.14l.09,0c.26.06.6.07,1,.12s.57.12.87.13.78,0,1.14,0,.62-.11.91-.14a3.34,3.34,0,0,0,1.26-.21C30.63,46.23,30.48,46.1,30.12,46Z"/><path class="cls-14" d="M42,40s.2.12.34.16-.38.12.11.09a1.22,1.22,0,0,1,.33.12s.19.1.16.17-.24.26-.09.35.19.29.34.43,1.06.44.86.52a13.24,13.24,0,0,1-1.7.4l-.83-.35s-1-1.26-1-1.29a2,2,0,0,1,.27-.52Z"/><path class="cls-13" d="M40.4,42.51l.63-.07s.66-.07.83-.06a2.64,2.64,0,0,0,.52-.1s.21-.5.09-.6-.86-.5-.91-.57-.42-.4-.37-.51a.81.81,0,0,0,0-.24l-1.78,0Z"/><path class="cls-12" d="M36.6,40s-.41.47-.34.52-.08.17-.16.2-.2.25-.27.29-.43.28-.44.3-.3.22-.31.24a1.09,1.09,0,0,0,.32.33c.08,0,.78.28.83.31s.9.25.9.25,1.47-.52,1.57-.59-.38-.32-.39-.37,0-.39-.05-.46a3.25,3.25,0,0,1,0-.53l.13-.16Z"/><path class="cls-15" d="M38.17,40.45a4.47,4.47,0,0,1-.07.47s.16.2.16.26a2.93,2.93,0,0,1-.09.33,3,3,0,0,1-.22.57c-.07,0-.82.34-.82.34s1.16,0,1.24.07l.84.11a7.75,7.75,0,0,0,1.19-.09c.14,0-.26-1-.37-1.1a1.75,1.75,0,0,1-.19-.71.93.93,0,0,1,.09-.26l-1.62-.19Z"/><path class="cls-16" d="M42.18,40.16l.16,0c.41.13.59.28.45.43a3.59,3.59,0,0,1-1.43.25,9.22,9.22,0,0,1-1,.17c-.42,0-.85,0-1.3,0s-.69-.13-1-.16c-.47-.06-.85-.07-1.14-.14l-.1,0c-.41-.13-.31-.2-.17-.35s-.46-.31.57-.37c.51,0,1.17,0,1.79,0,.41,0,.91,0,1.35.07A10.44,10.44,0,0,1,42.18,40.16Z"/><path class="cls-17" d="M41.91,40.14l.15,0c.35.11.51.23.39.36a3.44,3.44,0,0,1-1.26.21c-.29,0-.57.13-.91.13s-.75,0-1.14,0-.61-.1-.87-.14a9.13,9.13,0,0,1-1-.11l-.09,0c-.35-.11-.27-.17-.15-.29s-.4-.26.5-.31c.46,0,1,0,1.58,0,.36,0,.8,0,1.19,0A10.79,10.79,0,0,1,41.91,40.14Z"/><path class="cls-18" d="M42.06,40.18l-.15,0h-.08c.1.07.13.14.07.21a3.46,3.46,0,0,1-1.27.21c-.29,0-.56.13-.91.14l-1.14,0c-.3,0-.61-.1-.87-.13l-.79-.08s.08.08.25.14l.09,0a9.13,9.13,0,0,0,1,.11c.26,0,.56.12.87.14s.78,0,1.14,0,.62-.11.91-.13a3.44,3.44,0,0,0,1.26-.21C42.57,40.41,42.41,40.29,42.06,40.18Z"/><path class="cls-14" d="M66.2,15.12c.09,0,.38.22.66.31s-.73.23.2.17a2.72,2.72,0,0,1,.65.24s.37.18.31.32-.46.5-.19.67.38.56.66.84,2,.84,1.66,1a24.88,24.88,0,0,1-3.28.78l-1.6-.67s-1.87-2.43-1.87-2.48a4,4,0,0,1,.51-1Z"/><path class="cls-13" d="M63.07,19.88l1.2-.13s1.27-.14,1.6-.13a3.73,3.73,0,0,0,1-.19c.06,0,.42-1,.18-1.15s-1.66-1-1.75-1.1-.82-.78-.73-1a1.38,1.38,0,0,0,.09-.47l-3.43,0Z"/><path class="cls-12" d="M55.73,15s-.77.9-.66,1-.15.35-.3.4-.39.47-.51.56-.83.54-.86.58-.57.42-.6.46a2,2,0,0,0,.63.64c.15.05,1.49.53,1.58.6s1.75.47,1.75.47,2.84-1,3-1.13-.73-.61-.75-.71-.07-.77-.1-.89a5.91,5.91,0,0,1,0-1,2.42,2.42,0,0,1,.24-.31Z"/><path class="cls-15" d="M58.75,15.9s-.09.86-.12.91.3.38.3.49a5.32,5.32,0,0,1-.18.66,5.45,5.45,0,0,1-.42,1.09c-.12.08-1.57.65-1.57.65s2.23.1,2.39.13,1.32.2,1.63.23a21.44,21.44,0,0,0,2.29-.18c.27-.07-.52-2-.73-2.12A3.41,3.41,0,0,1,62,16.39a1.76,1.76,0,0,1,.18-.51L59,15.52Z"/><path class="cls-16" d="M66.49,15.26l.31.09c.78.25,1.12.54.87.82s-1.4.36-2.76.49a17.65,17.65,0,0,1-2,.32c-.8,0-1.64,0-2.51-.05-.66,0-1.32-.24-1.9-.32-.9-.1-1.63-.13-2.2-.26l-.19-.06c-.78-.25-.59-.39-.33-.67s-.88-.6,1.1-.72c1-.05,2.25-.05,3.45-.07.79,0,1.75.07,2.61.12A22.85,22.85,0,0,1,66.49,15.26Z"/><path class="cls-17" d="M66,15.32l.27.07c.69.21,1,.45.76.68a6.42,6.42,0,0,1-2.43.41c-.56.05-1.09.25-1.75.26s-1.44,0-2.21,0c-.58,0-1.17-.21-1.67-.26A19.3,19.3,0,0,1,57,16.21l-.17,0c-.69-.21-.52-.33-.29-.56s-.78-.49,1-.59c.87,0,2,0,3-.06.69,0,1.54.06,2.3.1A20.17,20.17,0,0,1,66,15.32Z"/><path class="cls-18" d="M66.25,15.39,66,15.32l-.16,0c.19.13.25.27.12.4a6.47,6.47,0,0,1-2.43.41c-.56,0-1.09.25-1.75.26s-1.45,0-2.21,0c-.59,0-1.17-.21-1.68-.26s-1.09-.1-1.52-.15c0,.08.15.16.49.26l.17,0a19.3,19.3,0,0,0,1.94.23c.5,0,1.09.23,1.67.26.77,0,1.51.05,2.21,0s1.19-.21,1.75-.26A6.42,6.42,0,0,0,67,16.07C67.24,15.84,66.94,15.6,66.25,15.39Z"/><path class="cls-11" d="M84,18.42s.11,2.85.21,4.52.58,1.85.61,1.66.38-5.41.38-5.41Z"/><path class="cls-12" d="M84.18,18.59a10.31,10.31,0,0,0-.28,2.18,21.08,21.08,0,0,1-.29,5.87c0,.43-.37,2.79-.37,3.38a14.83,14.83,0,0,1-.44,4.59c-.28,1.15-1.11,7.12-1.11,7.12.18,1.14,1,.63,1.32,1a1.09,1.09,0,0,0,1.44-.43c.72-1.75-.46-.06.88,1.47a39.23,39.23,0,0,0,2.4-4.6c.12-.72-.67-3.65-.7-4.24s-.17-4.52-.21-5.24-.2-5.76-.18-6.08.14-1.84.14-1.84Z"/><path class="cls-13" d="M84.54,21.5a21.75,21.75,0,0,0,0,2.69,21,21,0,0,1,.46,3c0,.27-.11,3.44-.23,3.91s-.5,3.32-.49,3.72,0,3,0,3.23-.9,3.73-.9,3.73-.08.81-.07,1a9.39,9.39,0,0,0,2,.92l2.29-.49.14-14.62-.31-9Z"/><path class="cls-14" d="M92.24,18.35c.07-.07.33,1.32.56,1.84s-.07.56.66.19a20.84,20.84,0,0,1-.09,2.47s.19,2.08.17,2.93a9.51,9.51,0,0,0,.24,2.69,41.66,41.66,0,0,0,.89,5c.78,2.29,1.69,6.16,1.53,6.37a11.14,11.14,0,0,1-2.43,2.7L92.05,40S90.2,25.61,90.19,25.28s.19-6,.26-6S92.24,18.35,92.24,18.35Z"/><path class="cls-13" d="M90.36,44.13a5.69,5.69,0,0,0,1.38-.41s.86-.68,1.12-.63.86-.39.91-.59a45.67,45.67,0,0,0-.34-5.28c-.22-1.11-1.46-5.73-1.55-6.45s-.76-4.63-.72-5.88,0-2.75,0-2.75L88.44,22Z"/><path class="cls-15" d="M86.52,23.31c0,.2,0,5.1,0,5.37s.29,2.28.31,2.94,0,3.86,0,3.86-.09,6-.17,6.5a7.67,7.67,0,0,1-1.33,1.75,6.37,6.37,0,0,1,1.41.61,5.77,5.77,0,0,0,1.92.25c.71,0,1.58-.19,1.79-.58a93.84,93.84,0,0,0-.82-9.77c-.19-1-.47-7.2-.49-8.12s.06-3,.06-3l-2.53-2Z"/><path class="cls-16" d="M92.51,18.44a1.72,1.72,0,0,1,.25.28,3.22,3.22,0,0,1,.76,2.66c-.21,1-1.08,1.19-2.14,1.66-.5.22-1,1-1.55,1.07a6.68,6.68,0,0,1-2-.1c-.53-.12-1.07-.78-1.53-1a6.14,6.14,0,0,1-1.76-.84A.87.87,0,0,1,84.4,22c-.64-.81-.5-1.26-.32-2.19.16-.75-.74-1.92.81-2.35a19.67,19.67,0,0,1,2.72-.3,7.78,7.78,0,0,1,2.07.34C91,17.78,91.82,17.78,92.51,18.44Z"/><path class="cls-17" d="M92.12,18.9a2.44,2.44,0,0,1,.22.23,2.58,2.58,0,0,1,.66,2.2c-.19.86-1,1-1.89,1.38-.44.18-.84.85-1.37.89A6.08,6.08,0,0,1,88,23.52c-.47-.1-.94-.65-1.35-.83A5.59,5.59,0,0,1,85.1,22L85,21.86c-.56-.67-.44-1-.27-1.81s-.66-1.59.71-1.95a18.65,18.65,0,0,1,2.4-.25,7.14,7.14,0,0,1,1.83.28C90.78,18.35,91.51,18.35,92.12,18.9Z"/><path class="cls-18" d="M92.34,19.13a2.44,2.44,0,0,0-.22-.23.91.91,0,0,0-.13-.08,2.32,2.32,0,0,1,.13,1.3c-.19.85-1,1-1.89,1.37-.44.18-.84.84-1.36.89a6.12,6.12,0,0,1-1.75-.08c-.47-.1-.94-.65-1.35-.83s-.87-.28-1.22-.46a1.57,1.57,0,0,0,.41.85l.14.14a5.59,5.59,0,0,0,1.55.69c.41.18.88.73,1.35.83a6.08,6.08,0,0,0,1.74.08c.53,0,.93-.71,1.37-.89.94-.39,1.7-.52,1.89-1.38A2.58,2.58,0,0,0,92.34,19.13Z"/><path class="cls-30" d="M73,17c.47,0,.21.41.21.41.18.24.45.54.43.81s.39.24.42.32c.21.61.77.59.64.88a6.84,6.84,0,0,1-1.46.44c-.17,0-1-.51-1.31-.61s-2.57-1.9-2.57-1.9,1.53-.34,2-.4C71.61,16.91,73,17,73,17Z"/><path class="cls-10" d="M73.25,17.69s.2.21.15.27.13.39.13.39.43.17.48.27.08.35.22.45l.48.33s0,.34-.11.42a3.9,3.9,0,0,1-1,.21s-.85-.9-1-1-.68-.87-.7-.92,0-.62.11-.66A6,6,0,0,1,73.25,17.69Z"/><path class="cls-30" d="M73.51,18c-.05.06.06.32.06.32a1.78,1.78,0,0,1,.48.26c0,.1.08.36.22.45l.45.31a.14.14,0,0,1,0,.06s-.33-.24-.48-.33-.17-.36-.22-.45-.37-.22-.48-.27-.18-.33-.13-.39-.14-.27-.14-.27S73.56,17.94,73.51,18Z"/><path class="cls-5" d="M73,17.89c0,.07-.07.31,0,.43a2.28,2.28,0,0,0,.65.46c.08,0,.23.3.35.45a4.28,4.28,0,0,0,.45.5s.32.1-.09.3a8,8,0,0,1-1.51.52,7.24,7.24,0,0,1-1-.43,8.73,8.73,0,0,1-.45-1.05c0-.05,0-.77,0-.81s0-.57.06-.63A10.72,10.72,0,0,1,73,17.89Z"/><path class="cls-20" d="M73,18.35a4,4,0,0,0,.67.42c.08,0,.23.3.35.45a4.28,4.28,0,0,0,.45.5s.11,0,.13.09l0,0,0,0c0-.06-.11-.09-.13-.1s-.32-.35-.45-.5-.27-.43-.35-.45a2.59,2.59,0,0,1-.66-.47.84.84,0,0,1,0-.42S72.9,18.25,73,18.35Z"/><path class="cls-21" d="M71.64,18.22a3.82,3.82,0,0,1,.19.6,2,2,0,0,0,0,.43s.24.35.29.41l.4.54s.43.28.3.35a1.09,1.09,0,0,1-.78.39,23.06,23.06,0,0,1-2.62-.09,3.46,3.46,0,0,1-.85-.5l.77-1.45a7,7,0,0,0,.65-.76C70,18.09,71.64,18.22,71.64,18.22Z"/><path class="cls-20" d="M71.93,18.76a2,2,0,0,0,0,.43l.28.41.4.54s.44.28.31.35a6.72,6.72,0,0,0,1.24-.4,7.31,7.31,0,0,1-1.35.45c.12-.07-.31-.36-.31-.36l-.4-.53-.28-.42a1.46,1.46,0,0,1,0-.42,3.84,3.84,0,0,0-.2-.6S72,18.7,71.93,18.76Z"/><path class="cls-20" d="M69.38,17.33a3.83,3.83,0,0,0-.56.43c0,.07,0,.31,0,.31a4.85,4.85,0,0,1-.38.49,6,6,0,0,1-1.06.65,1.54,1.54,0,0,0-.35.14s-.14.37-.08.45a2.09,2.09,0,0,0,.15.17h1.4l1.12-1.71.16-.75Z"/><path class="cls-26" d="M70.5,18.33s0,.4-.16.52a3.9,3.9,0,0,0-.35.76s-.25.53-.41.55a4.1,4.1,0,0,0-.74.38s-.45-.05-1-.14-1-.48-.77-.52a8.27,8.27,0,0,0,1.63-1.24,4,4,0,0,0,.46-.89l1.34.41Z"/><path class="cls-23" d="M67,19.81s0,0,.07,0a8.4,8.4,0,0,0,1.68-1.23,4.44,4.44,0,0,0,.46-.87l.45.13.06-.3h.08l-.08.39-.5-.15a4.18,4.18,0,0,1-.46.89,7.85,7.85,0,0,1-1.63,1.23.08.08,0,0,0-.06.05l-.1-.12a0,0,0,0,0,0,0Z"/><path class="cls-20" d="M67.77,20.29c.51.1,1,.14,1,.14a4.69,4.69,0,0,1,.73-.38c.16,0,.42-.54.42-.54a3.38,3.38,0,0,1,.35-.76c.13-.12.16-.53.16-.53l0-.11.14,0,0,.17s0,.4-.16.52a3.38,3.38,0,0,0-.35.76s-.26.52-.42.55a4,4,0,0,0-.73.38s-.45-.05-1-.14a1.81,1.81,0,0,1-.75-.34A1.82,1.82,0,0,0,67.77,20.29Z"/><path class="cls-12" d="M69.38,17.33a.41.41,0,0,0-.11.07c-.28.21-.4.45-.31.69s.49.29,1,.41c.22.05.43.25.7.26a5.28,5.28,0,0,0,.88,0,4.07,4.07,0,0,0,.67-.27,4.19,4.19,0,0,0,.78-.22.18.18,0,0,0,.07-.05c.28-.21.21-.32.12-.56s.31-.49-.39-.59c-.35-.05-.8,0-1.22-.06a6,6,0,0,0-.92.1A3.46,3.46,0,0,0,69.38,17.33Z"/><path class="cls-24" d="M69.56,17.4l-.09.06c-.24.17-.35.38-.27.57s.43.25.85.35c.19,0,.38.21.61.22a5.1,5.1,0,0,0,.77,0,5,5,0,0,0,.58-.23,3.65,3.65,0,0,0,.68-.18l.06,0c.24-.18.18-.28.1-.47s.27-.42-.34-.5c-.3,0-.69,0-1.06,0a5.7,5.7,0,0,0-.8.08A3.17,3.17,0,0,0,69.56,17.4Z"/><path class="cls-25" d="M69.48,17.48l0,0a.33.33,0,0,0,0,.22c.09.22.43.25.85.35.19,0,.38.21.61.22a4.1,4.1,0,0,0,.77,0,3.66,3.66,0,0,0,.58-.22c.24-.06.44-.09.6-.15,0,.1,0,.18-.17.29l-.06,0a3.45,3.45,0,0,1-.67.19,4.53,4.53,0,0,1-.59.22,4,4,0,0,1-.77,0c-.23,0-.41-.18-.61-.23-.41-.09-.75-.12-.84-.34A.59.59,0,0,1,69.48,17.48Z"/><path class="cls-6" d="M49.16,23.27c.47,0,.21.42.21.42s.45.58.43.8.39.24.42.32c.21.61.77.6.64.88a6.31,6.31,0,0,1-1.46.44c-.17,0-1-.51-1.31-.6s-2.57-1.9-2.57-1.9,1.53-.35,2-.41C47.76,23.2,49.16,23.27,49.16,23.27Z"/><path class="cls-10" d="M49.4,24s.2.22.15.28.13.39.13.39.43.16.48.26.07.36.22.45l.48.33s0,.35-.11.42a3.9,3.9,0,0,1-1,.21s-.85-.9-.95-1a10.21,10.21,0,0,1-.7-.92s0-.61.11-.66A6,6,0,0,1,49.4,24Z"/><path class="cls-21" d="M49.59,24.22c-.05.06.13.39.13.39a1.78,1.78,0,0,1,.48.26c0,.1.08.36.22.46s.36.25.45.31l0,.05-.48-.33c-.14-.09-.17-.36-.22-.45s-.48-.26-.48-.26-.18-.33-.13-.39S49.4,24,49.4,24,49.64,24.16,49.59,24.22Z"/><path class="cls-5" d="M49.12,24.19c0,.07-.07.3,0,.42a2.55,2.55,0,0,0,.65.47c.08,0,.23.29.35.45s.4.47.45.5.32.09-.09.29a7.47,7.47,0,0,1-1.51.53,10.59,10.59,0,0,1-1-.43,8.86,8.86,0,0,1-.45-1.06c0-.05,0-.77,0-.81s0-.57.06-.63A10.67,10.67,0,0,1,49.12,24.19Z"/><path class="cls-20" d="M49.18,24.65a4.66,4.66,0,0,0,.67.41c.08,0,.22.3.35.46a5,5,0,0,0,.45.49s.11,0,.13.1,0,0-.05,0l0,0c0-.06-.11-.08-.13-.1a3.53,3.53,0,0,1-.45-.5c-.13-.15-.27-.42-.35-.45a2.32,2.32,0,0,1-.66-.46.87.87,0,0,1,0-.43S49.05,24.54,49.18,24.65Z"/><path class="cls-21" d="M47.79,24.52a3.4,3.4,0,0,1,.19.59,2,2,0,0,0,0,.43s.24.36.29.41l.4.54s.43.28.3.36a1.13,1.13,0,0,1-.78.39,25.38,25.38,0,0,1-2.62-.1,3.46,3.46,0,0,1-.85-.5l.76-1.45a7.06,7.06,0,0,0,.66-.76S47.79,24.52,47.79,24.52Z"/><path class="cls-20" d="M48.08,25.05a1.53,1.53,0,0,0,0,.43l.28.42c0,.05.4.53.4.53s.44.29.31.36a7,7,0,0,0,1.24-.41,7.31,7.31,0,0,1-1.35.45c.12-.07-.31-.35-.31-.35l-.4-.54c0-.06-.29-.41-.29-.41a2,2,0,0,1,0-.43c0-.06-.19-.56-.19-.59S48.11,25,48.08,25.05Z"/><path class="cls-20" d="M45.53,23.62a3.83,3.83,0,0,0-.56.43,3.09,3.09,0,0,0,0,.31,3.93,3.93,0,0,1-.38.49,5,5,0,0,1-1.06.65,1.74,1.74,0,0,0-.35.15s-.14.36-.08.45l.15.16h1.4l1.12-1.71.16-.75Z"/><path class="cls-21" d="M46.65,24.62s0,.41-.16.53a3.38,3.38,0,0,0-.35.76s-.25.52-.41.54a4.88,4.88,0,0,0-.74.38s-.45,0-1-.14-1-.47-.77-.52a7.9,7.9,0,0,0,1.63-1.24,4,4,0,0,0,.46-.89l1.34.42Z"/><path class="cls-23" d="M43.13,26.1s0,0,.07,0a8.75,8.75,0,0,0,1.68-1.22,4.73,4.73,0,0,0,.46-.88l.45.13.06-.29h.08l-.08.4-.5-.16a4,4,0,0,1-.46.89,7.9,7.9,0,0,1-1.63,1.24s-.06,0-.06,0l-.1-.11a0,0,0,0,0,0,0Z"/><path class="cls-20" d="M43.92,26.58c.51.1,1,.15,1,.15a4,4,0,0,1,.73-.38c.16,0,.42-.55.42-.55a3.38,3.38,0,0,1,.35-.76c.13-.12.16-.52.16-.52l0-.12.14.05,0,.16s0,.41-.16.53a3.19,3.19,0,0,0-.35.76s-.26.52-.42.54a4.69,4.69,0,0,0-.73.38s-.45-.05-1-.14a1.69,1.69,0,0,1-.75-.34A1.82,1.82,0,0,0,43.92,26.58Z"/><path class="cls-12" d="M45.53,23.62l-.11.07c-.28.21-.4.46-.31.69s.49.29,1,.41c.22.05.43.25.7.26a4.39,4.39,0,0,0,.88,0,4.06,4.06,0,0,0,.67-.26,3.49,3.49,0,0,0,.78-.23l.07,0c.28-.21.21-.33.12-.56s.31-.5-.39-.6c-.35-.05-.8,0-1.22-.06a6,6,0,0,0-.92.1A3.63,3.63,0,0,0,45.53,23.62Z"/><path class="cls-24" d="M45.71,23.69l-.09.06c-.24.18-.35.38-.27.58s.43.25.85.34a2.75,2.75,0,0,0,.61.22,5.1,5.1,0,0,0,.77,0,5,5,0,0,0,.58-.22,3.57,3.57,0,0,0,.68-.19l.06,0c.24-.18.18-.27.1-.47s.27-.42-.34-.5c-.3,0-.69,0-1.06-.05a5.7,5.7,0,0,0-.8.08A3.43,3.43,0,0,0,45.71,23.69Z"/><path class="cls-18" d="M45.63,23.77l0,0a.36.36,0,0,0,0,.23c.09.22.43.24.85.34.19,0,.38.21.61.22a5.1,5.1,0,0,0,.77,0,5,5,0,0,0,.58-.22c.24-.07.43-.09.6-.16,0,.1,0,.18-.17.3l-.06,0a3.52,3.52,0,0,1-.67.18,4.53,4.53,0,0,1-.59.23,5,5,0,0,1-.77,0c-.23,0-.41-.18-.61-.22-.42-.1-.75-.12-.84-.35S45.39,23.94,45.63,23.77Z"/><path class="cls-14" d="M84.56,42.3c.06,0,.23.14.4.19s-.44.14.12.1a2,2,0,0,1,.39.15s.23.11.19.19-.28.31-.11.41.22.34.4.51,1.23.51,1,.59a14.57,14.57,0,0,1-2,.47l-1-.4S82.86,43,82.86,43a2.69,2.69,0,0,1,.31-.61Z"/><path class="cls-13" d="M82.66,45.18l.73-.08s.77-.08,1-.07a1.92,1.92,0,0,0,.6-.12s.26-.58.11-.69-1-.59-1.06-.67-.49-.47-.43-.6a.9.9,0,0,0,0-.28l-2.08,0Z"/><path class="cls-12" d="M78.23,42.23s-.47.54-.4.6-.09.21-.18.24-.24.29-.31.34-.51.33-.52.35-.35.25-.37.28a1.26,1.26,0,0,0,.38.39c.1,0,.91.32,1,.36s1.06.29,1.06.29,1.72-.61,1.82-.69-.43-.37-.45-.43,0-.46-.06-.53a4.5,4.5,0,0,1,0-.63,1.63,1.63,0,0,1,.14-.18Z"/><path class="cls-15" d="M80.06,42.78a5,5,0,0,1-.08.54s.18.24.18.31a4.48,4.48,0,0,1-.36,1c-.07,0-1,.4-1,.4s1.35.06,1.44.08.8.12,1,.13a12.43,12.43,0,0,0,1.38-.11c.17,0-.31-1.18-.43-1.28a2,2,0,0,1-.22-.83,1.16,1.16,0,0,1,.11-.31l-1.9-.21Z"/><path class="cls-16" d="M84.73,42.34l.19,0c.48.15.68.33.53.5a4.29,4.29,0,0,1-1.67.3c-.39,0-.75.18-1.21.19s-1,0-1.51,0-.8-.15-1.15-.19A12.74,12.74,0,0,1,78.58,43l-.12,0c-.47-.15-.36-.23-.2-.41s-.53-.35.67-.43c.6,0,1.36,0,2.08,0,.48,0,1.06,0,1.58.07A13.25,13.25,0,0,1,84.73,42.34Z"/><path class="cls-17" d="M84.42,42.42l.17,0c.42.12.6.27.46.41a3.76,3.76,0,0,1-1.47.25,10,10,0,0,1-1.06.15c-.42,0-.87,0-1.33,0s-.71-.12-1-.16A11.48,11.48,0,0,1,79,43l-.1,0c-.42-.13-.32-.2-.18-.34s-.47-.3.59-.36c.52,0,1.19,0,1.83,0,.43,0,.94,0,1.39.06A13.75,13.75,0,0,1,84.42,42.42Z"/><path class="cls-18" d="M84.59,42.47l-.17,0h-.09c.11.08.15.16.07.24a3.63,3.63,0,0,1-1.47.24,7.9,7.9,0,0,1-1.06.16c-.43,0-.87,0-1.33,0s-.71-.12-1-.16l-.92-.09s.09.1.3.16l.1,0a11.48,11.48,0,0,0,1.17.13c.31,0,.66.14,1,.16s.91,0,1.33,0a10,10,0,0,0,1.06-.15,3.76,3.76,0,0,0,1.47-.25C85.19,42.74,85,42.59,84.59,42.47Z"/><path class="cls-31" d="M48.76,43.58l.09.06c.23.16.33.36.25.54s-.41.24-.81.33c-.18,0-.36.21-.58.21a4.55,4.55,0,0,1-.73,0,3.09,3.09,0,0,1-.56-.21,3.16,3.16,0,0,1-.64-.18l-.06,0c-.23-.17-.17-.26-.09-.45s-.26-.39.32-.47c.29,0,.66,0,1-.05a5.17,5.17,0,0,1,.76.08A3,3,0,0,1,48.76,43.58Z"/><path class="cls-31" d="M35.13,48.64l.09.06c.23.17.33.36.26.55s-.41.23-.81.32c-.19,0-.36.21-.58.22a3.75,3.75,0,0,1-.74,0,3.29,3.29,0,0,1-.55-.21,3.27,3.27,0,0,1-.65-.18l0,0c-.23-.17-.18-.26-.1-.45s-.26-.4.32-.48c.29,0,.66,0,1,0a5.45,5.45,0,0,1,.77.08A3.17,3.17,0,0,1,35.13,48.64Z"/><path class="cls-32" d="M25.7,42.83a.24.24,0,0,1,.09.06c.23.16.33.36.25.54s-.41.24-.81.33c-.18,0-.36.21-.58.21a4.55,4.55,0,0,1-.73,0,3.09,3.09,0,0,1-.56-.21,3.16,3.16,0,0,1-.64-.18l-.06,0c-.23-.17-.17-.26-.1-.45s-.25-.39.32-.47c.29,0,.66,0,1-.05a5.16,5.16,0,0,1,.77.08A3,3,0,0,1,25.7,42.83Z"/><path class="cls-31" d="M40.38,45.27l.09,0c.23.17.33.36.26.55s-.41.24-.81.33c-.19,0-.36.2-.58.21a4.67,4.67,0,0,1-.74,0,4.48,4.48,0,0,1-.55-.21A4.14,4.14,0,0,1,37.4,46a.1.1,0,0,1,0,0c-.23-.17-.18-.26-.1-.45s-.26-.39.32-.47c.29,0,.66,0,1-.05a5.45,5.45,0,0,1,.77.08A2.92,2.92,0,0,1,40.38,45.27Z"/><path class="cls-31" d="M45.32,36.27l.09,0c.23.17.33.36.25.55s-.4.24-.8.33c-.19,0-.37.2-.59.21a4.55,4.55,0,0,1-.73,0c-.19,0-.39-.17-.56-.21a4.3,4.3,0,0,1-.64-.18l-.06,0c-.23-.17-.17-.26-.09-.45s-.26-.39.32-.47c.29,0,.66,0,1-.05a5.17,5.17,0,0,1,.76.08A2.93,2.93,0,0,1,45.32,36.27Z"/><path class="cls-32" d="M48.45,41l.06,0c.15.11.21.24.16.36s-.26.15-.52.21a2.13,2.13,0,0,1-.38.14,2.64,2.64,0,0,1-.48,0,3.84,3.84,0,0,1-.36-.14,2.42,2.42,0,0,1-.42-.12l0,0c-.15-.11-.12-.17-.07-.29s-.16-.26.21-.31c.19,0,.43,0,.66,0a3,3,0,0,1,.5,0A2,2,0,0,1,48.45,41Z"/><path class="cls-33" d="M57.45,52.36l.06,0c.15.11.21.24.16.36s-.26.15-.52.21a2.13,2.13,0,0,1-.38.14,2.64,2.64,0,0,1-.48,0,3.84,3.84,0,0,1-.36-.14,2.42,2.42,0,0,1-.42-.12l0,0c-.15-.11-.12-.17-.07-.29s-.16-.26.21-.31c.19,0,.43,0,.66,0a3,3,0,0,1,.5,0A1.73,1.73,0,0,1,57.45,52.36Z"/><path class="cls-31" d="M100,37.44l.09.05c.2.15.29.32.22.49s-.36.21-.72.29c-.17,0-.32.18-.52.19a3.73,3.73,0,0,1-.66,0,2.72,2.72,0,0,1-.5-.19,2.84,2.84,0,0,1-.57-.16l0,0c-.21-.15-.16-.23-.09-.4s-.23-.36.29-.43c.26,0,.59,0,.9,0a4.25,4.25,0,0,1,.69.07A2.61,2.61,0,0,1,100,37.44Z"/><path class="cls-32" d="M80.2,25.81l.12.07c.3.23.44.49.34.74s-.55.31-1.08.43c-.25.06-.48.27-.78.29a6.64,6.64,0,0,1-1-.05,5.94,5.94,0,0,1-.74-.28,4.73,4.73,0,0,1-.85-.24l-.08-.05c-.31-.22-.23-.35-.13-.6s-.34-.53.43-.63c.39,0,.88,0,1.35-.06a6.17,6.17,0,0,1,1,.1A4.13,4.13,0,0,1,80.2,25.81Z"/><path class="cls-31" d="M56.05,21.14l.08.05c.2.15.29.32.23.49s-.36.2-.71.28c-.17,0-.32.18-.51.19a3.58,3.58,0,0,1-.65,0,3.54,3.54,0,0,1-.49-.18,3.26,3.26,0,0,1-.56-.16l0,0c-.2-.15-.15-.23-.08-.4s-.23-.35.28-.42c.25,0,.57,0,.88,0a3.91,3.91,0,0,1,.67.07A2.83,2.83,0,0,1,56.05,21.14Z"/><path class="cls-32" d="M65.13,21.14l.06,0c.16.12.22.25.17.37s-.27.16-.54.22a2,2,0,0,1-.39.14,2.75,2.75,0,0,1-.49,0c-.13,0-.25-.11-.37-.14a2.56,2.56,0,0,1-.43-.12l0,0c-.16-.11-.12-.17-.07-.3s-.17-.26.22-.32c.19,0,.43,0,.67,0a3.2,3.2,0,0,1,.51.06A1.84,1.84,0,0,1,65.13,21.14Z"/><path class="cls-33" d="M78.44,19.07l.06,0c.16.11.22.24.17.37s-.27.16-.54.22a2.13,2.13,0,0,1-.38.14,4.1,4.1,0,0,1-.49,0c-.13,0-.26-.11-.38-.14a2,2,0,0,1-.43-.13l0,0c-.16-.11-.12-.17-.07-.3s-.17-.26.22-.32c.19,0,.44,0,.67,0a4.63,4.63,0,0,1,.51.05A2.28,2.28,0,0,1,78.44,19.07Z"/><path class="cls-33" d="M73.15,22.38l0,0a.21.21,0,0,1,.12.25c0,.1-.19.11-.37.15s-.17.09-.27.1a2.06,2.06,0,0,1-.34,0,2.5,2.5,0,0,1-.25-.09,1.54,1.54,0,0,1-.3-.09h0c-.11-.08-.08-.12-.05-.21s-.11-.18.15-.22.3,0,.46,0a2.33,2.33,0,0,1,.36,0A1.49,1.49,0,0,1,73.15,22.38Z"/><path class="cls-33" d="M82.53,27.19l0,0c.1.08.15.17.11.25s-.18.11-.37.15-.16.1-.26.1h-.34c-.09,0-.18-.08-.26-.1a2.24,2.24,0,0,1-.29-.08l0,0c-.1-.08-.08-.12,0-.21s-.12-.18.15-.22l.46,0a2.09,2.09,0,0,1,.35,0A1.63,1.63,0,0,1,82.53,27.19Z"/><path class="cls-31" d="M82.82,24.6l0,0c.11.08.15.17.12.25s-.19.11-.37.15-.17.09-.27.1a2,2,0,0,1-.34,0,1.45,1.45,0,0,1-.25-.09,1.35,1.35,0,0,1-.3-.09h0c-.11-.08-.08-.12-.05-.21s-.12-.18.15-.22.3,0,.46,0a2.09,2.09,0,0,1,.35,0A1.63,1.63,0,0,1,82.82,24.6Z"/><path class="cls-31" d="M69.13,21.6l0,0c.11.08.15.17.12.25s.06.11-.12.15l-.52.1a2,2,0,0,1-.34,0,2.5,2.5,0,0,1-.25-.09,1.54,1.54,0,0,1-.3-.09h0c-.11-.08-.08-.12,0-.21s-.12-.18.15-.22.3,0,.46,0a2.09,2.09,0,0,1,.35,0A1.51,1.51,0,0,1,69.13,21.6Z"/><path class="cls-33" d="M59.51,20.92l0,0c.1.08.15.17.11.25s-.18.11-.37.15-.16.1-.26.1a2,2,0,0,1-.34,0c-.09,0-.18-.08-.26-.1a1.3,1.3,0,0,1-.29-.08l0,0c-.1-.08-.08-.12,0-.21s-.12-.18.15-.22l.46,0a2.09,2.09,0,0,1,.35,0A1.33,1.33,0,0,1,59.51,20.92Z"/><path class="cls-33" d="M53.13,23.23l0,0c.11.08.15.17.12.26s-.19.1-.37.15-.17.09-.27.09a2,2,0,0,1-.34,0,2.6,2.6,0,0,1-.25-.1,1.6,1.6,0,0,1-.3-.08l0,0c-.11-.07-.08-.12-.05-.2s-.12-.19.15-.22a3.32,3.32,0,0,1,.46,0,2.07,2.07,0,0,1,.35,0A1.24,1.24,0,0,1,53.13,23.23Z"/><path class="cls-33" d="M99.51,30.92l0,0c.1.08.15.17.11.25s-.18.11-.37.15-.16.1-.26.1a2,2,0,0,1-.34,0c-.09,0-.18-.08-.26-.1a1.3,1.3,0,0,1-.29-.08l0,0c-.1-.08-.08-.12,0-.21s-.12-.18.15-.22l.46,0a2.09,2.09,0,0,1,.35,0A1.33,1.33,0,0,1,99.51,30.92Z"/><path class="cls-31" d="M96.15,28.88l0,0a.21.21,0,0,1,.12.25c0,.1-.19.11-.37.15s-.17.09-.27.1a2.06,2.06,0,0,1-.34,0,2.5,2.5,0,0,1-.25-.09,1.54,1.54,0,0,1-.3-.09h0c-.11-.08-.08-.12-.05-.21s-.11-.18.15-.22.3,0,.46,0a2.33,2.33,0,0,1,.36,0A1.49,1.49,0,0,1,96.15,28.88Z"/><path class="cls-32" d="M51.57,29l.06,0c.16.11.23.25.18.38s-.28.16-.56.22c-.12,0-.25.14-.4.15a2.83,2.83,0,0,1-.5,0,2.74,2.74,0,0,1-.38-.15,2.59,2.59,0,0,1-.45-.12l0,0c-.16-.11-.12-.18-.06-.31s-.18-.27.22-.33c.2,0,.45,0,.69,0a3.31,3.31,0,0,1,.53.06A1.92,1.92,0,0,1,51.57,29Z"/><path class="cls-31" d="M7.59,37.24a.53.53,0,0,1,.1.06c.24.17.34.37.26.57s-.42.24-.84.34c-.19,0-.38.21-.61.22a5,5,0,0,1-.76,0c-.2,0-.4-.18-.58-.22A4.7,4.7,0,0,1,4.49,38l0,0c-.25-.18-.18-.27-.1-.47s-.27-.41.33-.49c.3,0,.68,0,1-.05a5.42,5.42,0,0,1,.79.08A3.1,3.1,0,0,1,7.59,37.24Z"/><path class="cls-33" d="M2.16,34.55l0,0c.11.08.15.17.12.26s-.19.1-.38.15-.16.09-.26.09a1.93,1.93,0,0,1-.34,0,2,2,0,0,1-.26-.1,1.6,1.6,0,0,1-.3-.08s0,0,0,0-.08-.12-.05-.2-.11-.19.15-.22.31,0,.47,0,.24,0,.35,0A1.33,1.33,0,0,1,2.16,34.55Z"/><path class="cls-31" d="M18.84,39.48l.05,0c.1.08.15.17.11.25s-.18.11-.37.15-.17.1-.27.1A1.85,1.85,0,0,1,18,40a2,2,0,0,1-.26-.1,1.6,1.6,0,0,1-.3-.08s0,0,0,0-.08-.12-.05-.21-.12-.18.15-.22l.47,0c.1,0,.48,0,.6,0S18.73,39.42,18.84,39.48Z"/><path class="cls-33" d="M33.28,43.73l0,0c.11.08.16.17.12.25s-.19.11-.37.15-.17.1-.27.1a2,2,0,0,1-.34,0c-.09,0-.18-.08-.25-.1a1.41,1.41,0,0,1-.3-.08l0,0c-.1-.08-.08-.12,0-.21s-.12-.18.15-.22l.46,0a2.09,2.09,0,0,1,.35,0A1.51,1.51,0,0,1,33.28,43.73Z"/><path class="cls-33" d="M41.34,26.55l0,0c.1.08.15.17.11.26s-.18.1-.37.15a1.07,1.07,0,0,1-.27.09,1.85,1.85,0,0,1-.33,0,2,2,0,0,1-.26-.1,1.6,1.6,0,0,1-.3-.08s0,0,0,0-.08-.12-.05-.2-.12-.19.15-.22.3,0,.47,0,.23,0,.35,0A1.22,1.22,0,0,1,41.34,26.55Z"/><path class="cls-32" d="M47.12,35.45l0,0c.11.08.15.17.12.25s-.19.11-.38.15-.16.1-.26.1a2,2,0,0,1-.34,0c-.09,0-.18-.08-.26-.1a1.25,1.25,0,0,1-.29-.09h0c-.11-.08-.08-.12,0-.21s-.12-.18.14-.22.31,0,.47,0a2.09,2.09,0,0,1,.35,0A1.63,1.63,0,0,1,47.12,35.45Z"/><path class="cls-32" d="M46.18,37.83l0,0c.11.08.16.17.12.26s-.19.11-.37.15-.17.09-.27.1a2,2,0,0,1-.34,0,1.45,1.45,0,0,1-.25-.1,1.41,1.41,0,0,1-.3-.08l0,0c-.1-.07-.08-.12,0-.2s-.12-.19.15-.22a3.32,3.32,0,0,1,.46,0,2.07,2.07,0,0,1,.35,0A1.24,1.24,0,0,1,46.18,37.83Z"/><path class="cls-32" d="M39.62,48.7l0,0a.21.21,0,0,1,.12.25c0,.1-.19.11-.38.15s-.16.1-.26.1H38.8c-.09,0-.18-.08-.26-.1a1.25,1.25,0,0,1-.29-.09h0c-.11-.08-.08-.12,0-.21s-.12-.18.14-.22.31,0,.47,0a2.09,2.09,0,0,1,.35,0A1.63,1.63,0,0,1,39.62,48.7Z"/><path class="cls-33" d="M39.62,52.7l0,0a.21.21,0,0,1,.12.25c0,.1-.19.11-.38.15s-.16.1-.26.1H38.8c-.09,0-.18-.08-.26-.1a1.25,1.25,0,0,1-.29-.09h0c-.11-.08-.08-.12,0-.21s-.12-.18.14-.22.31,0,.47,0a2.09,2.09,0,0,1,.35,0A1.63,1.63,0,0,1,39.62,52.7Z"/><path class="cls-31" d="M70.62,46.64l0,0a.21.21,0,0,1,.12.25c0,.1-.19.11-.38.15a1.57,1.57,0,0,1-.26.1c-.11,0,0,0-.09,0a4.18,4.18,0,0,1-.51-.1,1.3,1.3,0,0,1-.29-.08h0c-.11-.08-.08-.12,0-.21s-.12-.18.14-.22a3.54,3.54,0,0,1,.47,0,2.07,2.07,0,0,1,.35,0A1.59,1.59,0,0,1,70.62,46.64Z"/></g></g></svg>