<svg xmlns="http://www.w3.org/2000/svg" xmlns:xlink="http://www.w3.org/1999/xlink" viewBox="0 0 102.06 119.46"><defs><style>.cls-1{fill:none;}.cls-2{fill:#84460f;}.cls-3{fill:#a05810;}.cls-4{fill:#dd8b40;}.cls-5{fill:#70370d;}.cls-6{fill:#a05912;}.cls-7{fill:#bf6c11;}.cls-8{fill:#ef9c48;}.cls-9{fill:#872f23;}.cls-10{fill:#491008;}.cls-11{fill:#5e1d12;}.cls-12{fill:#cc4415;}.cls-13{fill:#e57510;}.cls-14{fill:#ef260c;}.cls-15{fill:#c13110;}.cls-16{fill:#25a5a5;}.cls-17{clip-path:url(#clip-path);}.cls-18{fill:#ffc81a;}.cls-19{fill:#ff831d;}.cls-20{fill:#350b06;}.cls-21{opacity:0.2;}.cls-22{fill:#703321;}.cls-23{fill:#9e5a4c;}.cls-24{fill:#140503;}.cls-25{fill:#8e5244;}</style><clipPath id="clip-path"><path class="cls-1" d="M59.16.88c-4.63,0-9.09,1.94-9.09,4a2.2,2.2,0,0,0,1.15,1.69,11.2,11.2,0,0,0,.48,1.69s0,.06.06.09a1.41,1.41,0,0,1,.18-.73c.52-.81,1.44-.41,2.25-.37a.52.52,0,0,1,.5.37,5,5,0,0,1,.15.94s0,0,0,.07c.18.59.35,1.18.53,1.76a5.16,5.16,0,0,1,.19,1.11c.15.53.31,1.06.45,1.59a51.91,51.91,0,0,0,.52-5.34.52.52,0,0,1,.77-.43c.85.41,1.58-.12,2.29.57a2.77,2.77,0,0,1,.51,1.64,19.19,19.19,0,0,0,.35,3.61l.34.61a.45.45,0,0,0,.49.24,16.54,16.54,0,0,1-.24-2.8,24.39,24.39,0,0,0,.07-3.31.49.49,0,0,1,.37-.49,4.06,4.06,0,0,1,1-.08.53.53,0,0,1,.5.37,14.26,14.26,0,0,0,.74,2.67,34.26,34.26,0,0,1,.46-3.61c0-.22.29-.35.49-.36.48,0,1-.1,1.42-.13a.51.51,0,0,1,.5.63,7.77,7.77,0,0,0-.24,1c.09.88.16,1.76.24,2.64A.55.55,0,0,0,66.9,10c.13-1.24.52-2.44.69-3.67A1.84,1.84,0,0,0,68.25,5C68.25,2.94,63.79.88,59.16.88Z"/></clipPath></defs><title>Asset 5island</title><g id="Layer_2" data-name="Layer 2"><g id="Layer_4" data-name="Layer 4"><path class="cls-2" d="M25.84,66.78s-1,35.46,1.75,35.05,6.75-5.06,7-5.67,2.25-11.55,2-15.4,2-17.43,2-17.43S26.59,66.78,25.84,66.78Z"/><path class="cls-3" d="M13.59,62.93l12.25,3.85,1.75,35.05s-5.75-3-7.5-3.85-5-24.72-5.75-25.53S13.59,62.93,13.59,62.93Z"/><path class="cls-4" d="M20.92,97c-1.75-.81-5-24.72-5.75-25.53-.58-.63-.71-6-.74-8.37l-1-.32s0,8.72.75,9.53,4,24.71,5.75,25.52,7.5,3.85,7.5,3.85A78.18,78.18,0,0,0,20.92,97Z"/><path class="cls-2" d="M35.59,71.53s-1,35.46,1.75,35.05,6.75-5.06,7-5.67,2.25-11.55,2-15.4,2-17.43,2-17.43S36.34,71.53,35.59,71.53Z"/><path class="cls-3" d="M23.34,67.68l12.25,3.85,1.75,35.05s-5.75-3-7.5-3.85S24.84,78,24.09,77.2,23.34,67.68,23.34,67.68Z"/><path class="cls-4" d="M30.34,102.15c-1.75-.81-5-24.72-5.75-25.53s-.73-6.84-.75-8.87l-.5-.15s0,8.71.75,9.52,4,24.72,5.75,25.53,7.5,3.85,7.5,3.85S31.76,102.81,30.34,102.15Z"/><path class="cls-2" d="M72.59,66.53s-2.25,41.7.5,41.3,8-11.31,8.25-11.92,2.25-11.55,2-15.4,2-17.43,2-17.43S73.34,66.53,72.59,66.53Z"/><path class="cls-5" d="M85.34,63.21,82.61,64c-.56,3.57-2,12.94-1.77,16,.25,3.85-1.06,14.42-1.13,15.07-.62,5.55-7,12.93-6.62,12.88,2.75-.41,8-11.32,8.25-11.93s2.25-11.55,2-15.4S85.34,63.21,85.34,63.21Z"/><path class="cls-3" d="M60.34,62.68l12.25,3.85.5,41.3s-15-5.69-16.75-6.5S61.84,73,61.09,72.2,60.34,62.68,60.34,62.68Z"/><path class="cls-4" d="M72.71,66.53l-1.5,39.8s-10.59-4-15-5.78c0,.43.11.71.26.78,1.75.81,16.75,6.5,16.75,6.5Z"/><path class="cls-6" d="M83.34,66.83s-2.92,29.83-.17,29.33,8.42-10.08,8.67-10.83,4.5-2,4.25-6.75,5.76-21,5.76-21S84.09,66.83,83.34,66.83Z"/><path class="cls-2" d="M101.73,57.41l-3.26,1.7c-1.7,4.87-4.94,14.7-4.76,18.22.25,4.75-4.14,6-4.25,6.75-.87,6.5-6.86,12-6.42,12,2.75-.5,8.42-10.08,8.67-10.83s4.5-2,4.25-6.75S101.73,57.41,101.73,57.41Z"/><path class="cls-7" d="M71.09,62.08l12.25,4.75-.17,29.33a37.81,37.81,0,0,0-5.08-4.33c-1.75-1-5.5-17-6.25-18S71.09,62.08,71.09,62.08Z"/><polygon class="cls-8" points="82.09 66.34 83.17 96.16 83.34 66.83 82.09 66.34"/><path class="cls-8" d="M75.46,72.71c.24-1,1.65-14.36,1.63-17.13L71,62.08s0,10.75.75,11.75,4.5,17,6.25,18A37.81,37.81,0,0,1,83,96.16S72.21,86,75.46,72.71Z"/><path class="cls-6" d="M12.35,58.58s-2.51,32,.24,31.5,10.5-6.25,10.75-7,0-2.49-.25-7.24,2-21.5,2-21.5S13.1,58.58,12.35,58.58Z"/><path class="cls-2" d="M25.1,54.21s-3.38-.62-5.14,0c3.13,6.5-2.06,17.36-1.75,21C19.21,87.08,12.15,90,12.59,90c2.75-.5,10.5-6.25,10.75-7s0-2.5-.25-7.25S25.1,54.21,25.1,54.21Z"/><path class="cls-7" d="M.1,53.82l12.25,4.76.24,31.5s-5.75-3.75-7.5-4.76S5.59,68.83.84,65.57C-.19,64.87.1,53.82.1,53.82Z"/><polygon class="cls-8" points="12.35 58.45 11.35 58.07 12.59 89.95 12.35 58.45"/><path class="cls-8" d="M5.9,84.89c-1.75-1,.5-16.5-4.24-19.75-.88-.6-.81-8.6-.76-11L0,53.76s-.29,11,.74,11.75C5.52,68.77,3.28,84.26,5,85.26S12.52,90,12.52,90,7.23,85.64,5.9,84.89Z"/><path class="cls-6" d="M28.2,67.65s-.56,26,1,25.68S33,89.62,33.1,89.17a81.47,81.47,0,0,0,1.12-11.28c-.14-2.82,1.12-12.76,1.12-12.76S28.62,67.65,28.2,67.65Z"/><path class="cls-2" d="M35.71,65.25l-2.3.86c-.35,2.88-.79,9.14-.94,11.28-1,14.19-3.16,16.11-2.92,16.07,1.54-.3,3.78-3.72,3.92-4.16A81.64,81.64,0,0,0,34.59,78C34.45,75.2,35.71,65.25,35.71,65.25Z"/><path class="cls-7" d="M21.34,64.83l6.86,2.82,1,25.68s-5.86-4.41-6.84-5,.25-11-2.75-14.25C19.09,73.55,21.34,64.83,21.34,64.83Z"/><polygon class="cls-8" points="27.57 67.78 29.3 93.33 28.32 67.65 27.57 67.78"/><path class="cls-8" d="M23,87.77c-1-.6.25-11-2.75-14.25-.4-.44,1-6.4,1.56-8.51l-.43-.18s-2.25,8.72-1.75,9.25c3,3.25,1.77,13.66,2.75,14.25s6.84,5,6.84,5S23.74,88.24,23,87.77Z"/><path class="cls-2" d="M47.09,75s.25,44.45,3,44.05,16.5-8.5,18.5-11.75c.34-.56,2.25-17.15,2-21S59.84,71.58,59.84,71.58,47.84,75,47.09,75Z"/><path class="cls-5" d="M70.59,86.71c-.09-1.4-1.54-3.73-3.34-6.12a3.2,3.2,0,0,1,.09.49c.25,3.85-1.89,20.35-2,21-1.38,7.75-15.91,17.47-15.25,17.38,2.75-.41,16.5-8.5,18.5-11.75C68.93,107.14,70.84,90.56,70.59,86.71Z"/><path class="cls-3" d="M34.84,71.18,47.09,75l3,44.05s-7.48-6.34-9.25-7.1c-5-2.15.75-8.65-5.25-31.28C35.3,79.64,34.84,71.18,34.84,71.18Z"/><path class="cls-4" d="M45,74.78l4.88,44.3-3-44L34.59,71.18s0,.13,0,.34Z"/><path class="cls-4" d="M39.71,108.58c-2.75-6.87-3-34.46-3.18-36.87l-1.69-.53s.46,8.46.75,9.52c6,22.63.25,29.13,5.25,31.28,1.77.76,9.25,7.1,9.25,7.1S47,115.46,46.46,115C45.6,114.09,40.14,109.65,39.71,108.58Z"/><path class="cls-6" d="M40.15,59s-2.5,44.51.25,44,9-7,9.25-7.75S48.4,83,48.9,74.21c.27-4.75,2.5-18.76,2.5-18.76S40.9,59,40.15,59Z"/><path class="cls-2" d="M49.15,74.12c.27-4.75,2.5-18.75,2.5-18.75L50,55.93c-.55,3.51-3.87,14.48-6,20.07-3.06,8.21,2.34,17.66,2.09,18.41s-5.7,8.51-5.44,8.46c2.75-.5,9-7,9.25-7.75S48.65,82.87,49.15,74.12Z"/><path class="cls-7" d="M33.09,59.08l4.06-.38L40,80.58,40.4,103s-6.76-3.67-7.5-4.75-.31-13.94.62-18.63C33.77,78.35,33.09,59.08,33.09,59.08Z"/><polygon class="cls-8" points="38.46 80.33 40.27 102.7 39.84 80.33 37.02 58.45 35.66 58.58 38.46 80.33"/><path class="cls-8" d="M33.73,98.12c-.69-1-.31-13.94.63-18.62.24-1.23-.44-20.5-.44-20.5l3.15-.3h0L33,59.08s.69,19.27.44,20.5c-.94,4.69-1.31,17.63-.62,18.63s7.5,4.75,7.5,4.75S34.31,99,33.73,98.12Z"/><path class="cls-6" d="M59.09,71.18s-1,35.46,1.75,35.05,7.08-5,7-5.67c-1-8,5.25-12.63,5-16.48s1.87-19,1.87-19S59.84,71.18,59.09,71.18Z"/><path class="cls-2" d="M74.71,65l-2.21.9c-.53,4-1.86,14.32-1.66,17.41.25,3.85-5.64,8.46-5,16.48.16,2.1-5.3,6.38-5,6.34,2.75-.41,7.08-5,7-5.68-1-8,5.25-12.62,5-16.47S74.71,65,74.71,65Z"/><path class="cls-7" d="M46.84,67.33l15,2.25,3.5,15.5a73.15,73.15,0,0,0-4.5,21.15c-.05,1-11.19-6.75-11.5-8.65-2-12-4.75-12.75-1.75-20.73C48,75.82,46.84,67.33,46.84,67.33Z"/><path class="cls-8" d="M61.84,69.58l-15-2.25s0,.2.06.52l13.19,2,3.5,15.5s-2.76,21.14-2.75,20.9a73.15,73.15,0,0,1,4.5-21.15Z"/><path class="cls-8" d="M50.09,95.71C48.09,83.65,45.34,83,48.34,75c.26-.71-.19-4.92-.5-7.5l-1-.15s1.13,8.49.75,9.52c-3,8-.25,8.68,1.75,20.73.31,1.9,11.45,9.64,11.5,8.65C60.86,105.58,50.36,97.34,50.09,95.71Z"/><path class="cls-7" d="M32.58,64s.54,19.44-1,19.22-3.88-2.76-3.83-3.11c.54-4.38-2.88-6.93-2.75-9s-1-10.41-1-10.41S32.16,64,32.58,64Z"/><path class="cls-8" d="M24,60.63l1.22.49a86.68,86.68,0,0,1,.91,9.55c-.14,2.11,3.09,4.64,2.74,9-.09,1.16,2.91,3.51,2.74,3.48-1.5-.22-3.88-2.75-3.83-3.11.54-4.38-2.88-6.93-2.75-9S24,60.63,24,60.63Z"/><path class="cls-6" d="M39.29,61.91l-8.22,1.24-1.92,8.5a40.06,40.06,0,0,1,2.46,11.6c0,.54,6.14-3.7,6.31-4.75,1.1-6.61,2.61-7,1-11.36C38.67,66.57,39.29,61.91,39.29,61.91Z"/><path class="cls-8" d="M31.07,63.15l8.22-1.24s0,.11,0,.29L32,63.28l-1.92,8.51s1.51,11.59,1.5,11.46a40.06,40.06,0,0,0-2.46-11.6Z"/><path class="cls-2" d="M37.51,77.48c1.1-6.61,2.61-7,1-11.37A21.65,21.65,0,0,1,38.74,62l.55-.09s-.62,4.66-.41,5.23c1.65,4.37.14,4.75-1,11.36-.17,1-6.28,5.29-6.31,4.75C31.6,82.89,37.36,78.37,37.51,77.48Z"/><path class="cls-6" d="M73.86,61.82s-.56,26,1,25.68,3.78-3.71,3.92-4.16a81.47,81.47,0,0,0,1.12-11.28C79.74,69.24,81,59.29,81,59.29S74.28,61.82,73.86,61.82Z"/><path class="cls-2" d="M81.38,59.42l-2.31.85c-.34,2.88-.79,9.15-.94,11.29-1,14.19-3.16,16.11-2.91,16.06,1.54-.29,3.78-3.71,3.92-4.15a81.64,81.64,0,0,0,1.12-11.28C80.12,69.36,81.38,59.42,81.38,59.42Z"/><path class="cls-7" d="M67,59l6.86,2.82,1,25.68S69,83.09,68,82.5s.25-11-2.75-14.25C64.76,67.71,67,59,67,59Z"/><polygon class="cls-8" points="73.24 61.94 74.97 87.5 73.99 61.82 73.24 61.94"/><path class="cls-8" d="M68.63,81.93c-1-.59.25-11-2.75-14.25-.41-.44,1-6.39,1.56-8.5L67,59s-2.24,8.71-1.75,9.25C68.25,71.5,67,81.9,68,82.5s6.84,5,6.84,5S69.4,82.4,68.63,81.93Z"/><path class="cls-9" d="M21.51,64.56l0,0a.12.12,0,0,1,.05.05l0,0a.21.21,0,0,1,0,.06l0,0,0,.06,0,0a.14.14,0,0,0,0,.06v0s0,.05,0,.07v0a.34.34,0,0,1,0,.1V63.27a0,0,0,0,0,0,0,.15.15,0,0,0,0-.07s0,0,0,0a.08.08,0,0,0,0-.05.05.05,0,0,0,0,0,.14.14,0,0,0,0-.06l0,0,0,0,0,0-.05,0a.08.08,0,0,0,0,0l-.06-.05,0,0h0l-.09-.06h0l0,0,0,0h-.09l0,0H12.75l-.57,0h0l-.26,0h0l-.49-.05h0l-.22,0h0a2.88,2.88,0,0,1-.71-.2l-.61-.28-.09,0-.51-.24h0l-.08,0-.43-.19-.15-.07-.37-.17-.47-.21-.14-.06-.33-.16-.17-.07-.57-.26-.13-.06-.52-.24,0,0-.63-.3-.1-.05L4.65,59l-.1-.05-.33-.17-.12-.06-.34-.2-.06,0-.43-.26-.37-.24h0l-.36-.25-.1-.08-.22-.17-.12-.1-.19-.16-.11-.11a1.21,1.21,0,0,1-.16-.16l-.11-.12-.15-.16-.1-.12-.12-.16-.1-.14L1,56l-.08-.13-.09-.18L.7,55.58.62,55.4l-.06-.15a1.18,1.18,0,0,0-.07-.2,1,1,0,0,0,0-.16c0-.07,0-.14,0-.21s0-.11,0-.16,0-.16,0-.24a.78.78,0,0,1,0-.16l0-.27a.66.66,0,0,1,0-.14c0-.14,0-.29,0-.44v1.79c0,.15,0,.3,0,.44s0,.09,0,.14l0,.27,0,.16a2,2,0,0,0,0,.24l0,.16.06.21a1,1,0,0,0,0,.16A1.46,1.46,0,0,0,.56,57a.76.76,0,0,0,.06.16,1.42,1.42,0,0,0,.08.18l.07.15.09.17.09.15.11.16.09.14a1.83,1.83,0,0,0,.13.16l.1.13.14.15.11.12.16.16.12.11.18.16.12.1.22.17.11.08c.11.09.23.17.35.25a.1.1,0,0,1,0,0l.31.19h0a4.45,4.45,0,0,0,.43.26h0l.36.21,0,0,.08,0,.31.17.08,0,0,0,.47.24h0l0,0,.64.31h0l.05,0,.5.23.15.07.55.26h0l.24.1.22.11.28.12.33.15.36.16.24.11.28.13.26.12.35.16.22.1.59.27h7.68l.31,0h0l.63,0h0l.29,0h0l.29,0h0L20,64l.21,0h0l.19,0h0l.17,0h0l.16,0h0l.14,0h0l.13,0h0l.12,0h0l.11,0,.1.07a.1.1,0,0,1,.05,0Z"/><path class="cls-10" d="M102.05,53.44v.46c0,.11,0,.22,0,.33v.05c0,.12,0,.23,0,.34v0c0,.12,0,.23,0,.34v0c0,.11,0,.22,0,.33h0c0,.11,0,.22,0,.33v0c0,.11,0,.22-.07.33h0l-.09.32h0a4.57,4.57,0,0,1-.22.62h0a4.6,4.6,0,0,1-.29.59h0c0,.1-.11.19-.17.29h0a2.75,2.75,0,0,1-.19.28h0a2.47,2.47,0,0,1-.21.27h0l-.22.27h0c-.07.09-.16.18-.24.27h0l-.27.26h0l-.29.26,0,0-.29.24,0,0-.31.24,0,0-.32.23-.07,0-.32.21,0,0-.38.24-.45.27,0,0,0,0-.39.22-.16.09-.34.18-.12.06-.47.24-.06,0-.46.23-.14.06-.53.26,0,0-.52.24-.16.07-.59.26-.82.35,0,0-.75.29-.14,0-.69.24-.13,0-.63.2-.08,0-.72.2h0c-.49.13-1,.24-1.42.32h0l-.68.11h0q-.33.06-.66.09h0l-.63.06h0l-.62,0h0c-.41,0-.8,0-1.19,0H82.82l-.53,0h0l-.5,0h0l-.48,0h0l-.46,0h0L80.22,65l-.51-.06-.36,0h-.06l-.27,0h-.2l-.2,0H75.43l-.17,0-.19,0h0l-.23.07-.09,0-.06,0-.08,0-.22.07h-.06l-.22.08h0l-.38.15h0l-.35.15,0,0-.08,0-.26.13-.12.05-.29.15,0,0h0l-.41.23,0,0-.06,0-.21.12-.07,0h0l0,0a1.64,1.64,0,0,0-.22.14l-.07,0a0,0,0,0,0,0,0l-.18.11-.08.06h0l-.19.13-.08,0h0l-.26.19h0l0,0-.25.19h0l-.06.05-.19.15,0,0h0l-.06,0-.22.17a.1.1,0,0,1-.05,0l0,0-.35.29,0,0,0,0-.6.52h0l0,0-.31.28-.55.47,0,0-.47.4,0,0-.33.28-.09.07-.17.13-.08.07-.19.14-.08.07L66,71l-.13.09-.08.06-.15.11-.08.06-.15.1-.11.07-.13.09-.14.09-.12.07-.15.09-.1.06-.36.2-.07,0-.63.3h0l-.54.21h0l-.34.11-.27.08h0l-.3.08h0l-.3.08h0l-.32.06h0l-.34,0h0l-.34,0h0l-.72.05h-.39a2.54,2.54,0,0,1-.39,0h-.4l-.84-.06h0l-.43-.05h0L57.16,73h0l-.47-.07-.09,0-.11,0-.11,0h-.11l-.11,0-.1,0H56l-.11,0h-.22l-.11,0H50.63l-.22,0h-.22l-.22,0-.27,0h-.3l-.3,0h-.32l-.47,0H48.2l-.36,0h-.09L46.9,73h0l-.28,0-.58.06-.71.08-.2,0-.15,0-.47,0h-.06l-.54,0h-.06l-.56,0h0c-.19,0-.38,0-.57,0h0l-.56,0H41c-.18,0-.35,0-.52,0h0L40,73.32h0l-.49-.07h0l-.48-.1h0L38.54,73h0l-.45-.15h0a3.79,3.79,0,0,1-.42-.18h0l-.41-.21L37,72.31l-.14-.1-.19-.14-.13-.1-.2-.18-.11-.09-.29-.3-.14-.15-.06,0a.48.48,0,0,0-.11-.09l-.06-.06L35.44,71l-.08,0,0,0a.41.41,0,0,1-.11-.07h0l-.08,0-.09,0-.08,0-.08,0-.07,0-.07,0,0,0h0l-.07,0-.07,0-.06,0h0l-.07,0-.07,0-.07,0-.07,0-.07,0H34l-.08,0h0l-.07,0-.07,0-.08,0-.08,0-.08,0-.09,0-.08,0h0l-.09,0-.09,0-.1,0-.06,0h0l-.1,0-.12,0-.11,0-.13,0-.13,0-.11,0h0l-.15,0-.17,0H31.9l-.12,0-.22,0h-.08l-.17,0-.13,0-.11,0H31l-.16,0-.23,0h-.13l-1-.16L29,69.37l-.17,0-.66-.11h-.07l-.38-.07h0c-.28,0-.55-.1-.82-.15h0l-.39-.08h0a2.34,2.34,0,0,1-.38-.09h0l-.37-.1h0l-.38-.11h0c-.25-.07-.5-.15-.74-.24h0l-.35-.14h0l-.33-.14h0l-.32-.15h0a3.07,3.07,0,0,1-.31-.17L23,67.6l-.13-.09-.15-.1-.11-.09-.14-.11-.11-.09L22.2,67l-.1-.09L22,66.76l-.09-.1-.11-.15a.39.39,0,0,1-.08-.1,1.08,1.08,0,0,1-.11-.18l-.06-.08a2.59,2.59,0,0,1-.14-.29,1.19,1.19,0,0,1-.11-.52v1.79a1.18,1.18,0,0,0,.1.52l.15.29s0,0,0,.08l.12.18a.36.36,0,0,0,.07.1l.11.15.09.1.13.14.09.09a1.59,1.59,0,0,1,.13.13l.11.09.14.11.12.09.15.11.12.08.06,0,.18.11h0l.14.08.13.07h.05l.07,0h0l.12.06.1,0h0l.07,0,.1,0,.1,0,.05,0h.05l.1,0,.1,0,.09,0h0l.06,0,.1,0,.1,0,.1,0h0l.1,0,.1,0,.1,0,.08,0h0l.1,0,.11,0,.11,0h.05l.07,0,.11,0,.12,0,.08,0h.05l.13,0,.13,0,.09,0h.05l.14,0,.15,0H27l.17,0,.17,0h0l.19,0,.21,0h0L28,71l.13,0,.09,0h.06l.26,0,.52.08h0l.39.06,1,.16.13,0,.24,0,.22,0h.09l.31.05h.06l.37.07h0l.37.07h0l.36.07h0l.36.08h0c.23,0,.46.11.68.18h0l.32.1h0l.31.1h0l.29.12h0l.27.13h0a2,2,0,0,1,.25.14l.16.1.08,0,.11.08.07,0,.11.09.05,0,.14.15c.1.11.2.2.3.3l.1.09.21.18.12.1.2.14a.71.71,0,0,0,.14.1l.11.07.15.1h0l.08,0,.09,0,.09,0,.08,0,.06,0h0l.09.05.09,0,.08,0,.05,0,.06,0h.05l.06,0,.05,0,.06,0,0,0,.06,0,.06,0,.05,0h.06l.06,0h0l.05,0h.09l.05,0h.24l0,0h.1l0,0h3.36s0,0,0,0h.89l.19,0H44l.29,0h.3l.27,0,.22,0h.13l.76-.09h.09l.57-.06.22,0,.83-.1,1.19-.11H49l.61,0h0l.65,0h0l.67,0h0l.68,0h1.42l.69,0h0l.7,0h0l.71.06h0l.72.09h0l.72.12h.09l.1,0H57l.1,0h.29l.09,0h.29l.09,0h3.52l.07,0h.27l.06,0h.12l.12,0,.12,0h0l.08,0,.12,0,.1,0h0l.11,0,.12,0h0l.34-.11h0c.19-.06.37-.14.55-.21h0l.64-.31h0l0,0,.37-.2h0l.07,0,.18-.11h0l.08,0,.16-.1h0l.09-.06.14-.09h0l.09-.06.13-.09h0l.1-.07.12-.09h0l.08-.06.15-.11h0l.06,0,.19-.15,0,0,.06,0,.17-.14,0,0,0,0,.33-.28a0,0,0,0,0,0,0l0,0,.46-.4,0,0,0,0,.52-.45.35-.31,0,0,.59-.51.06,0,.35-.29.06-.05.24-.19.08-.07.18-.14.1-.07.23-.17a.1.1,0,0,1,0,0l.25-.19.11-.07.16-.11.11-.08.16-.1.09-.06.21-.13.11-.07.21-.12.1-.06.41-.23.07,0,.29-.15.11,0,.27-.12.11-.06.35-.14,0,0,.39-.14.24-.09.07,0,.3-.1.08,0L75,66.8h0l.34-.09.36-.08h0l.36-.05h0l.37,0h0l.37,0h0c.25,0,.51,0,.78,0h0l.4,0h0l.41,0h0l.41,0h0l.38,0,.39,0,.31,0,.26,0,.44,0h0l.18,0,.23,0h.11l.12,0h.17l.15,0h4.33l.12,0h.38l.13,0,.13,0,.13,0,.13,0,.16,0h0l.16,0,.16,0,.17,0h0l.12,0,.17,0,.18,0,.23,0,.24-.06.24,0,.24-.06h0l.28-.07.4-.11.05,0,.07,0,.28-.08.36-.12.13,0,0,0c.21-.07.43-.14.64-.23l.13,0,.15-.06.17-.06.41-.16h.06l.37-.16.42-.18h0l.6-.27.14-.07.55-.25h0l.55-.26.12-.06.47-.23,0,0,.48-.25.12-.06.14-.08.2-.11.15-.08.4-.22,0,0h0l0,0c.15-.08.29-.17.43-.26l0,0,.34-.21h0a0,0,0,0,0,0,0l.29-.19.07,0,.06,0,.09-.06.21-.15,0,0,0,0,.12-.09.14-.11,0,0,0,0,.07,0,.14-.12.09-.08h0l.1-.09.1-.09.07-.07h0l0,0L100,61l.09-.09.07-.07.08-.08.07-.08.07-.07,0,0h0l0,0,.06-.07.06-.07,0-.07,0,0h0l0,0,0-.07.06-.07a.18.18,0,0,1,0-.07v0h0l0,0,.05-.07,0-.07a.43.43,0,0,0,0-.07.05.05,0,0,0,0,0h0a0,0,0,0,1,0,0l0-.08a.21.21,0,0,1,0-.06.16.16,0,0,1,0-.07l0-.06h0l0-.07a.43.43,0,0,1,0-.07l0-.08,0-.07h0l0-.07a.2.2,0,0,0,0-.08l0-.07,0-.08a.25.25,0,0,1,0-.07.31.31,0,0,0,0-.08l0-.08,0-.09s0-.05,0-.08h0l0-.09,0-.09,0,0h0v0a.36.36,0,0,1,0-.1l0-.1a.36.36,0,0,0,0-.1h0a.29.29,0,0,1,0-.09l0-.11a.36.36,0,0,0,0-.1v0h0s0-.06,0-.09a.5.5,0,0,1,0-.12s0-.09,0-.13,0-.08,0-.13a.68.68,0,0,1,0-.14v-.07a.08.08,0,0,0,0,0v-.05a.88.88,0,0,0,0-.16s0-.09,0-.14h0v0l0-.19a.76.76,0,0,1,0-.15V56c0-.08,0-.15,0-.22V53.44Z"/><path class="cls-11" d="M88.94,42.05c1.72,1,3.29,2,4.83,3.07,3.88,2.61,8.26,5,8.28,8.15,0,4.57-1.37,6.6-8.84,9.88-9.2,4.05-14,.82-17.78,1.76-8.15,2-8.59,9.82-18.74,8-7.71-1.38-15.13,2-19.44-.45a5.63,5.63,0,0,1-1.33-1.08,3.23,3.23,0,0,0-.72-.57c-1.31-.75-3.49-1-5.75-1.4a18.82,18.82,0,0,1-6.24-1.69,4.18,4.18,0,0,1-1.82-1.88c-.55-1.19,1.19-2.5-.09-3.24a3.79,3.79,0,0,0-1.25-.38c-3.06-.53-8.07.12-9.56-.57-2.85-1.32-5.12-2.26-6.79-3.23C1.41,57.12.24,55.75.23,53.27.2,49,3.47,43.14,16.31,42.4,22.56,42,25,36.49,33.08,35.23c6.1-.94,13.69-3,20.74-3C62.57,32.27,68,35.54,75.2,37A43.1,43.1,0,0,1,88.94,42.05Z"/><path class="cls-11" d="M86.92,39.72c-1.42-1.51-3.11-2.62-4.49-4.22a31.64,31.64,0,0,1-4.12-6.92c-2.36-4.85-3.77-9.91-5.4-15C70.81,7,68.9,1.25,62.1.23c-5.07-.6-9.39-.15-12,3.08C47.83,6.1,48.34,9,48.34,12.38c0,5-6.85,10.58-9.29,14.71-3.7,6.24-12.29,10-12.34,18,0,3.47,4.4,5.43,7.34,6.66,2.42,1.43,6.43,2.19,9.33,3,3.39,1,8.53,1.15,12,1.36a44.94,44.94,0,0,0,7.8.32A38.78,38.78,0,0,0,70,55.32c1-.13,1.93-.31,2.89-.5,3.6-.72,8.06-1.56,11.36-3.27a7,7,0,0,0,2.27-1.77C89.76,47.68,90.43,43.45,86.92,39.72Z"/><path class="cls-10" d="M86.84,39.72c-1.42-1.51-3.12-2.62-4.49-4.22a31.69,31.69,0,0,1-4.13-6.92c-2.35-4.85-3.76-9.91-5.39-15C70.72,7,68.82,1.25,62,.23c0,0,3.16,5,7.36,17.69,3.92,11.83-8.85,10.63-9.67,13.5-.74,2.6,19.5,3-1.33,9.83-10,3.29,19.5,2.5,7.12,9.63-1.82,1,11.71-3.46,19.88-2.79,13.86,1.13,16.21,5.13,16.25,5.08C104.71,50.92,90.35,43.45,86.84,39.72Z"/><path class="cls-12" d="M59.16.88c-4.63,0-9.09,1.94-9.09,4a2.2,2.2,0,0,0,1.15,1.69,11.2,11.2,0,0,0,.48,1.69s0,.06.06.09a1.41,1.41,0,0,1,.18-.73c.52-.81,1.44-.41,2.25-.37a.52.52,0,0,1,.5.37,5,5,0,0,1,.15.94s0,0,0,.07c.18.59.35,1.18.53,1.76a5.16,5.16,0,0,1,.19,1.11c.15.53.31,1.06.45,1.59a51.91,51.91,0,0,0,.52-5.34.52.52,0,0,1,.77-.43c.85.41,1.58-.12,2.29.57a2.77,2.77,0,0,1,.51,1.64,19.19,19.19,0,0,0,.35,3.61l.34.61a.45.45,0,0,0,.49.24,16.54,16.54,0,0,1-.24-2.8,24.39,24.39,0,0,0,.07-3.31.49.49,0,0,1,.37-.49,4.06,4.06,0,0,1,1-.08.53.53,0,0,1,.5.37,14.26,14.26,0,0,0,.74,2.67,34.26,34.26,0,0,1,.46-3.61c0-.22.29-.35.49-.36.48,0,1-.1,1.42-.13a.51.51,0,0,1,.5.63,7.77,7.77,0,0,0-.24,1c.09.88.16,1.76.24,2.64A.55.55,0,0,0,66.9,10c.13-1.24.52-2.44.69-3.67A1.84,1.84,0,0,0,68.25,5C68.25,2.94,63.79.88,59.16.88Z"/><path class="cls-10" d="M96,53.37c.35.24.67.5,1,.75.79.64,1.68,1.22,1.69,2,0,1.13-.28,1.63-1.8,2.43-1.87,1-2.85.2-3.62.43-1.66.5-1.75,2.41-3.81,2-1.57-.34-3.08.5-4-.11a1.33,1.33,0,0,1-.27-.26.5.5,0,0,0-.15-.14,3.31,3.31,0,0,0-1.17-.35,3.28,3.28,0,0,1-1.27-.41,1,1,0,0,1-.37-.46c-.11-.3.24-.62,0-.8a.55.55,0,0,0-.25-.09c-.62-.13-1.64,0-1.95-.14-.57-.33-1-.56-1.38-.8a1.39,1.39,0,0,1-.7-1.27c0-1,.66-2.48,3.27-2.67,1.27-.08,1.76-1.45,3.41-1.76A23.49,23.49,0,0,1,88.83,51c1.78,0,2.88.8,4.35,1.15A7.77,7.77,0,0,1,96,53.37Z"/><path class="cls-13" d="M95.66,53.57c.33.23.64.47.94.7.76.6,1.62,1.14,1.62,1.86,0,1-.27,1.51-1.73,2.26-1.8.92-2.73.19-3.47.4-1.6.46-1.68,2.24-3.67,1.83-1.51-.31-3,.47-3.8-.1a1.52,1.52,0,0,1-.26-.25.86.86,0,0,0-.14-.13A3.32,3.32,0,0,0,84,59.82a3.42,3.42,0,0,1-1.23-.38,1,1,0,0,1-.35-.43c-.11-.27.23-.57,0-.74a.55.55,0,0,0-.24-.09c-.6-.12-1.58,0-1.87-.13-.56-.3-1-.52-1.33-.74a1.29,1.29,0,0,1-.68-1.18c0-1,.63-2.31,3.15-2.48,1.22-.08,1.69-1.35,3.28-1.63a22.66,22.66,0,0,1,4.05-.68c1.71,0,2.78.75,4.18,1.07A7.64,7.64,0,0,1,95.66,53.57Z"/><path class="cls-14" d="M96.57,54.29c-.3-.23-.61-.47-.95-.7a7.59,7.59,0,0,0-2.68-1.16c-1.41-.32-2.47-1.07-4.18-1.07A22.77,22.77,0,0,0,84.7,52c-1.58.28-2.06,1.55-3.28,1.63-2.23.15-3,1.23-3.12,2.15,1.16-.13,1.65-1.34,3.2-1.62a22.77,22.77,0,0,1,4.06-.68c1.7,0,2.77.75,4.18,1.07a7.67,7.67,0,0,1,2.68,1.16c.34.23.64.47.94.7.77.6,1.62,1.14,1.63,1.86a3.13,3.13,0,0,1,0,.56,4,4,0,0,0,1.51-.46c1.46-.75,1.73-1.21,1.73-2.26C98.18,55.43,97.33,54.89,96.57,54.29Z"/><path class="cls-15" d="M81.44,54.39c1.22-.08,1.7-1.35,3.28-1.64a23.73,23.73,0,0,1,4.06-.67c1.71,0,2.77.74,4.18,1.07a7.67,7.67,0,0,1,2.68,1.16c.34.23.65.46,1,.7.68.53,1.43,1,1.59,1.64a4,4,0,0,0,0-.51c0-.73-.86-1.27-1.62-1.86a11.66,11.66,0,0,0-1-.7A7.67,7.67,0,0,0,93,52.41c-1.41-.32-2.47-1.07-4.18-1.07a22.77,22.77,0,0,0-4.06.68c-1.58.29-2.06,1.55-3.28,1.64-2.51.16-3.15,1.5-3.14,2.48a1.69,1.69,0,0,0,0,.33C78.5,55.56,79.26,54.54,81.44,54.39Z"/><path class="cls-16" d="M82.49,59l.06.12A.16.16,0,0,0,82.49,59Z"/><g class="cls-17"><path class="cls-13" d="M70.39,9.08c0,3.27-5,5.92-11.22,5.92S48,12.35,48,9.08c0-1.62,1.14-3.21,3-4.39.18-.11.19-.71.38-.81s.5.31.67.23,1.05-1.06,1.33-1.17.21.54.6.42c.21-.06.87-.8,1.09-.86.63-.16.87.39,1.57.3.3,0,.18-.34.49-.36s1.26.23,1.69.23c1,0,1.16-.49,2.06-.36.4.07,1.53.71,1.91.79s.36-.44.84-.29c.33.11,1.29.91,1.6,1s.86-.24,1.15-.1.28.75.52.88.49-.12.67,0,.24.57.41.69A5,5,0,0,1,70.39,9.08Z"/></g><path class="cls-14" d="M51.83,8.42A1.28,1.28,0,0,1,52,7.69c.51-.82,1.43-.42,2.25-.38a.53.53,0,0,1,.49.37,4.37,4.37,0,0,1,.15,1s0,0,0,.07c.18.58.35,1.17.53,1.76a5.07,5.07,0,0,1,.19,1.1q.24.8.45,1.59a51.64,51.64,0,0,0,.52-5.34.53.53,0,0,1,.78-.43c.84.41,1.57-.12,2.28.57a2.71,2.71,0,0,1,.51,1.65,19.16,19.16,0,0,0,.35,3.6c.12.22.24.42.34.62a.45.45,0,0,0,.5.23,16.47,16.47,0,0,1-.25-2.8,22.87,22.87,0,0,0,.07-3.31.48.48,0,0,1,.38-.48,3.19,3.19,0,0,1,1-.08.52.52,0,0,1,.5.36,15.06,15.06,0,0,0,.74,2.67c0-1.21.29-2.4.46-3.6a.5.5,0,0,1,.49-.37c.48,0,1-.1,1.42-.13a.51.51,0,0,1,.5.64,7.62,7.62,0,0,0-.24.94c.09.88.16,1.76.25,2.64a.53.53,0,0,0,.33-.47c.12-1.07.44-2.67.63-3.73a15.68,15.68,0,0,0-7.9-1.89,16.46,16.46,0,0,0-8.47,2.13c.11.44.37,1.32.54,1.75A.61.61,0,0,0,51.83,8.42Z"/><path class="cls-14" d="M62.45,4.68a1,1,0,1,1-.68-1.17A1,1,0,0,1,62.45,4.68Z"/><path class="cls-18" d="M60.62,4.34a1,1,0,0,1,1.18-.69.93.93,0,0,1,.64.61.91.91,0,0,0-.67-.75,1,1,0,0,0-1.18.68.9.9,0,0,0,0,.49A1,1,0,0,1,60.62,4.34Z"/><path class="cls-14" d="M60.85,4.49a1.19,1.19,0,0,1-2.3-.61A1.21,1.21,0,0,1,60,3,1.19,1.19,0,0,1,60.85,4.49Z"/><path class="cls-18" d="M58.59,4.06A1.2,1.2,0,0,1,60,3.21a1.17,1.17,0,0,1,.79.75A1.17,1.17,0,0,0,60,3a1.21,1.21,0,0,0-1.46.85,1.22,1.22,0,0,0,0,.6A1.19,1.19,0,0,1,58.59,4.06Z"/><path class="cls-14" d="M64.81,5.36a.88.88,0,0,1-1.42-1,.87.87,0,0,1,1.22-.19A.88.88,0,0,1,64.81,5.36Z"/><path class="cls-18" d="M63.37,4.47a.87.87,0,0,1,1.22-.2.84.84,0,0,1,.34.72.83.83,0,0,0-.32-.85.87.87,0,0,0-1.22.19.81.81,0,0,0-.14.42A.58.58,0,0,1,63.37,4.47Z"/><path class="cls-14" d="M65.33,5.37a.52.52,0,1,1-.84-.61.52.52,0,0,1,.73-.12A.52.52,0,0,1,65.33,5.37Z"/><path class="cls-18" d="M64.47,4.84a.52.52,0,0,1,.73-.12.49.49,0,0,1,.21.43.51.51,0,0,0-.19-.51.52.52,0,0,0-.73.12A.45.45,0,0,0,64.4,5,.87.87,0,0,1,64.47,4.84Z"/><path class="cls-14" d="M64.52,5.28a.52.52,0,0,1-.73.11.53.53,0,0,1-.12-.73.52.52,0,0,1,.73-.11A.52.52,0,0,1,64.52,5.28Z"/><path class="cls-18" d="M63.66,4.74a.52.52,0,0,1,.73-.11.49.49,0,0,1,.21.43.51.51,0,0,0-.2-.51.52.52,0,0,0-.73.11.57.57,0,0,0-.08.25A.41.41,0,0,1,63.66,4.74Z"/><path class="cls-14" d="M61.18,4.72a.52.52,0,0,1-.73.11.52.52,0,0,1-.12-.73.53.53,0,1,1,.85.62Z"/><path class="cls-18" d="M60.32,4.18a.53.53,0,0,1,.73-.12.51.51,0,0,1,.2.44A.51.51,0,0,0,61.06,4a.54.54,0,0,0-.73.12.58.58,0,0,0-.09.25A.53.53,0,0,1,60.32,4.18Z"/><path class="cls-14" d="M67.27,6.25a.52.52,0,0,1-.73.11.53.53,0,0,1-.12-.73.52.52,0,0,1,.73-.11A.52.52,0,0,1,67.27,6.25Z"/><path class="cls-18" d="M66.41,5.71a.52.52,0,0,1,.73-.11.49.49,0,0,1,.21.43.51.51,0,0,0-.2-.51.52.52,0,0,0-.73.11.57.57,0,0,0-.08.25A.41.41,0,0,1,66.41,5.71Z"/><path class="cls-14" d="M66.33,5.9a.41.41,0,0,1-.66-.48.4.4,0,0,1,.57-.09A.41.41,0,0,1,66.33,5.9Z"/><path class="cls-18" d="M65.66,5.48a.4.4,0,0,1,.73.25.39.39,0,0,0-.15-.4.4.4,0,0,0-.57.09.44.44,0,0,0-.07.19A.38.38,0,0,1,65.66,5.48Z"/><path class="cls-14" d="M56.16,5a.53.53,0,1,1-.53-.53A.53.53,0,0,1,56.16,5Z"/><path class="cls-18" d="M55.13,5a.54.54,0,0,1,.54-.53.49.49,0,0,1,.42.23.51.51,0,0,0-.46-.3A.53.53,0,0,0,55.1,5a.56.56,0,0,0,.07.26A.58.58,0,0,1,55.13,5Z"/><path class="cls-14" d="M57.16,4.44a.53.53,0,1,1-.53-.53A.53.53,0,0,1,57.16,4.44Z"/><path class="cls-18" d="M56.13,4.51A.54.54,0,0,1,56.67,4a.49.49,0,0,1,.42.23.49.49,0,0,0-.46-.3.53.53,0,0,0-.53.53.52.52,0,0,0,.07.25A.48.48,0,0,1,56.13,4.51Z"/><path class="cls-14" d="M56.53,4.5A.53.53,0,0,1,56,5,.53.53,0,0,1,56,4,.53.53,0,0,1,56.53,4.5Z"/><path class="cls-18" d="M55.51,4.58A.54.54,0,0,1,56,4a.55.55,0,0,1,.43.23.53.53,0,0,0-1,.23.57.57,0,0,0,.08.26A.58.58,0,0,1,55.51,4.58Z"/><path class="cls-14" d="M54.1,5.38a.54.54,0,1,1-.53-.53A.53.53,0,0,1,54.1,5.38Z"/><path class="cls-18" d="M53.07,5.45a.53.53,0,0,1,.53-.53.51.51,0,0,1,.43.23.51.51,0,0,0-.46-.3.51.51,0,0,0-.46.78A.48.48,0,0,1,53.07,5.45Z"/><path class="cls-14" d="M53.5,5.1a.53.53,0,0,1-.53.53.54.54,0,1,1,.53-.53Z"/><path class="cls-18" d="M52.48,5.17A.53.53,0,0,1,53,4.64a.52.52,0,0,1,.43.23A.53.53,0,0,0,53,4.56a.54.54,0,0,0-.53.54.46.46,0,0,0,.08.25A.58.58,0,0,1,52.48,5.17Z"/><path class="cls-19" d="M56.59,6.41a.93.93,0,0,1,1.19-.58.9.9,0,0,1,.58.63.91.91,0,0,0-.6-.78.94.94,0,0,0-1.19.59.84.84,0,0,0,0,.47A.75.75,0,0,1,56.59,6.41Z"/><path class="cls-19" d="M60.82,6.63a.65.65,0,0,1,.86-.32.62.62,0,0,1,.36.47.61.61,0,0,0-.36-.57.64.64,0,0,0-.86.32.6.6,0,0,0,0,.32A.87.87,0,0,1,60.82,6.63Z"/><path class="cls-19" d="M59.88,5.34A.64.64,0,0,1,60.74,5a.6.6,0,0,1,.35.47.6.6,0,0,0-.36-.57.65.65,0,0,0-.86.32.59.59,0,0,0,0,.32A.44.44,0,0,1,59.88,5.34Z"/><path class="cls-19" d="M63.27,6.35a.47.47,0,0,1,.63-.19.5.5,0,0,1,.28.34.48.48,0,0,0-.29-.41.47.47,0,0,0-.63.19.45.45,0,0,0,0,.23A.3.3,0,0,1,63.27,6.35Z"/><path class="cls-19" d="M60.2,7.06a.48.48,0,0,1,.64-.19.5.5,0,0,1,.28.34.48.48,0,0,0-.29-.41A.47.47,0,0,0,60.2,7a.29.29,0,0,0,0,.22A.39.39,0,0,1,60.2,7.06Z"/><path class="cls-19" d="M59,5a.46.46,0,0,1,.63-.19.5.5,0,0,1,.28.34.48.48,0,0,0-.29-.41A.46.46,0,0,0,59,5a.42.42,0,0,0,0,.22A.27.27,0,0,1,59,5Z"/><path class="cls-19" d="M66.55,7.77a.38.38,0,0,1,.68.11.36.36,0,0,0-.21-.3.34.34,0,0,0-.47.14.44.44,0,0,0,0,.16A.52.52,0,0,1,66.55,7.77Z"/><path class="cls-19" d="M60.34,9.77a.33.33,0,0,1,.46-.14.35.35,0,0,1,.21.25.37.37,0,0,0-.68-.16.44.44,0,0,0,0,.16A.26.26,0,0,1,60.34,9.77Z"/><path class="cls-19" d="M55.65,10.08a.35.35,0,0,1,.47-.14.4.4,0,0,1,.21.25.37.37,0,0,0-.22-.3.36.36,0,0,0-.47.14.33.33,0,0,0,0,.17A.25.25,0,0,1,55.65,10.08Z"/><path class="cls-19" d="M62.5,5.28a.47.47,0,0,1,.63-.19.49.49,0,0,1,.29.34.5.5,0,0,0-.92-.21.33.33,0,0,0,0,.22A.45.45,0,0,1,62.5,5.28Z"/><path class="cls-19" d="M64,5.9a.64.64,0,0,1,1.22.15.63.63,0,0,0-.37-.57A.65.65,0,0,0,64,5.8a.72.72,0,0,0,0,.32A.44.44,0,0,1,64,5.9Z"/><path class="cls-19" d="M55.13,8A.66.66,0,0,1,56,7.64a.6.6,0,0,1,.36.47A.61.61,0,0,0,56,7.54a.66.66,0,0,0-.86.32.54.54,0,0,0,0,.33A.62.62,0,0,1,55.13,8Z"/><path class="cls-19" d="M54.79,7a.65.65,0,0,1,.86-.32.62.62,0,0,1,.36.48.64.64,0,0,0-1.22-.26.64.64,0,0,0,0,.33A1,1,0,0,1,54.79,7Z"/><path class="cls-19" d="M53.56,6.54a.47.47,0,0,1,.59-.3.44.44,0,0,1,.3.31.45.45,0,0,0-.31-.38.46.46,0,0,0-.59.3.49.49,0,0,0,0,.24A.5.5,0,0,1,53.56,6.54Z"/><path class="cls-19" d="M51.77,6.61a.47.47,0,0,1,.59-.31.44.44,0,0,1,.3.31.45.45,0,0,0-.31-.38.47.47,0,0,0-.59.3.4.4,0,0,0,0,.24A.44.44,0,0,1,51.77,6.61Z"/><path class="cls-19" d="M51.5,7.12A.37.37,0,0,1,52,6.88a.4.4,0,0,1,.24.25A.38.38,0,0,0,52,6.82a.39.39,0,0,0-.48.24.34.34,0,0,0,0,.2A.23.23,0,0,1,51.5,7.12Z"/><path class="cls-19" d="M52.44,6.9a.38.38,0,0,1,.72,0,.37.37,0,0,0-.25-.31.37.37,0,0,0-.48.24.31.31,0,0,0,0,.19A.2.2,0,0,1,52.44,6.9Z"/><path class="cls-19" d="M54.38,6.13a.37.37,0,0,1,.48-.24.34.34,0,0,1,.23.25.35.35,0,0,0-.24-.31.38.38,0,0,0-.48.24.45.45,0,0,0,0,.2A.34.34,0,0,1,54.38,6.13Z"/><path class="cls-19" d="M55.31,9.22a.43.43,0,0,1,.55-.29.41.41,0,0,1,.27.29.42.42,0,0,0-.28-.36.44.44,0,0,0-.55.29.45.45,0,0,0,0,.23A.47.47,0,0,1,55.31,9.22Z"/><path class="cls-19" d="M59.71,7.57a.45.45,0,0,1,.55-.3.41.41,0,0,1,.27.29.4.4,0,0,0-.28-.36.45.45,0,0,0-.55.3.41.41,0,0,0,0,.22A.38.38,0,0,1,59.71,7.57Z"/><path class="cls-19" d="M54.77,5.67a.47.47,0,0,1,.59-.31.44.44,0,0,1,.3.32.45.45,0,0,0-.31-.39.47.47,0,0,0-.59.31.37.37,0,0,0,0,.23A.44.44,0,0,1,54.77,5.67Z"/><path class="cls-19" d="M55,8.41a.47.47,0,0,1,.6-.3.42.42,0,0,1,.29.31A.46.46,0,0,0,55.53,8a.47.47,0,0,0-.59.31.39.39,0,0,0,0,.24A.33.33,0,0,1,55,8.41Z"/><path class="cls-19" d="M58.11,6.84a.83.83,0,0,1,1-.53.8.8,0,0,1,.52.55.8.8,0,0,0-.53-.67.83.83,0,0,0-1,.53,1,1,0,0,0,0,.41A1,1,0,0,1,58.11,6.84Z"/><path class="cls-14" d="M60.08,7.1a.4.4,0,0,1-.5.28.41.41,0,0,1,.22-.78A.4.4,0,0,1,60.08,7.1Z"/><path class="cls-18" d="M59.31,6.94a.4.4,0,0,1,.77,0,.4.4,0,0,0-.28-.32.41.41,0,0,0-.5.28.5.5,0,0,0,0,.21A.76.76,0,0,1,59.31,6.94Z"/><path class="cls-14" d="M62.67,4.82a.41.41,0,0,1-.5.28.41.41,0,0,1-.29-.5.41.41,0,0,1,.5-.28A.41.41,0,0,1,62.67,4.82Z"/><path class="cls-18" d="M61.9,4.66a.4.4,0,0,1,.5-.28.4.4,0,0,1,.26.26.37.37,0,0,0-.28-.32.41.41,0,0,0-.5.28.38.38,0,0,0,0,.21A.26.26,0,0,1,61.9,4.66Z"/><path class="cls-14" d="M58.16,4.47a.53.53,0,1,1-.53-.53A.53.53,0,0,1,58.16,4.47Z"/><path class="cls-18" d="M57.13,4.54A.54.54,0,0,1,57.67,4a.49.49,0,0,1,.42.23.51.51,0,0,0-.46-.3.53.53,0,0,0-.53.53.56.56,0,0,0,.07.26A.58.58,0,0,1,57.13,4.54Z"/><path class="cls-14" d="M58.81,4.51a.41.41,0,1,1-.41-.4A.41.41,0,0,1,58.81,4.51Z"/><path class="cls-18" d="M58,4.57a.41.41,0,0,1,.41-.41.37.37,0,0,1,.32.18.37.37,0,0,0-.35-.23.41.41,0,0,0-.41.4.43.43,0,0,0,.06.2A.7.7,0,0,1,58,4.57Z"/><path class="cls-19" d="M56.21,5.51a.94.94,0,0,1,1.19-.59.91.91,0,0,1,.58.63.91.91,0,0,0-.6-.77.91.91,0,0,0-1.21,1A.85.85,0,0,1,56.21,5.51Z"/><circle class="cls-14" cx="52.92" cy="5.91" r="0.75"/><path class="cls-18" d="M52.22,6A.75.75,0,0,1,53,5.26a.71.71,0,0,1,.6.33.73.73,0,0,0-.65-.43.74.74,0,0,0-.75.75.66.66,0,0,0,.11.36A.58.58,0,0,1,52.22,6Z"/><path class="cls-13" d="M89.6,54.24a1.19,1.19,0,0,1-2.3-.61,1.21,1.21,0,0,1,1.46-.85A1.19,1.19,0,0,1,89.6,54.24Z"/><path class="cls-18" d="M87.34,53.81A1.2,1.2,0,0,1,88.79,53a1.17,1.17,0,0,1,.79.75,1.17,1.17,0,0,0-.82-.93,1.16,1.16,0,0,0-1.44,1.45A1.19,1.19,0,0,1,87.34,53.81Z"/><path class="cls-13" d="M93.29,55.63a1.42,1.42,0,1,1-1-1.73A1.42,1.42,0,0,1,93.29,55.63Z"/><path class="cls-18" d="M90.59,55.12a1.42,1.42,0,0,1,1.74-1,1.36,1.36,0,0,1,.94.88,1.39,1.39,0,0,0-1-1.1,1.41,1.41,0,0,0-1.73,1,1.31,1.31,0,0,0,0,.71A1.41,1.41,0,0,1,90.59,55.12Z"/><path class="cls-13" d="M90.35,55.26a.88.88,0,0,1-1.07.63.88.88,0,1,1,.45-1.71A.88.88,0,0,1,90.35,55.26Z"/><path class="cls-18" d="M88.68,54.94a.88.88,0,0,1,1.08-.63.86.86,0,0,1,.58.56.86.86,0,0,0-.61-.69.89.89,0,0,0-1.08.63.93.93,0,0,0,0,.44A.83.83,0,0,1,88.68,54.94Z"/><path class="cls-13" d="M93.72,56.91a.88.88,0,0,1-1.37-1.12.88.88,0,0,1,1.37,1.12Z"/><path class="cls-18" d="M92.32,55.93a.88.88,0,0,1,1.24-.12.86.86,0,0,1,.31.74.85.85,0,0,0-.28-.88.89.89,0,0,0-1.24.12,1,1,0,0,0-.17.41A.87.87,0,0,1,92.32,55.93Z"/><path class="cls-13" d="M95.53,58.54a.89.89,0,0,1-1.24.12.88.88,0,1,1,1.24-.12Z"/><path class="cls-18" d="M94.14,57.55a.88.88,0,0,1,1.24-.12.84.84,0,0,1,.3.75.84.84,0,0,0-.27-.88.88.88,0,0,0-1.24.12.79.79,0,0,0-.17.41A.82.82,0,0,1,94.14,57.55Z"/><path class="cls-13" d="M94.46,57.68a.74.74,0,0,1-1,.1.75.75,0,0,1,1-1.15A.74.74,0,0,1,94.46,57.68Z"/><path class="cls-18" d="M93.28,56.85a.76.76,0,0,1,1.06-.11.73.73,0,0,1,.25.63.71.71,0,0,0-.23-.74.75.75,0,0,0-1,.1.7.7,0,0,0-.14.35A.7.7,0,0,1,93.28,56.85Z"/><path class="cls-13" d="M92.77,56.94A.75.75,0,1,1,91.61,56a.75.75,0,1,1,1.16.94Z"/><path class="cls-18" d="M91.59,56.11a.74.74,0,0,1,1-.1.71.71,0,0,1,.26.63A.73.73,0,0,0,91.61,56a.73.73,0,0,0-.14.34A.72.72,0,0,1,91.59,56.11Z"/><path class="cls-13" d="M91,56.32a.75.75,0,0,1-1.16-1,.75.75,0,0,1,1.16,1Z"/><path class="cls-18" d="M89.84,55.48a.75.75,0,0,1,1-.1.72.72,0,0,1,.26.63.74.74,0,0,0-.23-.74.76.76,0,0,0-1.06.1.72.72,0,0,0-.14.35A.68.68,0,0,1,89.84,55.48Z"/><path class="cls-13" d="M85,58.85a.74.74,0,0,1-1,.1.75.75,0,0,1-.11-1.05.75.75,0,0,1,1.16,1Z"/><path class="cls-18" d="M83.84,58a.75.75,0,0,1,1-.11.72.72,0,0,1,.26.63.75.75,0,0,0-.23-.74.76.76,0,0,0-1.06.1.81.81,0,0,0-.14.35A.72.72,0,0,1,83.84,58Z"/><path class="cls-13" d="M86.5,59.1a.9.9,0,1,1-1.62-.8.9.9,0,1,1,1.62.8Z"/><path class="cls-18" d="M84.88,58.43A.92.92,0,0,1,86.1,58a.9.9,0,0,1,.47.68.86.86,0,0,0-.47-.82.92.92,0,0,0-1.22.41.84.84,0,0,0-.07.44A.87.87,0,0,1,84.88,58.43Z"/><path class="cls-13" d="M92.52,54.57a.75.75,0,0,1-1.16-1,.75.75,0,0,1,1.16,1Z"/><path class="cls-18" d="M91.34,53.73a.75.75,0,0,1,1-.1.72.72,0,0,1,.26.63.74.74,0,0,0-.23-.74.76.76,0,0,0-1.06.1.72.72,0,0,0-.14.35A.68.68,0,0,1,91.34,53.73Z"/><path class="cls-13" d="M86.48,53.68a.75.75,0,0,1-1.15-1,.74.74,0,0,1,1-.1A.75.75,0,0,1,86.48,53.68Z"/><path class="cls-18" d="M85.3,52.84a.75.75,0,0,1,1-.1.72.72,0,0,1,.26.63.7.7,0,0,0-.23-.74.74.74,0,0,0-1,.1.65.65,0,0,0-.15.35A.68.68,0,0,1,85.3,52.84Z"/><path class="cls-14" d="M91.11,53.11a.75.75,0,1,1-.11-1A.75.75,0,0,1,91.11,53.11Z"/><path class="cls-18" d="M89.93,52.28a.74.74,0,0,1,1-.1.72.72,0,0,1,.26.63A.74.74,0,0,0,90,52.17a.73.73,0,0,0-.14.34A.72.72,0,0,1,89.93,52.28Z"/><path class="cls-14" d="M95.33,54.41a.74.74,0,1,1-.1-1A.75.75,0,0,1,95.33,54.41Z"/><path class="cls-18" d="M94.15,53.58a.74.74,0,0,1,1-.1.71.71,0,0,1,.26.63.72.72,0,0,0-.23-.75.75.75,0,0,0-1,.11.65.65,0,0,0-.15.34A.72.72,0,0,1,94.15,53.58Z"/><path class="cls-14" d="M97,55.1a1.11,1.11,0,1,1-2-.88,1.11,1.11,0,0,1,2,.88Z"/><path class="cls-18" d="M95,54.39a1.11,1.11,0,0,1,1.46-.58,1.07,1.07,0,0,1,.63.8,1.07,1.07,0,0,0-.64-1,1.1,1.1,0,0,0-1.46.58.94.94,0,0,0-.06.55A1,1,0,0,1,95,54.39Z"/><path class="cls-13" d="M83.28,55a.89.89,0,0,1-1.24.12A.88.88,0,1,1,83.28,55Z"/><path class="cls-18" d="M81.89,54.05a.88.88,0,0,1,1.24-.12.84.84,0,0,1,.3.75.84.84,0,0,0-.27-.88.88.88,0,0,0-1.24.12.79.79,0,0,0-.17.41A.82.82,0,0,1,81.89,54.05Z"/><path class="cls-13" d="M80.76,55.41A1,1,0,1,1,80,54.26,1,1,0,0,1,80.76,55.41Z"/><path class="cls-18" d="M78.93,55.12A.95.95,0,0,1,80.74,55a.92.92,0,0,0-.7-.72,1,1,0,0,0-1.15.72.88.88,0,0,0,0,.48A.78.78,0,0,1,78.93,55.12Z"/><path class="cls-13" d="M87.86,54.66a.88.88,0,1,1-.63-1.07A.88.88,0,0,1,87.86,54.66Z"/><path class="cls-18" d="M86.18,54.35a.89.89,0,0,1,1.08-.63.84.84,0,0,1,.58.55.84.84,0,0,0-.61-.68.88.88,0,0,0-1.08.62.86.86,0,0,0,0,.45A.8.8,0,0,1,86.18,54.35Z"/><path class="cls-13" d="M88.81,55.5a.87.87,0,0,1-1.08.62.86.86,0,0,1-.62-1.07.88.88,0,1,1,1.7.45Z"/><path class="cls-18" d="M87.14,55.18a.88.88,0,0,1,1.07-.63.86.86,0,0,1,.59.55.85.85,0,0,0-.61-.68.88.88,0,0,0-1.08.63.82.82,0,0,0,0,.44A.81.81,0,0,1,87.14,55.18Z"/><path class="cls-13" d="M82.09,55.17a.81.81,0,1,1-.6-1A.8.8,0,0,1,82.09,55.17Z"/><path class="cls-18" d="M80.55,54.93a.79.79,0,0,1,1.52-.12.77.77,0,0,0-.58-.61.81.81,0,0,0-1,.61.77.77,0,0,0,0,.4A.66.66,0,0,1,80.55,54.93Z"/><path class="cls-13" d="M86,54a1.3,1.3,0,1,1-1-1.56A1.3,1.3,0,0,1,86,54Z"/><path class="cls-18" d="M83.49,53.58a1.31,1.31,0,0,1,1.56-1,1.27,1.27,0,0,1,.89.79,1.24,1.24,0,0,0-.94-1A1.26,1.26,0,0,0,83.48,54,1.19,1.19,0,0,1,83.49,53.58Z"/><path class="cls-14" d="M97.24,56.16a.75.75,0,1,1-.11-1A.75.75,0,0,1,97.24,56.16Z"/><path class="cls-18" d="M96.06,55.33a.74.74,0,0,1,1-.1.7.7,0,0,1,.25.63.72.72,0,0,0-.23-.75.75.75,0,0,0-1,.11.73.73,0,0,0-.14.34A.57.57,0,0,1,96.06,55.33Z"/><path class="cls-14" d="M96,56.07a.93.93,0,1,1-.32-1.28A.93.93,0,0,1,96,56.07Z"/><path class="cls-18" d="M94.4,55.25a.94.94,0,0,1,1.28-.32.9.9,0,0,1,.43.74.88.88,0,0,0-.42-.88.93.93,0,0,0-1.28.32.86.86,0,0,0-.12.46A.94.94,0,0,1,94.4,55.25Z"/><path class="cls-14" d="M97.93,56.55a.62.62,0,0,1-.86.17.62.62,0,1,1,.69-1A.62.62,0,0,1,97.93,56.55Z"/><path class="cls-18" d="M96.89,56a.61.61,0,0,1,.85-.17.58.58,0,0,1,.27.5.59.59,0,0,0-.25-.59.6.6,0,0,0-1,.46A.7.7,0,0,1,96.89,56Z"/><path class="cls-14" d="M87.83,52.56a.62.62,0,0,1-1-.68.63.63,0,0,1,.86-.17A.61.61,0,0,1,87.83,52.56Z"/><path class="cls-18" d="M86.79,52a.62.62,0,0,1,.86-.17.61.61,0,0,1,.26.5.59.59,0,0,0-.25-.59.6.6,0,0,0-1,.47A.76.76,0,0,1,86.79,52Z"/><path class="cls-14" d="M88.44,52.3a.38.38,0,0,1-.52.11.37.37,0,0,1-.1-.52.37.37,0,1,1,.62.41Z"/><path class="cls-18" d="M87.81,51.94a.37.37,0,0,1,.68.2.38.38,0,0,0-.15-.36.38.38,0,0,0-.58.29A.5.5,0,0,1,87.81,51.94Z"/><path class="cls-14" d="M89.88,52.46a.37.37,0,0,1-.62-.42.37.37,0,0,1,.51-.1A.38.38,0,0,1,89.88,52.46Z"/><path class="cls-18" d="M89.25,52.1a.37.37,0,0,1,.52-.1.37.37,0,0,1,.16.3.35.35,0,0,0-.16-.36.37.37,0,0,0-.51.1.32.32,0,0,0-.06.18A.31.31,0,0,1,89.25,52.1Z"/><path class="cls-14" d="M90.25,52.83a.37.37,0,0,1-.52.11.38.38,0,0,1-.1-.52.37.37,0,0,1,.52-.1A.36.36,0,0,1,90.25,52.83Z"/><path class="cls-18" d="M89.62,52.48a.38.38,0,0,1,.52-.11.36.36,0,0,1,.16.31.36.36,0,0,0-.15-.36.37.37,0,0,0-.52.1.31.31,0,0,0,0,.18A.56.56,0,0,1,89.62,52.48Z"/><path class="cls-14" d="M91.63,53.27a.5.5,0,0,1-.66.25.5.5,0,1,1,.66-.25Z"/><path class="cls-18" d="M90.72,52.94a.51.51,0,0,1,.66-.25.49.49,0,0,1,.28.36.49.49,0,0,0-.28-.44.5.5,0,0,0-.66.25.43.43,0,0,0,0,.25A.47.47,0,0,1,90.72,52.94Z"/><path class="cls-14" d="M93.49,53.51a.37.37,0,1,1-.08-.52A.38.38,0,0,1,93.49,53.51Z"/><path class="cls-18" d="M92.88,53.12a.38.38,0,0,1,.52-.07.34.34,0,0,1,.14.3.34.34,0,0,0-.13-.36.37.37,0,0,0-.52.08.35.35,0,0,0-.06.17A.61.61,0,0,1,92.88,53.12Z"/><path class="cls-14" d="M93,53.23a.37.37,0,1,1-.08-.52A.38.38,0,0,1,93,53.23Z"/><path class="cls-18" d="M92.38,52.84a.37.37,0,0,1,.52-.07.34.34,0,0,1,.14.3.34.34,0,0,0-.13-.36.37.37,0,0,0-.52.08.35.35,0,0,0-.06.17A.61.61,0,0,1,92.38,52.84Z"/><path class="cls-14" d="M97,56.57a.36.36,0,0,1-.51.08.37.37,0,1,1,.44-.59A.36.36,0,0,1,97,56.57Z"/><path class="cls-18" d="M96.35,56.18a.38.38,0,0,1,.52-.07.35.35,0,0,1,.14.31.33.33,0,0,0-.13-.36.37.37,0,0,0-.52.07.35.35,0,0,0-.06.17A.61.61,0,0,1,96.35,56.18Z"/><path class="cls-14" d="M96.11,56.85a.37.37,0,0,1-.52.08.38.38,0,0,1-.07-.52.37.37,0,0,1,.59.44Z"/><path class="cls-18" d="M95.51,56.47a.37.37,0,0,1,.52-.08.38.38,0,0,1,.14.31.38.38,0,0,0-.13-.36.37.37,0,0,0-.52.07.36.36,0,0,0-.07.18A.34.34,0,0,1,95.51,56.47Z"/><path class="cls-14" d="M97.27,57.57a.38.38,0,0,1-.52.07.37.37,0,1,1,.52-.07Z"/><path class="cls-18" d="M96.67,57.18a.36.36,0,0,1,.51-.07.37.37,0,0,1,.15.3.37.37,0,0,0-.14-.36.37.37,0,0,0-.51.07.45.45,0,0,0-.07.18A.34.34,0,0,1,96.67,57.18Z"/><path class="cls-14" d="M94.71,55.88a.37.37,0,1,1-.08-.52A.38.38,0,0,1,94.71,55.88Z"/><path class="cls-18" d="M94.1,55.49a.38.38,0,0,1,.52-.07.34.34,0,0,1,.14.31.35.35,0,0,0-.13-.37.37.37,0,0,0-.52.08.35.35,0,0,0-.06.17A.61.61,0,0,1,94.1,55.49Z"/><path class="cls-14" d="M95.14,56.16a.37.37,0,0,1-.51.08.37.37,0,1,1,.51-.08Z"/><path class="cls-18" d="M94.54,55.77a.38.38,0,0,1,.52-.07.34.34,0,0,1,.14.31.35.35,0,0,0-.13-.37.37.37,0,0,0-.52.08.27.27,0,0,0-.06.17A.31.31,0,0,1,94.54,55.77Z"/><path class="cls-13" d="M86.25,56.46a1.26,1.26,0,1,1-.68-1.65A1.26,1.26,0,0,1,86.25,56.46Z"/><path class="cls-18" d="M83.93,55.68A1.27,1.27,0,0,1,85.59,55a1.24,1.24,0,0,1,.72.9,1.19,1.19,0,0,0-.74-1.09,1.26,1.26,0,0,0-1.65.68,1.15,1.15,0,0,0-.07.63A1.36,1.36,0,0,1,83.93,55.68Z"/><path class="cls-13" d="M84.26,56.44a1.06,1.06,0,1,1-2-.81,1.06,1.06,0,1,1,2,.81Z"/><path class="cls-18" d="M82.32,55.79a1.06,1.06,0,0,1,1.38-.57,1,1,0,0,1,.61.75,1,1,0,0,0-.62-.91,1,1,0,0,0-1.38.57.93.93,0,0,0,0,.52A.91.91,0,0,1,82.32,55.79Z"/><path class="cls-13" d="M85.16,56.67a1.05,1.05,0,1,1-.56-1.38A1.05,1.05,0,0,1,85.16,56.67Z"/><path class="cls-18" d="M83.23,56a1,1,0,0,1,1.38-.57,1,1,0,0,1,.6.75,1,1,0,0,0-.61-.91,1,1,0,0,0-1.38.56,1,1,0,0,0-.06.53A.92.92,0,0,1,83.23,56Z"/><path class="cls-13" d="M90,59.57a1.06,1.06,0,0,1-1.38.57,1.06,1.06,0,0,1,.81-2A1.06,1.06,0,0,1,90,59.57Z"/><path class="cls-18" d="M88,58.92a1.06,1.06,0,0,1,1.38-.57,1,1,0,0,1,.61.76,1,1,0,0,0-.62-.92,1.06,1.06,0,0,0-1.38.57,1,1,0,0,0-.06.53A1.21,1.21,0,0,1,88,58.92Z"/><path class="cls-13" d="M91.73,57.23a1.06,1.06,0,1,1-2-.81,1.06,1.06,0,1,1,2,.81Z"/><path class="cls-18" d="M89.79,56.58a1,1,0,0,1,2,.18,1,1,0,0,0-.62-.91,1,1,0,0,0-1.38.57.94.94,0,0,0-.06.52A1.15,1.15,0,0,1,89.79,56.58Z"/><path class="cls-13" d="M81.26,56.6a1.06,1.06,0,1,1-.57-1.38A1.05,1.05,0,0,1,81.26,56.6Z"/><path class="cls-18" d="M79.32,56a1.06,1.06,0,0,1,1.38-.57,1,1,0,0,1,.61.76,1,1,0,0,0-.62-.92,1.06,1.06,0,0,0-1.38.57,1.08,1.08,0,0,0-.06.53A1.21,1.21,0,0,1,79.32,56Z"/><path class="cls-13" d="M82.05,56.6a.64.64,0,1,1-1.18-.49.64.64,0,0,1,1.18.49Z"/><path class="cls-18" d="M80.87,56.21a.64.64,0,0,1,.84-.34.6.6,0,0,1,.37.45.62.62,0,0,0-.38-.55.63.63,0,0,0-.83.34.6.6,0,0,0,0,.32A.85.85,0,0,1,80.87,56.21Z"/><path class="cls-13" d="M81.27,57.14a.64.64,0,0,1-1.18-.5.63.63,0,0,1,.83-.34A.64.64,0,0,1,81.27,57.14Z"/><path class="cls-18" d="M80.09,56.74a.64.64,0,0,1,.84-.34.62.62,0,0,1,.37.45.62.62,0,0,0-.38-.55.63.63,0,0,0-.83.34.6.6,0,0,0,0,.32A.57.57,0,0,1,80.09,56.74Z"/><path class="cls-13" d="M83.11,57.39a.64.64,0,1,1-.34-.84A.64.64,0,0,1,83.11,57.39Z"/><path class="cls-18" d="M81.94,57a.63.63,0,0,1,.83-.34.62.62,0,0,1,.37.45.62.62,0,0,0-.37-.55.64.64,0,0,0-.84.34.6.6,0,0,0,0,.32A.57.57,0,0,1,81.94,57Z"/><path class="cls-13" d="M87.77,57.1a.64.64,0,1,1-1.18-.49.64.64,0,0,1,1.18.49Z"/><path class="cls-18" d="M86.59,56.71a.64.64,0,0,1,.84-.34.6.6,0,0,1,.37.45.62.62,0,0,0-.38-.55.63.63,0,0,0-.83.34.6.6,0,0,0,0,.32A.57.57,0,0,1,86.59,56.71Z"/><path class="cls-13" d="M85.7,56.7a.64.64,0,0,1-1.18-.49.65.65,0,0,1,.84-.35A.64.64,0,0,1,85.7,56.7Z"/><path class="cls-18" d="M84.53,56.3a.64.64,0,0,1,.84-.34.61.61,0,0,1,.36.46.62.62,0,0,0-.37-.56.65.65,0,0,0-.84.35.69.69,0,0,0,0,.32A.62.62,0,0,1,84.53,56.3Z"/><path class="cls-13" d="M89.3,55.85a.64.64,0,1,1-1.18-.49.64.64,0,0,1,1.18.49Z"/><path class="cls-18" d="M88.12,55.46a.64.64,0,0,1,.84-.34.6.6,0,0,1,.37.45A.62.62,0,0,0,89,55a.63.63,0,0,0-.83.34.6.6,0,0,0,0,.32A.85.85,0,0,1,88.12,55.46Z"/><path class="cls-13" d="M87.19,59.5a.64.64,0,0,1-.84.34.64.64,0,0,1,.49-1.18A.65.65,0,0,1,87.19,59.5Z"/><path class="cls-18" d="M86,59.1a.64.64,0,0,1,.84-.34.62.62,0,0,1,.37.46.62.62,0,0,0-.38-.56A.63.63,0,0,0,86,59a.58.58,0,0,0,0,.32A.93.93,0,0,1,86,59.1Z"/><path class="cls-13" d="M92.32,57.48a.64.64,0,0,1-.84.34A.64.64,0,0,1,92,56.64.64.64,0,0,1,92.32,57.48Z"/><path class="cls-18" d="M91.14,57.08a.64.64,0,0,1,.84-.34.6.6,0,0,1,.37.45.62.62,0,0,0-.38-.55.63.63,0,0,0-.83.34.6.6,0,0,0,0,.32A.57.57,0,0,1,91.14,57.08Z"/><path class="cls-13" d="M92,58.6a.63.63,0,1,1-1.17-.49A.63.63,0,1,1,92,58.6Z"/><path class="cls-18" d="M90.86,58.21a.65.65,0,0,1,.84-.35.64.64,0,0,1,.37.46.63.63,0,0,0-1.21-.21.58.58,0,0,0,0,.32A.54.54,0,0,1,90.86,58.21Z"/><path class="cls-13" d="M90.78,59.41a.63.63,0,1,1-1.17-.49.63.63,0,0,1,1.17.49Z"/><path class="cls-18" d="M89.61,59a.65.65,0,0,1,.84-.35.64.64,0,0,1,.37.46.61.61,0,0,0-.38-.55.62.62,0,0,0-.83.34.59.59,0,0,0,0,.32A.57.57,0,0,1,89.61,59Z"/><path class="cls-13" d="M88.91,57.35a.64.64,0,0,1-1.18-.49.64.64,0,1,1,1.18.49Z"/><path class="cls-18" d="M87.74,57a.63.63,0,0,1,1.2.11.62.62,0,0,0-.37-.56.64.64,0,0,0-.84.35.69.69,0,0,0,0,.32A.54.54,0,0,1,87.74,57Z"/><path class="cls-13" d="M94.9,58.08a.44.44,0,0,1-.62.16.45.45,0,1,1,.45-.78A.45.45,0,0,1,94.9,58.08Z"/><path class="cls-18" d="M94.11,57.69a.45.45,0,0,1,.62-.16.44.44,0,0,1,.22.35.43.43,0,0,0-.22-.42.43.43,0,0,0-.67.39A.43.43,0,0,1,94.11,57.69Z"/><path class="cls-13" d="M93.43,58.29a.45.45,0,0,1-.79-.45.45.45,0,0,1,.62-.17A.46.46,0,0,1,93.43,58.29Z"/><path class="cls-18" d="M92.64,57.91a.45.45,0,0,1,.62-.17.45.45,0,0,1,.22.36.45.45,0,0,0-.84-.26.42.42,0,0,0,0,.22A.38.38,0,0,1,92.64,57.91Z"/><path class="cls-13" d="M91.12,59.64a.47.47,0,0,1-.63.16.45.45,0,0,1-.16-.62A.45.45,0,0,1,91,59,.46.46,0,0,1,91.12,59.64Z"/><path class="cls-18" d="M90.32,59.25a.46.46,0,0,1,.63-.16.43.43,0,0,1,.21.35A.4.4,0,0,0,91,59a.43.43,0,0,0-.67.38A.42.42,0,0,1,90.32,59.25Z"/><path class="cls-13" d="M88.3,59.67a.45.45,0,1,1-.16-.62A.44.44,0,0,1,88.3,59.67Z"/><path class="cls-18" d="M87.51,59.28a.45.45,0,0,1,.62-.16.41.41,0,0,1,.22.35.44.44,0,0,0-.83-.26.46.46,0,0,0-.06.22A.44.44,0,0,1,87.51,59.28Z"/><path class="cls-13" d="M89.65,60.2a.46.46,0,1,1-.17-.62A.46.46,0,0,1,89.65,60.2Z"/><path class="cls-18" d="M88.86,59.81a.45.45,0,0,1,.62-.16.42.42,0,0,1,.21.35.41.41,0,0,0-.21-.42.45.45,0,0,0-.62.16.46.46,0,0,0,0,.23A.43.43,0,0,1,88.86,59.81Z"/><path class="cls-13" d="M87.58,59.73a.46.46,0,0,1-.79-.46.46.46,0,1,1,.79.46Z"/><path class="cls-18" d="M86.79,59.34a.45.45,0,0,1,.62-.16.44.44,0,0,1,.22.35.45.45,0,0,0-.84-.26.44.44,0,0,0-.05.22A.44.44,0,0,1,86.79,59.34Z"/><path class="cls-13" d="M86.05,59.76a.46.46,0,0,1-.62.17.46.46,0,1,1,.62-.17Z"/><path class="cls-18" d="M85.26,59.38a.45.45,0,0,1,.62-.17.43.43,0,0,1,.22.35.45.45,0,0,0-.21-.42.45.45,0,0,0-.62.17.43.43,0,0,0-.06.22A.38.38,0,0,1,85.26,59.38Z"/><path class="cls-13" d="M87.15,60.2a.46.46,0,1,1-.17-.62A.46.46,0,0,1,87.15,60.2Z"/><path class="cls-18" d="M86.36,59.81a.45.45,0,0,1,.62-.16.42.42,0,0,1,.21.35.41.41,0,0,0-.21-.42.45.45,0,0,0-.62.16.46.46,0,0,0,0,.23A.43.43,0,0,1,86.36,59.81Z"/><path class="cls-13" d="M88,57.73a.45.45,0,1,1-.16-.62A.46.46,0,0,1,88,57.73Z"/><path class="cls-18" d="M87.23,57.35a.45.45,0,0,1,.62-.17.43.43,0,0,1,.22.35.44.44,0,0,0-.83-.26.4.4,0,0,0-.06.23A.33.33,0,0,1,87.23,57.35Z"/><path class="cls-13" d="M83.87,58.48a.46.46,0,1,1-.79-.46.46.46,0,0,1,.79.46Z"/><path class="cls-18" d="M83.07,58.1a.46.46,0,0,1,.63-.17.44.44,0,0,1,.21.35.42.42,0,0,0-.21-.42.45.45,0,0,0-.62.16.48.48,0,0,0,0,.23A.33.33,0,0,1,83.07,58.1Z"/><path class="cls-13" d="M84.27,59.17a.45.45,0,1,1-.16-.62A.45.45,0,0,1,84.27,59.17Z"/><path class="cls-18" d="M83.48,58.78a.45.45,0,0,1,.62-.16.41.41,0,0,1,.22.35.44.44,0,0,0-.83-.26.37.37,0,0,0-.06.22A.44.44,0,0,1,83.48,58.78Z"/><path class="cls-13" d="M82.06,57.59a.46.46,0,0,1-.62.17.47.47,0,0,1-.17-.63.46.46,0,0,1,.62-.16A.45.45,0,0,1,82.06,57.59Z"/><path class="cls-18" d="M81.27,57.2a.45.45,0,0,1,.84.19.44.44,0,0,0-.22-.42.46.46,0,0,0-.62.16.48.48,0,0,0,0,.23A.43.43,0,0,1,81.27,57.2Z"/><path class="cls-13" d="M84.25,57a.47.47,0,0,1-.63.16.45.45,0,0,1-.16-.62.46.46,0,0,1,.62-.17A.47.47,0,0,1,84.25,57Z"/><path class="cls-18" d="M83.45,56.61a.47.47,0,0,1,.63-.17.46.46,0,0,1,.21.36.43.43,0,0,0-.21-.43.46.46,0,0,0-.62.17.44.44,0,0,0,0,.22A.83.83,0,0,1,83.45,56.61Z"/><path class="cls-13" d="M86.25,56.43a.45.45,0,1,1-.17-.62A.46.46,0,0,1,86.25,56.43Z"/><path class="cls-18" d="M85.45,56.05a.47.47,0,0,1,.63-.17.44.44,0,0,1,.21.36.42.42,0,0,0-.21-.43.46.46,0,0,0-.62.17.42.42,0,0,0,0,.22A.83.83,0,0,1,85.45,56.05Z"/><path class="cls-13" d="M85.8,55.92a.45.45,0,1,1-.16-.62A.44.44,0,0,1,85.8,55.92Z"/><path class="cls-18" d="M85,55.53a.45.45,0,0,1,.62-.16.41.41,0,0,1,.22.35.44.44,0,0,0-.83-.26.46.46,0,0,0-.06.22A.44.44,0,0,1,85,55.53Z"/><path class="cls-10" d="M18.58,48.88c.28.19.54.4.79.6.64.52,1.35,1,1.35,1.61,0,.9-.22,1.3-1.44,1.95-1.5.79-2.28.16-2.9.34-1.33.4-1.4,1.94-3.06,1.58-1.25-.27-2.46.4-3.17-.09a.7.7,0,0,1-.21-.21l-.12-.11a2.62,2.62,0,0,0-.94-.28,2.67,2.67,0,0,1-1-.33.71.71,0,0,1-.29-.37c-.09-.24.19-.49,0-.64a.55.55,0,0,0-.2-.08,13.81,13.81,0,0,1-1.56-.11c-.47-.26-.84-.44-1.11-.63a1.15,1.15,0,0,1-.57-1c0-.84.53-2,2.63-2.14,1-.07,1.41-1.17,2.73-1.41A18.57,18.57,0,0,1,12.86,47c1.42,0,2.31.65,3.48.93A6.05,6.05,0,0,1,18.58,48.88Z"/><path class="cls-13" d="M18.34,49c.26.18.51.38.75.56.61.48,1.3.92,1.3,1.5,0,.83-.22,1.21-1.39,1.81-1.44.74-2.19.15-2.78.32-1.28.37-1.35,1.8-2.94,1.47-1.21-.26-2.38.37-3-.09a.76.76,0,0,1-.21-.19l-.11-.11a2.77,2.77,0,0,0-.9-.25,2.76,2.76,0,0,1-1-.31.76.76,0,0,1-.29-.35c-.08-.22.19-.46,0-.59a.57.57,0,0,0-.2-.07c-.48-.1-1.26,0-1.5-.1-.44-.25-.8-.42-1.06-.6a1,1,0,0,1-.55-.94c0-.78.51-1.86,2.53-2,1-.07,1.36-1.09,2.62-1.32a19,19,0,0,1,3.26-.54c1.37,0,2.22.6,3.35.86A6.19,6.19,0,0,1,18.34,49Z"/><path class="cls-14" d="M19.06,49.62c-.24-.19-.48-.38-.75-.56a6.11,6.11,0,0,0-2.16-.93c-1.12-.26-2-.86-3.35-.86a18.68,18.68,0,0,0-3.25.54C8.28,48,7.9,49.06,6.92,49.12c-1.8.12-2.4,1-2.51,1.73.94-.11,1.33-1.08,2.57-1.31A19,19,0,0,1,10.23,49c1.37,0,2.23.6,3.36.86a6.13,6.13,0,0,1,2.15.93c.27.18.52.37.76.56.61.48,1.29.92,1.3,1.5a2.94,2.94,0,0,1,0,.44A3.14,3.14,0,0,0,19,52.92c1.17-.6,1.39-1,1.38-1.81C20.36,50.53,19.67,50.1,19.06,49.62Z"/><path class="cls-15" d="M6.93,49.7c1-.07,1.36-1.09,2.63-1.31a18,18,0,0,1,3.26-.55c1.37,0,2.22.6,3.35.86a6.23,6.23,0,0,1,2.15.93l.76.56c.55.43,1.15.83,1.28,1.32,0-.12,0-.26,0-.41,0-.58-.69-1-1.3-1.49-.24-.19-.49-.38-.76-.56a6.23,6.23,0,0,0-2.15-.94c-1.13-.26-2-.85-3.35-.85a18,18,0,0,0-3.26.54C8.29,48,7.91,49,6.93,49.11c-2,.14-2.52,1.21-2.52,2a1.12,1.12,0,0,0,0,.27C4.57,50.64,5.19,49.82,6.93,49.7Z"/><path class="cls-16" d="M7.77,53.39l.06.1A.27.27,0,0,0,7.77,53.39Z"/><path class="cls-13" d="M13.48,49.58a1,1,0,1,1-.68-1.17A1,1,0,0,1,13.48,49.58Z"/><path class="cls-18" d="M11.66,49.23a1,1,0,0,1,1.17-.67.91.91,0,0,1,.63.59.93.93,0,0,0-.66-.74.92.92,0,0,0-1.15,1.16A1,1,0,0,1,11.66,49.23Z"/><path class="cls-13" d="M16.43,50.7a1.13,1.13,0,1,1-.8-1.39A1.14,1.14,0,0,1,16.43,50.7Z"/><path class="cls-18" d="M14.27,50.29a1.13,1.13,0,0,1,1.39-.81,1.11,1.11,0,0,1,.76.71,1.1,1.1,0,0,0-.79-.88,1.13,1.13,0,0,0-1.39.81,1,1,0,0,0,0,.56A1.3,1.3,0,0,1,14.27,50.29Z"/><path class="cls-13" d="M14.08,50.4a.71.71,0,1,1-.5-.87A.71.71,0,0,1,14.08,50.4Z"/><path class="cls-18" d="M12.74,50.14a.7.7,0,0,1,.86-.5.67.67,0,0,1,.47.44.68.68,0,0,0-.49-.55.72.72,0,0,0-.87.5.63.63,0,0,0,0,.36A.53.53,0,0,1,12.74,50.14Z"/><path class="cls-13" d="M16.78,51.72a.71.71,0,0,1-1,.1.7.7,0,0,1-.09-1,.69.69,0,0,1,1-.1A.71.71,0,0,1,16.78,51.72Z"/><path class="cls-18" d="M15.66,50.93a.72.72,0,0,1,1-.1.71.71,0,0,1,.24.6.67.67,0,0,0-.22-.7.69.69,0,0,0-1,.1.66.66,0,0,0-.14.32A.65.65,0,0,1,15.66,50.93Z"/><path class="cls-13" d="M18.23,53a.69.69,0,0,1-1,.1A.7.7,0,0,1,18.13,52,.69.69,0,0,1,18.23,53Z"/><path class="cls-18" d="M17.11,52.23a.71.71,0,0,1,1-.09.68.68,0,0,1,.24.59.66.66,0,0,0-.22-.7.7.7,0,0,0-1,.1.69.69,0,0,0-.14.33A1,1,0,0,1,17.11,52.23Z"/><path class="cls-13" d="M17.38,52.34a.61.61,0,0,1-.85.08.6.6,0,0,1-.08-.84.58.58,0,0,1,.84-.08A.59.59,0,0,1,17.38,52.34Z"/><path class="cls-18" d="M16.43,51.67a.59.59,0,0,1,.85-.08.56.56,0,0,1,.2.5.56.56,0,0,0-.19-.59.58.58,0,0,0-.84.08.49.49,0,0,0-.11.27A.51.51,0,0,1,16.43,51.67Z"/><path class="cls-13" d="M16,51.75a.61.61,0,0,1-.85.08.6.6,0,0,1,.77-.93A.61.61,0,0,1,16,51.75Z"/><path class="cls-18" d="M15.07,51.08a.59.59,0,0,1,.84-.09.57.57,0,0,1,.21.51.6.6,0,0,0-.18-.6.6.6,0,0,0-.85.09.49.49,0,0,0-.11.27A.61.61,0,0,1,15.07,51.08Z"/><path class="cls-13" d="M14.61,51.25a.6.6,0,1,1-.92-.76.59.59,0,0,1,.84-.09A.6.6,0,0,1,14.61,51.25Z"/><path class="cls-18" d="M13.67,50.57a.59.59,0,0,1,1.05.43.59.59,0,0,0-1-.51.55.55,0,0,0-.12.27A.58.58,0,0,1,13.67,50.57Z"/><path class="cls-13" d="M9.8,53.28a.6.6,0,0,1-.84.08.6.6,0,0,1,.76-.93A.61.61,0,0,1,9.8,53.28Z"/><path class="cls-18" d="M8.86,52.61a.59.59,0,0,1,.84-.09.56.56,0,0,1,.2.51.58.58,0,0,0-.18-.6.59.59,0,0,0-.84.09.55.55,0,0,0-.12.27A.46.46,0,0,1,8.86,52.61Z"/><path class="cls-13" d="M11,53.48a.72.72,0,0,1-1,.32.72.72,0,1,1,1-.32Z"/><path class="cls-18" d="M9.69,52.94a.74.74,0,0,1,1-.32.67.67,0,0,1,.37.54.69.69,0,0,0-.37-.65.73.73,0,0,0-1,.32.76.76,0,0,0-.06.36A.76.76,0,0,1,9.69,52.94Z"/><path class="cls-13" d="M15.82,49.84a.6.6,0,1,1-.09-.84A.59.59,0,0,1,15.82,49.84Z"/><path class="cls-18" d="M14.87,49.17a.6.6,0,0,1,.84-.08.57.57,0,0,1,.21.51.58.58,0,0,0-.19-.6.6.6,0,0,0-.84.08.52.52,0,0,0-.11.28A.48.48,0,0,1,14.87,49.17Z"/><path class="cls-14" d="M18.07,49.72a.6.6,0,0,1-.84.08.6.6,0,0,1,.76-.93A.6.6,0,0,1,18.07,49.72Z"/><path class="cls-18" d="M17.13,49.05a.59.59,0,0,1,1.05.42.6.6,0,0,0-.19-.6.59.59,0,0,0-1,.36A.46.46,0,0,1,17.13,49.05Z"/><path class="cls-14" d="M19.41,50.27A.89.89,0,1,1,19,49.1.88.88,0,0,1,19.41,50.27Z"/><path class="cls-18" d="M17.78,49.69A.91.91,0,0,1,19,49.23a.88.88,0,0,1,.5.65A.86.86,0,0,0,19,49.1a.88.88,0,0,0-1.17.46.75.75,0,0,0-.05.44A.87.87,0,0,1,17.78,49.69Z"/><path class="cls-13" d="M8.41,50.22a.71.71,0,1,1-.1-1A.72.72,0,0,1,8.41,50.22Z"/><path class="cls-18" d="M7.29,49.43a.7.7,0,0,1,1-.1.68.68,0,0,1,.25.6.71.71,0,0,0-.22-.71.72.72,0,0,0-1,.1.59.59,0,0,0-.13.33A.46.46,0,0,1,7.29,49.43Z"/><path class="cls-13" d="M6.39,50.52a.79.79,0,0,1-.93.58.78.78,0,0,1-.57-.93.76.76,0,0,1,.92-.58A.77.77,0,0,1,6.39,50.52Z"/><path class="cls-18" d="M4.91,50.28a.78.78,0,0,1,.93-.57.74.74,0,0,1,.53.47.75.75,0,0,0-.56-.59.76.76,0,0,0-.92.58.7.7,0,0,0,0,.38A.81.81,0,0,1,4.91,50.28Z"/><path class="cls-13" d="M12.08,49.92a.71.71,0,1,1-.51-.86A.7.7,0,0,1,12.08,49.92Z"/><path class="cls-18" d="M10.73,49.66a.72.72,0,0,1,.87-.5.69.69,0,0,1,.47.44.67.67,0,0,0-.5-.54.7.7,0,0,0-.86.5.69.69,0,0,0,0,.35A.71.71,0,0,1,10.73,49.66Z"/><path class="cls-13" d="M12.84,50.59a.7.7,0,1,1-.5-.87A.71.71,0,0,1,12.84,50.59Z"/><path class="cls-18" d="M11.5,50.33a.7.7,0,0,1,.86-.5.65.65,0,0,1,.47.44.69.69,0,0,0-.49-.55.7.7,0,0,0-.86.51.59.59,0,0,0,0,.35A.71.71,0,0,1,11.5,50.33Z"/><path class="cls-13" d="M7.46,50.33A.65.65,0,1,1,7,49.55.65.65,0,0,1,7.46,50.33Z"/><path class="cls-18" d="M6.22,50.13A.65.65,0,0,1,7,49.64a.63.63,0,0,1,.44.4A.61.61,0,0,0,7,49.55a.65.65,0,0,0-.78.48.74.74,0,0,0,0,.33A.6.6,0,0,1,6.22,50.13Z"/><path class="cls-13" d="M10.57,49.37a1,1,0,1,1-.78-1.25A1,1,0,0,1,10.57,49.37Z"/><path class="cls-18" d="M8.58,49.05a1,1,0,0,1,1.25-.78,1,1,0,0,1,.71.64,1,1,0,0,0-.75-.79,1,1,0,0,0-1.25.78,1,1,0,0,0,0,.52A.93.93,0,0,1,8.58,49.05Z"/><path class="cls-14" d="M19.6,51.12a.6.6,0,1,1-.08-.84A.59.59,0,0,1,19.6,51.12Z"/><path class="cls-18" d="M18.66,50.45a.59.59,0,0,1,.84-.08.56.56,0,0,1,.2.5.56.56,0,0,0-.18-.59.59.59,0,0,0-.84.08.58.58,0,0,0-.12.28A.5.5,0,0,1,18.66,50.45Z"/><path class="cls-14" d="M18.62,51.05a.75.75,0,0,1-1,.25.74.74,0,0,1-.26-1,.75.75,0,0,1,1-.26A.76.76,0,0,1,18.62,51.05Z"/><path class="cls-18" d="M17.32,50.39a.76.76,0,0,1,1-.26.72.72,0,0,1,.35.59.72.72,0,0,0-.34-.7.75.75,0,0,0-1,.26.67.67,0,0,0-.09.36A.81.81,0,0,1,17.32,50.39Z"/><path class="cls-14" d="M20.15,51.43a.49.49,0,0,1-.68.14.49.49,0,1,1,.55-.82A.48.48,0,0,1,20.15,51.43Z"/><path class="cls-18" d="M19.32,51a.5.5,0,0,1,.69-.14.48.48,0,0,1,.21.4.46.46,0,0,0-.2-.47.5.5,0,0,0-.69.13.44.44,0,0,0-.07.24A.44.44,0,0,1,19.32,51Z"/><path class="cls-14" d="M19.37,51.45a.29.29,0,0,1-.47-.35.29.29,0,1,1,.47.35Z"/><path class="cls-18" d="M18.89,51.14a.3.3,0,0,1,.42-.06.26.26,0,0,1,.11.24.3.3,0,0,0-.1-.29.3.3,0,0,0-.42.07.21.21,0,0,0,0,.13A.36.36,0,0,1,18.89,51.14Z"/><path class="cls-14" d="M18.7,51.68a.3.3,0,1,1-.06-.42A.3.3,0,0,1,18.7,51.68Z"/><path class="cls-18" d="M18.21,51.36a.31.31,0,0,1,.42-.06.29.29,0,0,1,.11.25.27.27,0,0,0-.1-.29.3.3,0,0,0-.42.06.34.34,0,0,0,0,.14A.42.42,0,0,1,18.21,51.36Z"/><path class="cls-14" d="M19.63,52.25a.31.31,0,0,1-.42.06.3.3,0,0,1,.36-.48A.31.31,0,0,1,19.63,52.25Z"/><path class="cls-18" d="M19.14,51.93a.31.31,0,0,1,.42,0,.26.26,0,0,1,.11.24.3.3,0,0,0-.1-.29.3.3,0,0,0-.42.06.34.34,0,0,0,0,.14A.69.69,0,0,1,19.14,51.93Z"/><path class="cls-14" d="M17.57,50.89a.29.29,0,1,1-.06-.41A.29.29,0,0,1,17.57,50.89Z"/><path class="cls-18" d="M17.09,50.58a.3.3,0,0,1,.41-.06.32.32,0,0,1,.12.25.28.28,0,0,0-.11-.29.29.29,0,0,0-.41.06.24.24,0,0,0-.05.14A.18.18,0,0,1,17.09,50.58Z"/><path class="cls-14" d="M17.92,51.12a.29.29,0,0,1-.41.06.3.3,0,1,1,.41-.06Z"/><path class="cls-18" d="M17.44,50.81a.3.3,0,0,1,.42-.06A.3.3,0,0,1,18,51a.29.29,0,0,0-.11-.3.3.3,0,0,0-.41.06.27.27,0,0,0-.05.14A.36.36,0,0,1,17.44,50.81Z"/><path class="cls-13" d="M10.79,51.36A1,1,0,1,1,10.25,50,1,1,0,0,1,10.79,51.36Z"/><path class="cls-18" d="M8.93,50.73a1,1,0,0,1,1.33-.54,1,1,0,0,1,.58.72,1,1,0,0,0-.59-.88,1,1,0,0,0-1.33.55,1,1,0,0,0-.06.51A1.15,1.15,0,0,1,8.93,50.73Z"/><path class="cls-13" d="M9.19,51.34a.85.85,0,1,1-.45-1.1A.84.84,0,0,1,9.19,51.34Z"/><path class="cls-18" d="M7.64,50.82A.83.83,0,0,1,9.23,51a.78.78,0,0,0-.49-.73.84.84,0,0,0-1.11.45.76.76,0,0,0,0,.42A.77.77,0,0,1,7.64,50.82Z"/><path class="cls-13" d="M9.92,51.52a.85.85,0,1,1-1.56-.65.85.85,0,0,1,1.56.65Z"/><path class="cls-18" d="M8.36,51a.85.85,0,0,1,1.11-.45.8.8,0,0,1,.49.6.83.83,0,0,0-1.6-.28.78.78,0,0,0,0,.42A.77.77,0,0,1,8.36,51Z"/><path class="cls-13" d="M13.78,53.85a.85.85,0,1,1-1.56-.65.85.85,0,0,1,1.56.65Z"/><path class="cls-18" d="M12.22,53.33a.85.85,0,0,1,1.11-.45.8.8,0,0,1,.49.6.83.83,0,0,0-1.6-.28.8.8,0,0,0-.05.43A.79.79,0,0,1,12.22,53.33Z"/><path class="cls-13" d="M15.18,52a.85.85,0,1,1-.45-1.11A.85.85,0,0,1,15.18,52Z"/><path class="cls-18" d="M13.63,51.45a.84.84,0,0,1,1.1-.45.8.8,0,0,1,.49.6.82.82,0,0,0-.49-.73.85.85,0,0,0-1.11.45.91.91,0,0,0,0,.43A1.07,1.07,0,0,1,13.63,51.45Z"/><path class="cls-13" d="M6.78,51.47a.83.83,0,0,1-1.1.46.85.85,0,1,1,.65-1.56A.83.83,0,0,1,6.78,51.47Z"/><path class="cls-18" d="M5.23,51a.85.85,0,0,1,1.11-.45.81.81,0,0,1,.48.6.8.8,0,0,0-.49-.73.85.85,0,0,0-1.11.45.79.79,0,0,0,0,.43A.79.79,0,0,1,5.23,51Z"/><path class="cls-13" d="M7.42,51.48a.52.52,0,1,1-.28-.68A.52.52,0,0,1,7.42,51.48Z"/><path class="cls-18" d="M6.48,51.16a.52.52,0,0,1,.67-.28.5.5,0,0,1,.29.37.49.49,0,0,0-.3-.45.52.52,0,0,0-.67.28.58.58,0,0,0,0,.26A.58.58,0,0,1,6.48,51.16Z"/><path class="cls-13" d="M6.79,51.9a.51.51,0,1,1-.27-.67A.52.52,0,0,1,6.79,51.9Z"/><path class="cls-18" d="M5.85,51.59a.51.51,0,0,1,.67-.28.54.54,0,0,1,.3.36.5.5,0,0,0-.3-.44.51.51,0,0,0-.67.28.43.43,0,0,0,0,.25A.47.47,0,0,1,5.85,51.59Z"/><path class="cls-13" d="M8.27,52.1A.51.51,0,1,1,8,51.43.52.52,0,0,1,8.27,52.1Z"/><path class="cls-18" d="M7.33,51.78A.51.51,0,0,1,8,51.51a.54.54,0,0,1,.3.36.5.5,0,0,0-.3-.44.51.51,0,0,0-.68.28.53.53,0,0,0,0,.25A.57.57,0,0,1,7.33,51.78Z"/><path class="cls-13" d="M12,51.88a.52.52,0,0,1-.95-.4.52.52,0,0,1,.67-.28A.53.53,0,0,1,12,51.88Z"/><path class="cls-18" d="M11.06,51.56a.52.52,0,0,1,.68-.28.5.5,0,0,1,.29.37.5.5,0,0,0-.3-.45.52.52,0,0,0-.67.28.47.47,0,0,0,0,.26A.57.57,0,0,1,11.06,51.56Z"/><path class="cls-13" d="M10.35,51.55a.51.51,0,0,1-.95-.39.51.51,0,1,1,.95.39Z"/><path class="cls-18" d="M9.41,51.23a.51.51,0,0,1,.67-.27.52.52,0,0,1,.3.36.5.5,0,0,0-.3-.44.51.51,0,0,0-.68.28.53.53,0,0,0,0,.25A.57.57,0,0,1,9.41,51.23Z"/><path class="cls-13" d="M13.23,50.87a.5.5,0,0,1-.67.28.52.52,0,1,1,.67-.28Z"/><path class="cls-18" d="M12.29,50.56a.52.52,0,0,1,.67-.28.51.51,0,0,1,.3.37.5.5,0,0,0-.3-.45.52.52,0,0,0-.67.28.43.43,0,0,0,0,.25A.55.55,0,0,1,12.29,50.56Z"/><path class="cls-13" d="M11.54,53.8a.51.51,0,0,1-.67.27.5.5,0,0,1-.27-.67.51.51,0,1,1,.94.4Z"/><path class="cls-18" d="M10.6,53.48a.52.52,0,0,1,.67-.28.53.53,0,0,1,.3.37.5.5,0,0,0-1-.17.47.47,0,0,0,0,.26A.57.57,0,0,1,10.6,53.48Z"/><path class="cls-13" d="M15.65,52.17a.51.51,0,1,1-.94-.39.51.51,0,1,1,.94.39Z"/><path class="cls-18" d="M14.71,51.86a.52.52,0,0,1,.67-.28.49.49,0,0,1,.3.37.5.5,0,0,0-.3-.45.52.52,0,0,0-.67.28.43.43,0,0,0,0,.25A.55.55,0,0,1,14.71,51.86Z"/><path class="cls-13" d="M15.43,53.08a.52.52,0,1,1-.28-.68A.51.51,0,0,1,15.43,53.08Z"/><path class="cls-18" d="M14.49,52.76a.52.52,0,0,1,.67-.28.5.5,0,0,1,.29.37.5.5,0,0,0-.3-.45.52.52,0,0,0-.67.28.58.58,0,0,0,0,.26A.58.58,0,0,1,14.49,52.76Z"/><path class="cls-13" d="M14.43,53.73a.52.52,0,1,1-.28-.67A.51.51,0,0,1,14.43,53.73Z"/><path class="cls-18" d="M13.48,53.41a.52.52,0,0,1,.68-.28.5.5,0,0,1,.29.37.48.48,0,0,0-.3-.44.51.51,0,0,0-.67.27.47.47,0,0,0,0,.26A.57.57,0,0,1,13.48,53.41Z"/><path class="cls-13" d="M12.92,52.07a.51.51,0,1,1-.27-.67A.52.52,0,0,1,12.92,52.07Z"/><path class="cls-18" d="M12,51.76a.52.52,0,0,1,.67-.28.51.51,0,0,1,.3.37.5.5,0,0,0-1-.17.43.43,0,0,0,0,.25A.47.47,0,0,1,12,51.76Z"/><path class="cls-13" d="M17.73,52.66a.37.37,0,0,1-.5.13.36.36,0,1,1,.5-.13Z"/><path class="cls-18" d="M17.09,52.35a.37.37,0,0,1,.5-.14.39.39,0,0,1,.18.29.34.34,0,0,0-.18-.34.36.36,0,0,0-.49.13.31.31,0,0,0-.05.18A.56.56,0,0,1,17.09,52.35Z"/><path class="cls-13" d="M16.55,52.83a.37.37,0,0,1-.5.13.36.36,0,1,1,.5-.13Z"/><path class="cls-18" d="M15.91,52.52a.36.36,0,0,1,.5-.13.32.32,0,0,1,.17.28.33.33,0,0,0-.17-.34.36.36,0,0,0-.49.13.31.31,0,0,0-.05.18A.56.56,0,0,1,15.91,52.52Z"/><path class="cls-13" d="M14.69,53.91a.37.37,0,1,1-.13-.5A.37.37,0,0,1,14.69,53.91Z"/><path class="cls-18" d="M14.06,53.6a.36.36,0,0,1,.5-.14.39.39,0,0,1,.17.29.34.34,0,0,0-.17-.34.37.37,0,0,0-.5.13.39.39,0,0,0,0,.18A.28.28,0,0,1,14.06,53.6Z"/><path class="cls-13" d="M12.44,53.93a.36.36,0,0,1-.5.13.34.34,0,0,1-.13-.49.35.35,0,0,1,.49-.14A.37.37,0,0,1,12.44,53.93Z"/><path class="cls-18" d="M11.8,53.62a.37.37,0,0,1,.5-.13.32.32,0,0,1,.17.28.34.34,0,0,0-.17-.34.35.35,0,0,0-.49.14.26.26,0,0,0-.05.17A.56.56,0,0,1,11.8,53.62Z"/><path class="cls-13" d="M13.51,54.36a.36.36,0,0,1-.49.13.36.36,0,0,1-.14-.5.37.37,0,0,1,.5-.13A.36.36,0,0,1,13.51,54.36Z"/><path class="cls-18" d="M12.88,54.05a.35.35,0,0,1,.5-.13.37.37,0,0,1,.17.28.34.34,0,0,0-.17-.34.37.37,0,0,0-.5.13.39.39,0,0,0,0,.18A.56.56,0,0,1,12.88,54.05Z"/><path class="cls-13" d="M11.86,54a.37.37,0,0,1-.5.13.36.36,0,1,1,.5-.13Z"/><path class="cls-18" d="M11.22,53.67a.36.36,0,0,1,.5-.13.35.35,0,0,1,.18.28.35.35,0,0,0-.18-.34.36.36,0,0,0-.49.13.31.31,0,0,0-.05.18A.56.56,0,0,1,11.22,53.67Z"/><path class="cls-13" d="M10.63,54a.37.37,0,1,1-.13-.5A.37.37,0,0,1,10.63,54Z"/><path class="cls-18" d="M10,53.7a.36.36,0,0,1,.5-.14.39.39,0,0,1,.17.29.35.35,0,0,0-.17-.34.37.37,0,0,0-.5.13.39.39,0,0,0,0,.18A.19.19,0,0,1,10,53.7Z"/><path class="cls-13" d="M11.51,54.36a.37.37,0,1,1-.13-.5A.37.37,0,0,1,11.51,54.36Z"/><path class="cls-18" d="M10.87,54.05a.37.37,0,0,1,.68.15.35.35,0,0,0-.17-.34.37.37,0,0,0-.5.13.39.39,0,0,0,0,.18A.27.27,0,0,1,10.87,54.05Z"/><path class="cls-13" d="M12.21,52.38a.37.37,0,1,1-.13-.5A.37.37,0,0,1,12.21,52.38Z"/><path class="cls-18" d="M11.58,52.07a.35.35,0,0,1,.49-.14.37.37,0,0,1,.18.29.36.36,0,0,0-.17-.34.37.37,0,0,0-.5.13.39.39,0,0,0,0,.18A.19.19,0,0,1,11.58,52.07Z"/><path class="cls-13" d="M8.88,53a.37.37,0,0,1-.5.13.36.36,0,0,1,.36-.63A.37.37,0,0,1,8.88,53Z"/><path class="cls-18" d="M8.24,52.67a.36.36,0,0,1,.5-.13.35.35,0,0,1,.18.28.35.35,0,0,0-.18-.34.36.36,0,0,0-.49.13.31.31,0,0,0-.05.18A.56.56,0,0,1,8.24,52.67Z"/><path class="cls-13" d="M9.2,53.53a.37.37,0,0,1-.5.13.36.36,0,0,1-.13-.49.37.37,0,0,1,.5-.14A.37.37,0,0,1,9.2,53.53Z"/><path class="cls-18" d="M8.57,53.22a.36.36,0,0,1,.67.15.36.36,0,0,0-.67-.2.33.33,0,0,0,0,.17A.56.56,0,0,1,8.57,53.22Z"/><path class="cls-13" d="M7.43,52.27a.37.37,0,1,1-.63-.37.36.36,0,0,1,.49-.13A.36.36,0,0,1,7.43,52.27Z"/><path class="cls-18" d="M6.79,52a.37.37,0,0,1,.5-.14.37.37,0,0,1,.18.29.34.34,0,0,0-.18-.34.36.36,0,0,0-.49.13.31.31,0,0,0,0,.18A.42.42,0,0,1,6.79,52Z"/><path class="cls-13" d="M9.18,51.79a.37.37,0,1,1-.13-.5A.37.37,0,0,1,9.18,51.79Z"/><path class="cls-18" d="M8.55,51.48a.36.36,0,0,1,.67.15.35.35,0,0,0-.17-.34.37.37,0,0,0-.5.13.39.39,0,0,0,0,.18A.56.56,0,0,1,8.55,51.48Z"/><path class="cls-13" d="M10.79,51.34a.37.37,0,0,1-.5.13.35.35,0,0,1-.13-.5.36.36,0,0,1,.49-.13A.36.36,0,0,1,10.79,51.34Z"/><path class="cls-18" d="M10.15,51a.35.35,0,0,1,.5-.13.32.32,0,0,1,.17.28.33.33,0,0,0-.17-.34.36.36,0,0,0-.49.13.31.31,0,0,0-.05.18A.56.56,0,0,1,10.15,51Z"/><path class="cls-13" d="M10.43,50.92a.36.36,0,0,1-.5.14.37.37,0,0,1-.13-.5.35.35,0,0,1,.5-.13A.36.36,0,0,1,10.43,50.92Z"/><path class="cls-18" d="M9.8,50.61a.36.36,0,0,1,.49-.13.35.35,0,0,1,.18.29.36.36,0,0,0-.67-.21.37.37,0,0,0,0,.18A.5.5,0,0,1,9.8,50.61Z"/><path class="cls-10" d="M56.08,60.14c.48.34.92.69,1.35,1,1.09.88,2.31,1.68,2.32,2.75,0,1.55-.39,2.23-2.48,3.34-2.57,1.37-3.91.28-5,.6-2.27.68-2.4,3.32-5.24,2.7-2.16-.46-4.23.69-5.44-.15a1.57,1.57,0,0,1-.37-.36.73.73,0,0,0-.2-.19,4.73,4.73,0,0,0-1.61-.48,4.52,4.52,0,0,1-1.75-.57,1.33,1.33,0,0,1-.51-.63c-.15-.4.34-.85,0-1.1A1.23,1.23,0,0,0,36.8,67c-.86-.17-2.26.05-2.68-.19-.79-.45-1.43-.76-1.9-1.09a1.94,1.94,0,0,1-1-1.75c0-1.44.91-3.42,4.5-3.67,1.75-.12,2.43-2,4.7-2.42a32,32,0,0,1,5.8-1c2.45,0,4,1.1,6,1.58A10.76,10.76,0,0,1,56.08,60.14Z"/><path class="cls-13" d="M55.65,60.42c.46.31.89.64,1.3,1,1,.82,2.22,1.56,2.23,2.56,0,1.43-.37,2.07-2.38,3.1-2.48,1.27-3.77.26-4.79.55-2.19.64-2.31,3.09-5,2.52-2.07-.43-4.07.64-5.23-.14a1.41,1.41,0,0,1-.35-.34.82.82,0,0,0-.2-.17A4.21,4.21,0,0,0,39.64,69,4.68,4.68,0,0,1,38,68.49a1.29,1.29,0,0,1-.49-.59c-.14-.37.33-.78,0-1a.87.87,0,0,0-.34-.12,24.89,24.89,0,0,1-2.57-.17c-.76-.42-1.37-.71-1.82-1A1.77,1.77,0,0,1,31.78,64c0-1.34.87-3.18,4.33-3.42,1.68-.11,2.33-1.86,4.51-2.25a31.54,31.54,0,0,1,5.58-.93c2.35,0,3.82,1,5.75,1.47A10.61,10.61,0,0,1,55.65,60.42Z"/><path class="cls-14" d="M56.9,61.41c-.41-.32-.84-.65-1.3-1a10.64,10.64,0,0,0-3.69-1.6c-1.94-.44-3.4-1.47-5.76-1.47a31.69,31.69,0,0,0-5.58.93c-2.17.39-2.83,2.14-4.51,2.25-3.08.21-4.11,1.69-4.29,3,1.59-.18,2.27-1.86,4.4-2.24a31.54,31.54,0,0,1,5.58-.93c2.35,0,3.82,1,5.75,1.47a10.78,10.78,0,0,1,3.7,1.6c.46.31.88.64,1.3,1,1,.82,2.22,1.56,2.22,2.56a3.74,3.74,0,0,1,0,.77,5.64,5.64,0,0,0,2.08-.64c2-1,2.39-1.67,2.38-3.1C59.12,63,58,62.23,56.9,61.41Z"/><path class="cls-15" d="M36.09,61.55c1.68-.12,2.34-1.86,4.51-2.26a32.48,32.48,0,0,1,5.58-.93c2.35,0,3.82,1,5.76,1.48a10.64,10.64,0,0,1,3.69,1.59c.46.32.89.65,1.3,1,.93.74,2,1.41,2.19,2.26a5.23,5.23,0,0,0,0-.71c0-1-1.18-1.74-2.23-2.56-.41-.32-.84-.65-1.3-1a10.46,10.46,0,0,0-3.69-1.6c-1.94-.45-3.41-1.48-5.76-1.48a31.52,31.52,0,0,0-5.58.94c-2.17.39-2.83,2.13-4.51,2.25-3.46.23-4.33,2.07-4.33,3.41a2.16,2.16,0,0,0,0,.46C32,63.16,33.09,61.75,36.09,61.55Z"/><path class="cls-16" d="M37.53,67.89a1.4,1.4,0,0,0,.09.17A.28.28,0,0,0,37.53,67.89Z"/><path class="cls-13" d="M47.31,61.34a1.63,1.63,0,1,1-1.16-2A1.63,1.63,0,0,1,47.31,61.34Z"/><path class="cls-18" d="M44.2,60.75a1.63,1.63,0,0,1,2-1.16,1.56,1.56,0,0,1,1.09,1,1.55,1.55,0,0,0-1.14-1.27,1.64,1.64,0,0,0-2,1.16,1.62,1.62,0,0,0,0,.82A1.56,1.56,0,0,1,44.2,60.75Z"/><path class="cls-13" d="M52.39,63.26A2,2,0,1,1,51,60.87,2,2,0,0,1,52.39,63.26Z"/><path class="cls-18" d="M48.68,62.56a1.94,1.94,0,0,1,2.38-1.39,1.88,1.88,0,0,1,1.3,1.22A1.88,1.88,0,0,0,51,60.87a2,2,0,0,0-2.38,1.39,1.81,1.81,0,0,0,0,1A1.74,1.74,0,0,1,48.68,62.56Z"/><path class="cls-13" d="M48.35,62.74A1.21,1.21,0,0,1,46,62.12a1.21,1.21,0,1,1,2.34.62Z"/><path class="cls-18" d="M46,62.31a1.23,1.23,0,0,1,1.49-.87,1.15,1.15,0,0,1,.8.76,1.16,1.16,0,0,0-.84-.94,1.21,1.21,0,0,0-1.48.86,1.05,1.05,0,0,0,0,.61A1.19,1.19,0,0,1,46,62.31Z"/><path class="cls-13" d="M53,65a1.22,1.22,0,1,1-.17-1.71A1.22,1.22,0,0,1,53,65Z"/><path class="cls-18" d="M51.06,63.66a1.22,1.22,0,0,1,1.71-.17,1.2,1.2,0,0,1,.42,1,1.19,1.19,0,0,0-.38-1.21,1.22,1.22,0,0,0-1.71.17,1.2,1.2,0,0,0-.23.56A1.23,1.23,0,0,1,51.06,63.66Z"/><path class="cls-13" d="M55.47,67.25a1.21,1.21,0,1,1-.17-1.7A1.2,1.2,0,0,1,55.47,67.25Z"/><path class="cls-18" d="M53.56,65.9a1.21,1.21,0,0,1,1.7-.17,1.16,1.16,0,0,1,.42,1,1.17,1.17,0,0,0-.38-1.21,1.2,1.2,0,0,0-1.7.17,1.12,1.12,0,0,0-.24.56A1.07,1.07,0,0,1,53.56,65.9Z"/><path class="cls-13" d="M54,66.08a1,1,0,1,1-1.59-1.31,1,1,0,0,1,1.44-.14A1,1,0,0,1,54,66.08Z"/><path class="cls-18" d="M52.38,64.93a1,1,0,0,1,1.45-.15,1,1,0,0,1,.35.87,1,1,0,0,0-.32-1,1,1,0,0,0-1.64.62A1,1,0,0,1,52.38,64.93Z"/><path class="cls-13" d="M51.67,65.06a1,1,0,1,1-.14-1.45A1,1,0,0,1,51.67,65.06Z"/><path class="cls-18" d="M50.05,63.91a1,1,0,0,1,1.45-.14,1,1,0,0,1,.35.87,1,1,0,0,0-.32-1,1,1,0,0,0-1.44.15.86.86,0,0,0-.2.47A.88.88,0,0,1,50.05,63.91Z"/><path class="cls-13" d="M49.27,64.2a1,1,0,0,1-1.45.14,1,1,0,0,1,1.3-1.59A1,1,0,0,1,49.27,64.2Z"/><path class="cls-18" d="M47.64,63.05a1,1,0,0,1,1.45-.14,1,1,0,0,1,.35.87,1,1,0,0,0-.32-1,1,1,0,0,0-1.44.15.94.94,0,0,0-.2.47A1.07,1.07,0,0,1,47.64,63.05Z"/><path class="cls-13" d="M41,67.69a1,1,0,1,1-.14-1.45A1,1,0,0,1,41,67.69Z"/><path class="cls-18" d="M39.39,66.54a1,1,0,0,1,1.44-.15,1,1,0,0,1,.36.87,1,1,0,0,0-.32-1,1,1,0,0,0-1.45.14,1,1,0,0,0-.2.48A1.1,1.1,0,0,1,39.39,66.54Z"/><path class="cls-13" d="M43.05,68a1.24,1.24,0,1,1-2.22-1.11A1.24,1.24,0,0,1,43.05,68Z"/><path class="cls-18" d="M40.82,67.11a1.25,1.25,0,0,1,1.67-.55,1.19,1.19,0,0,1,.65.93,1.19,1.19,0,0,0-.65-1.12,1.23,1.23,0,0,0-1.66.55,1.12,1.12,0,0,0-.11.62A1.28,1.28,0,0,1,40.82,67.11Z"/><path class="cls-13" d="M51.33,61.79a1,1,0,0,1-1.45.14,1,1,0,0,1-.14-1.44,1,1,0,0,1,1.45-.14A1,1,0,0,1,51.33,61.79Z"/><path class="cls-18" d="M49.71,60.64a1,1,0,0,1,1.44-.14,1,1,0,0,1,.36.87,1,1,0,0,0-.32-1,1,1,0,0,0-1.45.14.94.94,0,0,0-.2.47A1.1,1.1,0,0,1,49.71,60.64Z"/><path class="cls-14" d="M55.2,61.58a1,1,0,1,1-.14-1.45A1,1,0,0,1,55.2,61.58Z"/><path class="cls-18" d="M53.58,60.43A1,1,0,0,1,55,60.29a1,1,0,0,1,.36.87,1,1,0,0,0-.32-1,1,1,0,0,0-1.45.15.94.94,0,0,0-.2.47A1.1,1.1,0,0,1,53.58,60.43Z"/><path class="cls-14" d="M57.5,62.52a1.53,1.53,0,1,1-2.8-1.21,1.53,1.53,0,0,1,2.8,1.21Z"/><path class="cls-18" d="M54.71,61.54a1.52,1.52,0,0,1,2-.79,1.5,1.5,0,0,1,.86,1.1,1.46,1.46,0,0,0-.88-1.33,1.51,1.51,0,0,0-2,.79,1.33,1.33,0,0,0-.1.76A1.4,1.4,0,0,1,54.71,61.54Z"/><path class="cls-13" d="M38.61,62.44a1.21,1.21,0,0,1-1.7.17,1.22,1.22,0,1,1,1.7-.17Z"/><path class="cls-18" d="M36.7,61.08a1.22,1.22,0,0,1,1.71-.17,1.19,1.19,0,0,1,.41,1,1.17,1.17,0,0,0-.37-1.21,1.22,1.22,0,0,0-1.71.17,1.1,1.1,0,0,0-.23.56A1.23,1.23,0,0,1,36.7,61.08Z"/><path class="cls-13" d="M35.15,63a1.32,1.32,0,1,1-1-1.59A1.31,1.31,0,0,1,35.15,63Z"/><path class="cls-18" d="M32.62,62.55a1.33,1.33,0,0,1,1.59-1,1.27,1.27,0,0,1,.91.8,1.29,1.29,0,0,0-.95-1,1.32,1.32,0,0,0-1.59,1,1.17,1.17,0,0,0,0,.67A1.48,1.48,0,0,1,32.62,62.55Z"/><path class="cls-13" d="M44.91,61.93a1.21,1.21,0,1,1-.86-1.49A1.21,1.21,0,0,1,44.91,61.93Z"/><path class="cls-18" d="M42.61,61.49a1.2,1.2,0,0,1,1.48-.86,1.15,1.15,0,0,1,.81.76,1.18,1.18,0,0,0-.85-1,1.21,1.21,0,0,0-1.48.86,1.25,1.25,0,0,0,0,.61A1,1,0,0,1,42.61,61.49Z"/><path class="cls-13" d="M46.23,63.07a1.21,1.21,0,0,1-1.48.86,1.21,1.21,0,0,1,.62-2.34A1.21,1.21,0,0,1,46.23,63.07Z"/><path class="cls-18" d="M43.92,62.63a1.22,1.22,0,0,1,1.49-.86,1.17,1.17,0,0,1,.8.76,1.16,1.16,0,0,0-.84-.94,1.21,1.21,0,0,0-1.48.86,1.15,1.15,0,0,0,0,.61A1.57,1.57,0,0,1,43.92,62.63Z"/><path class="cls-13" d="M37,62.62a1.11,1.11,0,0,1-1.34.83,1.1,1.1,0,0,1-.83-1.33,1.11,1.11,0,0,1,2.17.5Z"/><path class="cls-18" d="M34.86,62.28a1.12,1.12,0,0,1,1.34-.83,1.11,1.11,0,0,1,.76.68,1.07,1.07,0,0,0-.8-.84,1.11,1.11,0,0,0-1.34.83,1.06,1.06,0,0,0,0,.56A1.08,1.08,0,0,1,34.86,62.28Z"/><path class="cls-13" d="M42.32,61A1.78,1.78,0,1,1,41,58.83,1.79,1.79,0,0,1,42.32,61Z"/><path class="cls-18" d="M38.91,60.44a1.79,1.79,0,0,1,2.14-1.34,1.74,1.74,0,0,1,1.23,1.09A1.74,1.74,0,0,0,41,58.83a1.79,1.79,0,0,0-2.14,1.34,1.62,1.62,0,0,0,0,.9A1.67,1.67,0,0,1,38.91,60.44Z"/><path class="cls-14" d="M57.82,64a1,1,0,0,1-1.44.14A1,1,0,1,1,57.82,64Z"/><path class="cls-18" d="M56.2,62.84a1,1,0,0,1,1.45-.14,1,1,0,0,1,.35.87,1,1,0,0,0-.32-1,1,1,0,0,0-1.45.14,1,1,0,0,0-.19.48A.88.88,0,0,1,56.2,62.84Z"/><path class="cls-14" d="M56.14,63.86a1.29,1.29,0,0,1-1.77.44,1.28,1.28,0,1,1,1.77-.44Z"/><path class="cls-18" d="M53.91,62.74a1.3,1.3,0,0,1,1.77-.45,1.28,1.28,0,0,1,.6,1,1.24,1.24,0,0,0-.59-1.2,1.27,1.27,0,0,0-1.76.44,1.18,1.18,0,0,0-.16.63A1.09,1.09,0,0,1,53.91,62.74Z"/><path class="cls-14" d="M58.77,64.52a.85.85,0,0,1-1.41-.94.85.85,0,1,1,1.41.94Z"/><path class="cls-18" d="M57.35,63.71a.84.84,0,0,1,1.17-.24.82.82,0,0,1,.36.69.81.81,0,0,0-.34-.82.84.84,0,0,0-1.31.64A.93.93,0,0,1,57.35,63.71Z"/><path class="cls-14" d="M57.44,64.55a.51.51,0,1,1-.11-.71A.51.51,0,0,1,57.44,64.55Z"/><path class="cls-18" d="M56.61,64a.5.5,0,0,1,.9.32.48.48,0,0,0-.18-.5.51.51,0,0,0-.71.1.54.54,0,0,0-.09.24A.6.6,0,0,1,56.61,64Z"/><path class="cls-14" d="M56.27,64.94a.51.51,0,1,1-.81-.61.51.51,0,1,1,.81.61Z"/><path class="cls-18" d="M55.44,64.4a.5.5,0,0,1,.91.33.48.48,0,0,0-.18-.5.5.5,0,0,0-.71.1.42.42,0,0,0-.09.24A1.22,1.22,0,0,1,55.44,64.4Z"/><path class="cls-14" d="M57.87,65.92a.52.52,0,0,1-.72.1.51.51,0,1,1,.62-.81A.52.52,0,0,1,57.87,65.92Z"/><path class="cls-18" d="M57,65.39a.5.5,0,0,1,.71-.1.47.47,0,0,1,.19.42.5.5,0,0,0-.17-.5.51.51,0,0,0-.72.1.54.54,0,0,0-.09.24A.48.48,0,0,1,57,65.39Z"/><path class="cls-14" d="M54.34,63.6a.51.51,0,0,1-.71.1.51.51,0,1,1,.61-.81A.51.51,0,0,1,54.34,63.6Z"/><path class="cls-18" d="M53.51,63.06a.51.51,0,0,1,.71-.1.49.49,0,0,1,.2.42.47.47,0,0,0-.18-.49.5.5,0,0,0-.71.1.42.42,0,0,0-.09.24A.36.36,0,0,1,53.51,63.06Z"/><path class="cls-14" d="M54.94,64a.51.51,0,0,1-.71.11.52.52,0,0,1-.1-.72.51.51,0,0,1,.71-.1A.5.5,0,0,1,54.94,64Z"/><path class="cls-18" d="M54.11,63.45a.52.52,0,0,1,.72-.1.49.49,0,0,1,.19.42.49.49,0,0,0-.18-.5.51.51,0,0,0-.71.1.48.48,0,0,0-.09.24A1.11,1.11,0,0,1,54.11,63.45Z"/><path class="cls-13" d="M42.71,64.4a1.74,1.74,0,1,1-.94-2.28A1.73,1.73,0,0,1,42.71,64.4Z"/><path class="cls-18" d="M39.51,63.32a1.75,1.75,0,0,1,2.28-.93,1.66,1.66,0,0,1,1,1.24,1.68,1.68,0,0,0-1-1.51,1.74,1.74,0,0,0-2.28.94,1.63,1.63,0,0,0-.09.87A1.87,1.87,0,0,1,39.51,63.32Z"/><path class="cls-13" d="M40,64.37a1.46,1.46,0,1,1-.79-1.9A1.45,1.45,0,0,1,40,64.37Z"/><path class="cls-18" d="M37.3,63.47a1.45,1.45,0,0,1,1.9-.78,1.39,1.39,0,0,1,.83,1,1.38,1.38,0,0,0-.85-1.26,1.45,1.45,0,0,0-1.9.78,1.41,1.41,0,0,0-.07.73A1.31,1.31,0,0,1,37.3,63.47Z"/><path class="cls-13" d="M41.21,64.68a1.45,1.45,0,1,1-.78-1.9A1.45,1.45,0,0,1,41.21,64.68Z"/><path class="cls-18" d="M38.54,63.78a1.45,1.45,0,0,1,1.9-.78,1.4,1.4,0,0,1,.84,1,1.41,1.41,0,0,0-.85-1.26,1.45,1.45,0,0,0-1.9.78,1.42,1.42,0,0,0-.08.73A1.52,1.52,0,0,1,38.54,63.78Z"/><path class="cls-13" d="M47.83,68.68a1.45,1.45,0,1,1-.78-1.9A1.45,1.45,0,0,1,47.83,68.68Z"/><path class="cls-18" d="M45.16,67.78A1.46,1.46,0,0,1,47.07,67a1.41,1.41,0,0,1,.83,1,1.41,1.41,0,0,0-.85-1.26,1.45,1.45,0,0,0-1.9.78,1.42,1.42,0,0,0-.08.73A1.82,1.82,0,0,1,45.16,67.78Z"/><path class="cls-13" d="M50.24,65.45a1.45,1.45,0,1,1-.78-1.9A1.45,1.45,0,0,1,50.24,65.45Z"/><path class="cls-18" d="M47.57,64.56a1.45,1.45,0,0,1,1.9-.78,1.39,1.39,0,0,1,.84,1,1.42,1.42,0,0,0-.85-1.26,1.45,1.45,0,0,0-1.9.79,1.38,1.38,0,0,0-.08.72A1.47,1.47,0,0,1,47.57,64.56Z"/><path class="cls-13" d="M35.84,64.59a1.47,1.47,0,0,1-1.91.79,1.46,1.46,0,1,1,1.91-.79Z"/><path class="cls-18" d="M33.17,63.7a1.47,1.47,0,0,1,1.9-.79,1.43,1.43,0,0,1,.83,1,1.39,1.39,0,0,0-.85-1.26,1.45,1.45,0,0,0-1.9.79,1.37,1.37,0,0,0-.07.72A1.26,1.26,0,0,1,33.17,63.7Z"/><path class="cls-13" d="M36.92,64.6a.88.88,0,1,1-1.62-.68.88.88,0,1,1,1.62.68Z"/><path class="cls-18" d="M35.31,64.05a.87.87,0,0,1,1.15-.47.83.83,0,0,1,.5.63.85.85,0,0,0-.51-.77.89.89,0,0,0-1.15.48.83.83,0,0,0,0,.44A1.07,1.07,0,0,1,35.31,64.05Z"/><path class="cls-13" d="M35.85,65.33a.87.87,0,0,1-1.15.47.88.88,0,1,1,1.15-.47Z"/><path class="cls-18" d="M34.23,64.78a.87.87,0,0,1,1.15-.47.85.85,0,0,1,.51.63.86.86,0,0,0-.52-.77.89.89,0,0,0-1.15.48.83.83,0,0,0,0,.44A.87.87,0,0,1,34.23,64.78Z"/><path class="cls-13" d="M38.38,65.67a.88.88,0,1,1-.47-1.15A.87.87,0,0,1,38.38,65.67Z"/><path class="cls-18" d="M36.77,65.13a.89.89,0,0,1,1.15-.48.87.87,0,0,1,.51.63.86.86,0,0,0-.52-.76.87.87,0,0,0-1.15.47.85.85,0,0,0,0,.44A1.07,1.07,0,0,1,36.77,65.13Z"/><path class="cls-13" d="M44.79,65.28a.88.88,0,1,1-.47-1.15A.88.88,0,0,1,44.79,65.28Z"/><path class="cls-18" d="M43.18,64.74a.87.87,0,0,1,1.15-.47.83.83,0,0,1,.5.62.85.85,0,0,0-.51-.76.88.88,0,0,0-1.15.48.83.83,0,0,0-.05.44A.66.66,0,0,1,43.18,64.74Z"/><path class="cls-13" d="M42,64.73a.88.88,0,1,1-.47-1.16A.88.88,0,0,1,42,64.73Z"/><path class="cls-18" d="M40.34,64.18a.87.87,0,0,1,1.15-.47.84.84,0,0,1,.51.62.86.86,0,0,0-1.67-.28.83.83,0,0,0,0,.44A1.07,1.07,0,0,1,40.34,64.18Z"/><path class="cls-13" d="M46.9,63.56a.88.88,0,1,1-.47-1.15A.88.88,0,0,1,46.9,63.56Z"/><path class="cls-18" d="M45.28,63a.89.89,0,0,1,1.16-.47.83.83,0,0,1,.5.62.85.85,0,0,0-.51-.76.88.88,0,0,0-1.15.48.72.72,0,0,0-.05.43A.79.79,0,0,1,45.28,63Z"/><path class="cls-13" d="M44,68.58a.87.87,0,0,1-1.15.47A.88.88,0,1,1,44,68.58Z"/><path class="cls-18" d="M42.38,68a.87.87,0,0,1,1.66.15.88.88,0,0,0-.52-.77.89.89,0,0,0-1.15.48.84.84,0,0,0,0,.44A1.07,1.07,0,0,1,42.38,68Z"/><path class="cls-13" d="M51.05,65.79a.89.89,0,0,1-1.15.48.88.88,0,1,1,1.15-.48Z"/><path class="cls-18" d="M49.44,65.25a.87.87,0,0,1,1.15-.47.83.83,0,0,1,.5.62.85.85,0,0,0-.51-.76.88.88,0,0,0-1.15.48.83.83,0,0,0,0,.44A.66.66,0,0,1,49.44,65.25Z"/><path class="cls-13" d="M50.67,67.34A.88.88,0,0,1,49,66.66a.87.87,0,0,1,1.15-.47A.89.89,0,0,1,50.67,67.34Z"/><path class="cls-18" d="M49.05,66.8a.89.89,0,0,1,1.15-.48.87.87,0,0,1,.51.63.86.86,0,0,0-.52-.76.87.87,0,0,0-1.15.47.85.85,0,0,0,0,.44A1.07,1.07,0,0,1,49.05,66.8Z"/><path class="cls-13" d="M48.94,68.46a.88.88,0,1,1-.47-1.15A.87.87,0,0,1,48.94,68.46Z"/><path class="cls-18" d="M47.33,67.92a.87.87,0,0,1,1.66.15.85.85,0,0,0-.52-.76.87.87,0,0,0-1.15.47.85.85,0,0,0,0,.44A1.07,1.07,0,0,1,47.33,67.92Z"/><path class="cls-13" d="M46.36,65.62a.88.88,0,1,1-.47-1.15A.87.87,0,0,1,46.36,65.62Z"/><path class="cls-18" d="M44.75,65.08a.89.89,0,0,1,1.15-.48.87.87,0,0,1,.51.63.86.86,0,0,0-.52-.76.87.87,0,0,0-1.15.47.85.85,0,0,0-.05.44A1.07,1.07,0,0,1,44.75,65.08Z"/><path class="cls-13" d="M54.61,66.62a.63.63,0,0,1-.86.23.61.61,0,0,1-.22-.85.62.62,0,1,1,1.08.62Z"/><path class="cls-18" d="M53.52,66.09a.63.63,0,0,1,.85-.23.6.6,0,0,1,.3.49.6.6,0,0,0-.29-.58.62.62,0,0,0-.85.23.54.54,0,0,0-.08.3A.58.58,0,0,1,53.52,66.09Z"/><path class="cls-13" d="M52.58,66.92a.62.62,0,0,1-.85.23.63.63,0,1,1,.85-.23Z"/><path class="cls-18" d="M51.49,66.39a.63.63,0,0,1,.86-.23.63.63,0,0,1,.3.49.62.62,0,0,0-.29-.59.63.63,0,0,0-.86.23.57.57,0,0,0-.07.31A.51.51,0,0,1,51.49,66.39Z"/><path class="cls-13" d="M49.4,68.77a.63.63,0,0,1-1.08-.63.62.62,0,0,1,.85-.23A.63.63,0,0,1,49.4,68.77Z"/><path class="cls-18" d="M48.31,68.24a.62.62,0,0,1,.86-.23.63.63,0,0,1,.3.49.63.63,0,0,0-.3-.59.62.62,0,0,0-.85.23.58.58,0,0,0-.08.31A.74.74,0,0,1,48.31,68.24Z"/><path class="cls-13" d="M45.53,68.81a.63.63,0,1,1-1.08-.63A.61.61,0,0,1,45.3,68,.62.62,0,0,1,45.53,68.81Z"/><path class="cls-18" d="M44.44,68.28a.62.62,0,0,1,1.16.26.62.62,0,0,0-1.15-.36.58.58,0,0,0-.08.31A.74.74,0,0,1,44.44,68.28Z"/><path class="cls-13" d="M47.38,69.54a.63.63,0,1,1-1.08-.63.61.61,0,0,1,.85-.22A.62.62,0,0,1,47.38,69.54Z"/><path class="cls-18" d="M46.29,69a.63.63,0,0,1,.86-.23.6.6,0,0,1,.29.49.58.58,0,0,0-.29-.58.61.61,0,0,0-.85.22.58.58,0,0,0-.08.31A.58.58,0,0,1,46.29,69Z"/><path class="cls-13" d="M44.54,68.89a.63.63,0,1,1-.23-.85A.62.62,0,0,1,44.54,68.89Z"/><path class="cls-18" d="M43.45,68.36a.62.62,0,0,1,.85-.23.59.59,0,0,1,.3.49.6.6,0,0,0-.29-.58.63.63,0,0,0-.86.22.7.7,0,0,0-.07.31A.58.58,0,0,1,43.45,68.36Z"/><path class="cls-13" d="M42.43,68.94a.62.62,0,0,1-.85.23.63.63,0,0,1,.63-1.09A.62.62,0,0,1,42.43,68.94Z"/><path class="cls-18" d="M41.35,68.41a.62.62,0,0,1,.85-.23.61.61,0,0,1,.3.49.62.62,0,0,0-.29-.59.64.64,0,0,0-.86.23.57.57,0,0,0-.07.31A.52.52,0,0,1,41.35,68.41Z"/><path class="cls-13" d="M43.94,69.54a.63.63,0,0,1-.86.23.62.62,0,0,1-.22-.86.61.61,0,0,1,.85-.22A.62.62,0,0,1,43.94,69.54Z"/><path class="cls-18" d="M42.85,69a.63.63,0,0,1,.86-.23.6.6,0,0,1,.29.49.58.58,0,0,0-.29-.58.61.61,0,0,0-.85.22.58.58,0,0,0-.08.31A.86.86,0,0,1,42.85,69Z"/><path class="cls-13" d="M45.14,66.14a.62.62,0,0,1-1.08-.62.62.62,0,1,1,1.08.62Z"/><path class="cls-18" d="M44.05,65.61a.62.62,0,0,1,.86-.22.62.62,0,0,1,.3.48.59.59,0,0,0-.3-.58.62.62,0,0,0-.85.23.53.53,0,0,0-.07.3A.83.83,0,0,1,44.05,65.61Z"/><path class="cls-13" d="M39.42,67.18a.61.61,0,0,1-.85.22.62.62,0,1,1,.85-.22Z"/><path class="cls-18" d="M38.34,66.65a.61.61,0,0,1,1.15.26.59.59,0,0,0-.3-.59.63.63,0,0,0-.85.23.55.55,0,0,0-.07.3A.48.48,0,0,1,38.34,66.65Z"/><path class="cls-13" d="M40,68.12a.62.62,0,1,1-.22-.85A.62.62,0,0,1,40,68.12Z"/><path class="cls-18" d="M38.89,67.59a.62.62,0,0,1,1.16.26.6.6,0,0,0-.29-.58.62.62,0,0,0-.86.23.53.53,0,0,0-.07.3A.83.83,0,0,1,38.89,67.59Z"/><path class="cls-13" d="M36.94,66a.63.63,0,0,1-.86.23.62.62,0,0,1-.22-.86.61.61,0,0,1,.85-.22A.62.62,0,0,1,36.94,66Z"/><path class="cls-18" d="M35.85,65.42a.62.62,0,0,1,.85-.23.59.59,0,0,1,.3.49.6.6,0,0,0-.29-.58.61.61,0,0,0-.85.22.6.6,0,0,0-.08.31A.58.58,0,0,1,35.85,65.42Z"/><path class="cls-13" d="M40,65.13a.63.63,0,0,1-.86.23.61.61,0,0,1-.22-.85.62.62,0,1,1,1.08.62Z"/><path class="cls-18" d="M38.86,64.6a.61.61,0,0,1,.85-.22.57.57,0,0,1,.3.48.58.58,0,0,0-.29-.58.62.62,0,0,0-.85.23.54.54,0,0,0-.08.3A.58.58,0,0,1,38.86,64.6Z"/><path class="cls-13" d="M42.7,64.36a.63.63,0,1,1-1.08-.63.62.62,0,0,1,.85-.23A.64.64,0,0,1,42.7,64.36Z"/><path class="cls-18" d="M41.61,63.83a.63.63,0,0,1,.86-.23.6.6,0,0,1,.29.49.6.6,0,0,0-.29-.59.62.62,0,0,0-.85.23.58.58,0,0,0-.08.31A.74.74,0,0,1,41.61,63.83Z"/><path class="cls-13" d="M42.09,63.65a.63.63,0,1,1-.23-.86A.64.64,0,0,1,42.09,63.65Z"/><path class="cls-18" d="M41,63.12a.62.62,0,0,1,1.16.26.63.63,0,0,0-.3-.59A.62.62,0,0,0,41,63a.58.58,0,0,0-.08.31A.74.74,0,0,1,41,63.12Z"/><path class="cls-14" d="M51.34,21.34a8.89,8.89,0,0,0,3.35-1.71,3.78,3.78,0,0,0,1.69-2.25c.6-1.51-.38-5-.38-4.28s.52,3.44-.66,4.88c-1.34,1.61-2.87,1.94-4.72,2.55-2.53.83-2.14,2.9-.87,4.1.36.33,1.67,1.6,2.07,1.87,1.36.93-.82,1.9-1.59,2.15-.52.17-1.51.58-2.06.73a4,4,0,0,0,.52-2.26c-.43-2-2.39-1.19-3.3-2.48-1.53-2.19,5.12-5.64,5.8-7.59a.49.49,0,0,0-.34-.61c-1.71-.29.15-1.46.81-2a3.46,3.46,0,0,0,1.47-1.74c.14-.49-1.34-5-1.33-4.37,0,1.17,2.2,4.2-.84,5.4-1.56.61-3,2.88-.94,3.53-1.14,2.18-4.37,3.27-5.55,5.56a2.51,2.51,0,0,0,.06,2.31,1.85,1.85,0,0,0,.89.88,2.28,2.28,0,0,0,.8.26c1.78.47,1,2.32.24,3.43-.65.16-.79.15-1.43.29-3.55.79-6.51-.05-9.53,2.44-.26.22-2.65,3.09,2.37,5.49.56.27,3.2.8,1.53,1.34-1.32.43-3.08-.35-4.34-.76-2.09-.67-4.16-1.15-6.1.14a.51.51,0,0,0,.12.92c.78.17,1.59.23,2.37.38,2.32.42,0,1.15-1.1,1.23-2.57.2-5.27-.06-7.77.59a.49.49,0,0,0-.37.48c.19,3.45-6.08,2.3-8.25,3.21a8.81,8.81,0,0,0-1.54,1c-.71,1-.66.94-.58,1.67l2.71.25a1.26,1.26,0,0,1,.83-1.29,19,19,0,0,1,2.46-.55,17.53,17.53,0,0,0,3.66-.7A3.49,3.49,0,0,0,23.42,44c.17-.32-.22-.94-.18-1.29.06-.52,3.61-.33,4.14-.33,1.4,0,5.8.28,6.33-1.63.32-1.18-.93-1.63-2.21-1.85,3.2-.09,6.85,3.07,9.51.62.58-.54,0-1.21-.44-1.55a8,8,0,0,0-2-.86c-.81-.29-3-1.65-2.37-2.58a12.09,12.09,0,0,0,4,1.78c2.39.81,6.6-.26,9,.8a10.07,10.07,0,0,1,2.6,1.68c1.55,1.38-6.32,3.45-7.22,3.71C42.73,43,30.69,44,27.94,44.25c-3,.33-10.5,4.81.79,6.61.87.14,1.81.17,2.68.23a56.17,56.17,0,0,1,6.53,1.27c4.49.82,8.86.39,13.61,1.31,1,.5-3,.29-5.09,1.75a14.59,14.59,0,0,0-4,3.79,8.36,8.36,0,0,1,5.88.46c1.94.86,1-3.25,5.16-4.75.32-.11,1.55-.92,1.34-1.17C53,51.63,49.49,52.06,46.88,52c-4-.08-5.3-.75-9.31-1.37-8.2-1.27-10.94-4.32-5.88-4.44,4.63-.11,9.81.07,14.19-1.5.28-.1,12.63-3,9.81-6.13-1.27-1.38-5.26-3.67-7.19-3.81-2.22-.15-5.68.65-7.93.13-5-1.17-2.84-2.17-2.5-2.32,1.87-.81,2.92-.29,5.31-.43a43.74,43.74,0,0,0,6.31-1.25c1-.22,5.83-2.07,4.63-4.13C53.88,26,47.22,22.7,51.34,21.34Z"/><path class="cls-10" d="M23.42,44c.17-.32-.22-.94-.18-1.29.06-.52,3.61-.33,4.14-.33,1.4,0,5.8.28,6.33-1.63a1.08,1.08,0,0,0-.46-1.25,1,1,0,0,1,.14.94c-.52,1.91-4.92,1.64-6.32,1.63-.53,0-4.08-.19-4.15.32,0,.35.36,1,.19,1.3a3.51,3.51,0,0,1-1.92,1.83,17,17,0,0,1-3.59.76,11,11,0,0,0-2.35.44,1.42,1.42,0,0,0-.7,1.66,1.26,1.26,0,0,1,.83-1.29,19,19,0,0,1,2.46-.55,17.53,17.53,0,0,0,3.66-.7A3.49,3.49,0,0,0,23.42,44Z"/><path class="cls-10" d="M52.94,12.75c-.42.92-4.73,3.13-2.64,3.77.25.08.48.4.35.61-1.19,2-7.49,5.87-5.52,7.93.65.69,3.84.88,3,4.23a3.48,3.48,0,0,0,.58-2.41c-.39-1.37-2-1-3.12-2.28-1.76-2,4.94-5.5,5.62-7.45a.54.54,0,0,0-.45-.71c-1.67-.27.23-1.41.89-1.94a3.54,3.54,0,0,0,1.48-1.77c.14-.49-1.31-4.48-1.29-4.39C52.15,9.42,53.09,12.44,52.94,12.75Z"/><path class="cls-10" d="M48.53,34.75c-2.22-.15-5.68.65-7.93.13-5-1.17-2.74-2.2-2.41-2.35s1.48-.38,1.66-.43a3.89,3.89,0,0,0-2.67.71c-.27.25-.51,1.54,2.69,2.19,4.83,1,6.24,0,8.46.17,1.93.13,5.18,2.17,6.45,3.56,2.82,3.08-11.7,6.69-12.51,6.87,1.56-.08,16.68-3.68,13.45-7C54.42,37.21,50.46,34.89,48.53,34.75Z"/><path class="cls-10" d="M46.9,52c-4-.08-5.3-.75-9.31-1.38-6.83-1.05-9.85-3.33-7.75-4.14-1.67.33-1.32,3.18,6.5,4.39,4,.63,5.32,1.3,9.31,1.38,2.61.05,7.29-.23,8.44,1.67.27.45-1.39,1.26-1.67,1.46-2,1.39-2.89,2.64-2.79,3.68,0,0,.58-1.89,4.06-4.1.29-.18,1.48-.77,1.13-1.21C53.06,51.56,49.51,52,46.9,52Z"/><path class="cls-10" d="M56.09,13.18c0,.59,1,3.25,0,4.8-1.27,1.92-4.48,3.06-5.88,3.69-1.92.87,3.42,4.94,3.71,5.44,1.21,2.06-4.43,3.78-5.38,4s-2.07.5-3.2.75c1.52-.28,3.2-.61,4.48-.9.94-.22,5.83-2.06,4.62-4.13-.43-.73-7.1-4-3-5.41a8.72,8.72,0,0,0,3.36-1.71,3.8,3.8,0,0,0,1.68-2.25C57.06,16,56.09,12.47,56.09,13.18Z"/><path class="cls-14" d="M87.25,52.44c-9.18-4.41-20.68,4-24.06,1.47-2.89-2.16,14.36-3.32,20-10.44.89-1,3.47-5.25-9.65-9.59-1-.33-2-.67-3.06-.94-.49-.13-2.92-.95-1.23-1.34a8.81,8.81,0,0,0,4.57-2.29c2.35-2.43.11-6-2-7.66-1-.75-2.65-1.63-2.3-3.19A8.51,8.51,0,0,0,70,15.87a1.57,1.57,0,0,0-.64-1.23c-2.32-1-2.83-5.5-2.82-4.86,0,1.25-.08,3,.72,4.06s2,2.18,1.5,3.83a3.16,3.16,0,0,0-.25,1.79c.45,1.64,2.09,2.42,3.26,3.45,1.5,1.34,2.65,3.17,1.7,5.27-.67,1.46-2.61,2-4,2.34-.79.2-2,.33-2.23,1.27a1.36,1.36,0,0,0,1.07,1.59c2.16.71,4.32,1.12,6.43,2A22.26,22.26,0,0,1,77,36.55q-.67-.19-1.38-.36c-2.89-.67-5.72-1.61-8.6-2.25a12.08,12.08,0,0,0-2.62-.1c-2.15,0-3.19-1.55-1.64-3s3.84-1.92,5.69-2.73c2.24-1,4.37-3.56,1.18-4.85a12.92,12.92,0,0,0-2.82-.62c-1.61-.26-.39-1.22,0-2.23.71-1.65-1.14-3.14-2.37-3.87-.08,0-.53-5-.8-6.68a28.28,28.28,0,0,0,.08,3.58,14.24,14.24,0,0,1,0,3.13,10.61,10.61,0,0,1-2.63-2.88c-.36-.53-1.29.25,3.06,3.86,2.66,2.21-.42,3.27-.48,5.53,0,.2.67.61.88.65,1.23.24,3.09,0,4.3.35,2.36.62-.4,2.07-1.77,2.71-2.21,1-4.57,1.6-6.41,3.29-1.22,1.12-2,3.64-.75,4.62.78.61,3.71.94,4.63.94a22.82,22.82,0,0,1,6.47,1.06c3,.86,6.86.37,9.12,2.63C83.07,41.69,78,44.1,77.3,44.5c-2.08,1.25-15,4.72-17.34,6.09-2.5,1.5-4.66,3.83-1.75,6,1.9,1.41,4.75,2,13.25-2.09A26.12,26.12,0,0,1,87.25,52.44Z"/><path class="cls-20" d="M67,33.94a12.08,12.08,0,0,0-2.62-.1,2.14,2.14,0,0,1-2.23-1.21c0,.91.82,1.65,2.29,1.65a10,10,0,0,1,2.62.09c7.9,2.23,9.53,2.05,10,2.18-.55-.2-1.11-.24-1.71-.43C72.48,35.46,69.74,34.56,67,33.94Z"/><path class="cls-10" d="M63.19,53.91c-.28-.21-.37-.41-.3-.6-1.11.48-1.54.93-.86,1.43,2.83,2.11,11.32-4.09,19.43-3.32a13.13,13.13,0,0,1,5.79,1C78.07,48,66.57,56.42,63.19,53.91Z"/><path class="cls-20" d="M70.6,33A5.68,5.68,0,0,1,69,32.27c-.26.07,4.94,1.91,7,2.86,10.29,4.71,7,8.35,6.17,9.22a11.9,11.9,0,0,1-2,1.94,13.42,13.42,0,0,0,3.17-2.78c.89-1,3.47-5.25-9.66-9.59C72.64,33.59,71.63,33.25,70.6,33Z"/><path class="cls-20" d="M63.75,10.4l.72,6.16a7.86,7.86,0,0,1,2.08,1.75,1.86,1.86,0,0,1,.29,2.12c-.1.3-.84,1.36-.86,1.59a.44.44,0,0,0,.32.46c.16,0,3.29.4,4.2,1.19s.71,1.21.71,1.21a4.4,4.4,0,0,0-.91-1,5.21,5.21,0,0,0-2.25-.53c-.52,0-3,0-3-.58S66.11,21,66.4,20.46a1.74,1.74,0,0,0-.31-2.21c-1-1-1.79-1.19-1.84-1.54C64.15,15.8,63.75,10.4,63.75,10.4Z"/><g class="cls-21"><path d="M84.35,60.31s-2.41.22-2.32.25a11.49,11.49,0,0,0,1.79.62L85,60.54Z"/></g><path class="cls-22" d="M82.09,59.69s.15.82.31.88a9.6,9.6,0,0,0,1.4.47c.13,0,.19-1,.19-1S83,59.91,82.09,59.69Z"/><path class="cls-20" d="M85.18,59.07l-1.19,1-.19,1,.94-.47A8.91,8.91,0,0,0,85.18,59.07Z"/><path class="cls-23" d="M82.09,59.69l1.9.38,1.19-1-1.44-.13C83.65,58.94,82.09,59.69,82.09,59.69Z"/><polygon class="cls-10" points="58.96 10.92 58.84 17.88 55.42 22.84 55.96 28.92 56.3 22.84 59.71 17.92 58.96 10.92"/><polygon class="cls-10" points="49.55 7.17 50.21 8.75 49.3 9.84 49.63 12.17 49.71 10 50.8 8.67 49.55 7.17"/><polygon class="cls-10" points="42.96 24.59 41.21 25.84 40.8 27.84 38.13 29.67 41.38 28.34 41.46 26.17 42.96 24.59"/><polygon class="cls-10" points="59.21 21.25 59.8 24.59 57.96 27.59 57.3 31.42 52.96 31.25 47.96 32.67 52.96 31.75 57.63 32.25 58.3 27.92 60.46 24.84 59.21 21.25"/><polygon class="cls-10" points="52.5 34.88 56.69 33.69 63.94 37.44 56.57 34.63 52.5 34.88"/><polygon class="cls-10" points="41.07 40.63 46.07 38.5 47.88 39 49.07 40.25 47.82 39.38 46.07 38.94 41.07 40.63"/><polygon class="cls-10" points="34.07 41.94 37.44 42.25 39.94 41.13 37.25 41.88 34.07 41.94"/><polygon class="cls-10" points="23.44 40.5 26.44 40.19 27.69 37.88 32.19 36.63 33.5 34.44 32.38 37 28 38.19 26.63 40.75 23.44 40.5"/><polygon class="cls-10" points="6.82 45.75 10.07 46.13 13.5 44.31 18 44 21.44 41.81 17.69 43.69 13.25 43.56 10.07 45.75 6.82 45.75"/><polygon class="cls-10" points="1.21 54.09 4.05 53.25 6.96 56.09 10.3 56.25 12.13 60.09 9.8 57 6.63 56.67 4.13 54 1.21 54.09"/><polygon class="cls-10" points="18.55 60.17 24.63 59.92 27.8 61.67 29.38 64.5 27.05 61.92 24.55 60.59 18.55 60.17"/><polygon class="cls-10" points="25.46 54.42 30.55 55.67 35.71 53.17 40.3 54.42 41.05 55.92 39.8 54.84 35.88 53.92 30.63 56.34 25.46 54.42"/><polygon class="cls-10" points="42.38 49.75 45.71 47.25 51.38 48.25 54.96 44.92 59.05 45.5 61.63 47.92 58.8 46.25 55.05 45.67 51.71 48.92 45.96 47.67 42.38 49.75"/><polygon class="cls-10" points="62.38 66.92 64.13 63.42 70.13 64.59 75.3 62.92 79.3 63.92 75.3 63.75 69.96 65.42 64.3 64.25 62.38 66.92"/><polygon class="cls-20" points="63.13 42.42 66.8 40.17 69.38 42.34 72.3 40.34 76.96 40.67 78.3 40.34 79.21 41.92 77.96 41 76.88 41.17 72.63 40.92 69.21 43.17 66.71 41.09 63.13 42.42"/><polygon class="cls-20" points="68.38 8.75 68.21 11.34 71.46 13.67 71.05 18 73.96 20.09 71.46 17.67 71.88 13.25 68.8 11.25 68.38 8.75"/><path class="cls-20" d="M68.88,6.17a31.47,31.47,0,0,1,1.83,2.58l-.25,2.17-.33-2.08Z"/><polygon class="cls-20" points="73.21 21.84 75.3 24.42 75.8 27.59 74.46 30.84 76.13 33.09 74.96 31 76.21 27.84 75.63 24.17 73.21 21.84"/><polygon class="cls-20" points="85.21 40.67 87.63 42.59 89.55 43.59 89.21 44.59 88.96 43.75 87.13 43.25 85.21 40.67"/><polygon class="cls-20" points="76.8 31.75 78.38 34.09 80.63 35.34 84.46 38.92 81.05 34.75 78.63 33.75 76.8 31.75"/><polygon class="cls-20" points="80.3 47.34 83.63 45.5 85.96 45.92 87.71 45.67 85.88 46.5 83.71 46 80.3 47.34"/><polygon class="cls-20" points="94.88 48.5 96.55 48.34 98.46 49.84 100.13 50.67 98.38 50.25 96.46 48.84 94.88 48.5"/><path class="cls-10" d="M71.46,56.75l2.59-1.08L76.46,58l2.75.75L80.88,61a18.64,18.64,0,0,0-1.83-1.66c-.25-.09-3.09-.59-3.09-.59L74.13,56.5Z"/><g class="cls-21"><polygon class="cls-24" points="13 57.38 11.88 58.13 14.5 59.5 17.75 57.63 17.38 56.75 19.13 57.38 21.63 55 15.55 55.69 13 57.38"/></g><path class="cls-25" d="M16.88,50.23,15,52.49s1.42,1.86,1.68,2a13.88,13.88,0,0,0,2.49.27L21.63,49Z"/><polygon class="cls-22" points="14.97 52.49 15.55 55.69 16.65 56.31 16.65 54.53 14.97 52.49"/><polygon class="cls-10" points="19.14 54.8 18.92 56.93 16.65 56.31 16.65 54.53 19.14 54.8"/><polygon class="cls-20" points="18.92 56.93 20.74 55.29 21.63 48.98 19.14 54.8 18.92 56.93"/><path class="cls-23" d="M11.72,55a22.67,22.67,0,0,1,2.71-.75,4.94,4.94,0,0,1,2.82,1.16,6.47,6.47,0,0,1-2.92,1.4C13.37,56.83,11.82,55.23,11.72,55Z"/><path class="cls-20" d="M14.43,58.54l-.1-1.76a30.76,30.76,0,0,0,2.92-1.4C17.3,55.23,17,57,17,57Z"/><path class="cls-22" d="M11.72,55,12,57l.65,1,1.81.5-.1-1.76A12.66,12.66,0,0,1,11.72,55Z"/><g class="cls-21"><polygon class="cls-24" points="85.98 50.46 86.94 49.69 90.5 48.75 94.5 49.13 91.9 50.84 89.65 50.59 89.19 50.02 87.75 51 85.98 50.46"/></g><path class="cls-20" d="M91.71,50.5l2.13-1.07s2.17-4.66-1.54-7c-.32-.2.91,6.37-.12,7Z"/><path class="cls-22" d="M88.85,47.64s.4-1.82.56-2.37a7.83,7.83,0,0,1,2.73-2.85c.71-.16,1.43,3.09,1.58,3.72s-1.18,3.21-1.54,3.33C91.12,49.82,89.17,47.57,88.85,47.64Z"/><path class="cls-10" d="M88.85,47.64s.56,2.54,1,2.7a9.2,9.2,0,0,0,1.83.16l.47-1Z"/><path class="cls-23" d="M85.69,48.14a16.52,16.52,0,0,1,2-.55,3.72,3.72,0,0,1,2.06.84,4.72,4.72,0,0,1-2.14,1C86.9,49.5,85.76,48.33,85.69,48.14Z"/><path class="cls-20" d="M87.68,50.75l-.08-1.28a20.86,20.86,0,0,0,2.14-1c0-.1-.19,1.18-.19,1.18Z"/><path class="cls-22" d="M85.69,48.14l.18,1.51.48.73,1.33.37-.08-1.28A9.69,9.69,0,0,1,85.69,48.14Z"/><g class="cls-21"><polygon class="cls-24" points="65.5 58.88 68.8 57.69 71.88 59.54 71.82 60.13 70.44 60.94 68.86 60.23 68.9 59.81 67.92 60.38 65.78 59.81 65.5 58.88"/></g><path class="cls-20" d="M70.29,52.39c.12.12.56,3.73.56,3.73s-1.31,3.18-1.5,3.31-1.43.56-1.43.56l.19-1.93Z"/><path class="cls-23" d="M65,57.06s2.62.93,3.12,1,1.65-1.7,1.74-1.94c.56-1.49.88-2.64.44-3.73-.13-.32-3.24.8-3.68,1.24A14.55,14.55,0,0,0,65,57.06Z"/><polygon class="cls-22" points="66.05 59.49 67.92 59.99 68.11 58.06 64.99 57.06 66.05 59.49"/><path class="cls-22" d="M68.69,58.24s.29,1.8.57,1.9,1.15.51,1.15.51.13-1.1,0-1.17S68.69,58.24,68.69,58.24Z"/><path class="cls-20" d="M71.56,59.91l-1.15.74,0-1.17A9.15,9.15,0,0,0,72,58.57Z"/><path class="cls-10" d="M69.26,56.35c-.26.1-.57,1.89-.57,1.89a10.1,10.1,0,0,0,1.72,1.3c.27,0,1.57-.73,1.56-1A9.08,9.08,0,0,0,69.26,56.35Z"/><g class="cls-21"><polygon class="cls-24" points="52.63 69.88 54.13 71.5 57.71 70.75 59.5 67.88 55.34 68.3 52.63 69.88"/></g><path class="cls-23" d="M54.52,67.44a3.48,3.48,0,0,0,3-.08,4.28,4.28,0,0,0,2-2.48c.08-.25-.84-1.26-1.94-1.09a9.69,9.69,0,0,0-3.87,2.14C53.6,66.35,53.68,67.36,54.52,67.44Z"/><path class="cls-22" d="M58.89,64a4.34,4.34,0,0,1-2,2.32,3.47,3.47,0,0,1-3,.08.75.75,0,0,1-.32-.1.93.93,0,0,0,.82,1,3.47,3.47,0,0,0,3-.08,4.29,4.29,0,0,0,2-2.47C59.49,64.63,59.27,64.3,58.89,64Z"/><path class="cls-20" d="M57.34,70.21s1.71-2.11,1.71-2.16.53-3.24.53-3.24a15.37,15.37,0,0,1-1.8,2,4,4,0,0,0-.73.55S57.38,70.15,57.34,70.21Z"/><path class="cls-10" d="M54.25,71s2.71-.29,3-.71-.25-2.86-.25-2.86l-2.61-.09S54.31,70.48,54.25,71Z"/><path class="cls-22" d="M53.76,65.93s-.12.77.2,1.09a.88.88,0,0,0,.48.29L54.25,71l-1.16-1.2A24,24,0,0,1,53.76,65.93Z"/></g></g></svg>