<svg xmlns="http://www.w3.org/2000/svg" viewBox="0 0 102.08 90.38"><defs><style>.cls-1{fill:#877d54;}.cls-2{fill:#aa9f6f;}.cls-3{fill:#cec49d;}.cls-4{fill:#726944;}.cls-5{fill:#a59d79;}.cls-6{fill:#878060;}.cls-7{fill:#c9c093;}.cls-8{fill:#ddd4b1;}.cls-9{fill:#9b9270;}.cls-10{fill:#8e8665;}.cls-11{fill:#998f64;}.cls-12{fill:#829b3e;}.cls-13{fill:#627f21;}.cls-14{fill:#93ce26;}.cls-15{fill:#83b21b;}.cls-16{fill:#82af1e;}.cls-17{fill:#2bd4d8;}.cls-18{fill:#25a5a5;}.cls-19{fill:#1b7f7c;}.cls-20{opacity:0.2;}.cls-21{fill:#140503;}.cls-22{fill:#998e61;}.cls-23{fill:#e2dbbc;}.cls-24{fill:#665e3e;}.cls-25{fill:#b7ad83;}.cls-26{fill:#726a48;}.cls-27{fill:#4f492f;}.cls-28{fill:#bab399;}.cls-29{fill:#898160;}.cls-30{fill:#7a7049;}.cls-31{fill:#5e573b;}.cls-32{fill:#968b5f;}</style></defs><title>Asset 4island</title><g id="Layer_2" data-name="Layer 2"><g id="Layer_4" data-name="Layer 4"><path class="cls-1" d="M25.84,38.07s-1,35.46,1.75,35.05,6.75-5.06,7-5.67,2.25-11.55,2-15.4,2-17.42,2-17.42S26.59,38.07,25.84,38.07Z"/><path class="cls-2" d="M13.59,34.22l12.25,3.85,1.75,35.05s-5.75-3-7.5-3.84-5-24.72-5.75-25.53S13.59,34.22,13.59,34.22Z"/><path class="cls-3" d="M20.92,68.27c-1.75-.81-5-24.71-5.75-25.52-.58-.63-.71-6-.74-8.38l-1-.31s0,8.71.75,9.52,4,24.72,5.75,25.53S27.42,73,27.42,73,22.2,68.87,20.92,68.27Z"/><path class="cls-1" d="M35.59,42.82s-1,35.46,1.75,35.05,6.75-5.06,7-5.67,2.25-11.55,2-15.4,2-17.42,2-17.42S36.34,42.82,35.59,42.82Z"/><path class="cls-2" d="M23.34,39l12.25,3.85,1.75,35.05s-5.75-3-7.5-3.84-5-24.72-5.75-25.53S23.34,39,23.34,39Z"/><path class="cls-3" d="M30.34,73.44c-1.75-.81-5-24.72-5.75-25.53s-.73-6.83-.75-8.86l-.5-.16s0,8.71.75,9.52,4,24.72,5.75,25.53,7.5,3.85,7.5,3.85S31.76,74.1,30.34,73.44Z"/><path class="cls-1" d="M72.59,37.82s-2.25,41.71.5,41.3,8-11.31,8.25-11.92,2.25-11.55,2-15.4,2-17.42,2-17.42S73.34,37.82,72.59,37.82Z"/><path class="cls-4" d="M85.34,34.5l-2.73.78c-.56,3.56-2,12.93-1.77,16,.25,3.85-1,14.42-1.13,15.07-.62,5.55-7,12.93-6.62,12.88,2.75-.41,8-11.32,8.25-11.92s2.25-11.55,2-15.4S85.34,34.5,85.34,34.5Z"/><path class="cls-2" d="M60.34,34l12.25,3.85.5,41.3s-15-5.69-16.75-6.5,5.5-28.31,4.75-29.12S60.34,34,60.34,34Z"/><path class="cls-3" d="M72.71,37.82l-1.5,39.8s-10.58-4-15-5.78c0,.43.11.71.26.78,1.75.81,16.75,6.5,16.75,6.5Z"/><path class="cls-5" d="M83.34,38.12S80.42,68,83.17,67.46s8.42-10.09,8.67-10.84,4.5-2,4.25-6.75,5.76-21,5.76-21S84.09,38.12,83.34,38.12Z"/><path class="cls-6" d="M101.73,28.71,98.47,30.4c-1.7,4.88-4.94,14.71-4.76,18.22.25,4.75-4.14,6-4.25,6.75-.87,6.5-6.86,12-6.41,12,2.75-.5,8.41-10.08,8.66-10.83s4.5-2,4.25-6.75S101.73,28.71,101.73,28.71Z"/><path class="cls-7" d="M71.09,33.37l12.25,4.75-.17,29.34a37.66,37.66,0,0,0-5.08-4.34c-1.75-1-5.5-17-6.25-18S71.09,33.37,71.09,33.37Z"/><polygon class="cls-8" points="82.09 37.64 83.17 67.46 83.34 38.12 82.09 37.64"/><path class="cls-9" d="M75.46,44c.24-1,1.65-14.36,1.63-17.13L71,33.37s0,10.75.75,11.75,4.5,17,6.25,18a37.94,37.94,0,0,1,5.09,4.34S72.21,57.25,75.46,44Z"/><path class="cls-5" d="M12.35,29.87s-2.51,32,.24,31.5,10.5-6.25,10.75-7,0-2.49-.25-7.24,2-21.5,2-21.5S13.1,29.87,12.35,29.87Z"/><path class="cls-10" d="M25.1,25.51s-3.38-.62-5.14,0c3.13,6.5-2.06,17.35-1.75,21,1,11.87-6.06,14.83-5.62,14.75,2.75-.5,10.5-6.25,10.75-7s0-2.5-.25-7.25S25.1,25.51,25.1,25.51Z"/><path class="cls-7" d="M.1,25.12l12.25,4.75.24,31.5s-5.75-3.75-7.5-4.75.5-16.5-4.25-19.75C-.19,36.16.1,25.12.1,25.12Z"/><polygon class="cls-8" points="12.35 29.75 11.35 29.36 12.59 61.25 12.35 29.75"/><path class="cls-8" d="M5.9,56.18c-1.75-1,.5-16.49-4.24-19.75-.88-.6-.81-8.59-.76-11L0,25.05S-.25,36.1.78,36.8C5.52,40.06,3.28,55.56,5,56.56s7.49,4.75,7.49,4.75S7.23,56.94,5.9,56.18Z"/><path class="cls-5" d="M28.2,38.94s-.56,26,1,25.69S33,60.92,33.1,60.47a81.64,81.64,0,0,0,1.12-11.28c-.14-2.82,1.12-12.77,1.12-12.77S28.62,38.94,28.2,38.94Z"/><path class="cls-10" d="M35.71,36.55l-2.3.85c-.35,2.88-.79,9.15-.94,11.29-1,14.18-3.16,16.11-2.92,16.06,1.54-.3,3.78-3.71,3.92-4.16a81.47,81.47,0,0,0,1.12-11.28C34.45,46.49,35.71,36.55,35.71,36.55Z"/><path class="cls-7" d="M21.34,36.12l6.86,2.82,1,25.69s-5.86-4.41-6.84-5,.25-11-2.75-14.25C19.09,44.84,21.34,36.12,21.34,36.12Z"/><polygon class="cls-8" points="27.57 39.07 29.3 64.63 28.32 38.94 27.57 39.07"/><path class="cls-8" d="M23,59.06c-1-.59.25-11-2.75-14.25-.4-.44,1-6.4,1.56-8.51l-.43-.18s-2.25,8.72-1.75,9.25c3,3.25,1.77,13.66,2.75,14.25s6.84,5,6.84,5S23.74,59.53,23,59.06Z"/><path class="cls-1" d="M47.09,46.32s.25,44.46,3,44.05,16.5-8.5,18.5-11.75c.34-.56,2.25-17.15,2-21S59.84,42.88,59.84,42.88,47.84,46.32,47.09,46.32Z"/><path class="cls-4" d="M70.59,57.62c-.09-1.39-1.54-3.72-3.34-6.11a2.32,2.32,0,0,1,.09.49c.25,3.85-1.89,20.35-2,21C64,80.75,49.43,90.47,50.09,90.37c2.75-.4,16.5-8.5,18.5-11.75C68.93,78.06,70.84,61.47,70.59,57.62Z"/><path class="cls-2" d="M34.84,42.47l12.25,3.85,3,44.05s-7.48-6.33-9.25-7.1c-5-2.15.75-8.65-5.25-31.27C35.3,50.93,34.84,42.47,34.84,42.47Z"/><path class="cls-3" d="M45,46.07l4.88,44.3-3-44.05L34.59,42.47s0,.13,0,.35Z"/><path class="cls-3" d="M39.71,79.87C37,73,36.68,45.41,36.54,43l-1.7-.54s.46,8.46.75,9.53c6,22.62.25,29.12,5.25,31.27,1.77.77,9.25,7.1,9.25,7.1S47,86.75,46.46,86.25C45.6,85.38,40.14,81,39.71,79.87Z"/><path class="cls-5" d="M40.15,30.25s-2.5,44.5.25,44,9-7,9.25-7.75-1.25-12.25-.75-21c.27-4.75,2.5-18.75,2.5-18.75S40.9,30.25,40.15,30.25Z"/><path class="cls-10" d="M49.15,45.42c.27-4.75,2.5-18.75,2.5-18.75L50,27.23c-.55,3.51-3.87,14.48-6,20.06C40.94,55.5,46.34,65,46.09,65.71s-5.7,8.5-5.44,8.46c2.75-.5,9-7,9.25-7.75S48.65,54.17,49.15,45.42Z"/><path class="cls-7" d="M33.09,30.37,37.15,30,40,51.87l.44,22.38s-6.76-3.67-7.5-4.75-.31-13.94.62-18.63C33.77,49.65,33.09,30.37,33.09,30.37Z"/><polygon class="cls-8" points="38.46 51.62 40.27 74 39.84 51.62 37.02 29.75 35.66 29.87 38.46 51.62"/><path class="cls-8" d="M33.73,69.42c-.69-1-.31-13.94.63-18.63.24-1.22-.44-20.5-.44-20.5L37.07,30h0L33,30.37s.69,19.28.44,20.5c-.94,4.69-1.31,17.63-.62,18.63s7.5,4.75,7.5,4.75S34.31,70.25,33.73,69.42Z"/><path class="cls-5" d="M59.09,42.47s-1,35.46,1.75,35.06,7.08-5,7-5.68c-1-8,5.25-12.63,5-16.48s1.88-19,1.88-19S59.84,42.47,59.09,42.47Z"/><path class="cls-11" d="M74.72,36.27l-2.22.9c-.53,4-1.86,14.32-1.66,17.41.25,3.85-5.64,8.47-5,16.48.16,2.11-5.3,6.38-5,6.34,2.75-.4,7.08-5,7-5.67-1-8,5.25-12.63,5-16.48S74.72,36.27,74.72,36.27Z"/><path class="cls-7" d="M46.84,38.62l15,2.25,3.5,15.5a73.17,73.17,0,0,0-4.5,21.16c-.05,1-11.19-6.75-11.5-8.66-2-12.05-4.75-12.75-1.75-20.72C48,47.11,46.84,38.62,46.84,38.62Z"/><path class="cls-8" d="M61.84,40.87l-15-2.25s0,.21.06.53l13.19,2,3.5,15.5s-2.76,21.15-2.75,20.91a73.17,73.17,0,0,1,4.5-21.16Z"/><path class="cls-8" d="M50.09,67c-2-12-4.75-12.75-1.75-20.73.26-.71-.19-4.92-.5-7.5l-1-.15s1.14,8.49.75,9.53c-3,8-.25,8.67,1.75,20.72.31,1.91,11.45,9.64,11.5,8.66C60.87,76.87,50.36,68.63,50.09,67Z"/><path class="cls-7" d="M32.58,35.32s.54,19.45-1,19.22-3.89-2.75-3.84-3.11c.55-4.37-2.88-6.92-2.75-9S24,32,24,32,32.16,35.32,32.58,35.32Z"/><path class="cls-8" d="M24,31.92l1.22.49A87.14,87.14,0,0,1,26.13,42c-.14,2.11,3.09,4.64,2.74,9-.09,1.15,2.91,3.5,2.75,3.47-1.51-.22-3.89-2.75-3.84-3.11.55-4.37-2.88-6.92-2.75-9S24,31.92,24,31.92Z"/><path class="cls-5" d="M39.29,33.21l-8.22,1.23-1.92,8.5a40.37,40.37,0,0,1,2.47,11.6c0,.54,6.13-3.7,6.3-4.74,1.1-6.61,2.61-7,1-11.37C38.67,37.86,39.29,33.21,39.29,33.21Z"/><path class="cls-8" d="M31.07,34.44l8.22-1.23s0,.11,0,.29L32,34.58l-1.92,8.5s1.51,11.59,1.51,11.46a40.37,40.37,0,0,0-2.47-11.6Z"/><path class="cls-10" d="M37.51,48.77c1.1-6.61,2.61-7,1-11.37a22.58,22.58,0,0,1,.27-4.11l.55-.08s-.62,4.65-.41,5.22c1.65,4.38.14,4.76-1,11.37-.17,1-6.28,5.28-6.3,4.74C31.6,54.19,37.36,49.67,37.51,48.77Z"/><path class="cls-5" d="M73.86,33.11s-.56,26,1,25.68,3.78-3.71,3.92-4.15a81.82,81.82,0,0,0,1.12-11.29C79.74,40.53,81,30.59,81,30.59S74.28,33.11,73.86,33.11Z"/><path class="cls-10" d="M81.38,30.71l-2.31.86c-.34,2.88-.79,9.14-.94,11.28C77.13,57,75,59,75.22,58.92c1.54-.3,3.78-3.71,3.92-4.16a81.47,81.47,0,0,0,1.12-11.28C80.12,40.66,81.38,30.71,81.38,30.71Z"/><path class="cls-7" d="M67,30.29l6.86,2.82,1,25.68S69,54.38,68,53.79s.25-11-2.75-14.25C64.76,39,67,30.29,67,30.29Z"/><polygon class="cls-8" points="73.24 33.24 74.97 58.79 73.99 33.11 73.24 33.24"/><path class="cls-8" d="M68.63,53.23c-1-.6.25-11-2.75-14.25-.41-.44,1-6.4,1.56-8.51L67,30.29S64.76,39,65.25,39.54C68.25,42.79,67,53.2,68,53.79s6.84,5,6.84,5S69.4,53.7,68.63,53.23Z"/><path class="cls-12" d="M21.51,35.86l0,0,.05,0,0,0,0,.05a.08.08,0,0,1,0,0l0,0s0,0,0,0a.14.14,0,0,0,0,.06v0s0,0,0,.07v0a.41.41,0,0,1,0,.11V34.67s0-.07,0-.11v0a.13.13,0,0,0,0-.06v0a.14.14,0,0,0,0-.06l0,0a.08.08,0,0,0,0,0l0,0,0-.05,0,0-.05,0,0,0-.05,0-.05,0h0l-.09,0h0l0,0h0l0,0h0l0,0H21l0,0H12.75c-.2,0-.39,0-.57,0h0l-.26,0h0l-.49,0h0l-.22,0h0a3.39,3.39,0,0,1-.71-.2l-.61-.29-.09,0-.51-.23,0,0-.08,0-.42-.19-.16-.08-.37-.16-.47-.22-.14-.06-.33-.15-.17-.08-.56-.26-.14-.06-.52-.24,0,0-.63-.31-.1,0-.47-.24-.1-.06L4.22,30,4.1,30l-.34-.19-.06,0-.43-.25-.37-.24h0L2.54,29l-.1-.08-.22-.18-.12-.09-.19-.16-.11-.12-.16-.15-.11-.12-.15-.16-.1-.13-.12-.16a1.13,1.13,0,0,1-.1-.13A1.63,1.63,0,0,0,1,27.34a1,1,0,0,0-.08-.14A1.62,1.62,0,0,0,.77,27L.7,26.88c0-.06,0-.13-.08-.19l-.06-.15a1.59,1.59,0,0,0-.07-.2,1.42,1.42,0,0,0,0-.16c0-.07,0-.14,0-.21s0-.1,0-.16,0-.16,0-.23a1,1,0,0,1,0-.16,2.66,2.66,0,0,1,0-.28.61.61,0,0,1,0-.14c0-.14,0-.28,0-.43v1.79c0,.15,0,.29,0,.43s0,.1,0,.14l0,.28,0,.16a1.57,1.57,0,0,0,0,.23.75.75,0,0,0,0,.16,1.74,1.74,0,0,0,0,.22.88.88,0,0,0,0,.15,1.18,1.18,0,0,0,.07.2l.06.15a1.08,1.08,0,0,0,.08.19l.07.14a1.62,1.62,0,0,0,.1.18,1,1,0,0,0,.08.14,1.63,1.63,0,0,0,.11.17l.09.13a1,1,0,0,0,.13.16.64.64,0,0,0,.1.13l.14.16.11.12.16.15.12.12.18.15.12.11.22.16.11.09.35.24,0,0,.31.2h0l.43.26h0l0,0,.36.2,0,0,.08,0,.31.17.08,0,0,0,.47.24h0l0,0,.64.31h0l.05,0,.5.23.15.07.55.25h0l.24.11.22.1.28.13.33.15.36.16.24.11.28.13.26.11.35.17.22.1.59.27h8l.63.05h0l.29,0h0l.29,0h0l.28,0,.21,0h0l.19,0h0l.17,0h0l.16,0h0l.14,0h0l.13.05h0l.12.06h0l.11.06.1.06.05,0Z"/><path class="cls-13" d="M102.05,24.74v.46c0,.11,0,.22,0,.33v0c0,.11,0,.23,0,.34v0l0,.33a.08.08,0,0,0,0,0c0,.12,0,.23,0,.34h0c0,.12,0,.23,0,.34v0a3,3,0,0,1-.07.32h0c0,.11-.05.22-.08.32v0a5.11,5.11,0,0,1-.22.62h0a5.5,5.5,0,0,1-.28.6h0l-.17.28h0c-.06.09-.12.19-.19.28h0a2.83,2.83,0,0,1-.2.28h0l-.22.26v0l-.25.26h0l-.27.27h0a3.47,3.47,0,0,1-.29.25l0,0-.29.24,0,0-.3.23-.05,0-.32.23-.07.05-.32.22,0,0-.38.23-.45.27,0,0,0,0-.39.22-.16.08-.34.18L96.2,33l-.48.25-.06,0-.45.22-.15.07-.52.25-.06,0-.52.23-.15.07-.6.27-.82.34,0,0-.75.29-.13,0-.7.24-.13,0-.63.2-.07,0-.72.2h0c-.49.12-1,.23-1.42.32h0l-.68.12h0l-.66.09h0l-.63.07h0l-.62,0h0c-.41,0-.8,0-1.19,0h-.57l-.55,0h0l-.53,0h0l-.5,0h0l-.47,0h-.05l-.46,0h0l-.54-.06-.5-.06-.37,0h-.06l-.27,0h-.2l-.19,0h-3.2l-.17,0-.19,0h0l-.23.06-.08,0-.07,0-.08,0-.22.08h0l0,0-.22.07,0,0-.39.15h0a3.68,3.68,0,0,0-.35.15h0l-.07,0-.27.12-.12.06-.29.14,0,0h0l-.41.22,0,0-.06,0-.21.12-.07,0h0l0,0-.22.14-.06,0h0l-.18.12-.08,0h0l-.19.13-.08,0h0l-.26.18h0l-.26.19,0,0-.06.05-.19.14,0,0h0l-.06.05-.22.18-.05,0h0l-.36.3a0,0,0,0,0,0,0l0,0-.6.51h0l0,0-.31.27-.55.48,0,0-.46.4,0,0-.33.28-.09.07a1.09,1.09,0,0,1-.17.13l-.08.07-.19.15-.08.06-.11.09-.12.09-.09.06-.15.1-.08.06-.15.11-.11.07-.13.08-.14.09L65,43l-.16.09-.1.07-.36.19-.07,0-.63.3h0a5,5,0,0,1-.54.21h0l-.34.11-.27.09h0l-.3.08h0l-.31.07h0a3,3,0,0,1-.32.06h0l-.33.05h0l-.34,0h0q-.34,0-.72.06H58.9l-.84-.07h0l-.43,0h0l-.45-.06h0l-.47-.08-.09,0h-.11l-.11,0-.11,0-.11,0h-.32l-.11,0h-.22l-.11,0h-.14s0,0,0,0H50l-.28,0h-.11l-.19,0-.3,0h-.32l-.47.05H48.2l-.36,0h-.09l-.85.09h0l-.29,0-.58.07-.71.07-.2,0H45l-.47,0h-.06l-.54.05h-.06l-.56,0h0l-.57,0h0l-.56,0H41l-.52,0h0L40,44.62h0l-.49-.08h0c-.17,0-.33-.06-.48-.09h0l-.46-.13h0l-.45-.15h0L37.67,44h0a3.17,3.17,0,0,1-.41-.21L37,43.6l-.14-.09-.19-.15-.13-.1a1.12,1.12,0,0,1-.2-.18L36.21,43c-.1-.09-.19-.19-.29-.3a1,1,0,0,0-.15-.14l-.05,0-.11-.09-.06,0-.11-.08-.08-.05,0,0-.11-.07h0l-.08-.05L35,42l-.08,0-.07,0-.08,0-.07,0,0,0h0l-.07,0-.07,0-.06,0h0l-.07,0-.07,0-.07,0-.07,0-.07,0H34l-.07,0h0l-.08,0-.07,0-.08,0-.08,0-.08,0-.09,0-.08,0h0l-.08,0-.1,0-.1,0H33l-.1,0-.12,0-.11,0-.13,0-.13,0-.11,0h0l-.15,0-.17,0H31.9l-.12,0-.22,0h-.08l-.17,0-.13,0-.1,0H31l-.16,0-.23,0h-.13l-1-.16L29,40.66l-.17,0-.67-.1h-.06l-.39-.07h0l-.82-.16h0l-.39-.09h0l-.38-.09h0L25.71,40h0l-.38-.1h0c-.25-.07-.5-.15-.74-.24h0l-.34-.13h0l-.33-.14h0l-.31-.16h0L23.21,39,23,38.89l-.13-.08-.15-.11-.11-.08-.14-.12-.11-.09-.13-.12-.1-.1L22,38.06l-.09-.1-.11-.15-.08-.1-.11-.18-.06-.09c-.05-.09-.1-.19-.14-.28a1.22,1.22,0,0,1-.11-.52v1.79a1.39,1.39,0,0,0,.11.52l.15.28a.41.41,0,0,1,0,.09l.12.18.07.1.12.15.08.1.13.13.09.1.13.12.11.09.14.12.12.08.15.11.12.08.06,0,.18.11h0l.14.08.13.07,0,0h0l.07,0h0l.12.06.1,0h0l.07,0,.1.05.1,0,.05,0h.05l.1,0,.1,0,.09,0h0l.06,0,.1,0,.1,0,.1,0h0l.1,0,.1,0,.1,0,.08,0h0l.1,0,.11,0,.11,0h.05l.07,0,.12,0,.11,0,.08,0h.05l.13,0,.13,0,.09,0h.05l.14,0,.16,0,.06,0H27l.17,0,.17,0h0l.19,0,.21,0h0l.23,0,.13,0,.09,0h.06l.26,0,.52.09h0l.39.06,1,.16.14,0,.23,0,.22,0,.09,0,.31.05h.07l.36.06h0l.37.07h0l.36.08h0l.36.08h0c.24.06.46.11.68.18h0l.32.1h0l.31.11h0l.29.12h0l.27.12h0l.25.14.16.1.08,0,.11.08.07.05.11.09s0,0,.05.05l.14.14q.15.17.3.3a.81.81,0,0,0,.1.09l.21.19.12.09.2.15.14.09.11.08.15.09h0l.08,0,.09,0,.09,0,.08,0,.06,0h0l.09,0,.09,0,.08,0,.05,0,.06,0,0,0h0l.06,0,.05,0,.06,0h0l.06,0,.06,0,.05,0h.12l0,0h.09l0,0H39l0,0h5l.29,0h.3l.27,0,.23,0h.12l.76-.08h.09l.58-.07.21,0,.84-.09,1.18-.12H49l.61-.05h0l.65,0h0l.66,0h0l.68,0h1.42l.7,0h0l.7,0h0l.71.07h0q.36,0,.72.09h0l.73.11.08,0h.1l.1,0h.09l.09,0h.11l.09,0h4.19l.07,0h.13l.06,0h.06L62,46l.12,0h0l.09,0,.11,0,.1,0h0l.11,0,.12,0h0l.34-.12h0l.55-.22h0c.22-.09.43-.2.64-.3h0l0,0c.13-.06.25-.13.37-.2h0l.07,0,.18-.11h0l.08,0,.16-.11h0l.09-.06.14-.09h0l.09-.06.14-.09h0l.09-.06a.94.94,0,0,1,.12-.09h0l.08-.06.15-.11h0l.06,0,.19-.15,0,0,.06,0,.17-.14,0,0,0,0,.33-.28,0,0,0,0,.46-.39,0,0,0,0,.52-.46.35-.3,0,0c.19-.18.39-.35.59-.52l.06-.05.35-.29.06,0,.24-.19.08-.06.18-.14.1-.08.23-.17,0,0,.26-.18.1-.07L71,40l.11-.07.16-.11.09,0,.21-.14a.41.41,0,0,0,.11-.07l.21-.12.11-.06.4-.22.07,0,.29-.14.11-.06.27-.12.11-.05.35-.15h0l.39-.15.24-.09.07,0,.3-.1.08,0L75,38.1l0,0,.34-.09.36-.07h0l.36-.06h0l.38,0h0l.37,0h0l.78,0h0l.4,0h0l.41,0h0l.4,0h0l.38,0,.39.05.31,0,.26,0,.44,0h0l.18,0,.23,0h.23l.17,0h4.6l.13,0h.13l.12,0,.13,0h.13l.13,0,.13,0,.16,0h0l.16,0,.16,0,.17,0h0l.12,0,.17,0,.18,0,.24,0,.23,0,.24-.06.24-.06h0l.27-.08.4-.11.05,0,.07,0,.28-.08.36-.12.13,0,0,0,.64-.22.13,0,.15,0,.17-.07.41-.16h.06l.37-.15.42-.19h0l.6-.27.14-.06.55-.25,0,0,.55-.25.12-.06.47-.24,0,0a5.39,5.39,0,0,0,.48-.25l.12-.06.14-.07.2-.11.15-.08.4-.23,0,0h0l0,0,.43-.26,0,0,.34-.21h0l.28-.2.07,0,.06,0,.09-.06.21-.15,0,0,0,0,.12-.1.14-.11,0,0,0,0,.07-.06.14-.11.09-.08h0v0l.1-.09.1-.09.07-.06h0l0,0,.1-.09.08-.08a.6.6,0,0,1,.08-.08l.07-.07.07-.08.07-.08,0,0v0l0,0,.06-.07.06-.07a.18.18,0,0,0,0-.07l0,0h0l0,0,0-.07.06-.07,0-.07v0h0l0,0a.18.18,0,0,0,.05-.07l0-.06,0-.07,0,0h0v0l0-.07,0-.07,0-.07,0-.05h0l0-.07a.25.25,0,0,0,0-.07l0-.07,0-.07h0l0-.07,0-.07,0-.08a.25.25,0,0,1,0-.07s0-.05,0-.08l0-.08,0-.08a.2.2,0,0,0,0-.08l0-.09h0s0-.05,0-.08l0-.09s0,0,0-.06h0v0s0-.06,0-.09l0-.1a.44.44,0,0,0,0-.1h0s0-.06,0-.09l0-.1a.43.43,0,0,0,0-.11v0s0-.05,0-.08,0-.09,0-.13,0-.08,0-.12,0-.09,0-.13a.77.77,0,0,1,0-.15.17.17,0,0,1,0-.07V28c0-.05,0-.1,0-.16a.57.57,0,0,0,0-.13h0V27.5a.66.66,0,0,1,0-.14v-.07c0-.07,0-.14,0-.22V24.74Z"/><path class="cls-14" d="M88.94,13.34c1.72,1,3.29,2,4.83,3.07,3.88,2.62,8.26,5,8.28,8.15,0,4.58-1.37,6.61-8.84,9.89-9.2,4-14,.81-17.78,1.75-8.15,2-8.59,9.83-18.74,8-7.71-1.37-15.13,2-19.44-.45a5.4,5.4,0,0,1-1.33-1.08,2.94,2.94,0,0,0-.72-.56c-1.31-.76-3.49-1.06-5.75-1.4A19.06,19.06,0,0,1,23.21,39a4.23,4.23,0,0,1-1.82-1.88c-.55-1.2,1.19-2.5-.09-3.24a3.75,3.75,0,0,0-1.25-.39C17,33,12,33.66,10.49,33,7.64,31.64,5.37,30.7,3.7,29.73,1.41,28.41.24,27,.23,24.57c0-4.27,3.24-10.13,16.08-10.88,6.25-.36,8.68-5.91,16.77-7.16,6.1-.94,13.69-3,20.74-3,8.75,0,14.19,3.28,21.39,4.69A42.81,42.81,0,0,1,88.94,13.34Z"/><path class="cls-15" d="M93.79,16.4c-1.54-1-3.11-2.07-4.83-3.07A42.81,42.81,0,0,0,75.23,8.24C68,6.83,62.59,3.55,53.85,3.55c-7.06,0-14.65,2-20.75,3C25,7.77,22.58,13.32,16.33,13.68c-7.76.45-12,2.78-14.16,5.49a25.44,25.44,0,0,1,10.41-2.49c6.25-.36,8.68-5.91,16.77-7.16,6.1-.94,13.69-3,20.75-3,8.74,0,14.18,3.28,21.38,4.69a42.81,42.81,0,0,1,13.73,5.09c1.72,1,3.29,2,4.83,3.07,3.89,2.62,8.27,5,8.28,8.15a7.84,7.84,0,0,1-1.3,5c4.17-2.35,5.07-4.38,5-8C102.06,21.38,97.68,19,93.79,16.4Z"/><path class="cls-16" d="M82.13,15c1.31.78,2.5,1.6,3.67,2.41,2.94,2.05,6.26,3.9,6.27,6.39,0,3.58-1,5.18-6.7,7.75-7,3.17-10.6.64-13.48,1.37-6.17,1.59-6.51,7.7-14.2,6.29-5.85-1.08-11.47,1.59-14.74-.36a4,4,0,0,1-1-.84,2.22,2.22,0,0,0-.55-.44A13.73,13.73,0,0,0,37,36.43,13.79,13.79,0,0,1,32.3,35.1a3.19,3.19,0,0,1-1.37-1.47c-.42-.93.9-2-.07-2.54a3,3,0,0,0-.95-.3c-2.32-.41-6.12.1-7.25-.44-2.16-1-3.87-1.78-5.14-2.54-1.74-1-2.62-2.11-2.63-4,0-3.34,2.45-7.94,12.19-8.52,4.73-.28,6.58-4.64,12.71-5.62C44.41,8.88,50.17,7.3,55.51,7.3c6.63,0,10.76,2.56,16.21,3.67A31.83,31.83,0,0,1,82.13,15Z"/><path class="cls-17" d="M81,15.61c1.26.72,2.4,1.48,3.52,2.24,2.83,1.9,6,3.63,6,5.94,0,3.33-1,4.81-6.44,7.2-6.71,2.95-10.2.59-13,1.28-5.93,1.48-6.25,7.16-13.65,5.84-5.62-1-11,1.49-14.17-.32a4.21,4.21,0,0,1-1-.79,2,2,0,0,0-.52-.41,13.57,13.57,0,0,0-4.19-1,13.66,13.66,0,0,1-4.55-1.23A3.14,3.14,0,0,1,31.74,33c-.39-.87.87-1.83-.06-2.37a3.17,3.17,0,0,0-.91-.28c-2.23-.38-5.88.1-7-.41-2.08-1-3.73-1.65-4.95-2.35-1.66-1-2.52-2-2.53-3.77,0-3.11,2.36-7.38,11.73-7.92,4.55-.26,6.32-4.31,12.21-5.23,4.45-.68,10-2.15,15.12-2.15,6.37,0,10.34,2.38,15.58,3.41A31.25,31.25,0,0,1,81,15.61Z"/><path class="cls-18" d="M28,18.22C32.54,18,34.31,13.91,40.21,13c4.45-.69,10-2.16,15.12-2.16,6.37,0,10.34,2.38,15.58,3.41a31.24,31.24,0,0,1,10,3.72c1.26.72,2.4,1.48,3.52,2.23,2.53,1.71,5.35,3.27,5.93,5.24a10.41,10.41,0,0,0,.11-1.64c0-2.31-3.21-4-6-5.94-1.12-.75-2.26-1.51-3.52-2.24a31.49,31.49,0,0,0-10-3.71c-5.24-1-9.21-3.41-15.58-3.41-5.14,0-10.67,1.47-15.12,2.16-5.9.91-7.67,5-12.22,5.22-9.36.54-11.74,4.82-11.72,7.92a4.48,4.48,0,0,0,.13,1.07C17,22,19.86,18.69,28,18.22Z"/><path class="cls-18" d="M31.89,32.93a2.65,2.65,0,0,0,.24.4A.56.56,0,0,0,31.89,32.93Z"/><path class="cls-18" d="M29.36,17.16s-3.25,2.75-2.63,4.38,6.13.5,3.5,2.5c-1,.76-2.12,2.87-.37,3.37a7.42,7.42,0,0,1,3.62,1.88c.63.75-1,2.25.38,3.25A15.93,15.93,0,0,0,40,34.91c1.63.13,1.5-1.25,3-1.62s2.38,1.18,4.57,1.27,5,0,5.2-1.87-2-2.42-.4-3c4.22-1.64,3.76,1.49,5.51,1.24,2.47-.35,1.12-1.37,2.87-1,1.43.31,3.14.59,3.88.13s.48-.58,1.54-1.81.54-.63,1.71-1.07,3.56-.8,4-1.75c.81-1.74-1.38-2-.5-3.37s2.12,0,3-1.75-1.44-2.73-3-3.63c-5-2.87-18.25-5.62-24.5-6.12S29.36,17.16,29.36,17.16Z"/><path class="cls-19" d="M30.75,16.88s-3,2.3-2.4,3.65,3.63,2.32,3.26,2.76c-.73.84-.32,1.48.06,2.15.53.93.44,2.6,1.75,2.28,2.07-.49-.22,2.88,1.19,3.82s3.64,2.52,5.12,2.62,2.76-2.19,4.13-2.5,1.62,2.05,3.62,2.13,3.79-2.39,4-3.92-.3-.7,1.13-1.21c3.86-1.36,2.62-.1,4.22-.31,2.25-.3,1-1.15,2.63-.84,1.3.26,2.87.5,3.54.11s.44-.48,1.41-1.51.49-.52,1.57-.89,3.26-.67,3.66-1.46c.74-1.45-.91-2,.34-2.6,1-.5,1.58.58,2.38-.87s-1.75-3.07-3.18-3.82c-4.58-2.4-16.7-4.69-22.42-5.11S30.75,16.88,30.75,16.88Z"/><g class="cls-20"><polygon class="cls-21" points="5.03 19.66 4.17 20.85 7.39 23.32 10.92 20.88 10.19 19.91 11.86 21.1 16.61 18.16 14.69 15.99 5.03 19.66"/></g><path class="cls-7" d="M4.59,1.87S8.94,0,9.32,0s7.34,2.24,7.34,2.24-3.12,2.24-3.61,2.24S4.46,2.24,4.59,1.87Z"/><polygon class="cls-22" points="13.05 4.48 11.83 20.66 6.99 17.55 4.59 1.87 13.05 4.48"/><polygon class="cls-23" points="5.48 3.15 12.92 4.35 4.46 1.74 6.99 17.55 5.48 3.15"/><path class="cls-1" d="M16.66,2.24v.25l-.83,15.87s-3.86,2.55-4,2.3S13.05,4.48,13.05,4.48Z"/><path class="cls-24" d="M13.81,5.25l2.94-2.76V2.24L13.14,4.48S11.8,20.41,11.93,20.66C12,20.73,13.81,5.25,13.81,5.25Z"/><path class="cls-25" d="M6.59,6S8.34,7.23,8.92,7s3.42-4,3.42-4S10.76,1.73,10,2,6.59,6,6.59,6Z"/><polygon class="cls-26" points="9.42 19.06 8.92 6.98 12.34 2.98 10.84 18.39 9.42 19.06"/><polygon class="cls-27" points="9.44 7.44 12.34 2.99 8.92 6.99 9.42 19.07 9.44 7.44"/><polygon class="cls-2" points="6.59 5.98 7.67 16.64 9.42 19.06 8.92 6.98 6.59 5.98"/><polygon class="cls-28" points="8.71 7.1 9.42 19.04 8.92 6.95 6.59 5.95 8.71 7.1"/><path class="cls-7" d="M2.8,11.35s3.73,4.12,4.41,4.31,4.12-.78,4.12-1.08a33.41,33.41,0,0,0-2.65-3.33S2.41,10,2.8,11.35Z"/><path class="cls-1" d="M7.31,22.52l-.1-6.86s4.12-1.57,4.12-1.08.2,4.22.2,4.22l-1.38,2.06S7.7,22.72,7.31,22.52Z"/><path class="cls-26" d="M8,16.35s3.36-1.6,3.36-1.7c0-.49-4.12,1.08-4.12,1.08l.1,6.86C7.49,22.65,8,16.35,8,16.35Z"/><path class="cls-2" d="M2.8,11.35l.39,4.31s.49,3,.89,3.14S5,20.86,5,20.86l2.35,1.66-.1-6.86Z"/><path class="cls-23" d="M3.44,12.77c0-.28,3.77,2.94,3.77,2.94L2.8,11.39l.39,4.32s.6,3.39.87,3C4.06,18.69,3.19,16.9,3.44,12.77Z"/><g class="cls-20"><path class="cls-21" d="M89.2,30.1s3.5,2.72,3.6,2.69,2.56-1.91,2.65-2.07a11.9,11.9,0,0,0-1.34-2l.94.13a9,9,0,0,0,1,1.34c.12,0,3.4-3,3.4-3.09s-1.31-1.88-1.31-1.88l-7,1.22Z"/></g><path class="cls-25" d="M87.37,14s3,1.18,4,.94,5.84-3.77,5.84-3.77-2.7-1.18-4-.94S87.37,14,87.37,14Z"/><polygon class="cls-26" points="92.21 26.3 91.36 14.9 97.19 11.13 94.63 25.67 92.21 26.3"/><polygon class="cls-24" points="92.02 15.33 97.25 11.13 91.42 14.9 92.27 26.3 92.02 15.33"/><polygon class="cls-1" points="87.37 13.96 89.22 24.02 92.21 26.3 91.36 14.9 87.37 13.96"/><polygon class="cls-23" points="87.86 14.53 91.35 14.9 87.37 13.96 89.22 24.02 87.86 14.53"/><polygon class="cls-29" points="91.47 11.01 94.84 12.7 94.63 17.18 95.05 12.5 91.47 11.01"/><polygon class="cls-29" points="92.47 11.49 93.28 11.17 92.82 11.64 92.47 11.49"/><path class="cls-7" d="M93.29,16.6s1.74,1.24,2.32,1,3.4-4,3.4-4-1.58-1.24-2.32-1S93.29,16.6,93.29,16.6Z"/><polygon class="cls-1" points="96.11 29.6 95.61 17.59 99 13.61 98.92 27.2 96.11 29.6"/><polygon class="cls-26" points="96.95 17.85 99.07 13.55 95.67 17.53 96.17 29.54 96.95 17.85"/><polygon class="cls-5" points="93.29 16.6 94.37 27.2 96.11 29.6 95.61 17.59 93.29 16.6"/><polygon class="cls-23" points="93.59 17.19 95.61 17.63 93.29 16.64 94.37 27.24 93.59 17.19"/><path class="cls-7" d="M95.82,19.68l-2.57,1.5-5.36-2.82s1.65-1.48,2.29-1.4S95.63,19.22,95.82,19.68Z"/><path class="cls-5" d="M92.85,32.34l.4-11.16-5.36-2.82S89.28,29,89.66,30.12A28.2,28.2,0,0,0,92.85,32.34Z"/><path class="cls-23" d="M88.58,19.37l4.67,1.81-5.36-2.82S89.28,29,89.66,30.12C89.68,30.19,88.58,19.37,88.58,19.37Z"/><polygon class="cls-1" points="95.82 19.68 94.95 30.52 92.85 32.34 93.25 21.18 95.82 19.68"/><polygon class="cls-24" points="93.81 22.12 95.91 19.78 93.34 21.27 92.95 32.44 93.81 22.12"/><g class="cls-20"><polygon class="cls-21" points="41.36 40.1 44.67 37.79 49.8 39.47 49.73 40.54 46.67 42.85 44.73 41.72 43.48 42.72 40.67 40.6 41.36 40.1"/></g><path class="cls-7" d="M45.28,23.88l-.94,1.28L42.94,25s.93-1.89,1.16-1.82S45.21,23.49,45.28,23.88Z"/><path class="cls-2" d="M44.08,36.72l.26-11.56L42.94,25s0,9.94.14,10.88C43.11,36.06,44.08,36.72,44.08,36.72Z"/><path class="cls-23" d="M43.15,25.27l1.16-.08L42.91,25s0,9.94.14,10.88C43.06,35.93,43.15,25.27,43.15,25.27Z"/><polygon class="cls-30" points="45.28 23.88 45.05 36.04 44.08 36.72 44.34 25.16 45.28 23.88"/><polygon class="cls-31" points="44.69 25.47 45.32 23.88 44.38 25.16 44.13 36.72 44.69 25.47"/><polygon class="cls-5" points="45.43 31.86 48.09 34.35 48.32 40.75 46.39 38.43 45.43 31.86"/><path class="cls-7" d="M50.44,32.48s-2.26.91-3,.73A34.28,34.28,0,0,1,43,30.29a7.63,7.63,0,0,1,3-.73C47,29.75,50.44,32.48,50.44,32.48Z"/><polygon class="cls-2" points="46.78 42.02 47.43 33.21 43.02 30.29 43.13 40.26 46.78 42.02"/><polygon class="cls-26" points="45.69 33.4 42.94 30.25 47.35 33.16 46.7 41.97 45.69 33.4"/><polygon class="cls-32" points="50.44 32.48 49.04 40.26 46.78 42.02 47.43 33.21 50.44 32.48"/><polygon class="cls-23" points="50.05 32.92 47.43 33.24 50.44 32.51 49.04 40.29 50.05 32.92"/><path class="cls-7" d="M44.89,31.05l-1.2.69L41.2,30.43s.77-.69,1.07-.65A11.18,11.18,0,0,1,44.89,31.05Z"/><path class="cls-5" d="M43.51,41.77l.18-10L41.2,30.43s.65,9.79.83,10.3A13.07,13.07,0,0,0,43.51,41.77Z"/><path class="cls-23" d="M41.52,30.9l2.17.84L41.2,30.43s.65,9.79.83,10.3C42,40.77,41.52,30.9,41.52,30.9Z"/><polygon class="cls-1" points="44.88 31.05 44.48 40.92 43.51 41.77 43.69 31.74 44.88 31.05"/><polygon class="cls-24" points="43.96 32.18 44.93 31.09 43.74 31.78 43.55 41.81 43.96 32.18"/></g></g></svg>