<svg id="_8" data-name="Heart 2" xmlns="http://www.w3.org/2000/svg" viewBox="0 0 285.1 253.28">
  <defs>
  <style>.heart-path {fill:none;stroke:#ec008c;stroke-miterlimit:10;}
  </style>
  </defs>
  <title>heart2</title>
  <path class="heart-path puzzle-1" d="M82,119.09a141.11,141.11,0,0,1-4.06,20.83c-4.65,15.26-17.58,15.28-19.2,6.73s-2.28-12.15-12.1-10.39c-8.46,1.52-13.76,8.09-12.11,16A198.65,198.65,0,0,1,11.31,113a85.93,85.93,0,0,1-7-27.64c-1-12.26.18-22.49,2.66-31.07a68.24,68.24,0,0,1,6,11c1.63,3.61,3,7.14,4.17,10.1,3.89,9.79,8.69,19.39,17,18.5s5.79-11,5.22-15.7S50.39,68,57.32,73s9.35,15.85-.48,18.53S42.13,101.57,51,110C56.68,115.35,69.74,117.87,82,119.09Z" transform="translate(-3.44 -2.66)"/>
  <path class="heart-path puzzle-2" d="M214.36,189.18c-5.69,7.09-13.14-.22-15.43,9-1.93,7.73.68,10.7,5.75,13.66-17.76,15.19-37.11,29-58.1,43.46,0,0-20.35-16.08-39.47-31.82a25.88,25.88,0,0,1,3.27-5.08c9-11,12.21-14.15,19.56.35s17.86,3.94,21,.17,3.49-18.93-11.19-17.13-11.17-13.14-3.6-18.94a166.92,166.92,0,0,1,23.38-14.38c8.66,15.06,18.44,26.11,26.1,23.46,7.87-2.72,4.36-8.73,5.09-15.19s6.87-8.32,13.72-6.94S220.06,182.09,214.36,189.18Z" transform="translate(-3.44 -2.66)"/>
  <path class="heart-path puzzle-3" d="M151,218.94c-3.17,3.77-13.68,14.35-21-.17s-10.54-11.33-19.56-.35a25.88,25.88,0,0,0-3.27,5.08c-10.58-8.71-20.77-17.31-26.94-23-10.48-9.72-28.86-25.77-45.65-48.15h0c-1.65-8,3.65-14.52,12.11-16,9.82-1.76,10.48,1.83,12.1,10.39s14.55,8.53,19.2-6.73A141.11,141.11,0,0,0,82,119.09c7.09.71,13.91,1,18.83,1.14,13.43.4,16.5,5.53,19.08,10.53s-4.59,11-8.72,10.91-12.22,1.76-5.74,15.59,17.56,7,21.1,3.28-4.3-13.82,5.25-18.86,18.16,9.76,27,25.48c.26.44.5.89.76,1.33a166.92,166.92,0,0,0-23.38,14.38c-7.57,5.8-11.1,20.73,3.6,18.94S154.15,215.18,151,218.94Z" transform="translate(-3.44 -2.66)"/>
  <path class="heart-path puzzle-4" d="M276,123.36c-.51,1.21-1,2.43-1.57,3.67-19.63,35.79-42.86,61.85-69.77,84.83-5.07-3-7.68-5.93-5.75-13.66,2.29-9.24,9.74-1.93,15.43-9s-3-18-9.89-19.36-13,.47-13.72,6.94,2.78,12.47-5.09,15.19c-7.66,2.65-17.44-8.4-26.1-23.46,2.82-1.43,5.56-2.74,8.12-3.83,10.42-4.44,22.7-14.68,17.85-22.68-8.56-11-17.75,4.61-22.26-8s3.62-18.32,13.1-19.81,6.36,9.56,11,13.58,11.25,3.61,15-9.78c2.17-7.69,3.62-19.47,4.86-29.53C217.86,91.7,227,94.12,227,94.12s16.17,2.17,18.17,9.45-3.61,10.24-11.92,12-4.81,14.69,1.95,19.18,20.11,2.26,18.92-6.92,1.09-18.26,12.53-12A50.33,50.33,0,0,1,276,123.36Z" transform="translate(-3.44 -2.66)"/>
  <path class="heart-path puzzle-5" d="M276,123.36a50.33,50.33,0,0,0-9.41-7.56c-11.44-6.27-13.71,2.82-12.53,12s-12.16,11.43-18.92,6.92-10.27-17.44-1.95-19.18,13.91-4.69,11.92-12S227,94.12,227,94.12s-9.1-2.42-19.66-5.69c.91-7.48,1.69-14,2.55-17.2,2-7.53,12.5-19.25,19.77-8.84,2.85,4.22.45,13.82,9.6,13.69,15.46-1.23,18-15.42,12.15-22.67s-9.52,1.81-16.69-3.86-2-13.9,8.49-21.11c4.1-2.81,9.72-6.43,15.47-10.06h0l1,.58C275.81,29.09,304.37,55.15,276,123.36Z" transform="translate(-3.44 -2.66)"/>
  <path class="heart-path puzzle-6" d="M251.37,53.41c5.84,7.25,3.31,21.44-12.15,22.67-9.15.13-6.75-9.47-9.6-13.69-7.27-10.41-17.75,1.31-19.77,8.84-.86,3.2-1.64,9.72-2.55,17.2-5.67-1.75-11.76-3.74-17.09-5.72-15.23-5.67-10-13-5.44-16.19s13.44.93,12-12.72-20.85-15.45-24.23-7.59,8.12,11.18-2.42,17.21S153.66,57.28,151.15,51c-1-2.5-5.78-10.57-5.78-10.57h0c36.44-59.12,95.53-32.79,113.3-22-5.75,3.63-11.37,7.25-15.47,10.06-10.53,7.21-15.67,15.42-8.49,21.11S245.53,46.17,251.37,53.41Z" transform="translate(-3.44 -2.66)"/>
  <path class="heart-path puzzle-7" d="M145.34,40.41h0l-.43.17-.39.15-.4.16c-2.85,1.12-9.53,3.76-15.67,6.62l-1.79.85-1.2.59-1.44.72c-.85.44-1.65.87-2.41,1.3-14.81,8.33-16.72,16.52-9.23,20.45,9.68,6,17-6.37,18.05,7.47.81,11.33-5.43,16.88-15.19,17.62S111.64,80.36,102,79.78c-7.92-.68-14,6.86-16.33,13.84-1.39,4.21-2.25,14.56-3.71,25.47C69.74,117.87,56.68,115.35,51,110c-8.91-8.44-4-15.84,5.8-18.5S64.25,78,57.32,73s-18.55.5-18,5.22S42.4,93,34.11,93.9,21,85.19,17.14,75.4C16,72.44,14.6,68.91,13,65.3a68.24,68.24,0,0,0-6-11c5.78-20.09,18.86-31.17,29.5-38.18C64.47,1.1,112-10.91,145.34,40.41Z" transform="translate(-3.44 -2.66)"/>
  <path class="heart-path puzzle-8" d="M207.3,88.43c-1.24,10.06-2.69,21.84-4.86,29.53-3.77,13.39-10.32,13.8-15,9.78s-1.57-15.06-11-13.58-17.6,7.19-13.1,19.81,13.7-2.95,22.26,8c4.85,8-7.43,18.24-17.85,22.68-2.56,1.09-5.3,2.4-8.12,3.83-.26-.44-.5-.89-.76-1.33-8.85-15.72-17.48-30.51-27-25.48s-1.72,15.17-5.25,18.86-14.62,10.54-21.1-3.28,1.62-15.63,5.74-15.59,11.28-5.91,8.72-10.91-5.65-10.13-19.08-10.53c-4.92-.15-11.74-.43-18.83-1.14,1.46-10.91,2.32-21.26,3.71-25.47C88,86.64,94.11,79.1,102,79.78c9.61.58,3.46,17.48,13.21,16.74s16-6.29,15.19-17.62c-1.08-13.84-8.37-1.44-18.05-7.47-7.49-3.93-5.58-12.12,9.23-20.45.76-.43,1.56-.86,2.41-1.3l1.44-.72,1.2-.59,1.79-.85c6.14-2.86,12.82-5.5,15.67-6.62l.4-.16.39-.15.43-.17h0s4.78,8.07,5.78,10.57c2.51,6.3,8.4,18.48,18.95,12.44s-1-9.35,2.42-17.21,22.79-6.06,24.23,7.59-7.43,9.5-12,12.72S175,77,190.21,82.71C195.54,84.69,201.63,86.68,207.3,88.43Z" transform="translate(-3.44 -2.66)"/>
</svg>