<svg 
  data-name="heart" 
  xmlns="http://www.w3.org/2000/svg" 
  viewBox="0 0 285.1 253.28">
  <defs>
    <style>
      .heart-path {
        fill: none;
        stroke:#fff200;
        stroke-miterlimit: 10;
      }
    </style>
  </defs>
  <title>Heart</title>
  <path class="heart-path puzzle-1" d="M44.17,85.46c-.59,5.86,2,8.46,7,8.21s6.61,4.6,6,8.37-3.94,8.29-11.14,8.46-6.53-5.11-5.94-9-3.94-8.38-8.38-6-6.46,6.09-8.37,9.63-5.1,12.18-7.2,18.16q-2.58-5-4.89-10.26a85.93,85.93,0,0,1-7-27.64c-2-26.23,5.5-43.17,15.17-54.58,7.86,4.81,11.84,7,13.58,8.55,2.54,2.2,7.62,5.58,4.57,11.67S30.49,55,27.28,55.36s-4.57,2.2-4.4,6.77S26.1,71.44,33,72s6.6-3.73,7.11-7.79,5.08-8.46,11.51-3.72c4.48,3.3,6.66,10.14,8,16.5-.36,0-.72.11-1.07.19C55.17,77.87,44.66,80.55,44.17,85.46Z" transform="translate(-3.44 -2.66)"/>
  <path class="heart-path puzzle-2" d="M107.22,38.48a32,32,0,0,1-3.19,8.3C102.84,49,96.25,59,89.05,58.5s-5.7-7.2-5.7-8.46-.17-5.35-5.94-5.94S69,47.28,67.53,49.37s-6,10.14,4.18,11.73,8.48,8,4.86,10.8c-4.65,3.43-13.41,4.68-16.25,5l-.71.08c-1.3-6.36-3.48-13.2-8-16.5-6.43-4.74-11-.34-11.51,3.72S40,72.45,33,72s-10-5.25-10.15-9.82,1.18-6.43,4.4-6.77,7.28,1.7,10.32-4.4-2-9.47-4.57-11.67c-1.74-1.51-5.72-3.74-13.58-8.55a78.09,78.09,0,0,1,17-14.67,111,111,0,0,1,33-11.7c1.41,4.22,2.9,7.88,4.44,9.55,3,3.25,5.65,5.31,9.85,2s1.11-8.22,6.59-9.16,9.15,1.8,10.61,6.42.68,8.56-4.45,9.5-8.22-2.48-10.1,3.68,3.51,8.47,7.87,9.58C97.16,36.65,102.61,37.6,107.22,38.48Z" transform="translate(-3.44 -2.66)"/>
  <path class="heart-path puzzle-3" d="M119.26,13.51l-.24,0c-11.13,1.34-9.54,6.78-10.3,16.74a78,78,0,0,1-1.5,8.2c-4.61-.88-10.06-1.83-12.93-2.57-4.36-1.11-9.75-3.42-7.87-9.58s5-2.74,10.1-3.68,5.9-4.88,4.45-9.5S95.83,5.79,90.36,6.73s-2.4,5.82-6.59,9.16-6.85,1.28-9.85-2c-1.54-1.67-3-5.33-4.44-9.55C85.42,1.63,102.9,3.1,119.26,13.51Z" transform="translate(-3.44 -2.66)"/>
  <path class="heart-path puzzle-4" d="M99.42,125.24a99.73,99.73,0,0,1-6.08,13.91c-5.62,9.93-14.65,7.93-14.45,1.71s.3-8.84-6.83-9.14S59.72,136.54,61.43,144s6.42,1.6,11.84,5.92,3.11,7.32-3.41,11.94c-3.18,2.25-10.86,5.69-19.74,9.26C38.38,158.21,26,142.26,16.2,123.22c2.1-6,5.41-14.72,7.2-18.16s3.93-7.29,8.37-9.63,9,2.09,8.38,6-1.26,9.21,5.94,9,10.55-4.69,11.14-8.46-1-8.62-6-8.37-7.62-2.35-7-8.21c.49-4.91,11-7.59,14.37-8.33.35-.08.71-.14,1.07-.19.58,2.77,1,5.45,1.34,7.7,1.19,7.44,3,14.89,9,15.56S75.67,93.44,76,90.05s9.31-5.41,13.37-.84,4.06,12.52-3.22,12.86-11.84,4.73-6.93,12C82.33,118.69,91.06,122.48,99.42,125.24Z" transform="translate(-3.44 -2.66)"/>
  <path class="heart-path puzzle-5" d="M132,205.69c-2.8,2.14-11.79,7.89-14.66-3.39s-5.59-9.55-13.6-3.29c-4.15,3.24-6.52,7.94-8.84,14.35-5.85-4.94-11-9.45-14.76-12.9-7.27-6.75-18.34-16.53-30.05-29.37,8.88-3.57,16.56-7,19.74-9.26,6.52-4.62,8.83-7.63,3.41-11.94s-10.14,1.5-11.84-5.92,3.51-12.55,10.63-12.25,7,2.91,6.83,9.14,8.83,8.22,14.45-1.71a99.73,99.73,0,0,0,6.08-13.91c4.84,1.6,9.56,2.86,13,3.73,9.31,2.37,10.66,6.43,11.68,10.32s-4.91,6.94-7.79,6.26-8.8-.67-6.43,10,11.17,7.61,14.22,5.58-.85-10.32,6.6-12.35,11.16,9.64,14.89,22c.11.35.21.7.32,1.05a119.6,119.6,0,0,0-18.56,6.4c-6.19,2.87-11,12.74-.44,13.78S134.83,203.56,132,205.69Z" transform="translate(-3.44 -2.66)"/>
  <path class="heart-path puzzle-6" d="M282.67,44.7c-.75,4.57-2.14,9.57-4.74,12.88C272,65.1,268,61.27,267.54,55.22s-3.38-8.4-9.57-7.51S246.84,57.29,251,62s9.36-.22,12.3,6-1.62,6.33-7.07,8.17c-2.87,1-8.75,3-14.91,5.18-2.78-6-2.68-10.32-6.58-16.5-5.64-8.75-11.81-10.26-13.41-.15-.62,7.88-4,10.92-10,8a12.87,12.87,0,0,1-7.11-9.79c-.84-6.46,4.17-6.35,8-6.53,4.79-.23,9-5.19,4.18-10.44A20.84,20.84,0,0,0,203,39.47a53.94,53.94,0,0,0-6.12-.37,16.61,16.61,0,0,0,1.5-4.31c.61-3.92,4-16.66,7.53-19.27s6.83-6,11.74-3.31-3.51,11.34,6.12,14.15,12.75-7.13,12.45-10.54-2.51-5.42-7.73-5.52c-3.23-.06-5.76-2.57-7.08-5.86A111.53,111.53,0,0,1,259.6,19C266.9,23.52,276.69,31.3,282.67,44.7Z" transform="translate(-3.44 -2.66)"/>
  <path class="heart-path puzzle-7" d="M179.92,27.87a14.28,14.28,0,0,1,5.51-2.79c3.43-.76,4.9-.44,6.51-3.32s0-6-1.4-8.41c-.8-1.4-3.51-3.85-7-6.16,12.92-4.71,26.09-4.79,37.93-2.75,1.32,3.29,3.85,5.8,7.08,5.86,5.22.1,7.43,2.11,7.73,5.52s-2.81,13.35-12.45,10.54-1.2-11.44-6.12-14.15-8.23.7-11.74,3.31S199,30.87,198.4,34.79a16.61,16.61,0,0,1-1.5,4.31c-4.28-.14-9.5-.25-11.85-.62a11.7,11.7,0,0,1-4.57-1.79A5.54,5.54,0,0,1,179.92,27.87Z" transform="translate(-3.44 -2.66)"/>
  <path class="heart-path puzzle-8" d="M280.79,110.74a11.42,11.42,0,0,1-9.16-2.2c-7-5.79-2.49-11.07-1.05-11.82,2.51-1.76,8.53-1.27,9.05-5.31.91-6.1-4.19-9.6-5.41-10.36s-13.63-4.27-12.79,7-7.54,9.59-10.28,7.08-3.49-3.61-6.55-8.07a39,39,0,0,1-3.24-5.67c6.16-2.19,12-4.21,14.91-5.18,5.45-1.84,10-1.91,7.07-8.17s-8.1-1.33-12.3-6,.74-13.41,6.93-14.29,9.13,1.47,9.57,7.51,4.5,9.88,10.39,2.36c2.6-3.31,4-8.31,4.74-12.88C289.14,59.17,291.16,80.18,280.79,110.74Z" transform="translate(-3.44 -2.66)"/>
  <path class="heart-path puzzle-9" d="M280.79,110.74c-1.75,5.15-3.85,10.58-6.34,16.29a290,290,0,0,1-31.53,46.47c-4.16-7.92-10-18.2-14.1-21.8-7-6.16-10-.17-10.61,6.42s-10.27,6.08-14.29,1.88-4.45-13.77,1.63-13.69,10.44-1.11,10.18-6.5-11.21-9.42-11.21-9.42-6-3.11-12.84-7a120.12,120.12,0,0,1,4.46-11.61c2.58-4.94,11.72-11.49,15.18-3.09,1.33,3.39-1.84,9.72,4.57,11,11,1.55,15-8,12-13.93s-6.93-.22-11.05-5.3.74-10,9.21-13.41c4-1.61,9.76-3.7,15.3-5.66a39,39,0,0,0,3.24,5.67c3.06,4.46,3.81,5.55,6.55,8.07s11.12,4.19,10.28-7.08,11.57-7.77,12.79-7,6.32,4.26,5.41,10.36c-.52,4-6.54,3.55-9.05,5.31-1.44.75-5.95,6,1.05,11.82A11.42,11.42,0,0,0,280.79,110.74Z" transform="translate(-3.44 -2.66)"/>
  <path class="heart-path puzzle-10" d="M242.92,173.5c-15.59,18.72-32.82,34.52-51.73,49.43a134.64,134.64,0,0,1-18.56-12.06c-4.4-3.73-6.94-6.09-3.89-12.19s7.1.17,12.18-3.89.68-13-3.89-15.06-9.14-1.69-10.66,2.71,0,9.14-5.92,9.81c-5.76.66-10.87-8.58-14.57-20.44,2.19-.56,4.31-1.05,6.27-1.41,8-1.48,18.13-6.71,16-13.05-4.27-9-13.11.45-14.29-9.06s5.38-12.23,12.23-11.79,2.95,7.66,5.6,11.2,7.29,4.27,12-4.49c2.71-5,5.56-13,8-19.86,6.86,3.93,12.84,7,12.84,7s10.95,4,11.21,9.42-4.11,6.59-10.18,6.5-5.65,9.5-1.63,13.69,13.69,4.71,14.29-1.88,3.6-12.58,10.61-6.42C232.92,155.3,238.76,165.58,242.92,173.5Z" transform="translate(-3.44 -2.66)"/>
  <path class="heart-path puzzle-11" d="M191.19,222.93c-14,11-28.82,21.54-44.61,32.39,0,0-30.26-23.91-51.65-42,2.32-6.41,4.69-11.11,8.84-14.35,8-6.26,10.73-8,13.6,3.29s11.86,5.53,14.66,3.39,5.38-12.67-5.15-13.7-5.75-10.91.44-13.78a119.6,119.6,0,0,1,18.56-6.4c3.7,11.86,8.81,21.1,14.57,20.44,5.92-.67,4.4-5.41,5.92-9.81s6.09-4.74,10.66-2.71,9,11,3.89,15.06-9.14-2.2-12.18,3.89-.51,8.46,3.89,12.19A134.64,134.64,0,0,0,191.19,222.93Z" transform="translate(-3.44 -2.66)"/>
  <path class="heart-path puzzle-12" d="M227.9,105.77c2.95,6-1,15.48-12,13.93-6.41-1.33-3.24-7.66-4.57-11-3.46-8.4-12.6-1.85-15.18,3.09a120.12,120.12,0,0,0-4.46,11.61c-3.69-2.1-7.63-4.44-11-6.65-9.75-6.33-5-10.61-1.28-12.15s9.24,2.74,10.35-7-12.15-14-15.74-9.07,3.93,9.07-4.37,11.64-10.52-6.85-11.29-11.64a50.53,50.53,0,0,0-2.56-8.9,35,35,0,0,0,9.74-3.43c6.12-3.61,6.32-4.52,5.82-9.83s-7-4.92-10.64-5.42-6.12-13,5.52-16.36,7.73,7,8.53,10.64,8.33,8.73,13.55-.61c3.63-6.48,6.81-11.61,8.63-15.45a53.94,53.94,0,0,1,6.12.37,20.84,20.84,0,0,1,13.4,6.47c4.87,5.25.61,10.21-4.18,10.44-3.84.18-8.85.07-8,6.53a12.87,12.87,0,0,0,7.11,9.79c6,3,9.41-.07,10-8,1.6-10.11,7.77-8.6,13.41.15,3.9,6.18,3.8,10.49,6.58,16.5-5.54,2-11.29,4-15.3,5.66-8.47,3.39-13.34,8.32-9.21,13.41S225,99.8,227.9,105.77Z" transform="translate(-3.44 -2.66)"/>
  <path class="heart-path puzzle-13" d="M139.5,104.73c-1.2,8-6.42,10.94-13.35,9.93s0-11.84-6.62-13.74c-5.42-1.71-10.84,2.61-13.55,7.12-1.63,2.72-3.84,9.81-6.56,17.2-8.36-2.76-17.09-6.55-20.19-11.16-4.91-7.28-.34-11.68,6.93-12s7.28-8.3,3.22-12.86-13-2.54-13.37.84-.17,10.83-6.09,10.15-7.78-8.12-9-15.56c-.36-2.25-.76-4.93-1.34-7.7l.71-.08c2.84-.28,11.6-1.53,16.25-5,3.62-2.8,5.36-9.21-4.86-10.8S66,51.47,67.53,49.37s4.1-5.86,9.88-5.27,5.94,4.69,5.94,5.94-1.51,8,5.7,8.46S102.84,49,104,46.78a32,32,0,0,0,3.19-8.3c2.42.46,4.6.91,6.07,1.29,4.28,1.11,12.24,4.62,14.89,8s.52,7.19-4.11,8.39-5.13-3.08-9.07.51-1.37,16.52,8.82,15.83,2.91-6.5,7.78-10.78,9.25-3.85,15.67,3.08c3.72,4,6.58,9.72,8.48,14.72-5.2,1.22-11.36,2.27-18.06,4.3-11.64,3.51-14.25,8.93-9.63,12.84C133.88,102.42,140.9,94.9,139.5,104.73Z" transform="translate(-3.44 -2.66)"/>
  <path class="heart-path puzzle-14" d="M196.9,39.1c-1.82,3.84-5,9-8.63,15.45-5.22,9.34-12.74,4.22-13.55.61s3.11-14-8.53-10.64-9.13,15.85-5.52,16.36,10.14.1,10.64,5.42.3,6.22-5.82,9.83a35,35,0,0,1-9.74,3.43c-1.9-5-4.76-10.7-8.48-14.72-6.42-6.93-10.79-7.36-15.67-3.08s2.4,10.1-7.78,10.78S111.07,60.3,115,56.71s4.45.68,9.07-.51,6.76-5,4.11-8.39-10.61-6.93-14.89-8c-1.47-.38-3.65-.83-6.07-1.29a78,78,0,0,0,1.5-8.2c.76-10-.83-15.4,10.3-16.74l.24,0c9.2,5.86,18,14.54,26.08,26.9,11.2-18.17,24.54-28.26,38.16-33.22,3.53,2.31,6.24,4.76,7,6.16,1.4,2.46,3,5.53,1.4,8.41s-3.08,2.56-6.51,3.32a14.28,14.28,0,0,0-5.51,2.79,5.54,5.54,0,0,0,.56,8.82,11.7,11.7,0,0,0,4.57,1.79C187.4,38.85,192.62,39,196.9,39.1Z" transform="translate(-3.44 -2.66)"/>
  <path class="heart-path puzzle-15" d="M191.68,123.35c-2.43,6.83-5.28,14.83-8,19.86-4.72,8.76-9.36,8-12,4.49s1.25-10.76-5.6-11.2-13.41,2.28-12.23,11.79,10,.07,14.29,9.06c2.14,6.34-8,11.57-16,13.05-2,.36-4.08.85-6.27,1.41-.11-.35-.21-.7-.32-1.05-3.73-12.35-7.45-24-14.89-22s-3.56,10.32-6.6,12.35-11.85,5.08-14.22-5.58,3.56-10.66,6.43-10,8.8-2.37,7.79-6.26-2.37-7.95-11.68-10.32c-3.41-.87-8.13-2.13-13-3.73,2.72-7.39,4.93-14.48,6.56-17.2,2.71-4.51,8.13-8.83,13.55-7.12,6.62,1.9-.3,12.74,6.62,13.74s12.15-1.9,13.35-9.93c1.4-9.83-5.62-2.31-11.44-8-4.62-3.91-2-9.33,9.63-12.84,6.7-2,12.86-3.08,18.06-4.3a50.53,50.53,0,0,1,2.56,8.9c.77,4.79,3,14.21,11.29,11.64s.77-6.68,4.37-11.64,16.86-.68,15.74,9.07-6.67,5.48-10.35,7-8.47,5.82,1.28,12.15C184.05,118.91,188,121.25,191.68,123.35Z" transform="translate(-3.44 -2.66)"/>
</svg>