<?xml version="1.0" encoding="iso-8859-1"?>
<!-- Generator: Adobe Illustrator 19.0.0, SVG Export Plug-In . SVG Version: 6.00 Build 0)  -->
<svg version="1.1" id="Capa_1" xmlns="http://www.w3.org/2000/svg" xmlns:xlink="http://www.w3.org/1999/xlink" x="0px" y="0px"
	 viewBox="0 0 512.018 512.018" style="enable-background:new 0 0 512.018 512.018;" xml:space="preserve">
<g transform="translate(0 -1)">
	<g transform="translate(1)">

		

		<path style="fill:#C52828;" d="M422.356,198.992c-7.47-33.848-23.817-65.098-47.36-90.539
			c-5.558,5.667-10.271,12.105-13.995,19.115c-6.449-2.896-12.296-6.977-17.237-12.032c-5.036-5.004-9.088-10.909-11.947-17.408
			c5.697-3.122,11.046-6.841,15.957-11.093c-52.421-35.127-120.203-37.573-175.019-6.315c-4.011,2.219-7.936,4.608-11.691,7.168
			c4.604,3.928,9.61,7.36,14.933,10.24c-5.835,13.058-16.245,23.53-29.269,29.44c-3.464-6.486-7.737-12.508-12.715-17.92
			l-0.085,0.085c-22.922,25.221-38.864,55.988-46.251,89.259c-2.153,10.388-3.268,20.965-3.328,31.573
			c0,3.157,0.085,6.315,0.341,9.472c4.16,49.676,32.411,94.156,75.605,119.04c9.82,5.973,20.229,10.92,31.061,14.763
			c29.938,10.894,62.177,13.892,93.611,8.704c11.496-1.781,22.786-4.696,33.707-8.704c10.833-3.843,21.241-8.79,31.061-14.763
			c43.195-24.884,71.445-69.364,75.605-119.04c0.256-3.157,0.341-6.315,0.341-9.472
			C425.632,219.956,424.517,209.379,422.356,198.992z M255.017,256.421c-42.415,0-76.8-34.385-76.8-76.8s34.385-76.8,76.8-76.8
			s76.8,34.385,76.8,76.8C331.813,222.035,297.431,256.418,255.017,256.421z"/>
			<path style="fill:#F44335;" d="M383.017,231.418c0.891,65.569-37.808,125.217-98.048,151.125
			c-31.433,5.188-63.673,2.19-93.611-8.704c-10.833-3.843-21.241-8.79-31.061-14.763c-43.195-24.884-71.445-69.364-75.605-119.04
			c-0.256-3.157-0.341-6.315-0.341-9.472c0.06-10.609,1.175-21.185,3.328-31.573c7.386-33.271,23.329-64.038,46.251-89.259
			l0.085-0.085c4.978,5.412,9.25,11.434,12.715,17.92c13.024-5.91,23.435-16.382,29.269-29.44
			c-5.323-2.88-10.329-6.312-14.933-10.24c3.755-2.56,7.68-4.949,11.691-7.168c17.927-7.58,37.198-11.469,56.661-11.435
			C314.238,69.285,383.017,141.904,383.017,231.418z"/>
			
				<path style="fill:#ECF0F1;" d="M 255.017 102.821 c -42.415 0 -76.8 34.385 -76.8 76.8 s 34.385 76.8 76.8 76.8 s 76.8 -34.385 76.8 -76.8 C 331.814 137.207 297.431 102.824 255.017 102.821 z z"/>
		
			<g>
				<path id="right-eye" style="fill:#2C2F38;" d="M289.15,179.621c-0.141,18.818-15.485,33.973-34.303,33.879
				c-18.818-0.094-34.011-15.4-33.964-34.219c0.047-18.819,15.316-34.049,34.134-34.049c9.09,0.022,17.799,3.66,24.203,10.112
				C285.623,161.796,289.197,170.531,289.15,179.621z"/>

				<path id="left-eye" d="M256.017,222.489c17.369,0.092,33.08-10.3,39.791-26.321c6.711-16.021,3.098-34.508-9.151-46.823
					c-12.249-12.315-30.716-16.027-46.773-9.402s-26.533,22.28-26.533,39.649C213.314,203.21,232.401,222.399,256.017,222.489z
					M256.017,153.768c10.467-0.092,19.955,6.142,24.024,15.786s1.916,20.791-5.453,28.224c-7.369,7.434-18.496,9.685-28.176,5.7
					c-9.679-3.985-15.996-13.418-15.995-23.885C230.37,165.399,241.823,153.846,256.017,153.768z"/>
			</g>
		<g>	
			<path style="fill:#C52828;" d="M409.385,89.509c-3.614,0.696-7.156,1.725-10.581,3.072c-8.987,3.513-17.108,8.928-23.808,15.872
				c-5.558,5.667-10.271,12.105-13.995,19.115c-6.449-2.896-12.296-6.977-17.237-12.032c-5.036-5.004-9.088-10.909-11.947-17.408
				c5.697-3.122,11.046-6.841,15.957-11.093c8.359-7.292,14.805-16.521,18.773-26.88c1.348-3.425,2.376-6.967,3.072-10.581
				c4.003,8.745,9.553,16.695,16.384,23.467C392.704,79.937,400.634,85.523,409.385,89.509z"/>
			<path style="fill:#C52828;" d="M195.284,484.773c0,10.923-22.955,19.712-51.2,19.712s-51.2-8.789-51.2-19.712
				c0-10.837,22.955-43.264,51.2-43.264c2.462,0.011,4.917,0.24,7.339,0.683c20.102,5.507,36.309,20.38,43.52,39.936
				C195.171,482.991,195.286,483.88,195.284,484.773z"/>
			<path style="fill:#C52828;" d="M194.942,482.128c-7.211-19.556-23.418-34.429-43.52-39.936l-5.632-22.613
				c-1.54-6.318-1.274-12.941,0.768-19.115l13.739-41.387c9.82,5.973,20.229,10.92,31.061,14.763L178.9,411.301l15.872,63.403
				C195.381,477.135,195.439,479.671,194.942,482.128z"/>
			<path style="fill:#C52828;" d="M417.15,484.773c0,10.923-22.955,19.712-51.2,19.712c-28.245,0-51.2-8.789-51.2-19.712
				c-0.002-0.893,0.113-1.782,0.341-2.645c7.211-19.556,23.418-34.429,43.52-39.936c2.421-0.443,4.877-0.671,7.339-0.683
				C394.196,441.509,417.15,473.936,417.15,484.773z"/>
			<path style="fill:#C52828;" d="M364.244,419.578l-5.632,22.613c-20.102,5.507-36.309,20.38-43.52,39.936
				c-0.497-2.457-0.438-4.993,0.171-7.424l15.872-63.403l-12.459-37.461c10.833-3.843,21.241-8.79,31.061-14.763l13.739,41.387
				C365.517,406.638,365.784,413.261,364.244,419.578z"/>
			<path style="fill:#C52828;" d="M80.681,317.861c9.829,14.736,5.901,34.646-8.789,44.544c-15.912,7.7-35.057,1.154-42.923-14.677
				c-2.323-4.063-3.885-8.517-4.608-13.141c-0.524-1.456-0.84-2.978-0.939-4.523l-4.181-80.896
				c-0.367-6.385,2.903-12.429,8.448-15.616l59.989-34.56c-2.153,10.388-3.268,20.965-3.328,31.573c0,3.157,0.085,6.315,0.341,9.472
				l-30.805,17.834l2.219,42.24C66.535,302.066,75.547,308.575,80.681,317.861z"/>
			<path style="fill:#C52828;" d="M175.998,98.128c-5.835,13.058-16.245,23.53-29.269,29.44c-3.464-6.486-7.737-12.508-12.715-17.92
				c-6.918-7.528-15.472-13.367-25.003-17.067c-3.425-1.348-6.967-2.376-10.581-3.072c8.721-4.038,16.642-9.617,23.381-16.469
				c6.773-6.736,12.292-14.624,16.299-23.296c0.738,3.548,1.765,7.03,3.072,10.411c4.222,10.73,11.022,20.254,19.797,27.733h0.085
				C165.669,91.816,170.675,95.248,175.998,98.128z"/>
		</g>
		
		<path style="fill:#C52828;" d="M490.793,249.168l-4.181,80.896c-0.098,1.544-0.414,3.067-0.939,4.523
			c-0.723,4.624-2.285,9.078-4.608,13.141c-4.453,10.859-14.806,18.145-26.532,18.669c-11.725,0.525-22.688-5.807-28.093-16.225
			c-5.405-10.418-4.268-23.027,2.912-32.311c5.134-9.286,14.146-15.795,24.576-17.749l2.219-42.24l-30.805-17.835
			c0.256-3.157,0.341-6.315,0.341-9.472c-0.052-10.609-1.166-21.187-3.328-31.573l59.989,34.56
			C487.89,236.738,491.16,242.783,490.793,249.168z"/>
		<g>
			<path style="fill:#2C2F38;" d="M297.684,299.685H212.35c-4.713,0-8.533-3.82-8.533-8.533s3.821-8.533,8.533-8.533h85.333
				c4.713,0,8.533,3.82,8.533,8.533S302.397,299.685,297.684,299.685z"/>
			<path style="fill:#2C2F38;" d="M263.55,333.818h-17.067c-4.713,0-8.533-3.821-8.533-8.533s3.821-8.533,8.533-8.533h17.067
				c4.713,0,8.533,3.82,8.533,8.533S268.263,333.818,263.55,333.818z"/>
		</g>
		<g>
				<ellipse transform="matrix(-0.7118 -0.7024 0.7024 -0.7118 135.9963 159.2888)" style="fill:#F57C00;" cx="100.676" cy="51.745" rx="29.961" ry="51.371"/>
			
				<ellipse transform="matrix(-0.7024 -0.7118 0.7118 -0.7024 656.2221 377.9434)" style="fill:#F57C00;" cx="407.128" cy="51.775" rx="51.371" ry="29.961"/>
		</g>
	</g>
	<g>
		<path d="M256.017,264.931c34.515,0.001,65.632-20.79,78.841-52.677c13.209-31.887,5.909-68.592-18.496-92.998
			c-24.405-24.406-61.109-31.708-92.997-18.501s-52.68,44.323-52.681,78.838C170.736,226.701,208.91,264.877,256.017,264.931z
			 M256.017,111.327c27.613-0.001,52.507,16.632,63.074,42.142c10.567,25.51,4.727,54.875-14.798,74.4
			c-19.525,19.525-48.889,25.366-74.4,14.798c-25.51-10.567-42.143-35.461-42.142-63.074
			C187.793,141.909,218.332,111.37,256.017,111.327z"/>
		
		<path d="M17.317,337.427l0.002,0.003c0.937,5.113,2.715,10.036,5.261,14.568c7.477,13.504,21.541,22.042,36.971,22.446
			c6.176,0.026,12.249-1.576,17.608-4.646c9.184-5.374,15.553-14.501,17.429-24.975c2.004-10.735,0.042-21.832-5.521-31.229
			c-5.303-9.288-13.721-16.4-23.764-20.079l-1.619-30.875l15.175-8.788c7.729,44.778,33.988,84.218,72.319,108.622l-11.722,35.324
			c-2.539,7.702-2.865,15.963-0.941,23.841l2.873,11.543c-32.032,2.544-56.036,37.13-56.036,51.611
			c0,19.392,30.963,28.225,59.733,28.225s59.733-8.833,59.733-28.225c-0.012-1.055-0.119-2.106-0.319-3.142
			c0.378-3.01,0.227-6.063-0.447-9.02l-15.271-60.992l9.009-27.093c37.89,12.007,78.566,12.007,116.456,0l9.009,27.093
			l-15.304,61.129c-0.654,2.917-0.795,5.925-0.416,8.89c-0.2,1.034-0.306,2.083-0.317,3.135c0,19.392,30.963,28.225,59.733,28.225
			c28.771,0,59.733-8.833,59.733-28.225c0-14.482-24.003-49.067-56.034-51.611l2.884-11.584c1.913-7.874,1.581-16.126-0.958-23.821
			l-11.718-35.303c38.327-24.402,64.584-63.839,72.316-108.612l15.16,8.778l-1.623,30.875c-20.862,7.797-33.18,29.381-29.281,51.308
			c1.878,10.479,8.252,19.609,17.442,24.983c5.352,3.067,11.419,4.668,17.587,4.642c15.445-0.412,29.519-8.967,36.997-22.487
			c2.536-4.525,4.309-9.437,5.247-14.539c0.797-2.226,1.272-4.555,1.411-6.916l4.183-80.883c0.574-9.604-4.354-18.701-12.712-23.467
			l-56.821-32.735c-7.432-31-22.121-59.792-42.856-84.006c4.512-3.716,9.567-6.718,14.99-8.902c2.246-0.81,4.54-1.481,6.869-2.009
			c6.039,2.499,12.492,3.848,19.027,3.977c8.02,0.283,15.811-2.704,21.588-8.275c15.187-15.292,8.562-45.921-15.083-69.729
			C422.931,10.832,405.81,2.438,387.45,1.018c-8.02-0.283-15.811,2.704-21.587,8.275c-9.409,9.471-10.431,24.827-4.241,40.8
			c-0.53,2.376-1.208,4.717-2.03,7.008c-2.731,7.124-6.836,13.641-12.08,19.182C290.953,41.346,219.434,41.666,163.19,77.11
			c-5.665-5.715-10.093-12.536-13.006-20.037c-0.814-2.283-1.488-4.615-2.016-6.981c6.191-15.972,5.171-31.328-4.238-40.798
			c-5.778-5.571-13.57-8.557-21.592-8.275c-18.359,1.42-35.478,9.813-47.842,23.458C50.85,48.285,44.225,78.914,59.413,94.206
			c5.776,5.571,13.567,8.558,21.587,8.275c6.535-0.128,12.988-1.477,19.027-3.977c2.342,0.531,4.648,1.207,6.907,2.022
			c5.964,2.379,11.486,5.743,16.334,9.953c-20.269,23.984-34.642,52.38-41.966,82.915l-56.834,32.741
			c-8.373,4.759-13.315,13.861-12.746,23.475l4.179,80.937C16.046,332.896,16.523,335.212,17.317,337.427z M145.084,495.952
			c-27.113,0-41.712-8.208-42.667-11.146c0.217-6.821,19.775-34.804,42.667-34.804c21.868,0,40.648,25.492,42.474,33.72l0.001,0.004
			c0.085,0.319,0.147,0.644,0.188,0.972C186.571,487.868,171.988,495.952,145.084,495.952z M171.621,413.373l8.212,32.802
			c-6.051-4.873-12.951-8.583-20.352-10.944l-4.397-17.674c-1.158-4.761-0.959-9.751,0.575-14.404l10.544-31.767
			c5.035,2.667,10.216,5.11,15.544,7.33l-9.942,29.896C171.293,410.148,171.229,411.8,171.621,413.373z M409.638,484.623
			c-0.975,3.121-15.575,11.329-42.688,11.329c-26.904,0-41.488-8.083-42.663-11.254c0.04-0.327,0.103-0.651,0.188-0.97l0.002-0.009
			c1.829-8.23,20.608-33.718,42.473-33.718C389.842,450.002,409.4,477.985,409.638,484.623z M356.371,403.131
			c1.534,4.646,1.739,9.627,0.592,14.383l-4.409,17.716c-7.401,2.361-14.301,6.071-20.352,10.944l8.211-32.802
			c0.392-1.573,0.329-3.225-0.183-4.762l-9.942-29.896c5.33-2.219,10.511-4.663,15.544-7.33L356.371,403.131z M479.105,240.968
			c2.747,1.585,4.356,4.593,4.15,7.758l-4.183,80.875c-0.054,0.732-0.209,1.453-0.462,2.142c-0.093,0.263-0.046,0.529-0.112,0.794
			c-0.066,0.264-0.233,0.475-0.276,0.748c-0.563,3.578-1.77,7.024-3.563,10.171c-5.555,11.705-19.437,16.838-31.271,11.563
			c-4.895-2.94-8.261-7.871-9.217-13.5c-1.199-6.68,0.062-13.569,3.55-19.392c3.859-7.056,10.651-12.035,18.542-13.592
			c0.291-0.091,0.577-0.198,0.856-0.321c0.575-0.148,1.132-0.357,1.662-0.624c0.443-0.231,0.864-0.501,1.257-0.809
			c1.724-1.33,2.868-3.275,3.193-5.428c0.08-0.261,0.146-0.525,0.198-0.793l2.221-42.238c0.171-3.202-1.47-6.229-4.246-7.834
			l-26.443-15.311c0.047-1.539,0.256-3.04,0.256-4.59c0-5.104-0.322-10.237-0.82-15.376L479.105,240.968z M377.971,21.318
			c2.593-2.314,6.012-3.481,9.479-3.233c13.783,1.5,26.518,8.063,35.738,18.417C441,54.439,445.434,74.968,438.271,82.181
			c-2.593,2.314-6.012,3.481-9.479,3.233c-13.784-1.5-26.519-8.065-35.738-18.421C375.242,49.06,370.809,28.531,377.971,21.318z
			 M372.745,69.62c2.527,3.307,5.267,6.447,8.202,9.398c2.991,2.986,6.177,5.769,9.537,8.332c-7.45,3.724-14.232,8.656-20.07,14.597
			c-0.085,0.072-0.194,0.091-0.276,0.167c-0.132,0.121-0.18,0.289-0.303,0.416c-4.051,4.153-7.69,8.688-10.865,13.544
			c-5.966-3.793-11.003-8.88-14.736-14.883C356.406,93.425,366.256,82.518,372.745,69.62z M256.017,67.368
			c27.066,0.12,53.659,7.109,77.286,20.314c-1.552,0.989-2.938,2.076-4.607,2.995c-0.359,0.257-0.697,0.543-1.009,0.856
			c-0.454,0.314-0.876,0.671-1.26,1.068c-0.342,0.43-0.639,0.894-0.887,1.383c-0.629,0.887-0.987,1.938-1.031,3.025
			c-0.101,0.528-0.149,1.064-0.144,1.602c0.061,0.575,0.181,1.143,0.358,1.694c0.055,0.415,0.142,0.825,0.26,1.227
			c0.102,0.236,0.24,0.466,0.346,0.702l0.012,0.04l0.021,0.028c6.625,14.423,18.162,26.021,32.55,32.722l0.03,0.024l0.092,0.036
			c0.192,0.087,0.379,0.201,0.571,0.285c0.113,0.049,0.232,0.029,0.346,0.073c0.961,0.396,1.986,0.613,3.025,0.639l0.042,0.009
			c0.135,0,0.263-0.051,0.398-0.058c1.771,0.014,3.484-0.631,4.806-1.809c0.678-0.452,1.247-1.047,1.669-1.743
			c0.227-0.269,0.436-0.552,0.627-0.848c1.895-3.471,4.033-6.804,6.399-9.972c26.024,30.47,40.917,68.882,42.234,108.931
			c0,80.446-72.733,145.896-162.133,145.896S93.884,311.035,93.884,230.589c1.283-39.366,15.715-77.169,40.992-107.375
			c1.966,2.695,3.769,5.506,5.4,8.417c0.188,0.291,0.394,0.57,0.617,0.835c0.188,0.29,0.394,0.569,0.616,0.834
			c0.325,0.334,0.677,0.64,1.054,0.915c0.243,0.212,0.499,0.411,0.765,0.594c1.213,0.769,2.614,1.192,4.051,1.222
			c0.135,0.006,0.262,0.058,0.398,0.058l0.042-0.009c1.037-0.026,2.061-0.242,3.021-0.637c0.117-0.045,0.239-0.024,0.355-0.075
			c0.196-0.086,0.386-0.203,0.582-0.291l0.076-0.03l0.024-0.021c14.389-6.702,25.928-18.301,32.554-32.725l0.021-0.029l0.013-0.041
			c0.105-0.235,0.244-0.465,0.346-0.701c0.118-0.402,0.205-0.812,0.26-1.227c0.178-0.551,0.298-1.118,0.358-1.694
			c0.005-0.537-0.043-1.074-0.144-1.602c-0.044-1.087-0.402-2.138-1.031-3.025c-0.249-0.49-0.546-0.953-0.887-1.383
			c-0.384-0.397-0.806-0.754-1.26-1.068c-0.312-0.313-0.65-0.599-1.009-0.856c-1.291-0.712-2.343-1.565-3.565-2.318
			C201.447,74.715,228.483,67.484,256.017,67.368z M71.521,82.181c-7.163-7.213-2.729-27.742,15.084-45.679
			c9.218-10.353,21.952-16.916,35.733-18.417c3.468-0.247,6.889,0.919,9.483,3.233c7.163,7.212,2.729,27.742-15.088,45.675
			C107.517,77.35,94.783,83.915,81,85.414C77.534,85.662,74.114,84.495,71.521,82.181z M128.842,79.018
			c2.936-2.953,5.676-6.093,8.204-9.402c4.615,9.271,11.051,17.517,18.923,24.246c0.305,0.3,0.632,0.576,0.979,0.826
			c2.741,2.334,5.616,4.506,8.61,6.504c-3.74,5.998-8.775,11.083-14.737,14.881c-7.712-12.249-18.603-22.177-31.512-28.726
			C122.668,84.786,125.853,82.003,128.842,79.018z M32.946,240.948l44.683-25.74c-0.5,5.142-0.812,10.278-0.812,15.382
			c0,1.545,0.208,3.043,0.255,4.579l-26.459,15.321c-2.775,1.603-4.416,4.629-4.246,7.829l2.217,42.238
			c0.052,0.268,0.119,0.533,0.198,0.794c0.231,1.589,0.915,3.077,1.97,4.286c0.368,0.423,0.779,0.807,1.224,1.147
			c0.392,0.306,0.811,0.576,1.252,0.806c0.532,0.268,1.09,0.478,1.667,0.625c0.279,0.123,0.564,0.23,0.855,0.32
			c7.891,1.557,14.684,6.538,18.542,13.596c3.491,5.82,4.752,12.708,3.55,19.388c-0.949,5.625-4.312,10.553-9.204,13.487
			c-11.818,5.296-25.702,0.183-31.262-11.513c-1.8-3.156-3.013-6.611-3.579-10.2c-0.079-0.254-0.17-0.503-0.274-0.747
			c-0.024-0.269-0.062-0.537-0.113-0.803c-0.251-0.683-0.408-1.396-0.467-2.121l-4.179-80.908
			C28.56,245.539,30.183,242.525,32.946,240.948z"/>
		<path d="M298.684,282.618H213.35c-4.713,0-8.533,3.82-8.533,8.533s3.821,8.533,8.533,8.533h85.333c4.713,0,8.533-3.82,8.533-8.533
			S303.397,282.618,298.684,282.618z"/>
		<path d="M264.55,316.752h-17.067c-4.713,0-8.533,3.82-8.533,8.533s3.821,8.533,8.533,8.533h17.067
			c4.713,0,8.533-3.821,8.533-8.533S269.263,316.752,264.55,316.752z"/>
	</g>
</g>
</svg>
